<svg xmlns:xlink="http://www.w3.org/1999/xlink" xmlns="http://www.w3.org/2000/svg" x="0" y="0" viewBox="0 0 1141.6 821.8" focusable="false" aria-hidden="true" class="classes-experience-ifts49" width="1141.6"  height="821.8" ><g fill="#FFFFFF"><g fill="#FFFFFF"><path d="M509.5 406.4c.9-2.7 2.5-5.5 2.5-8.2 0-18.4-8.6-34-16.5-49.8-2.1-4.1-6.8-7.1-10.7-10.2-9.8-7.6-19.7-15.3-30-22.3-3.6-2.4-8.7-2.5-13-4.1-1.5-.5-3.6-2.1-3.6-3.3-1-14.1-1.8-28.2-2.2-42.3-.1-2.3 1.4-5 2.9-7 8.2-11.7 16.9-23.2 24.9-35 2.1-3.4 3.4-7.3 3.7-11.2 3.2-26.3 2.4-52.2-7.5-77.2-2.1-5.4-4.5-10.8-6.9-16-1.7-3.7-.9-6.1 2.9-7.5 8-2.9 15.8-6.2 24-8.3 2.4-.6 6.4 1.6 8.3 3.8 3 3.6 5.3 7.7 7.1 12 4.7 10.6 8.7 21.6 13.8 32.1 1.7 3.5 5.3 6.2 8.6 8.6 2 1.5 7.3-3.2 7.6-7 .3-3.1.1-6.3-.8-9.3-6.1-17.6-12.5-35.2-18.9-52.7-.9-2.6-1.4-4.2.9-6.5 19.2-19.9 42.6-29.7 70.3-28.4 21.2 1 39 10.4 55.2 23.4 2.3 2 4.2 4.3 5.8 6.8.5.8.2 2.5-.2 3.6-6.2 17.2-12.6 34.4-18.7 51.7-1.2 3.4-2.1 7.3-1.5 10.7.6 2.8 3.3 5.5 5.8 7.4.8.6 4.2-1.1 5.6-2.6 2.3-2.7 4.3-5.7 5.8-8.9 6.6-13.5 12.6-27.2 19.4-40.5 2.7-5.2 6.5-5.4 11.8-3.3 6 2.4 12.3 4 18.4 6.3 7.5 2.8 7.5 3.5 4.2 11-9.5 21-16.1 42.8-15 66.2.5 10.6 2.3 21.1 3.7 31.6.3 1.8 1 3.5 2 5 8.3 11.6 16.8 23.2 25.1 34.8 1.1 1.5 2.3 3.5 2.2 5.3-.5 14.6-1.2 29.2-2.2 43.8-.1 1.1-2.1 2.5-3.4 3-4.6 1.6-9.8 2.1-14 4.5-12.2 6.9-22.9 15.8-32.9 25.7-15.9 15.9-21.4 35.7-23.6 56.9-.2 2.3 1.9 4.9 3 7.4l2.1-.1c1.1-2.3 2.9-4.4 3.3-6.8 1.8-13.1 6.7-24.9 15.4-34.5 6.2-6.9 14.3-12.3 21.9-17.8 1.8-1.4 5.2-.4 7.7-1 6.4-1.7 12.8-3.3 18.9-5.7 6.5-2.6 14-2 16.5 2.9 1.3 2.7 1.7 5.7 1.4 8.6-1.3 10.4-2.2 21-5.2 31-2.1 6.9-7.5 12.7-11.3 19h-2c-1.6-3.4-3.9-6.7-4.8-10.3-1.7-6.7-2.3-7.4-8-4.1-7 4-14.3 7.6-20.6 12.6-9.1 7.1-11.8 24-6.3 33.4 4.2 7.3 18.1 13.2 28.2 11.3 3.7-.7 5 .6 7 3.4 6 8.4 7 17.6 5.7 27.5-.8 5.7-3.1 9.8-8.9 12.1a47.18 47.18 0 0 0-23.5 19.9c-5.1-8.1-9.5-15.9-14.7-23-4.5-6.4-7.7-13.6-9.3-21.2-.4-1.7-3.4-3.9-5.2-3.9-10.1-.1-18.6 2.4-24.3 12.2-6.2 10.6-10.2 21.5-10 33.9.2 8.6 0 17.2 0 27.1 2.8-1.3 5.3-1.7 6.3-3.2 5.4-7.6 10.7-15.4 15.5-23.4 3.1-5.2 5.5-10.9 11.4-15.1 6.8 9.4 13.4 18.4 19.9 27.4.6 1 .9 2.1.9 3.2-.5 8.9-1.1 17.9-1.7 26.8-.1 2.2.5 4.6-.2 6.5-5.9 14.9.9 28.8 2.7 43.2.2 2-.3 4-1.5 5.7-15 16.1-22.6 35.8-28 56.7-5.2 20.3-4.1 41-5.2 61.6-1.1 20-4.8 39.5-14.3 57.8-5.7 10.9-9.7 22.6-14.5 33.9-1 2.4-2.6 4.5-4.6 7.9-1.2-2.3-2.3-3.5-2.3-4.7-.1-5.6.1-11.2.3-16.8.1-3.5 1.1-7 .6-10.4-1.4-8.4-1-17.1-6.5-24.7-8.2-11.1-21.8-11.5-29.2 0-7.2 11.1-8 23.5-5.8 36.3 1.1 6.3 1.4 12.7-1.9 19.8-1.6-1.9-2.8-3-3.5-4.3-3.1-6.6-6.2-13.2-9.1-19.9-3-7-5.5-14.3-8.8-21.2-11-22.3-13.1-46.3-13-70.6.2-31.1-5.8-60.6-22-87.5-2.8-4.5-6-8.8-9.7-12.6-2.7-2.8-3.4-5.2-2.4-8.9 2.1-8 3.9-16 5.6-24.1.2-1.3.1-2.7-.4-3.9-3.3-8.8-3.1-18-3.2-27.1-.1-6.3-1-12.5-1.4-18.8-.2-1.3 0-2.6.6-3.7 6.5-9 13.1-18 20-27.5 5.7 4 8.8 9.1 11 14.6 3.7 9 9.6 16.5 15.8 23.8 1.2 1.4 3.5 1.9 6 3.2 0-11.2-.3-21.2.1-31.3.5-12.8-5.3-23.1-12.2-33-4.2-6-16.5-10.9-23.5-8.8-1.8.8-3.1 2.3-3.5 4.2-1.4 10.4-7.4 18.2-13 26.5-3.7 5.4-6.8 11.3-10.6 17.6-5.5-8.4-12-15.4-20.9-18.6-9.6-3.5-11.4-10.2-12.2-19.3-.9-9.4 3.6-16.2 7.6-23.6.5-1 2.8-1.8 4-1.6 9.4 1.8 17.5-1.1 25.1-6.1 4.8-3.1 7-7.7 7.3-13.5.6-12-2.7-22.2-13.3-28.8-6-3.7-12.3-7-18.6-10.2-4-2-4.6 1.3-5 3.9-.7 4.6-2.4 8.6-6.7 12-4.8-7.7-11.7-13.7-12.8-23.3-.9-8.1-2.9-16-4-24.1-.5-3.5-.6-7.5.7-10.7 2.2-5.4 10.3-6.9 16.6-3.3 7.5 4.3 15.5 5.7 23.9 6.1 1.6 0 3.2.5 4.6 1.5 9.1 7.1 19.1 13.1 25.3 23.6 4.4 7.5 7.7 15.7 9.7 24.2.8 3.5 2.2 6.9 3.3 10.4l2.8-.3zm54.8-27h.2c0 57 0 114 .1 171 0 4.1-2.2 6.3-4.9 8.7-2.2 1.8-4.9 3.7-5.8 6.2-4.1 10.6-7.8 21.5-11.2 32.3-.6 1.9.6 4.9 1.9 6.7 3.3 4.3 7.4 8 10.8 12.2 1.7 1.8 2.8 4 3.4 6.4 1.6 9.3 3.6 18.7 3.8 28.2.5 17.8 2.5 35.5 6 53 .2 1.2 1.8 2.1 2.7 3.1.8-1 2.3-1.8 2.4-2.9 1.8-12.7 3.8-25.3 5.2-38.1 1.2-11.2 2.2-22.5 2.6-33.8.4-11.8 7.7-19.5 15.1-27 3-3.1 4.2-5.8 2.5-10.1-3.5-9.1-6.2-18.5-9.5-27.7-1.3-3.7-2.8-7-7-9.1-2.4-1.2-4.7-5.2-4.7-7.9-.2-50-.1-100 0-150l.3-192.4c0-4-2.8-6.8-6.9-6.8-4.4-.1-7.3 2.7-7.2 7 0 2.8.2 5.7.2 8.5.1 54.2 0 108.4 0 162.5zm576.5 89.1c-5.4 1.9-11.2 2.6-16.6.3-4.6-2-8.9-4.6-12.8-7.7-24.7-19.8-45.5-43.1-63.3-69.4-10.7-15.8-18.8-32.5-25.9-49.9-9.7-23.6-15.7-48.6-17.8-74-2-23.5-4.1-47.1-4.9-70.7-.6-16.4-1.4-32.9 2.1-49.3 2.4-11.4-6.2-24.9-17.2-31.7-13.5-8.3-27.6-9.1-42.2-4.9-4.1 1.2-8 4-11.5 6.7-13.7 11-22.3 25.8-31.1 40.6-5.9 9.7-8.8 20.9-8.5 32.3.1 3.1-2 6.7-4.1 9.3-18.6 22.5-40.4 40.6-68.8 49.4-13.3 4.1-26.9 4.4-40.6 2-5.9-1-12.2-1.2-17.6-3.4-6-2.5-12.2-6-16.5-10.6-9.7-10.2-15.2-23.7-15.3-37.9-.5-23.3 1.8-45.9 9.8-67.8 1.6-4.5 4.3-7.4 8.2-10.2 6-4.3 11-10 16.8-14.7 14.2-11.7 28.6-23.1 42.9-34.7 12.9-10.4 25.4-21.5 38.8-31.2 11.7-8.5 24.2-15.8 36.6-23.2 7.9-4.8 16-9.6 24.5-13.2 5.5-2.4 11.8-3.2 17.9-3.8 6.8-.7 13.6-.3 20.5-.4 11.5-.1 22.9-.1 34.3 2.5 11.2 2.6 22.6 4.1 33.8 6.2 13.4 2.5 24.7 9.1 35.9 16.7 17.1 11.6 25.3 28.5 30.8 47.4 4.8 16.4 6.7 33.2 7.4 50.3.4 9.8 1.3 19.6 1.4 29.4 0 3.7-1.3 7.5-2.2 11.1-1.8 7.1-3.9 14.1-5.5 21.1-2.8 12.6-5.7 25.3-7.8 38.1-1.2 7-1 14.3-1.2 21.4-.4 15.6-.2 31.3-1 46.9-1.1 19.5 1.2 39 6.8 57.7 4.4 14.6 8.4 29.4 13 44 5.7 18 14 34.9 26.5 49.2 6.9 8 15 15 22.6 22.4.9.7 1.9 1.3 2.9 1.9-.5.5-.8 1.2-1.1 1.8zM0 468c4.1-3.6 7-6.2 10-8.8 19-16.4 32.7-36.6 40.2-60.6 7-22 14.2-44 19.6-66.4 2.9-12 2.6-24.8 2.7-37.2.2-16.6-1-33.2-1-49.9 0-16.8-2.8-33-6.9-49.2-1.9-7.6-3.1-15.3-4.8-22.9-.5-2.4-1.8-4.6-2.3-7-1.1-4.6-2.9-9.3-2.9-14-.1-28 1.8-56 9.9-82.9 5.3-17.9 15-33.1 31.1-44.3C112.5 12.9 131 8 150.6 5.1c5.6-.8 11.2-1.6 16.8-2.7 19.8-3.8 39.8-2.4 59.6-.6 7.2.6 14.5 4.6 21.1 8.3 14.3 8 28.6 16.3 42.2 25.5 8.9 6 16.4 14 24.9 20.5 15 11.5 30.6 22.3 45.5 34 9.1 7.2 17.1 15.6 25.7 23.4 3.1 2.8 6 5.9 9.5 8 4.4 2.5 6.8 5.9 8.5 10.5 9.4 24.7 12 50.4 8.8 76.3-2.1 17.7-11.4 33.7-29.3 39.1-25.2 7.6-50.9 8.6-75.9-4-20.2-10.2-36.7-24.6-51.4-41.4-3.7-4.2-5.9-9-5.6-15.4.5-9.1-2-18-7-25.6-4.1-6.2-7.1-13.3-11.6-19.2-7-8.8-14.5-17.3-22.4-25.4-6.1-6.3-14.6-6.8-22.8-7.6-17.9-1.6-32 5.9-42.3 19.7-4.2 5.6-5 13.4-4.1 21 1.1 9.9 1.9 19.9 2.1 29.8.4 11.5.2 23-.6 34.4-2.6 30.2-3.1 60.6-10.1 90.2-4.9 20-11.9 39.5-20.8 58.1-11.7 24.8-27.9 46.4-46 66.7-13.5 15-27.7 29.2-45.6 39.1-6.2 3.6-12.3 2.5-19.8.2z" fill="#FFFFFF"></path><path d="M846.2 271.5c-.3 4.3.5 9.1-1.2 12.8-6.7 14.9-2 29.5.4 44.1 2.6 16.3 13.5 27.4 24.2 38.6 11 11.5 26 15.5 40 21.3 1.2.5 2.5.9 3.7 1.5.3.1.4.5.8 1.1-8.3 10.7-18 20.4-28.8 28.7-24.9 19.8-49.5 40-75.4 58.5-16.3 11.6-34.6 20.6-52.2 30.3C743 516.5 728 524.1 713 532c-2.5 1.4-5.2 2.3-8 2.5 2.5-4.1 5.2-8 7.4-12.2 17.9-34.1 29.3-70.4 35.8-108.2.6-3.4.8-6.9 1.2-10.4 1.8-14.5 8.6-26.9 15.5-39.6 13.3-24.4 30-46 49.2-65.8 6.5-6.6 14.3-11.9 21.2-18.1 3.3-2.9 5.9-6.6 8.8-10l2.1 1.3zM227.9 390.3c1.5-.6 2.6-1.2 3.8-1.7 10.4-4.4 21.4-7.7 30.9-13.6 7.6-4.6 13.7-12 19.8-18.7 9.9-10.7 15.1-23.7 16.2-38.3.4-5.9 1.7-11.8 1.9-17.8.1-3.7-1-7.5-1.7-11.2-1.1-5.8-2.2-11.6-3.5-18.4 2.1.8 2.8.9 3.2 1.2 18.4 16.3 37 32.4 52.4 51.8 3.9 5 7.7 10 11.2 15.3 3.8 5.8 7 12.1 10.9 18 11.8 17.7 19.1 36.6 21.7 58.2 3.6 30.2 13.1 59.2 25.5 87 4.7 10.5 10.6 20.3 16 30.5.4.7.7 1.4 1.4 2.9-1.6-.4-3.2-.9-4.8-1.6-9.3-4.5-18.6-8.9-27.7-13.8-18.9-10.1-38.1-19.7-56.1-31.2-16.1-10.3-30.6-22.9-45.9-34.5-14.9-11.3-30.2-22-44.5-33.9-10.4-8.6-19.5-18.6-29.1-28-.7-.6-1.2-1.4-1.6-2.2zm515 151.7c3.9-1.8 6.3-2.8 8.6-4 24.7-12.8 49.3-25.6 74-38.4 2.6-1.5 5.3-2.8 8.1-3.9 10-3.4 18.7-9.7 25.1-18.2 1-1.3 2.8-2.1 4.2-3.2.9 1.5 1.9 2.8 2.7 4.4 6.2 12.8 12.3 25.8 18.6 38.5 1.9 3.8 1.5 4.6-2.9 5.2-6 .8-12.8.4-18 3-17.3 8.8-32.3 20-35.5 41.2-1.1 7.2-2.6 14.3-4.2 22.7-23.8-20.9-52.8-31.6-80.7-47.3zm-424.2 47.4c-1.2-6.7-2.6-12.1-3.2-17.7-1.8-19.5-13.1-32.3-28.9-42.4-7.2-4.9-15.8-7.3-24.5-7-1.7.1-3.4-.8-5-1.3.6-1.6 1.2-3.3 2-4.8 5.9-12.7 11.8-25.3 17.8-37.9.7-1.4 1.6-2.7 2.5-3.9 1.3.9 3 1.5 3.9 2.7 6.9 9.3 16.2 14.9 26.7 19.4 8.5 3.6 16.2 9.2 24.5 13.4 19.3 9.8 38.8 19.2 58.1 28.9 1.7.8 3.4 1.7 6.6 3.3-27.6 15.6-56.6 26.3-80.5 47.3zm45.5-305.3 52.1-17.7c.9 4.2 1.8 8.4 2.5 12.5 1.5 8.3 2.8 16.7 4.6 25 .8 3.8-.8 5.5-3.9 6-3 .5-6 .5-8.9 0-13-2.7-25.1-7.3-35-16.5-3.3-3-7-5.6-11.4-9.3zm413.9 0c-4.6 3.8-8.3 6.7-11.8 9.8-11.1 9.9-25.3 15.7-40.1 16.3-7.1.3-8-1.5-6.7-8.3 2.3-11.7 4.3-23.5 6.4-35.5l52.2 17.7z" fill="#FFFFFF"></path></g></g></svg>