<svg xmlns:xlink="http://www.w3.org/1999/xlink" xmlns="http://www.w3.org/2000/svg" x="0" y="0" viewBox="0 0 878.5 1185.6" focusable="false" aria-hidden="true" class="classes-experience-vtosvo" width="878.5"  height="1185.6" ><g fill="#FFFFFF"><g fill="#FFFFFF"><path d="M562.7 948.4c-6.8-6.3-13-12.7-19.8-18.2-12.1-9.8-25.3-17.8-40.6-21.9-5.9-1.5-9-.7-11.4 4.8-5.5 12.2-7.4 24.3 2.3 35.5.6.8 1.2 1.6 1.7 2.5.1.2.1.4.1.6-3.9 4.2-7.8 8-11.3 12.2-6.1 7.4-9.9 16.4-10.9 26-.5 5-2.6 6.7-7.3 6-2.5-.3-4.9-.6-7.8-.9-.2 1.3-.4 2.5-.4 3.8 0 23-.2 46 0 69 .1 11 2.6 21.4 8.5 30.9 4.9 7.8 2.7 22.1-4.7 28-8 6.4-12.3 14.8-14.7 24.3-2.2 8.7-3.4 17.6-5 26.5-.5 2.6-.9 5.2-1.3 7.8l-1.3.2c-.5-2.9-1.2-5.8-1.6-8.7-1.9-13.9-3.3-27.9-10.6-40.3-2-3.4-4.5-6.5-7.5-9.2-9.3-7.8-11.5-21.2-5.2-31.5 4.8-8.3 7.3-17.7 7.3-27.3.3-24 .1-48 .1-72-.1-.8-.2-1.6-.4-2.4-3.5.2-6.8.3-10 .7s-4.4-1.1-4.8-4.2c-1.3-11.3-6-22-13.5-30.7-2.8-3.3-5.4-6.8-8-10.2l-1.4 1c.6-1.1 1.4-2.2 2.1-3.3 9.6-11.1 7.6-23.1 2.3-35.1-2.5-5.8-5.7-6.8-11.7-5-22.7 6.8-41.3 19.7-56.7 37.4-.9 1-1.4 2.2-2.7 3.1-3.4-16.2-2.7-34.1-23.5-40.6 1.5-5.7 3.1-11.9 4.7-18.1 1.5-5.8.8-7.4-5.2-8.1-10.1-1.1-19.9-4.2-28.8-9.2-14.5-8.3-24.8-28.5-17.7-46.5 1.8-4.5.9-8-2.2-11.4-6.2-6.9-12.4-13.9-23.1-11.9-1.8.2-3.6.8-5.1 1.7-14.1 10.2-24.1 22.9-24.3 41.3 0 5.3 0 10.7.3 16 .2 8.2 3 16.2 8 22.7 1.7 2.2 2.6 5.1 4.1 8.1-13.8-4.3-37.7-29-43.3-56.5-4.9-24.2-4.5-48.3 8.2-71.7-8-.1-15.9 1.7-23.1 5.3-6.7 3.4-12.9 7.8-20.5 12.6-2.9-9-7-18-8.4-27.4-1.5-10.1-.3-20.5-.6-30.8-.2-3.5-1.1-6.9-2.5-10.1-3.9-9.5-8.1-18.9-12.2-28.3-5.3-11.9-15-20.3-24.5-28.6-12.6-10.9-25.8-21-39-31.1-3.4-2.6-7.6-4.2-11.5-6.3l.3-1.7L56 620c.2 0 .3.1.5.2 12.8 5.1 27.8 3.5 39.1 13.6 10.4 9.1 21.7 17.1 32.3 26 4.6 3.9 9 5.2 14.6 2.9 5.4-2.2 7.3-6.1 4.4-11.1-3.3-5.2-6.9-10.2-10.8-15-1.7-2.2-2.5-3.9-.8-6.6 1.2-1.8 1.7-4 1.6-6.2-1.6-16.4-2.4-32.9-5.4-49-3.9-21.1-9.8-41.8-14.4-62.7-1.5-7-2.4-14.1-2.7-21.2-.8-18.1.1-36.3 2.9-54.3 2.3-14.3 7.1-28.1 14.2-40.7 1-1.7 1.9-3.5 2.8-5.3 6.3-14.2 16.6-25.2 28.5-34.8 1.4-.9 2.8-1.6 4.2-2.3-.6 2-1.3 4-2.1 5.9-2.2 4.2-4.7 8.3-6.8 12.5-13.7 27.3-15.4 56.6-13.7 86.2.7 12.6 2.6 25.1 8.4 36.8 6.2 12.2 10.3 25.6 18.1 36.6 12.6 17.8 29.6 31.3 49.6 40.7 3 1.4 6.2 2.2 8.4-1.3 3.6-5.8 7.4-11.5 10.1-17.8 1.1-2.6.6-6.6-.7-9.3-4.5-9.8-9.5-19.4-14.4-29.1-13.3-26.1-26.6-52.2-39.9-78.2-.4-1.1-.8-2.2-1.1-3.4l1.1-.9c3.7 2.9 7.7 5.5 11.1 8.6 15.4 14.2 30.5 28.9 46.2 42.7 6.6 5.7 14.7 9.6 21.9 14.6 15.4 10.5 33 15.3 50.8 19.9 1.2.3 2.2 1.2 4.6 2.5-3.5 1.4-5.8 2.6-8.2 3.3-18.3 5.9-20.4 16.6-12 33.8 6.6 13.4 16.3 25.4 25.4 37.5 2.8 3.6 8.2 5.2 12.6 7.9-7.5 2.4-15.5 5.1-23.5 7.4-10.9 3.1-21.9 5.7-32.7 8.8-12.6 3.7-22.8 11.3-32.5 19.9-8.8 7.7-15.2 17.9-18.4 29.2 14.3 7.1 28.4 12 44.1 3.7 9.8-5.1 19.2-10.7 27.2-18.3 3.9-3.8 7.1-8.3 10.7-12.5 1.2-1.4 2.4-2.7 3.5-4l1.4.3c-.4 4.5-.5 9-1.3 13.4-3.6 18.7-11.6 35.6-26.5 47.5-10.5 8.4-23.1 14.2-35.1 20.7-3.3 1.8-5.3 3.8-6 7.3-.1.3-.1.7-.2 1-2.1 11.6-.4 17.3 6.4 21.2 9 5.1 22 4.2 29.1-2.1 9.2-8.2 14.3-18.6 16.7-30.6 5.3-26.2 20.2-47.1 36.9-67 .9-1.1 2.5-1.8 4.2-3 .6 9.7.5 18.5 2 27.1 1.8 10.6 4.5 21.1 8.1 31.2 1.5 4.3 5.8 8 9.6 11 3.3 2.6 8.3 2.8 11-.5 1.8-2.2 2.5-6.9 1.5-9.6-2-5.1-5.6-9.7-8.5-14.5-1.3-2.2-3.4-4.2-3.9-6.6-1.6-7.7-1.3-14.6 4.8-21.1 14.5-15.5 17.5-39.6 7.9-58.2-1.4-2.7-4-4.9-6.6-6.6-3-2-3.4-4.3-2.1-7.2 8.6-19.6 12.2-40.5 13.8-61.6 3.4-45.5 7-91.1 8.5-136.7 1.2-38.6-.1-77.2-1-115.8-.2-10.2-2.7-20.4-4.5-30.6-1.4-7.7-7.8-13.4-15.8-14.6s-8.6-1.9-6.7-9.6c4.1-16.1 8-32.3 13-48.1 8.3-26 17.2-51.8 26.6-77.4 6.7-18.3 14.7-36.1 22.1-54.1C426 28.2 431.8 14.1 437.6 0h2.3c5.2 11.8 10.5 23.6 15.4 35.5 8.2 19.8 16.2 39.8 24.2 59.7 3.2 8 6.4 16.1 9.2 24.3 7.1 21 14.2 41.9 20.7 63.1 4.2 13.8 7.4 28 10.8 42 1.4 5.8.7 6.5-5.2 7.7-11.8 2.2-15.9 7.2-18.2 18.5-6.5 31.8-6.3 63.9-5.7 96 .7 37.8 1.6 75.6 3.8 113.4 1.8 30.7 4.8 61.5 8.6 92 1.7 13.4 7 26.2 10.4 39.4.5 2 .3 5.8-.9 6.5-10.5 6.4-11.6 17.1-12.6 27.5-1.6 15.7 4 29.1 14.7 40.5 6 6.3 4.9 19.4-.8 25.9-4.1 4.7-7.1 10.3-8.9 16.3-2 7.2 3.8 11.7 10.8 8.8 3.9-1.8 7.2-4.5 9.7-8 7.2-10.3 8.7-22.6 10.2-34.6 1.1-8.7 1.2-17.5 1.9-27.2 1.7 1.1 3.4 1.7 4.4 2.9 16.8 20 31.8 41.1 37 67.6 2.4 12.3 8.1 22.9 17.8 31 7.6 6.4 24.7 5.3 31.6-1.8 6.6-6.9 3.5-23.3-5.3-27.2-17.2-7.6-33.2-16.8-44.8-32.4-10.1-13.6-14.7-28.9-16.4-45.4 0-1.3.2-2.7.4-4 1.5 1.2 2.7 1.9 3.3 2.9 9 14.5 22.7 23.3 37.3 31.5 16.1 9 30.7 4.6 45.6-2.8-2.3-9.9-7.5-18.9-14.8-25.9-8.8-8.4-17.9-16.7-29.6-20.8-9.1-3.2-18.4-5.7-27.6-8.4-11.8-3.4-23.6-6.7-35.4-10.5 14.2-3.3 19.4-15.7 27-25.4 4.6-5.7 8.4-12.1 11.2-18.8 2.5-6.3 3.9-13 4.1-19.8.2-5.8-4-9.9-9.6-12.2-4.6-1.7-9.1-4-13.2-6.7 1.7-.7 3.3-1.6 5-2.1 10.5-3.3 21.3-5.7 31.3-10 17.6-7.7 33.9-17.6 48-30.8 13.1-12.3 26-24.9 39.2-37.1 3-2.8 6.7-4.9 10.1-7.4l1 .9c-.3 1.2-.7 2.3-1.2 3.4-10.8 21.1-21.6 42.1-32.3 63.1-7.3 14.4-14.3 29-21.9 43.2-2.5 4.8-2.1 8.9.2 13.2s5.1 8.6 7.6 12.9 5.9 5 10.5 2.9c14.2-6.8 25.9-16.6 37.6-27 13.6-12.2 19.5-28.6 27.2-44.3 13.8-28.3 11.8-58.2 9.6-88.2-1-14.5-8-27-12.6-40.3-1.6-4.6-4.7-8.7-7-13-.6-1.4-1.2-2.9-1.6-4.3l1.2-1c3.2 2.5 6.6 4.6 9.4 7.4 20.2 20 32.4 44.5 38.1 72.1 4.3 21.3 5.3 43.1 3.1 64.7-1.6 15.6-6.6 30.8-10.1 46.2-5.1 22.1-11 44-11.1 66.9 0 7.1-3 14.6 2 21.4.4.5-.7 2.4-1.4 3.4-3.1 4.1-6.5 8.1-9.4 12.3-3.9 5.7-4 9.6-.7 12.6 4.6 3.9 11.3 4 16.1.4 12.3-9.9 24.6-19.9 37.1-29.6 3-2.3 6.4-4 10.1-4.9 13.4-3.1 26.9-6 40.5-8.4 5-.9 10.2-.1 15.5-.1-.2.5-.2 1.1-.5 1.3-24.8 12.7-44.8 31.5-64.1 51-8.8 8.9-13.4 20.3-18.5 31.5-5.7 12.5-6.4 25.1-5.7 38.4s-5.2 33.1-11.3 41.3c-11.3-11.1-24.9-17-41.2-18.2 15 37.5 14.8 73.2-9.3 106.5-7.5 10.2-20.3 20.8-26.7 22.2 1.6-3.2 2.5-6.1 4.2-8.5 4-5.7 7-11.7 7.5-18.8.9-14.6 3-29.7-6-42.7-4.9-6.9-10.8-13-17.5-18.1-5.2-4-12.1-3.4-17.9.3-2.6 1.8-5.1 3.8-7.3 6-5.2 4.8-7.5 9.8-4.8 17.6 5.8 17-3.6 36.9-21.2 45.3-7.2 3.5-15.3 5.5-23.2 7.1-8.9 1.8-9.7 2.3-7.4 10.8 1.5 5.4 2.8 10.9 4.3 16.3-13.1 2.6-17.7 12.1-20.3 23-1.2 5.2-1.7 10.9-2.5 16.5zM436.9 573c-.2 1.4-.4 2-.4 2.6-1.1 32.1-2.3 64.2-3.4 96.3-1.1 30.5-2 60.9-7.5 91-2.9 15.7-6.2 31-16.9 43.6-2 2.4-1.5 4.7-.1 7.3 6 11 11.9 22 17.6 33.1 4.8 9.3 9.2 18.8 13.5 27.6 1.6-3.7 3.3-8.2 5.5-12.5 8-15.5 16.1-31 24.4-46.4 2-3.7 1.7-6.2-.7-9.5-3.2-4.2-5.9-8.8-8.1-13.6-8.5-19.5-10.9-40.6-12.1-61.4-3-50.9-4.5-101.8-6.7-152.7 0-1.3-.2-2.6-.3-3.8l-4.8-1.6zm-54.3 240.3c-6.1 7.5-13.2 10.1-21.5 10-9-.2-18-.2-27-.2-6.7 0-7.9.9-9.9 7.4-.4 1.4-.8 2.9-1.1 4.4-2.4 10.8-.8 13 10.3 12.3 7.6-.5 15.3-1.1 22.8-2.3 9.5-1.5 17.9.7 24.9 7.2 8.8 8.2 17.3 16.5 25.9 24.8.8.8 1.7 1.5 2.6 2.3-5.3-23.3-15.3-44.4-27-65.9zm85.4 66.3 1.2.6c1.9-2.1 3.7-4.2 5.7-6.2 7.4-7.1 14.9-14.2 22.5-21.1 7-6.3 15.1-8.6 24.5-7.1 7.1 1.1 14.2 1.6 21.3 2.2 3 .1 6 0 8.9-.4 3.2-.3 4.8-2.4 4.3-5.5-.7-4.1-1.6-8.1-2.7-12.1-1.2-4.2-3.9-6.1-8.5-5.9-9.1.3-18.3 0-27.5.3-8.6.2-15.9-2.5-21.9-10-11.5 21.6-21.7 42.5-27.8 65.2zm59.1 305.2c-8.2-16.1-22.3-28.1-19-47.9 2.9-17.4 11.3-30.7 25.7-40.5 6.9-4.7 14.5-7.6 23-7.4 3.6.1 5-1.2 5.5-4.7 1.2-9.7 4.1-19 10.6-26.5 4.4-4.9 9.5-9.3 15-12.9 20.4-13.9 40.2-28.6 56.7-47.2 4.8-5.4 8.6-11.8 12.4-18.1 2.8-4.7-1.2-8.1-4.3-9.8-5.9-3.1-5.3-7.1-3.4-11.9 1.2-3.3 2.1-6.7 3.3-10 1.7-4.9 4.5-5.6 8.8-3 9.5 5.7 19.1 11.3 28.7 16.8 1.2.6 2.5.9 3.8 1 11.5 1.2 23 .4 34.2-2.5 7.6-1.9 11.8-6.7 12.8-14.1.7-4.6.5-9.3.6-13.9.1-3.4-1.6-4.7-5-4.5-12.6.6-25.3 1-37.9 1.5-2.7.1-5.4 0-8.2 0l-.5-1.5c.9-.9 2-1.7 3.1-2.4 14.6-6 24.7-17.5 35.8-28.2 9.1-8.9 9.1-17.8 5.9-28.5-.6-2.7-.5-5.4.4-8 3.1-9.5 6.6-18.9 10.1-28.2.7-1.8 2.3-3.3 3.5-5 1.6 1.7 4 3.1 4.8 5.1 5.1 13.5 9.9 27.2 15 41.4 21.3-8.3 43.2-15.4 63.8-29.6-.7 3.5-.7 6.1-1.7 8.2-12.3 23.8-28.1 44.8-48.5 62.2-2.9 2.5-3.8 4.8-3.3 8.6 1.1 9.2 1.5 18.6 2.6 27.9.3 2.7 1.4 6 3.3 7.8 13.4 13.2 30 21.4 47.4 28 15.4 5.9 31 11 46.6 17.3-.8.2-1.7.3-2.5.3-33.5 1.2-66.9 2.4-100.4 3.6-3 .1-4.8 1-6.2 3.9-13.6 29.3-32.9 54-58.8 73.3-2.6 1.9-3.2 3.8-2.1 6.7 6.7 16.3 13.1 32.7 20.1 48.9 4.3 10.1 9.5 19.8 14.1 29.8.8 1.8.6 4 .8 6.1l-1.6.6c-8.8-8.3-17.3-16.8-26.4-24.7-16-13.7-31.1-28.9-51.7-35.9-3-.9-6.2-1.4-9.3-1.4-4.3-.2-8.7.4-13-.1-20.4-2.5-38.5 5.1-55.8 14-20.3 10.5-38.1 24.5-51 43.8-2.5 3.6-4.7 7-7.8 11.6zm130.7-160.6 1.3.7c-.7 7.3 3.1 13.2 6.4 19.1 2.4 4.2 8.3 4.9 12.2 2.1 15-10.3 27.8-23.5 37.7-38.8 2.5-3.9 2.1-6-2-7.5-7.3-2.7-14.7-5.1-22-8-3.4-1.4-6-1.1-8.5 1.5-6.6 7-13.4 13.8-19.8 21.1-2.2 2.8-3.5 6.5-5.3 9.8zm-73.6 61c12.2-1.5 23.1-2.2 33.6-4.3 8.8-1.7 17.3-4.5 25.3-8.2 7.3-3.5 8.8-11.4 5.1-17.9-6.4-11.5-22.8-12.4-29.6-5.3-2.4 2.5-5.7 4-8.3 6.3-6.7 5.9-13.5 11.7-19.6 18.1-2.8 2.9-4.1 7.1-6.5 11.3zM46.5 843.6c20.2 13.9 42.1 21 63.5 29.4 4.9-13.7 9.6-26.8 14.3-39.9.5-1.8 1.3-3.4 2.4-4.9 2-2.3 4.3-2.7 5.7.8 4.2 11.2 8.4 22.5 12.4 33.8.4 1.1-.2 2.6-.5 3.9-.9 4.8-2.2 9.5-2.6 14.2-.2 2.4.3 5.7 1.8 7.4 9.9 11.4 19.4 23.4 32.7 31.3 4.1 2.4 8.3 4.4 12.5 6.6l-.2 1.8c-2.6.1-5.1.5-7.7.4-12.6-.4-25.3-.9-37.9-1.5-4.1-.2-5.8 1.4-5.6 5.4.3 6.9-1.2 14.2 3.6 20.2 1.9 2.5 4.6 5 7.5 6 12.1 4.2 25.2 6.3 37.4 3 10-2.7 19.1-9 28.1-14.6 9.7-6.2 10.1-6.4 13.8 4.5.5 1.4.9 2.8 1.5 4.2 2.1 5.5 3.5 10.1-3.5 14.1-5.5 3.1-5.8 6.4-2.2 11.6 5.4 7.8 11.2 15.2 17.5 22.3 14.1 15.7 31.2 28.1 48.9 39.4 15 9.6 24.3 22.2 26.8 39.9.4 2.5.2 5.4 4.3 5.2 20.9-1.2 45.2 19.7 49.3 45.4 2 12.3-.3 23.5-8 33.5-2.8 3.5-4.8 7.6-7.2 11.4-1 1.6-2.2 3.1-3.7 5.3-1.2-1.9-2-3.1-2.8-4.3-11.3-17.1-24.7-31.9-42.5-42.9-12.3-7.4-25.2-13.5-38.6-18.5-4.7-1.7-9.6-2.7-14.5-3-8.6-.5-17.3 0-26-.3-9.1-.3-18 2.3-25.5 7.5-14.5 10-28.8 20.2-41.2 33-7.3 7.5-15.5 14.1-24.7 22.5.2-3.3-.3-5.7.5-7.4 3.6-8.1 7.7-15.9 11.2-24 7.1-16.1 14.3-32.3 21-48.6 4-9.7 3.7-9.9-4.4-16.3-23.6-18.6-41.3-41.9-54.1-69-1.4-2.9-2.6-4.8-6.5-5-29.5-1-58.9-2.3-88.4-3.5-4.8-.2-9.6 0-14.7-1 10.2-3.8 20.1-8 30.5-11.2 19-5.7 37.1-14.1 53.7-25 1.1-.7 2.2-1.5 3.2-2.3 6.4-4.9 11.1-10.2 10.5-19.5-.5-7.7 1.5-15.6 1.8-23.4 0-2.5-.9-4.9-2.5-6.8-10.8-12-22.5-23.2-32.6-35.8-6.8-8.5-11.6-18.6-17.1-28.1-1.1-1.7-.8-4.2-1.2-7.2zm172.9 180.3 1.3-.7c-1.8-3.3-3-7.1-5.4-9.8-6.7-7.6-13.9-14.7-21-21.9-.9-.9-2.8-1.9-3.9-1.6-8.5 2.8-16.9 5.9-25.3 8.9-4.1 1.5-4.5 3.7-2 7.5 9.9 15.2 22.7 28.4 37.7 38.8 4 2.8 9.9 2.1 12.2-2.1 3.4-5.9 7.1-11.8 6.4-19.1zm73.3 60.7 1.6-1.4c-3.1-4.7-5.6-10.2-9.6-14-7.8-7.4-16.8-13.4-24.7-20.7-6.1-5.6-17.5-5.7-23.6-1.2-10.1 7.4-11.1 19.1.3 25.4 4 2.3 8.4 3.9 13 4.8 14.2 2.7 28.6 4.8 43 7.1z" fill="#FFFFFF"></path><path d="M439.5 853c2.9-5.2 5.8-10.1 8.6-15.2s5.4-10.3 8.2-15.4c1.7-3.2 5-6.6 4.8-9.6s-3.9-6.1-6.2-8.9c-10.1-12.2-12.2-27-14.2-42l-1-7.1-1.3.2c-.2 1.8-.3 3.6-.5 5.4-2 18-5.4 35.3-19.5 48.4-.9.8-.8 3.7-.1 5.1 4 8 8.4 15.9 12.6 23.8 2.8 5.2 5.8 10.3 8.6 15.3z" fill="#FFFFFF"></path><path d="M439.5 853c-2.9-5-5.8-10.2-8.6-15.3-4.3-7.9-8.6-15.8-12.6-23.8-.7-1.4-.8-4.2.1-5.1 14.1-13.1 17.6-30.5 19.5-48.4.2-1.8.3-3.6.5-5.4l1.3-.2 1 7.1c2 14.9 4.1 29.8 14.2 42 2.4 2.8 6 5.8 6.2 8.9s-3.1 6.4-4.8 9.6c-2.7 5.1-5.4 10.3-8.2 15.4s-5.7 10.1-8.6 15.2z" fill="#FFFFFF"></path></g></g></svg>