<svg xmlns:xlink="http://www.w3.org/1999/xlink" xmlns="http://www.w3.org/2000/svg" x="0px" y="0px" viewBox="0 0 576.6 540.7" focusable="false" aria-hidden="true" class="classes-experience-1i91nb7" width="576.6"  height="540.7" ><g fill="#FFFFFF"><g fill="#FFFFFF"><path d="M576.6,218.3c-2,1.1-4.2,2-5.8,3.5c-7.8,7.2-15.5,14.6-23.2,22c-1.6,1.6-3.4,3-6.5,5.6V79.1l35.5,31.2V218.3z" fill="#FFFFFF"></path><path d="M123.9,164l36.6-20c1.2-8.5,2.3-16.8,3.8-25.1c0.6-3.2,0.4-5.7-1.8-8.3c-6.7-7.8-13.4-15.7-19.9-23.7c-2.9-3.5-5.5-7.2-9.1-11.9c8,0.4,14.7,0.4,21.3,1.1c8.8,1,17.4,2.6,26.2,3.6c1.5,0.2,3.4-1,4.7-2.1c7.7-6.7,7.8-14.2,3.8-23.3c-5.2-11.7-9-24-13.4-36c-0.6-1.6-1.2-3.3-1.7-5l0.9-1c4.7,2.1,9.5,4.2,14.1,6.4c9,4.4,17.9,8.9,26.8,13.5c2.5,1.3,4.1,1,6.1-1c7.5-7.3,16.8-12.7,26.9-15.6c3.5-1,4.7-0.2,6.1,2.6c2.1,4.3,4.2,8.7,6.7,12.8c3,5,6.6,5.5,9.9,0.8c4.5-6.5,8.1-13.6,11.8-20.6c1.7-3.3,2.7-7,4.3-11.2c1.7,3.8,2.9,7,4.4,10.1c3.6,7.1,6.8,14.4,11,21c3.9,6.1,7.8,5.6,11.4-0.6l8.7-15.3c10.8,2.6,20.7,6.8,28.5,14.6c3.7,3.7,6.8,3.9,11.2,1.6c10.9-5.7,22-11.1,33-16.6c1.6-0.8,3.2-1.4,6.2-2.6c-0.9,2.9-1.4,4.6-1.9,6.1C395,33.5,389.6,48.8,384,63.9c-1.1,2.9-0.8,5,1.4,7.1c1.1,1,2,2.2,2.6,3.6c2.5,5.8,7,6.5,12.5,5.5c7.4-1.4,14.7-3,22.1-3.7c6.2-0.6,12.5-0.1,19.4-0.1c-2.6,3.5-5,7.1-7.7,10.4c-6.7,8.1-13.4,16.1-20.3,24.1c-2.2,2.6-2.7,5.2-2,8.7c1.5,7.2,2.5,14.4,3.2,21.7c0.2,2.4,0.7,3.7,3,4.8c10,5,19.8,10.1,29.6,15.4c1.8,1,3.1,2.7,5.1,4.4c-8.9,3.1-17.1,5.9-25.3,8.7c-2,0.8-4.1,1.5-6.2,1.9c-6.9,0.9-9.6,5.6-11.6,11.4c-2.6,7.9-5.6,15.7-8.2,23.6c-0.6,1.8-1.2,4.1-0.5,5.6c4.8,10.4,9.8,20.7,14.9,30.9c1,2.1,3,3.7,5.5,6.8c-5.5-1.2-9.4-2.2-13.4-3c-7.8-1.8-15.5-3.6-23.3-5.2c-3.8-0.8-7.5-0.5-10.6,2.6c-1.9,1.8-4.1,3.4-6.4,4.8c-2.6,1.6-5.2,2.1-7.2-1.3c-6.6-11.3-13.3-22.6-20.2-34.2c2.4-2.2,5.1-4.9,7.9-7.4c20-17.4,29-39.5,28.3-65.8c-0.1-2.5,0-5-0.3-7.5c-1-7.9-1-7.8-8.9-8.3c-1.6-0.1-3.1-0.7-4.3-1.9c-10.7-12.8-21.2-25.8-31.7-38.5c-1.7-2-2.4-3.8-0.5-6.2c3.2-4,6.3-8.1,9.5-12.1c3.6-4.3,7.3-8.5,11.7-13.7c-11.7-2.1-23.7-1.3-35,2.2c0.8,3.3,1.8,5.8,1.9,8.3c0.5,11.4-8.2,20.3-19.6,20.2c-7.2,0-14.3-0.4-21.5-0.3c-14.1,0.1-26-13-18.4-28.3c-11.2-3.8-22.5-4.6-35.5-2.4l16.5,18.8c0.8,0.9,1.7,1.6,2.4,2.6c4.6,6,4.9,7,0.2,12.9c-9.9,12.3-20,24.5-30.3,36.5c-1.1,1.3-4,1.9-5.8,1.6c-4.1-0.7-5.7,0.7-6.3,4.7c-3.1,20.3-0.2,39.5,10.5,57.1c5.8,9.7,13.4,18.2,22.6,24.9c2.1,1.5,2.5,2.8,0.9,5.3c-6.3,9.8-12.3,19.7-18.3,29.6c-2.7,4.5-5.3,5.6-9,1.8c-7-7.4-15.1-7-23.7-5.1c-7.3,1.6-14.5,3.6-21.8,5.4c-1.8,0.4-3.7,0.6-6.3,1c7.8-10.9,14.1-22.8,18.7-35.4c0.8-2.6,0.8-5.4,0-7.9c-2.3-7.6-5.4-15-7.8-22.6c-2-6.3-5-10.5-12-12.3c-10.2-2.6-20.1-6.6-30.2-9.9L123.9,164z M213.9,72.2c-3.5,3.7-6.8,6.6-9.4,9.9c-6.1,7.9-5.1,7.1,0.9,13.3c1.7,1.8,3.3,3.8,5.4,5.2c1.1,0.7,3.8,0.8,4.5,0.1c4-4.2,7.6-8.7,11.7-13.6L213.9,72.2z M362.8,73.7c-3.7,4.1-7.3,7.9-10.5,12.1c-0.8,1.6-0.8,3.5,0.1,5c2.8,3.9,5.9,7.6,9.3,11c0.8,0.8,3.5,0.9,4.4,0.2c12.6-10.5,12.7-13,1.4-24.4C366,76.1,364.5,74.8,362.8,73.7L362.8,73.7z" fill="#FFFFFF"></path><path d="M104.3,20.3c8,0,16,1.1,23.6-0.3c8.5-1.5,12.6,2.5,17.1,8.3c9.2,11.8,19,23.1,28.5,34.5c-1.1,4.2-3.7,5.1-7.5,4.4c-11-2-22-3.5-32.9-5.6c-3.4-0.6-5.4-0.3-6.4,3.4c-1.7,6.4-3.7,12.7-5.2,19.1c-0.2,1.5,0.3,3,1.2,4.1c6.5,7.2,13.1,14.3,19.7,21.2c2.9,3,4.6,6.2,3.8,10.7s-0.8,9.3-1.5,13.9c-0.2,1.6-1.1,3-2.3,4c-9.4,5.9-18.9,11.5-28.3,17.5c-1.7,1.2-2.9,3.1-3.3,5.2c-0.5,4.3,0.1,8.7-0.2,13c-0.3,3.5,1.5,4.6,4.3,5.5c10.2,3.1,20.3,6.2,30.4,9.6c1.6,0.8,2.8,2.1,3.5,3.7c2.9,7.2,5.7,14.5,8.2,21.9c0.5,1.3-0.1,3.2-0.6,4.6c-4,10.1-7.9,20.1-12.2,30.1c-1.4,3.2-1.5,5.6,0.6,8.7c6.3,8.9,7.2,9.4,18.3,6.2c5.1-1.5,10.2-2.9,15.4-4.3c0.6-0.1,1.2-0.1,1.9,0c-5.2,6.9-10.2,13.6-15.4,20.2c-5.6,7.1-11.3,14-17,20.9c-1,1.2-2.6,2.5-3.9,2.6c-13.1,0.2-26.3,0.1-39.9,0.1L104.3,20.3z" fill="#FFFFFF"></path><path d="M396.3,259.5c5.3,1.5,10.5,3,15.8,4.3c3.9,0.9,7.8,1.6,11.7,2.1c0.8,0.1,1.8-0.6,2.6-1.1c0.4-0.2,0.6-0.8,1-1.1c5.6-6.1,6.8-12.1,2.5-20c-4.4-8.1-7.1-17.2-10.5-25.9c-0.4-1-0.5-2.1-0.3-3.2c2.7-7.3,5.3-14.7,8.4-21.8c1-1.9,2.8-3.4,4.9-4.2c9.9-3.4,20-6.3,29.9-9.7c1.5-0.5,3-2.8,3.2-4.5c0.4-4.3-0.2-8.7,0.2-13c0.4-3.9-1.9-5-4.6-6.6c-9.4-5.5-18.7-11.4-27.9-17.2c-0.8-0.5-1.1-1.9-1.6-2.9c-0.2-0.4,0-1-0.1-1.5c-3.9-13.7,0.4-24.4,11.6-33c3.1-2.4,5.1-6.2,8.2-8.7c5-4.1,4.4-9.1,3-14.2c-1.3-4.6-3.1-9.1-5.2-13.5c-0.6-1.2-3.5-2.1-5.2-1.9c-11.4,1.6-22.7,3.4-34,5.4c-3.7,0.7-5.6-0.5-6.9-4.3c1.3-1.6,2.8-3.5,4.4-5.4c9.6-11.5,19.2-23,28.6-34.7c2.2-2.7,4.4-3.2,7.7-3c7.8,0.5,15.6,0.3,23.5,0.4c1.6,0,3.2,0,5.1,0v282.8c-1.7,0.1-3.5,0.3-5.2,0.3c-10.8,0-21.7-0.1-32.5,0.1c-2.8,0.2-5.5-1.2-7.1-3.5c-8.6-11.2-17.2-22.4-26-33.5c-1.7-2.2-3.8-4.1-5.7-6.2L396.3,259.5z" fill="#FFFFFF"></path><path d="M93.6,26.9c0,14.9,0.1,29.7-0.2,44.4c0,2.2-1.6,4.8-3.2,6.4C84.1,83.6,78,89.5,71.4,94.9c-8.1,6.6-16.7,12.5-26.2,19.6V75.2c-7,4.7-10.5,9.2-10.4,17.5c0.5,49.7,0.2,99.3,0.1,149v7.4c-10-9.4-18.9-18.2-28.3-26.3c-5-4.3-6.8-8.8-6.8-15.4c0.4-30.7,0.2-61.3,0.1-92c-0.2-3.5,1.2-6.8,3.9-9c29-25.6,57.9-51.2,86.7-77C91.7,28.4,92.7,27.6,93.6,26.9z" fill="#FFFFFF"></path><path d="M250.6,311c3.9-6,8.5-8.2,15.5-8c16.6,0.7,33.3,0,49.9,0.7c3.5,0.1,6.8,4.1,10.6,6.7c-4.9,3.9-8,7.8-14,8c-3.8,0.1-6.8,3.6-6.9,7.9c-0.6,24.9-1.1,49.9-1.5,74.8c0.1,3,0.4,5.9,0.8,8.9h-33.2c0-10.5,0.1-20.7,0-30.9c-0.3-17.6-0.8-35.2-1.2-52.8c-0.1-4.5-3.1-8-6.7-8.2C258,317.8,254.8,314.1,250.6,311z" fill="#FFFFFF"></path><path d="M93.3,107.2V219c-11.1-9.9-21.9-19.4-32.7-28.9c-4.3-3.9-8.7-7.8-12.8-11.9c-1.2-1.2-1.9-2.9-2.1-4.6c-0.1-9.5,0-19,0.2-28.5c0-1.5,0.6-3.5,1.7-4.3C62.7,129.6,77.8,118.6,93.3,107.2z" fill="#FFFFFF"></path><path d="M288.1,151.7c1.4,2.6,2.3,4.8,3.5,6.7c3.2,5.4,6.8,9.9,13,12.9c15.3,7.5,22.9,20.9,23.8,37.7c1,18.6-6.1,33.6-22.5,43.1c-19.6,11.4-44.2,0.4-53.6-20.1c-11-24.2-0.9-54.1,23.8-63.5c3.2-1.2,5.3-5.6,7.6-8.7C285.3,157.6,286.4,154.9,288.1,151.7z M315.5,212.1L315,212c-0.1-1.7-0.2-3.3-0.5-5c-2-11.4-8.2-19.6-19.2-23.4c-10.1-3.5-18.7-0.4-25.9,7c-10.4,10.7-10.9,29.7-1.2,41.2c13.6,16.2,37.1,12.2,44.5-7.6C314.1,220.3,314.6,216.1,315.5,212.1L315.5,212.1z" fill="#FFFFFF"></path><path d="M26.5,434.8l83.3-52.9c8.5,11.1,17.1,22.3,25.6,33.5c1.9,2.5,1.2,4.3-1.3,6.2c-5.4,3.8-10.5,8.1-16,11.9c-2.1,1.6-4.6,2.5-7.2,2.7c-27.5,0.1-55-0.1-82.4-0.2c-0.5,0-1-0.1-1.5-0.1L26.5,434.8z" fill="#FFFFFF"></path><path d="M549.4,436.3c-18.5,0-36.9,0-55.4,0c-9.5,0-19,0.4-28.5,0.2c-2.8-0.3-5.4-1.3-7.6-2.9c-5.2-3.5-10-7.8-15.2-11.3c-3.3-2.2-3.8-4.2-1.4-7.2c6.7-8.4,13.4-16.9,20.1-25.4l5.6-7l82.7,52.5L549.4,436.3z" fill="#FFFFFF"></path><path d="M414.9,451.3c-9.9-7.7-19.4-14.3-27.6-22.1c-2.2-2.1-1.8-8.6-0.4-12.2c3.5-8.7,7.4-17.5,12.7-25.2c8.8-12.7,18.8-24.6,28.3-36.8c0.3-0.3,0.6-0.5,1-0.7c8.4,6.4,16.6,12.7,25.1,19.2C436.6,396.4,418.2,418.9,414.9,451.3z" fill="#FFFFFF"></path><path d="M122.3,373.2l25.2-19.2c5.4,6.5,11,13.2,16.4,20.1c10,12.9,20.3,25.5,25.4,41.4c2.8,8.3,1.8,12.5-5.2,18c-7.1,5.6-14.4,11.1-22.5,17.3C158.4,418.8,139.8,396.2,122.3,373.2z" fill="#FFFFFF"></path><path d="M59.1,307.4c5.7,4.6,10.9,8.9,16.3,12.9c1.6,1.3,3.6,2,5.7,2.2c8.3,0.4,16.6,0.3,24.9,0.6c2.3,0.1,4.5,0.6,8.1,1.1c-5.4,6.5-10,12-14.6,17.6c-0.5,0.6-1.2,1.1-1.8,1.8c-5.2,6-5.2,6-1.2,12.7c2.7,4.5,5.3,9.1,8.4,14.3l-45.8,30.8C59.1,401.4,59.1,307.4,59.1,307.4z" fill="#FFFFFF"></path><path d="M462.9,324.7c2.2-0.6,4.5-1,6.7-1.2c3.3-0.4,6.7-0.4,10,0c14.1,2.4,25-3.4,34.4-13.2c0.8-0.8,1.7-1.5,3.1-2.6v94l-46-30.8c3.9-6,7.8-11.6,11.2-17.5c0.7-1.2,0.3-3.9-0.6-5.1c-5-6.4-10.3-12.5-15.5-18.8C465.2,328.2,464.3,326.8,462.9,324.7z" fill="#FFFFFF"></path><path d="M262.5,416.6h51.4c0.7,12.2,1.7,24.4,10.5,34.9c-4.4,4.5-8.5,9-12.9,13.2c-0.8,0.8-2.5,0.8-3.8,0.8c-13.1,0-26.3-0.1-39.4-0.3c-1.3,0.1-2.6-0.3-3.7-1c-4.3-4.1-8.4-8.5-12.6-12.9C260.5,440.9,261.9,429,262.5,416.6z" fill="#FFFFFF"></path><path d="M488.9,214V112.2c12.1,8.7,23.8,17,35.4,25.5c0.9,0.7,1.4,2.5,1.4,3.8c0.1,12.3,0.1,24.7,0,37c0,1.4-0.3,3.2-1.3,4C512.9,193,501.1,203.2,488.9,214z" fill="#FFFFFF"></path><path d="M489.1,517c-0.3,0-0.6-0.1-0.9-0.2c-19.5-13.9-39.5-27.2-56.6-44.1c-1.1-1-1.8-2.3-2-3.7c-1-13.3,1.2-26.7,6.5-39c9.1,6.8,18,13.3,26.9,20c4.7,3.5,9.6,6.7,13.7,10.8c2.2,2.2,3.2,6,3.8,9.2C483.5,485.5,486.2,501.2,489.1,517z" fill="#FFFFFF"></path><path d="M140.2,429.4c5.3,12.4,7.5,25.9,6.5,39.3c-0.3,1.4-1,2.7-2,3.7c-17.2,16.9-37.1,30.3-56.7,44.1c-0.4,0.2-0.7,0.3-1.1,0.3c1.3-6.3,2.5-12.5,3.8-18.7c2.3-11.4,4.6-22.8,6.9-34.2c0.2-1.3,0.7-2.4,1.6-3.4C112.6,450.2,126.2,440,140.2,429.4z" fill="#FFFFFF"></path><path d="M387,449c10.8,9.2,21.1,18.8,32.2,27.3c6.1,4.7,8.8,10.2,10.9,17.4c3.7,12.4,9.1,24.3,13.7,36.4c1.2,3.2,2.4,6.4,4,10.6c-11-7-20.5-14-31-19.5c-15-7.8-21.3-22.8-31.4-34.7c-5.6-6.7-7.7-13-3.9-21.4C384.2,460,385.4,454.2,387,449z" fill="#FFFFFF"></path><path d="M189.3,448.7c2.7,8.4,5.5,17,8.1,25.6c0.2,1.1,0,2.2-0.6,3.1c-8.2,11.5-16.2,23.3-25,34.3c-3.1,3.8-8.2,6.1-12.4,8.9c-9.9,6.4-19.9,12.7-31,19.8c1.6-4.2,2.8-7.3,3.9-10.5c5.2-14.5,10.1-29.2,15.9-43.5c1.5-3.7,5.1-6.7,8.2-9.4C167.2,467.4,178.2,458.1,189.3,448.7z" fill="#FFFFFF"></path><path d="M93.1,302.3c-1.9-1.7-3.6-3.1-5.3-4.7C75,285.7,62,273.9,49.4,261.8c-2-2.1-3.2-4.8-3.4-7.6c-0.3-14.3-0.2-28.6-0.2-42.9c0-0.8,0.1-1.5,0.2-2.6c0.6,0.2,1.1,0.4,1.6,0.7c13.9,12.9,27.8,25.9,41.8,38.6c2.9,2.5,4.5,6.2,4.2,10c-0.2,14.1,0.1,28.3,0.1,42.4C93.8,300.9,93.5,301.3,93.1,302.3z" fill="#FFFFFF"></path><path d="M299,95.6c6.9,0,12.7-0.1,18.5,0.1c1.5,0.1,2.8,0.7,3.8,1.8c8.6,11.2,17.2,22.4,25.4,33.9c0.9,1.3,0.5,4.7-0.7,6.1c-6.6,8.3-13.5,16.4-20.1,24.2L296,148.6c4.6-5.1,9.5-10.6,14.4-15.9c3.3-3.5,2.9-6.2-0.8-9.6C302.1,116,299.8,106.4,299,95.6z" fill="#FFFFFF"></path><path d="M277.1,95.3c-0.4,10.5-2.9,19.7-10.1,27.1c-4.9,5-5.2,5.2-0.7,10.6c4.5,5.4,9.5,10.6,13.9,15.4l-30,13c-6.7-8-14-16.7-21.1-25.7c-0.8-1-0.4-3.8,0.5-5c8.1-11.1,16.4-22.1,24.8-33c1.2-1.3,2.8-2.1,4.6-2.2C264.9,95.1,270.7,95.3,277.1,95.3z" fill="#FFFFFF"></path><path d="M488.6,297.8c0-17.3,0-33.2,0.1-49.1c0.1-1.3,0.7-2.5,1.7-3.4c11.6-10.5,23.2-20.8,35.4-31.8v12c0,11.3,0.1,22.7-0.1,34c0,1.8-0.5,4.2-1.7,5.4C512.7,275.7,501.1,286.3,488.6,297.8z" fill="#FFFFFF"></path><path d="M242.5,455.9c4.9,5.6,9.3,11,14.1,16c1.7,1.5,3.9,2.4,6.1,2.5c17,0.3,33.9,0.4,50.9,0.4c2.4-0.1,4.7-1.1,6.4-2.8c4.8-5,9.2-10.4,14-15.9c3.9,2.4,7.6,4.3,10.8,6.9c0.9,0.7,1,4,0.1,5.1c-4.9,6.3-10.1,12.4-15.4,18.3c-0.9,1-3,1.5-4.5,1.5c-15.6,0.1-31.3,0.2-46.9,0.1c-8.8,0-17.6-0.2-26.4-0.6c-1.8-0.1-4.2-0.5-5.4-1.8c-5.1-5.5-9.7-11.4-14.6-17c-2.1-2.4-1.7-4,0.7-5.7C235.7,460.8,238.8,458.5,242.5,455.9z" fill="#FFFFFF"></path><path d="M525.8,111.1c-11.2-8.6-21.4-16.3-31.5-24.2c-4-2.8-6.2-7.5-5.9-12.3c0.5-13.6,0.1-27.2,0.1-41.4c0.7,0.3,1.4,0.6,2.1,1c11,9.7,21.9,19.5,32.8,29.2c1,0.9,2.2,2.4,2.2,3.6C525.8,81.3,525.8,95.6,525.8,111.1z" fill="#FFFFFF"></path><path d="M314.2,292h-51.9v-31.1c17.4,6.8,34.2,8,51.9,0.1V292z" fill="#FFFFFF"></path><path d="M254.7,493.6h67.2l-33.5,36.6L254.7,493.6z" fill="#FFFFFF"></path><path d="M242.8,206.4c-17.8-18.7-28.8-39.2-28.2-65c4.3-1.8,7.2-0.9,10.3,2.8c7.6,8.8,15.7,17.2,23.8,25.6c2.2,2.4,2.9,4.4,1.2,7.4c-3.8,7.1-5.8,15-5.9,23C243.7,202.3,243.3,204.4,242.8,206.4z" fill="#FFFFFF"></path><path d="M333.3,206.1c-0.5-1.9-0.8-3.9-1-5.9c-0.1-8-2.1-15.9-5.9-22.9c-1.4-2.5-1.3-4.3,0.9-6.6c8.8-9.3,17.2-18.9,26.2-28.1c1.6-1.6,4.9-1.5,7.4-2.2C365.2,158.4,349.5,195.4,333.3,206.1z" fill="#FFFFFF"></path><path d="M396.7,523.1c-16.8,4.4-32,11.4-49.4,11.5l19.9-48.1L396.7,523.1z" fill="#FFFFFF"></path><path d="M209.2,486.1l19.7,47.6c-7,2.8-34.6-6.3-48.7-11.3L209.2,486.1z" fill="#FFFFFF"></path><path d="M302.7,212.3c0-8.9-6.9-16.7-15-17c-7.1-0.2-14.1,7.9-14.2,16.5c0,9.2,7.1,17,15.5,16.8C296.3,228.6,302.7,220.8,302.7,212.3z" fill="#FFFFFF"></path><path d="M302.7,212.3c0,8.5-6.5,16.2-13.6,16.4c-8.4,0.1-15.5-7.7-15.5-16.8c0-8.6,7-16.8,14.2-16.5C295.9,195.6,302.7,203.4,302.7,212.3z" fill="#FFFFFF"></path></g></g></svg>