<svg xmlns:xlink="http://www.w3.org/1999/xlink" xmlns="http://www.w3.org/2000/svg" x="0" y="0" viewBox="0 0 1028.4 933.3" focusable="false" aria-hidden="true" class="classes-experience-vtosvo" width="1028.4"  height="933.3" ><g fill="#FFFFFF"><g fill="#FFFFFF"><path d="M413.5 435.9c7.4-6.5 7.4-14.5 7.3-22.6 0-5.4-3.5-9.3-8.6-11.4-13.2-5.3-26.3-11-39.5-16.5-3.1-1.3-1.9-3.2-1.4-5.3 1.3-5.8 3.4-12.5-3-16.1-3.6-2-8.8-1.2-13.3-1.6-.7 0-1.4.1-2.1.4-6.6-9-12.7-17.8-19.4-26.1-17.1-21.5-34.3-42.9-51.6-64.2-11-13.6-22.2-26.9-33.2-40.5-1.3-1.7-2-3.8-2.1-5.9-.5-16.6-1-33.3-1.2-49.9-.1-7.6.5-15.3 1.2-22.9.4-1.9 1.6-3.5 3.2-4.4 16.6-8.5 32.9-17.8 50.1-24.8 28-11.4 56.2-22.6 85.6-30.2 11.9-3.1 23.5-7.3 35.3-10.8 13.1-3.8 26.4-7 39.4-11.1 17.9-5.7 35.6-12.2 53.4-18.2 1.6-.4 3.2-.3 4.8.2 26.7 7.6 53.5 15.1 80.2 22.9 34.8 10.2 69.8 19.9 104.2 31.5 25.5 8.6 50.5 18.9 73.8 32.7 1.9 1.1 3.2 4.5 3.4 7 .9 13.6 1.5 27.2 2 40.9.4 11.5.8 23 .7 34.5-.1 3.1-1.1 6.1-3 8.6-10.3 13.1-20.9 25.8-31.5 38.7-1 1.3-2 2.6-2.9 3.9l-1.3-.7c0-7.2.1-14.4 0-21.6-.4-24.3-.8-48.6-1.4-72.9-.2-6.8-2.8-11.6-10-14.4-40.4-15.8-82.2-27.1-124.3-37.1-23.4-5.6-46.5-12.8-69.7-19.3-3.2-.9-6.3-1.9-9.5-3-4.9-1.7-6-1.1-6 4.1-.3 30.2-.7 60.3-.8 90.5-.1 77.2-.1 154.3 0 231.5 0 3.2-.5 5.4-3.4 7.5-4.7 3.4-5.7 11.6-2.3 16.6 4.3 6.3 5.8 12.9 5.8 20.6-.3 53.5-.3 107 0 160.5.1 8.5-3.3 14.8-8.3 21.5-3.4-5.2-6.6-10-9.6-14.8-9.9-15.8-19.8-31.5-29.8-47.3-4.7-7.4-9.7-14.8-14.6-22.1-1.8-2.8-3.9-5.3-6.3-7.6-5-4.5-7.2-10.3-8.6-16.5-.3-1.5 1.3-4 2.7-5.1 4.3-3.4 8.9-6.5 13.6-9.3 8.2-4.9 13.4-12.2 17.9-20.4 10.9-19.9 21.8-39.8 32.7-59.6 2.9-5.2 2.2-14.1-2.6-16.5-3.2-1.6-7.7-1.8-11.5-1.3-11.5 1.8-22.9 4.1-34.3 6.6-10.8 2.4-21.3 3-31.8-1.7-5.8-2.7-11.8-4.6-18.4-7z" fill="#FFFFFF"></path><path d="M266.6 435.7c8.2-8.5 7-14.8 1.1-23.7-14.4-21.8-27.1-44.6-39.8-67.4-10-18-18.7-36.7-28.5-54.9-8.9-16.4-18.5-32.4-27.8-48.6-1.3-2.3-2.5-4.6-4-7.5-10.7 10-20.6 20-20.3 35.7.3 14.1 1.9 28 6.4 41.6 4 12 7.1 24.2 10.7 36.3-4.1 1.4-7 .3-9.5-2.8-4.9-5.9-9.7-11.9-14.8-17.5-7.8-8.6-15.8-17-23.6-25.6-6.3-7-12.3-14.4-18.6-21.5-1.2-1.5-2.8-2.8-4.6-3.6-15.3-5.9-30.6-11.3-45.8-17.5-6.9-2.8-13.6-6.3-19.8-10.4-10.1-6.7-16.4-16.6-19.1-28.4-5.4-23.9-10.2-48-8-72.7 1.8-19.9 3.9-39.8 5.5-59.7C7.4 71.2 8 54.9 9.3 38.6c.9-11.6 2.4-23.1 3.8-34.7.1-1 .9-1.9 2.7-2.9.8 3 1.8 6.1 2.5 9.1 5.6 23.5 11 47 16.7 70.4 5 20.8 15.5 38.8 28.2 55.7 8.5 11.3 16.9 22.7 26.2 33.3 6.7 7.6 15.9 11.6 26.3 12.8 7.5.9 12.6-3.5 18.2-6.8.6-.7.9-1.6.8-2.6-1.6-9-9.9-14.9-18.9-12.7-3.3.8-4.9 0-6.7-2.4-9.8-13.7-16.7-29.2-20.3-45.7-.7-2.6-2.2-4.8-4.2-6.5-4.4-3.5-3.8-11.2 1.9-14.9 8.3-5.4 16.9-10.6 25.4-15.8 1.7-1 3.6-1.8 5.5-2.2 4.7-1.1 7.1.7 8.4 5.3.6 2.5 1.8 4.8 3.5 6.6 8.8 8.6 17.9 16.9 26.8 25.4 1.9 1.8 3.3 4.2 5 6.2 3.6 4.1 5.1 7.8 1.4 13.2-4.3 6.4-1 12.6 3.2 17.8 9.5 11.6 19.6 22.7 29 34.3 12.9 15.9 25.2 32.3 38.2 48.1 19.2 23.4 39 46.3 58.1 69.8 13.1 16.2 25.4 33 37.9 49.6 4.5 5.9 8.7 12 12.8 18.2 3.1 4.7 6.9 7.5 12.9 5.9 2.4-.5 4.9-.8 7.3-1-1.1 3.4-1.9 6.2-2.9 9-2 5.9-1 9.4 4.8 12 13.1 6.1 26.5 11.8 39.7 17.6 2.3 1 6.4 2.3 6.4 3.4 0 3.8-.5 8.4-2.7 11.2-5.8 7.3-12 14.2-18.7 20.7-7.4 7.7-15.2 14.9-23.4 21.7-5.5 4.2-11.6 7.8-18 10.4-15 6.6-29.3 15.2-45.6 18.4-4 .8-8.4-.2-12.6-.8-.8-.1-1.8-2.5-1.8-3.9-.2-13.1-.3-26.2-.4-39.4 0-.7 0-1.3-.2-2-1.2-4.1-2.1-8.5-3.9-12.3-2.5-5.3-7.9-1-11.7-2.8-.6.3-1.7.6-4.3.4zM1014.7.2c.5 2 1 4 1.2 6 2.1 26.2 4.1 52.4 6.2 78.6 1.9 22.6 4.2 45.1 5.9 67.7 1.8 23.4-3.3 46.1-8.8 68.6-3.2 13.3-11.7 23.1-23.6 29.7-6.5 3.5-13.1 6.6-20 9.2-13.5 5.3-27.3 9.8-40.6 15.5-4.2 1.8-7.3 6.5-10.6 10.2-8.8 10-17.2 20.3-26 30.3-8.4 9.6-17.1 18.9-25.7 28.4-2.4 2.7-5 4.3-8.8 1.5 2.6-8.5 5.1-17.1 7.9-25.6 5.7-17.7 9.8-35.8 9.2-54.5-.3-9.8-5.3-17.6-11.6-24.7-2.5-2.8-4.9-5.7-7.8-9.2-5.7 9.9-10.8 18.3-15.7 27-7.7 13.6-15.3 27.3-22.7 41.1-7.7 14.5-14.7 29.4-22.8 43.8-10.3 18.3-21.2 36.1-32 54.1-4.3 7.1-8.8 14.1-13 21.3-.8 1.6-.8 3.4-.2 5 1.4 3.5 3.4 6.7 5.5 10.6-3.5.3-6.6 1-9.6.6-3.8-.5-5.3 1.3-6.6 4.4-4.4 10.8-4 22.2-4.4 33.5-.2 6.1.8 12.3.8 18.5 0 1.4-1.6 3.9-2.8 4-4.2.5-8.6 1.1-12.6.2-17.7-4-33-13.9-49.7-20.3-8.6-3.3-14.7-9.6-21-15.8-10.9-10.7-21.7-21.5-32.1-32.8-2.6-2.8-3.3-7.3-4.7-11.1-.9-2.6.5-3.7 2.9-4.7 14.1-5.9 28.2-12 42.2-18 1.1-.4 2.1-1 3-1.7 2.9-2.8 5.9-5.4 3.3-10.2-1.5-2.8-2.1-6.2-3.2-9.9 2.7.4 4.8.8 6.9 1 8.1 1 10.7-1.3 14.6-8.5 3.2-5.9 8-11 12.1-16.4 11.2-14.7 22.1-29.6 33.7-44 11.1-13.7 23.1-26.7 34.3-40.3 14.3-17.5 28.1-35.5 42.4-53 17.7-21.8 35.6-43.3 53.4-64.9 4.8-5.8 5.7-11.6 1.5-18-2.6-3.9-2.1-6.8.6-9.7 8.8-9.3 17.5-18.7 26.5-27.7 4.4-4.4 10-7.4 11.4-14.4.8-4.2 5.1-4.8 8.6-3.1 6.1 3 11.9 6.5 17.8 10 3.6 2.1 7 4.5 10.5 6.6 7.3 4.3 7.8 11.5 1.3 16.6-1.3 1.3-2.1 2.9-2.3 4.7-2.5 15.2-9.3 28.7-17 41.8-2.5 4.2-5.6 7.6-12 6.6-7.8-1.2-16.2 6.2-17 13.7.1 1.1.6 2.1 1.5 2.8 9.5 7.4 19.4 7.8 30.3 2.9 12.9-5.9 21.1-16.5 29-27.5 6.2-8.6 12.1-17.5 18.3-26.2 14.4-20 21-43.3 26.9-66.7 4.1-16.3 7-32.8 10.5-49.3.6-2.8 1.5-5.6 2.2-8.4l2.5.1zM474.2 851.4l-16.1-7.6c-22.2-10.5-46.6-13.5-70.1-19.6-2.4-.5-4.9-.1-7.1 1-16.8 8.1-33.5 16.3-50.1 24.7-12.2 6.2-24.2 12.7-36.4 18.8-2.2 1-4.6 1.2-6.9.6-22.1-8.8-44.2-17.8-66.1-27.1-11.6-4.9-22.8-10.6-34.7-16.1 1.3-.5 2.4-1 3.6-1.3 27.6-6.9 55.3-13.7 82.8-20.9 8.8-2.3 17.3-5.9 26-8.8 2.9-1 3.7-2.7 3.7-5.6 0-34.5-1.5-68.9-6-103.2 0-1.4.1-2.7.2-4.1 3.6 1.8 6.6 3.5 9.7 5 11 5.4 22.1 10.8 33.2 16.1 8.4 4 17 7.6 25.5 11.6 1.4.8 2.3 2.1 2.7 3.7 5.5 21.8 11 43.6 16.3 65.5 1.3 5.3 5.5 6.7 10 7.7 8.6 2 17.2 4 25.7 6.1 4.5 1.1 7.7 3.1 9.5 8.3 2.6 7.8 8.3 12.5 17.4 12.3 7.1-.2 14.4.8 21.5.2 13.7-1.2 25.4 4.4 37 10.2 6.7 3.4 12.9 3.8 19.4-.1.4-.2.9-.4 1.3-.6 15.9-10.3 33.9-10.1 51.6-9.6 11.7.3 19.2-3.8 22.5-15.1.7-1.5 2-2.5 3.5-3 10-2.9 20.1-6 30.3-8.2 6.4-1.4 10.9-3.6 12.5-10.7 4.9-21.1 10.2-42.1 15.5-63.1.6-1.6 1.8-3 3.4-3.7 12.9-5.8 26.1-11 38.9-17 9-4.2 17.6-9.4 26.4-14.1.7-.3 1.5-.6 2.2-.9.3 1.1.4 2.3.4 3.5-4.5 34.4-6 69-6 103.7 0 3 1.3 4.4 3.9 5.5 19 8 39 12.2 58.9 16.9 17.2 4 34.2 8.7 51.3 13.1.8.3 1.5.7 2.2 1.1-1.5.8-2.4 1.3-3.4 1.8-32.4 13.7-64.7 27.4-97.1 40.9-2.4.9-5 .8-7.4-.2-26.8-13-53.5-26.3-80.2-39.6-1.6-.8-3.2-1.8-4.7-2.9-3.3-2.5-6.9-2.9-10.9-1.9-14.9 3.6-30 6.4-44.7 10.8-13.2 4.1-26 9.9-38.9 15 0 .6.1 1.1.1 1.7 5.5 3.5 10.8 7.8 16.7 10.5 10.5 4.9 18.7 12.7 28 19 10.7 7.3 12.5 17.8 13.4 29 .5 5.6-1.8 10.3-6.8 13.6-3.1 2.2-6 4.7-8.5 7.6-2.1 2.3-3.6 2.3-5.6-.1-4.2-5.1-8.6-10.1-12.9-15.2-15.5-18-34.7-30.8-56.2-40.4-2-.9-3.8-2.3-5.8-2.8-2.3-.5-5.2-1.2-7.1-.3-19.4 8.8-38.4 18.5-53.5 34.1-7.5 7.8-14.6 15.8-21.7 24-2.5 2.9-4 3.1-6.6.1-2.4-2.7-5.2-5.1-8.2-7.1-4.7-3.1-7.4-7.5-6.5-12.7 1.3-8 3.8-15.7 5.9-23.5.2-.6.7-1.2 1.2-1.5 11.4-7.5 20.6-17.9 33.5-23.4 6.3-3 11.7-7.4 18.4-11.7z" fill="#FFFFFF"></path><path d="M483.1 806.8H449c-5.4 0-8.3-2.4-10.1-7.7-2.8-8.3-6.6-16.3-10-24.5-.7-1.6-1.5-3.2-2.2-4.7 6.6-.4 12.9-.3 19-1.3 2.5-.4 5.4-2.7 6.9-5 10.2-15.2 20-30.6 30.1-45.8 2.3-3.4 3.2-6.3 1.9-10.5-2.2-7.2-.6-8.6 6.5-8.8 3-.2 5.8-1.4 8-3.4 5.5-5.7 11.2-11.5 15.6-18.1 21.4-32.7 42.5-65.7 63.6-98.6 5.1-8 10.3-15.9 15.1-24.1 4.6-8 2-14.9-5.9-19.6-6.9-4-13.6-8.5-19.8-13.5-3.5-3-5.8-7.6-8.2-11.8-11.2-20-22.2-40.2-33.3-60.3-.2-.6-.3-1.2-.4-1.9 12.1 2.3 24 4.3 35.7 6.9 15.9 3.5 32 3.5 46.2-4.1 10.7-5.8 16.9-3.5 24.4 4.3 8.7 9.1 18.4 17.4 27.9 25.8 2.5 2.2 6 3.5 9.1 5 13.2 6.3 26.4 12.6 39.7 18.9 5 2.4 4 6.8 4.1 11.1.2 8.8-.4 17.9 2 26.2 2.5 8.6 7.7 16.5 12.4 24.3 5.9 9.8 12.4 19.2 19 29.2-15.8-1.8-31-3.5-46.2-5.2-9.9-1.1-19.9-1.9-29.8-3.4-4.2-.6-8.3-2.1-12-4.3-7.4-4.4-14.5-9.4-21.5-14.5-3.6-2.9-8.7-3.1-12.6-.5-4.8 3-9.9 6.6-13 11.2-21.9 32.2-43.3 64.8-64.8 97.3-6.5 9.8-13 19.7-19 29.8-3.3 5.5-6.1 11.6-1.6 18.2 1.6 2.4-1.1 6.6-4.6 6.6-6.9-.1-10.2 4.2-13.6 9.1-9.2 13.2-18.6 26.3-28.1 39.3-4.4 6-3.9 12.1-1.3 18.4 1.3 3.4 3.1 6.5 4.9 10z" fill="#FFFFFF"></path><path d="M503.1 448.1c-12.8 23.5-25.2 46.2-37.8 68.9-1.7 2.7-3.9 5-6.5 6.7-6.2 4.4-12.7 8.5-19.1 12.7-4.8 3.1-7 11.9-3.5 18.5 5.6 10.5 11.8 20.7 18.3 30.7 12.2 18.9 25 37.4 37.2 56.2 5.2 8 9.8 16.4 14.5 24.7.5.9.9 2.4.4 3.2-4.2 6.9-8.6 13.7-15.8 18.8-9-13-17.8-25.5-26.3-38.2-15.6-23.3-30.7-47-46.5-70.3-3.7-5.1-8.2-9.5-13.5-12.9-5.6-3.9-10.7.2-15.4 3.2-4 2.4-7.8 5.1-11.5 8-8.2 6.8-17.6 9.2-28 10.1-22.2 2-44.2 4.8-67.1 7.3 4-6.3 7.8-12 11.3-17.9 6.5-11 13.2-21.9 18.9-33.3 2.2-4.4 2.5-9.9 3-15 .3-5.1.3-10.3-.1-15.4-.2-4.5.6-7.8 5.4-10 14.3-6.3 28.5-12.8 42.5-19.9 4.8-2.4 8.6-6.7 12.7-10.3 8.9-8 17.9-16 26.5-24.4 3.6-3.5 7-3.7 11.2-1.8s9 3.3 13.4 5.3c12.3 5.6 25 4.6 37.7 2.3 12.4-2.2 24.9-4.7 38.1-7.2zM100.4 710.6c17.2 3.4 33 7.1 48.9 9.5 15.6 2.3 31.4 3.5 47.2 4.8 9.6.8 10.6-.8 11.5-10.6 2.7-28.8 5.6-57.7 8.4-86.5.2-.7.5-1.4.9-2.1 1.6 1.4 3.1 2.9 4.5 4.5 10.9 15.3 25.6 26 41.4 35.5 2 1.2 3.3 3.2 3.8 5.5 3 33.2 5.1 66.4 4.5 99.8 0 3.2-1.2 4.8-4.2 5.7-31.7 9.6-63.6 18.4-96.8 21.8-1.5.2-3.6-.1-4.5-1-5.3-5.2-10.4-10.7-15.6-16.1-2.9-3-6-5.8-8.4-9.2-13-17.9-25.9-35.9-38.7-53.9-1.5-2.1-1.9-4.8-2.9-7.7zm829.5-.7c-1.3 3.6-1.7 6.2-3 8.2-13.3 21.1-26.6 42.3-44.6 60-5.9 5.8-11.1 12.3-17 18.2-1.7 1.4-3.9 2.2-6.1 2-32.8-3.2-64.4-12-95.8-21.5-3.4-1-4.9-2.6-4.7-6.3 1.5-32.9 3-65.9 4.3-98.8.1-3.2 1.4-4.8 4.3-6.5 15.8-9.1 30.4-19.8 41-35 .5-.7 1-1.3 1.6-1.9.7-.7 1.5-1.3 2.7-2.5.5.9 1 1.9 1.2 2.9 2.8 28.7 5.6 57.3 8.4 86 .2 2.5.4 5.2 1.6 7.2 1 1.6 3.5 3.3 5.3 3.2 30.1-.8 59.6-5.8 88.9-12.1 3.4-.7 6.7-1.7 11.9-3.1z" fill="#FFFFFF"></path><path d="M172.6 560.4c1.2 1.8 2.3 3.7 3.3 5.6 5.1 11.8 11.2 23.1 19.5 33 2.8 3.2 3.9 7.5 2.9 11.6-3.4 17.5-6.6 35-9.9 52.6-2.1 11.3-4.4 22.5-6.6 33.7-.5 2.4-1.4 3.7-4.3 3.4-24.2-2-48.2-6.5-71.6-13.2-7.5-2.2-13.3-5.9-16.9-12.9-10.2-19.9-20.4-39.7-30.5-59.6-.5-1.2-.8-2.5-1-3.8.7.1 1.4.2 2.1.4 15.5 8.8 32.5 13.7 49.7 17.6 8.8 2 17.5 4 26.2 6.1 3.6.9 5.9.4 7.4-3.5 5.3-13.8 10.8-27.6 16.5-41.3 4-9.5 8.4-19 13.2-29.7zm800.3 49.8c-.4 1.8-.9 3.5-1.5 5.2-9.2 18.3-18.5 36.5-27.7 54.9-4.9 10-12.8 15.3-23.5 18.2-22.2 5.8-44.9 9.8-67.8 11.9-3.1.3-3.7-1.5-4.1-3.7-2.2-11.2-4.5-22.5-6.6-33.8-3.4-17.8-6.7-35.7-9.8-53.6-.4-2.5 0-6 1.5-7.9 8.8-11.3 16.1-23.7 21.7-37 .5-1.1 1.5-2 2.8-3.7 1 2.3 1.8 3.9 2.5 5.5 9 21.7 18 43.3 26.8 65.1 1.5 3.7 3.6 4.8 7.3 3.8 18.5-4.9 37.1-9.4 55.5-14.6 5.9-1.6 11.3-4.7 17-7.2 1.6-.8 3.3-1.7 5.9-3.1zM463.4 727.9c-6.5-5.6-12.4-10.9-18.6-15.9-9.8-7.9-20.7-14.7-29.5-23.6-23.5-23.8-46.1-48.5-66-75.5-2.9-4-5.6-8.1-8.9-13 7.4-.8 14-1 20.4-2.3 5.3-1 10.5-2.8 15.3-5.2 6-3.2 11.4-7.5 17.1-11.2 6.1-4 10.4-3.2 14.3 2.8 20 30.2 40 60.4 60.1 90.7 3.1 4.7 6.6 9.2 9.6 14 .7 1 .8 3.5 0 4.1-4.2 4.1-4.6 9.2-3.9 14.3.5 3.4-.4 6.9-2.5 9.6-2.4 3.4-4.7 7.1-7.4 11.2z" fill="#FFFFFF"></path><path d="M889.7 487.6c.9 1.4 1.7 2.4 2.3 3.5 8 14 15.9 28.1 23.9 42.1 4.3 7.5 5.6 8.2 13.5 5 17.2-6.9 32.7-17.4 45.5-30.9 6.3-6.6 12.1-13.6 18.2-20.4l1.6.3c-.4 8-.3 16-1.2 23.9-2.4 22.5-10.5 43.6-17.2 65.1-.9 2.1-2.4 3.9-4.4 5-20.2 11.7-41.9 20.6-64.5 26.5-3.3.8-4.5.2-5.9-2.9-9.7-20.6-19.8-41.1-29.6-61.7-.7-1.7-.8-3.7-.2-5.5 5.4-16 11.1-32 16.7-48 .4-.6.8-1.4 1.3-2zM37 486.9c6 6.8 11.9 13.8 18.2 20.4 12.6 13.4 28 23.8 45 30.7 8.4 3.4 9.6 2.7 14.2-5.3 8-14 15.9-28.1 23.9-42.1.7-1.1 1.5-2.2 2.3-3.2 2 5.9 3.6 11.2 5.5 16.5 4 11.3 8.3 22.5 12.2 33.8.6 1.8.5 3.7-.2 5.5-9.8 20.6-19.8 41.1-29.6 61.7-1.5 3.1-2.7 3.6-6 2.8-22.6-5.8-44.3-14.7-64.5-26.5-2-1.1-3.6-2.9-4.4-5-6.6-21.4-14.7-42.5-17.1-65-.8-7.9-.8-15.8-1.2-23.8l1.7-.5zm608.5 100.5c11.7 12.6 27.7 10.1 42.9 12.7-32.6 51.5-75.1 92.6-121.2 131.3-4.5-7-8.4-12.4-11.4-18.3-1.2-2.4-.7-5.8-.6-8.7.4-4.2-.9-8.3-3.7-11.5-.8-.9-.9-3.6-.1-4.5 3.7-4.2 7.4-8.6 11.9-11.9 21.6-15.9 40-35 57.1-55.4 8.8-10.4 16.4-21.8 25.1-33.7z" fill="#FFFFFF"></path><path d="M985.7 404.8c1.5 5 3.1 8.7 3.6 12.5 1.3 10 2.7 20.1 3.1 30.2.1 4.1-1.2 8.1-3.7 11.4-10.4 11.9-21.2 23.4-32.3 34.6-6 6-12.8 11.1-19.5 16.2-5.9 4.5-7.2 3.8-11.1-2.4-9-14.4-18.2-28.6-27.2-43.1-1.2-1.9-1.8-4.2-1.5-6.5 3.1-16.3 6.5-32.6 9.9-49.8 4 7.6 7.7 14.8 11.5 21.8s7.9 14.2 12.2 21.1c2.6 4.1 5.3 4.6 9.1 1.3 5-4.4 9.6-9.2 14.2-14 10.2-10.5 20.3-21.3 31.7-33.3zm-942.4 3.3c7.9 6.9 16.1 13.4 23.7 20.6 6.8 6.4 12.7 13.6 19.3 20.2 8 7.9 10.6 7.4 15.9-2.4 3.4-6.2 7-12.4 10.4-18.7s6.7-12.6 10.5-19.7c.9 4 1.8 7.3 2.5 10.7 2.4 12.4 4.9 24.8 7.1 37.3.4 2.4.3 5.5-.9 7.5-9.6 15.8-19.6 31.3-29.4 47-1.8 2.9-4 2.2-6 .9-5.8-3.9-12.1-7.3-17-12.2-13.2-13.2-25.8-26.9-38.3-40.6-2-2.1-3.8-5.7-3.5-8.5 1.2-13.4 3.1-26.7 4.8-40 .2-1.4 1.1-2.7 1.7-4l-.8 1.9z" fill="#FFFFFF"></path><path d="M93.6 292.5c6 6.6 11.8 12.7 17.3 19.1 1.2 1.5 1.7 4 1.8 6.1.7 18.6 4.2 36.7 8.5 54.7.6 2.6.4 5.2-.7 7.6-8.3 14.6-17 29-25.6 43.5-.3.6-.7 1.1-1 1.6-6.2-5.9-12-11.3-17.6-16.9-6.7-6.7-13.4-13.5-19.7-20.5-1.5-1.7-2.5-5.3-1.8-7.5a488.7 488.7 0 0 1 37.4-85.9c.4-.7.9-1.3 1.4-1.8zm842.9 133.3c-7.9-13.4-14.7-26.2-22.8-38.1-5.5-8.2-4.9-15.9-3-24.9 3-14.4 4.2-29.2 6.6-43.8.6-3.5 2.1-6.8 4.3-9.6 4.5-5.7 9.8-10.8 14.7-16.1.6.2 1 .3 1.1.5 7.6 15.5 15.6 30.8 22.6 46.6 5.7 12.7 10.2 26 15 39.1.7 2 .7 5.5-.5 6.8-12.2 13-24.8 25.8-38 39.5zm-414 316.7c12.1-4.1 17.5-12.2 13-24.2-.3-.6-.4-1.2-.3-1.9 2.4-5.2 4.9-10.3 7.4-15.5l2.3.7c-.4 2.9-1.1 5.8-1.2 8.7-.1 2-.2 4.4.8 5.9 9.7 15.7 19.7 31.1 29.5 46.8 3.8 6.2 9.7 7.7 16.2 7.9 3.8.1 7.6-.5 11.7-.9-3.3 7.8-6.3 15.1-9.4 22.4-1.2 2.5-2.3 5.2-3.1 7.9-1.2 4.8-3.9 7.2-8.8 7.2h-34.9c2-4.5 4.5-9 6-13.8 3.1-9.4-3.7-15.6-8.3-22.3-6.7-9.6-13.7-19-20.9-28.9zm200.9-214.3v-19.8l9.3.6-8 19.5-1.3-.3zm-419.5.6-8-19.6 9.2-.9v20.2l-1.2.3zm210.4 221.4c2.2 3.1 4 5.5 6.1 8.4-4.7 1.4-8.2 6.5-14.1 2.1l8-10.5z" fill="#FFFFFF"></path></g></g></svg>