<svg xmlns:xlink="http://www.w3.org/1999/xlink" xmlns="http://www.w3.org/2000/svg" x="0" y="0" viewBox="0 0 175.15 163.43" focusable="false" aria-hidden="true" class="classes-experience-vtosvo" width="175.15"  height="163.43" ><path d="M2.55,21.65a70.11,70.11,0,0,0,19.5,5.45c9.93,1,27.93,3.49,33.16-4.8S52.16,6.59,52.16,6.59s8.67,2.68,8.67,12.28-1.69,11.28-3,13-6.54,8.73-3,21.82S67.43,72,67.43,72s1.52.74,1.38,5.89,0,18.54,0,18.54-11.28-14-18.27-18.87c0,0,5.44-8,5.18-12.17s-.44-.11-2.72,3.17a29.84,29.84,0,0,1-3.87,4.23s-.36-1.72-7.66-2.22c0,0,8.24-6.74,10.17-10.89.85-1.82,1.47-3.89-1.15-.54C48.46,61.79,43,66,43,66s-2.62-2.53-8.65-4.6c0,0,8.36-3.16,12.14-6.11,1.87-1.46,3.64-4.19,2.21-3-1.1.87-3,3.23-15.49,6.38,0,0-4-1.51-9.23-7.84,0,0,14.08-1.15,21.51-4.08,3-1.18-1.05-.47-3.89,0-4.15.76-15.55,1.39-18.56.83,0,0-3.34-1.58-9.13-8.94,0,0,21,2.61,32.37.66.88-.15-.81-.42-4.22-.51a115,115,0,0,1-23.72-2.5C13.52,35.19,8.19,30.19,2.55,21.65Z" transform="translate(-2.55 -2.09)" fill="#FFFFFF"></path><path d="M177.7,21.65a70,70,0,0,1-19.5,5.45c-9.92,1-27.92,3.49-33.16-4.8S128.1,6.59,128.1,6.59s-8.68,2.68-8.68,12.28,1.69,11.28,3,13,6.55,8.73,3.06,21.82S112.82,72,112.82,72s-1.51.74-1.38,5.89,0,18.54,0,18.54,11.28-14,18.28-18.87c0,0-5.44-8-5.18-12.17s.44-.11,2.71,3.17a30.49,30.49,0,0,0,3.87,4.23s.36-1.72,7.66-2.22c0,0-8.23-6.74-10.16-10.89-.86-1.82-1.48-3.89,1.14-.54,2,2.61,7.48,6.79,7.48,6.79s2.62-2.53,8.64-4.6c0,0-8.36-3.16-12.13-6.11-1.88-1.46-3.64-4.19-2.22-3,1.11.87,3,3.23,15.5,6.38,0,0,4-1.51,9.22-7.84,0,0-14.08-1.15-21.5-4.08-3-1.18,1-.47,3.88,0,4.16.76,15.55,1.39,18.56.83,0,0,3.34-1.58,9.13-8.94,0,0-21,2.61-32.37.66-.88-.15.82-.42,4.22-.51a115,115,0,0,0,23.73-2.5C166.74,35.19,172.07,30.19,177.7,21.65Z" transform="translate(-2.55 -2.09)" fill="#FFFFFF"></path><path d="M115.5,39.78A14.53,14.53,0,0,1,114,43.42c-1.52,4.34-4.1,4.11-10,8.11S93.94,54.6,93.94,54.6V43.52h3.43V40.69l-3.43-4.52V18.58l1.75-1.22-1.62-1V13.11c3.24-.4,7.35,5.47,7.35,5.47-.34-3,1.55-9.31,1.55-9.31h-8.9a14.42,14.42,0,0,1,.34-3.77c.47-2.3,3.17-3.41,3.17-3.41H82.65s2.7,1.11,3.17,3.41a13.9,13.9,0,0,1,.34,3.77h-8.9s1.89,6.27,1.55,9.31c0,0,4.11-5.87,7.35-5.47v3.24l-1.62,1,1.76,1.22V36.17l-3.44,4.52v2.83H86.3V54.6s-4.21.93-10.07-3.07-8.45-3.77-10-8.11a14.94,14.94,0,0,1-1.53-3.64s-2.58,5.52-2.11,9.39,7.74,8.21,8.45,15.25-.59,9.74,4.22,12.08V80l-3.64,3.17s2.94,5.86,2.23,10.09c0,0,2.7-7.63,6.45-7.39v54.9s5.22,17.38,9,24.74l-.5-6.76V78.71H83.3l-2.45-.64,2.47-1.57h5.49V68.2l-3.88-1,5.2-5.2,5.2,5.2-3.82,1v8.3h5.42l2.48,1.57L97,78.71H91.55v80.06L91,165.33c3.75-7.48,8.87-24.54,8.87-24.54V85.89c3.75-.24,6.45,7.39,6.45,7.39-.7-4.23,2.23-10.09,2.23-10.09L104.94,80V76.5c4.81-2.34,3.52-5,4.22-12.08s8-11.38,8.45-15.25S115.5,39.78,115.5,39.78Zm-40.38,33s.61-3.65,3.83-4.07a14.86,14.86,0,0,1-2-6.78c-.07-3.64-3.3-3.76-5.15-5.09a22.17,22.17,0,0,1-4.6-4.77,20.17,20.17,0,0,0,8.25,5c4.39,1.47,2.52,7.14,6,11.05l3.5,3.92S78.2,68.6,75.12,72.8Zm32.95-15.94c-1.85,1.33-5.08,1.45-5.15,5.09a14.86,14.86,0,0,1-2,6.78c3.22.42,3.83,4.07,3.83,4.07-3.08-4.2-9.8-.7-9.8-.7l3.5-3.92c3.5-3.91,1.63-9.58,6-11.05a20.17,20.17,0,0,0,8.25-5A22.17,22.17,0,0,1,108.07,56.86Z" transform="translate(-2.55 -2.09)" fill="#FFFFFF"></path></svg>