<svg xmlns:xlink="http://www.w3.org/1999/xlink" xmlns="http://www.w3.org/2000/svg" x="0px" y="0px" viewBox="0 0 735.5 1018.4" focusable="false" aria-hidden="true" class="classes-experience-1i91nb7" width="735.5"  height="1018.4" ><g fill="#FFFFFF"><g fill="#FFFFFF"><path d="M229.8,438.4c-7.7-0.2-13.8-3.3-17.4-9.4c-7-12-8.7-25-4-38.4c1.1-3.2,3.3-4.9,7-5.4
			c9.5-1.3,19.7-13,19.2-22.6c-0.4-7-2.3-14-3.4-21c-0.3-1.8-0.7-3.8-0.1-5.3c5.5-14.7,10.9-29.4,22.7-40.6c0.8-0.8,1.7-1.6,3.1-2.9
			c1.3,2.4,2.6,4.4,3.6,6.6c7.6,16.2,20.6,26.2,36.8,32.7c8,3.2,17.5,1.4,22.7-5.4c14-18.2,23.4-38.4,24.3-61.7
			c0.8-18.1-9.2-31.4-21.7-43.2c-0.8-0.8-1.8-1.5-3.3-2.8c3.1-2.7,6-5.3,9-7.7c4.5-3.7,9.4-6.9,13.6-11c5.3-5.3,8.6-11.7,8.6-19.6
			c-0.1-18,0.7-36-0.3-54c-0.5-8.7-2.8-18.2-7.1-25.7c-5.3-9.3-5.9-18.3-3.9-27.8C343.2,54,352.6,37,365.6,22c3-3.5,5.8-3.3,8.6,0.2
			c15.4,18.8,27.1,39.2,27.4,64.4c0,2.8-0.7,6-2.2,8.4c-7.1,12.1-10.4,25-10.1,39.1c0.3,15,0.4,30,0,45c-0.3,9.9,3.7,17.4,10.9,23.6
			c5.5,4.8,11.4,9.2,17.1,13.7c0.9,0.7,1.9,1.4,3.3,2.4c-3.5,3.4-6.6,6.2-9.4,9.1c-16.2,16.9-19.5,36.6-12.3,58.3
			c4.3,13,9.6,25.5,17.7,36.8c7.2,10.1,16.8,13.3,28.2,8.3c14.9-6.6,27.1-16.2,34.2-31.4c1-2.1,2.3-4.1,3.4-6.1
			c0.1-0.1,0.3-0.2,0.9-0.5c6.1,5.7,11.7,11.9,15.4,19.6c3.1,6.4,5.6,13.2,8.9,19.5c3.6,6.9-0.7,12.9-1.7,19.3
			c-2.7,16.6,0.7,22.8,12.6,31.3c1.3,1,2.9,1.6,4.5,2.1c6.7,1.9,10.5,5.2,10.4,12.3c-0.2,8.9-1,18-3.2,26.5
			c-2.4,9.2-11.9,15-19.9,14.2c0.6-2.7,1.1-5.4,1.8-8.1c4.7-15.9-12.4-26.6-24.6-25.8c-14,0.9-25.8,6.6-34.6,17.6
			c-12.3,15.5-21.9,32.6-28.5,51.3c-4.7,13.3-1.7,25.2,8.3,30.4c6.1,3.2,13.5,4.1,20.4,5.7c2,0.5,4.2,0.1,7.3,0.1
			c-3.1,12-5.4,23.4-8.9,34.4c-7.8,24-17.5,47.6-24.3,71.9c-9.9,35.1-18.1,70.7-17.5,107.6c0.4,29.1,6.7,56.8,20,82.8
			c1.6,3.1,3.3,6.3,5.6,8.8c3.7,4.2,3.7,8.5,2.1,13.4c-7.9,23.5-14.9,47.3-23.6,70.5c-10.3,27.8-21.9,55.1-33.2,82.5
			c-1.8,4.3-4.2,8.3-6.8,12.2c-2.7,4.1-5.1,4.1-7.7,0.1c-3.2-5.1-6.3-10.3-8.5-15.8c-17.7-45.2-37.9-89.6-51.4-136.4
			c-1.3-4.5-2.3-9-3.8-13.4c-1.7-4.8-0.9-8.6,2-12.9c13-19.3,19.6-41,23.3-63.7c6.4-40.3-1.3-79.3-10.4-118.2
			c-6.4-27.5-16.3-53.8-25.8-80.3c-5-13.9-8.3-28.3-12.1-41.8c8.7-1.9,16.6-3.1,24.1-5.5c9.4-3,14.8-11.5,13.8-21.3
			c-0.6-5.7-1.4-11.8-4-16.8c-7.1-13.9-14.5-27.7-22.8-40.9c-8.1-12.9-20.3-20.4-35.8-22c-19.5-2.1-31.7,13.1-25.4,31.6
			C229.3,436.6,229.5,437.2,229.8,438.4z M361.7,565c-0.1,0-0.3,0-0.4,0c0,9.3-0.8,18.8,0.2,28c1.2,10.2,4.1,20.1,6.3,30.1
			c0.2,0.8,1.2,1.7,1.9,1.9c0.5,0.1,1.8-0.9,1.9-1.6c2.4-10,6.5-20,6.6-30c0.6-57.6,0-115.2,5.4-172.7c1.8-19.4,3.5-39.1,12-56.8
			c4-8.3,3.5-13.7-1.2-21c-9.7-15-16.8-31.4-22-48.5c-0.4-1.2-1.7-2.1-2.6-3.1c-0.9,1.1-1.7,2.2-2.5,3.3c-0.2,0.3-0.3,0.6-0.4,0.9
			c-6,20.1-15.5,38.5-26.8,56.1c-0.7,1.1-0.1,3.3,0.5,4.7c2.8,7.3,6.8,14.2,8.5,21.7c6.5,27.4,9.1,55.5,10,83.6
			C360.3,496.1,360.9,530.6,361.7,565z" fill="#FFFFFF"></path><path d="M467,632.2c4.2-9.2,8.3-17.9,12.1-26.7c7.9-18.1,11.2-37.6,15.1-56.7c1.4-6.8,0.2-14.1,0.2-21.7
			c1,0.3,2.8,0.6,4.2,1.5c13.7,9.8,27.3,19.9,35.9,34.8c5.3,9.1,8,19,8.8,29.8c1,13.4,9.4,26,25.3,25.4c0.7,0,1.3-0.1,2,0
			c20,2.4,30.9-10,39.6-25.2c2.7-4.7,3.9-10.4,1.3-16.1c-2.6-5.7-4.8-11.5-7.4-17.2c-2.1-4.5,1.7-5.3,4.1-6.1
			c4.2-1.4,8.7-1.9,13.1-2.8c7.8-1.7,13.4-6.4,17.3-13.2c5.6-9.7,5.6-19.9,0.9-29.6c-9.6-19.7-14.4-40.1-11.7-61.9
			c2.1-17.3,7.7-33.1,21.9-44.5c2.4-1.9,5-3.6,8.3-6c-2.3,7.9-4.3,14.6-6.2,21.3c-4.5,16.5-2.7,32.2,5.2,47.4
			c7.4,14.4,14.7,28.8,20.8,43.7c4.8,11.6,8,23.9,11.3,36.1c2.4,8.9-2.1,16.7-6.2,24c-5.2,9.3-13.1,17.4-16.6,27.1
			c-3.7,10.3-5,22-4.9,33.1c0.1,9.4,8.2,15.5,16.1,19.6c8.6,4.4,17.9,7.6,27.3,11.5c-2,1.7-4.5,4.1-7.3,5.9
			c-18.5,11.6-39.4,17.4-59.9,24.1c-24.3,7.9-49.2,10.2-74.5,8c-5.1-0.4-10.1-2.5-15.2-2.6c-18.9-0.1-36.9,3.4-53.1,14.3
			c-15.8,10.6-24.2,24.5-23.7,43.8c0.4,13.6-0.2,27.3,3.1,40.7c2.1,8.4,6.1,15.4,12.1,21.4c1.4,1.4,2.6,2.9,3.8,4.4
			c-0.2,0.5-0.5,0.9-0.7,1.4c-2.1-0.8-4.6-1.2-6.2-2.6c-17.5-15.9-33.2-33.5-37.9-57.3c-4.6-23.3-2.9-46.5,10.1-67.5
			c1.3-2.1,3.8-3.7,6-5c10.7-6.6,20.7-13.9,27.4-24.9c3.8-6.3,1.9-18.4-3.1-23.8C480.7,634.9,474.4,632.1,467,632.2z" fill="#FFFFFF"></path><path d="M249.6,820.5c0.6-0.9,1.1-2.1,1.9-2.7c13.1-10.8,15.6-26.1,16.8-41.4c0.9-11.2,0.2-22.6-0.7-33.9
			c-1.2-13.8-9.9-23.1-20.5-31c-16.1-12-34.6-16-54.1-15.8c-9.1,0.1-18.1,2.3-27.2,3c-20,1.5-39.6-1.1-58.7-7
			c-13.8-4.3-27.8-8.3-41.2-13.8c-10-4.1-19.2-10.2-28.7-15.6c-1.1-0.6-1.8-1.8-2.5-2.6c7-2.5,14.1-4.5,20.7-7.5
			c10-4.5,19.2-10.1,22.8-21.6c0.2-0.8,0.6-1.6,0.6-2.4c-0.5-14.1-1-28-9.5-40.5c-6.4-9.4-11.4-19.8-17.1-29.7
			c-3.1-5.4-2.1-11-0.9-16.5c3.9-18.9,11.6-36.4,20.3-53.5c5.4-10.7,10.1-21.7,15.2-32.6c5-10.7,4.4-21.8,2.3-32.8
			c-1.7-8.4-4.3-16.6-6.7-25.7c2.3,1.5,4.6,2.7,6.7,4.3c14.1,11.1,20.4,26.3,22.8,43.5c3.2,22.7-2,43.8-11.7,64.4
			c-7.9,16.9-0.8,38.3,19.3,42.6c3.1,0.7,6.3,0.9,9.2,1.9c2.9,0.9,5.7,2.6,7.4,3.4c-3.4,8.7-7,15.9-8.9,23.6
			c-0.9,3.8,0.6,8.6,2.1,12.5c4.2,11,13.8,17.2,22.5,24.1c0.3,0.2,0.6,0.3,0.9,0.4c9.9,1.8,19.8,3,29.4-1.1
			c9.9-4.2,14-13.2,14.6-22.8c1.1-19.7,9.3-35.4,23.8-48.2c5.6-5,11.3-9.8,17.2-14.4c2.4-1.9,5.4-3,7.7-4.3
			c-0.4,37.9,10.5,72.1,26.9,104.2c-4.9,2.2-10.3,4-15,6.9c-9.4,5.9-12.7,23-1.5,33.2c7.6,6.9,16.1,12.7,24.2,19
			c1.4,1.1,3.2,2.1,4,3.5c5.8,10.4,10.9,21,11.4,33.2c0.6,13.8,2.9,27.9-2.6,41c-4.2,10-9.7,19.7-15.9,28.6
			c-5.3,7.7-12.3,14.4-18.9,21.2c-1.9,2-4.8,2.9-7.3,4.3C250.3,821.4,249.9,821,249.6,820.5z" fill="#FFFFFF"></path><path d="M180,379.8c-3.3-6.8-5.6-13.9-9.7-19.7c-7-9.8-17.5-14.3-29.3-14.9c-13-0.6-26-0.2-39-0.3
			c-3.2,0-6.5-0.3-9.9-1.6c1.3-0.5,2.6-1.1,3.9-1.6c9.7-3.7,18.9-8.4,26-16.2c5.8-6.5,9.6-13.9,9.3-23c-0.2-6.7-0.5-13.4,0.1-20
			c0.5-5.2,2.5-10.3,3.8-15.5c0.6,0,1.2,0.1,1.7,0.1c1.6,2,3.2,4.1,4.9,6c10,10.9,22.5,16.3,36.8,12.1c12.5-3.6,17.9-11.2,17.4-24.4
			c-0.5-13.3-8-22-18.7-28.2c-3.3-1.9-8.6-2.6-12.3-1.5c-18.9,5.9-37.4,3.9-55.3-3c-15.8-6-31.2-13.3-46.7-20.1
			c-1.6-0.7-3.1-1.7-4.5-3.6c2,0,4-0.3,5.9,0.1c31.7,6.5,61.9,0.2,90.3-13.3c20.3-9.6,31.6-27.9,38.5-48.9
			c5.8-17.4,2.1-32.6-10.6-45.4c-6.6-6.7-14.2-12.5-21.3-18.6c-1.1-0.9-2.1-1.8-4-3.4c8-1.4,14.8-0.7,21.4,1.5
			c17,5.5,34,11,48.3,22.2c7,5.5,13.6,11.9,19.1,18.9c9.5,11.9,12.5,25.5,7.7,40.4c-6.7,20.8-13.1,41.7-15.3,63.4
			c-0.8,8.2,1.1,16.8,2.7,25c1.9,9.4,4.6,18.7,7.3,28c1.2,4-1.2,5.1-3.8,6.3c-14.4,7.1-25.2,17.8-32.6,31.9
			c-4.5,8.7-7.1,18.2-6.7,27.9c0.5,13.4-6.7,22.6-15.2,31.2C187.2,374.9,183,377.4,180,379.8z" fill="#FFFFFF"></path><path d="M581.4,75.5c-4.8,3.7-10,7-14.5,11.1c-11.8,10.8-23.1,22.1-23.3,39.6c-0.2,12.3,4.5,23.4,10.3,34
			c9.9,18,24.4,30.4,44.1,36.8c23.7,7.6,47.6,12.8,72.6,8.3c2.9-0.5,5.9-0.9,8.9-1.3c0.4-0.1,0.9,0.3,1.7,0.7
			c-0.5,0.6-0.8,1.3-1.2,1.5c-21.2,8.7-42.1,18.4-63.7,25.7c-12.3,4.1-26,4.7-38.8-0.2c-7.8-3-14.1-0.8-20.3,4.1
			c-11.5,9.1-16.4,22.9-12.3,35.4c3.2,9.8,16.6,17.8,30.4,14.8c11.7-2.5,20.6-8.8,27.4-19.3c3.9,4.9,5.8,9.9,5.9,15.7
			c0.1,6,0.3,12,0,18c-0.6,13.2,5.1,23.3,15.5,30.6c7.1,5,15.2,8.7,23.6,13.4c-3.4,0.2-6.4,0.6-9.5,0.7c-12.5,0.1-25-0.2-37.5,0.2
			c-20.2,0.6-36.8,13.4-39.4,35.2c-6.9-4.1-13-8.9-17.8-15c-5.4-6.9-9.5-14.1-9.3-23.5c0.3-10.9-2.2-21.6-7.7-31.2
			c-7.4-12.8-17.5-23-30.9-29.6c-4.2-2-5.2-3.9-3.9-8.8c3.9-14.8,8.4-29.7,9.6-44.8c0.9-10.9-2.6-22.4-5.2-33.4
			c-2.9-12.5-6.8-24.7-10.5-36.9c-4.9-15.9,0.2-34.2,12.8-44.8c0.8-0.6,1.6-1.3,2.2-2c17.6-21.4,42.6-28.6,67.7-35.6
			c4-1.1,8.5-0.2,12.8-0.2C581.1,74.8,581.2,75.1,581.4,75.5z" fill="#FFFFFF"></path></g></g></svg>