<svg xmlns:xlink="http://www.w3.org/1999/xlink" xmlns="http://www.w3.org/2000/svg" x="0" y="0" viewBox="0 0 841.2 863.3" focusable="false" aria-hidden="true" class="classes-experience-874rm2" width="841.2"  height="863.3" ><g fill="#FFFFFF"><g fill="#FFFFFF"><path d="M605.4 660.7c3.6 27.6 3.1 53.8-16.2 75.9-11.4 13.1-20.8 19-27.3 18.6-.1-.6-.1-1.2 0-1.8 1.8-8.2 4.1-16.4 5.2-24.8 1.3-10.2 1.9-20.5 2-30.9-.1-5.3-1-10.6-2.8-15.6-3-9.1-13.6-11.3-20.3-4.6-.8.8-.8 2.6-.6 3.9 1.1 6.4 3 12.7 3.5 19.1 1.1 13.5-1.9 26.3-10.6 37-13.8 16.9-27.6 33.8-41.7 50.4-7.1 8.3-15.1 16-22.7 23.9-9 9.4-9.5 25.6-.7 34.5 1.8 1.8 4.8 2.5 7.3 3.5 1.2.5 2.5.8 3.8 1.2-.5 1.5-.7 3.3-1.7 4.4-6.9 8.1-17.6 9.9-28.2 4.7-11-5.4-20.1-12.9-26-24-3.8-7-11.5-7-15.4 0-7.8 13.8-19.1 23-34.5 26.6-8.2 1.9-15-1.6-20.3-8-1.6-1.9-2.5-4.5 1.3-5.1 8.2-1.3 12.4-4.8 14.1-12.7 2.3-10.5 0-19.5-8.1-27.3-23.6-22.6-44.5-47.6-63.8-74.1-9.9-13.5-11.1-28.9-8-44.8.2-1.1.6-2.2.9-3.4 2.6-10 4.3-9.2-5.5-12.6-6.5-2.3-12.3.7-14.2 7.9-1.7 6.4-2.6 13-2.5 19.6.2 10.2 1 20.3 2.3 30.3.9 7.5 2.8 14.9 4.4 23.1-1.6-.4-3.8-.4-5.4-1.4-16.6-10.2-30-23.1-35.4-42.7-4.6-16.5-5.4-33.9-2.2-50.8-2.2 2.8-4.6 5.6-6.6 8.5-6 8.7-14.6 13.9-23.8 18.3-18.3 8.7-37.6 9-57.2 7.3-1-.1-2-.3-3-.4-11-.7-19.6-4.7-25.2-15-6.3-11.8-9-24-6.3-37 1.6-7.7 10.7-14.3 18.1-13.7 7.9.6 13.2 6.4 14.1 15.5.3 3 .3 6-.1 9-.7 5.3 2.5 7.7 6.6 8.1 10 .9 19.4-1.2 26.4-8.9 2-2.2 3.1-6 3.2-9.1.9-16.4-5.2-29.9-17.7-40.5-.6-.6-1.3-1-2.1-1.2-12.8-2.3-22.9-10.3-33.9-16.5-22.4-12.6-42.2-28.6-61-45.7-12.5-11.5-22.8-25.2-33.6-38.2C12.7 475.8 6.3 444.8 2 413c-2.5-18.3-2.8-36.5.2-54.7C6 335.4 18.3 316.8 34.5 301c9.1-8.8 19.1-16.6 29.9-23.3 24.8-15.4 52.1-22.9 81.5-20.1 11.4 1.1 22.9 2.5 33.8 5.6 8.1 2.3 15.9 6.9 23 11.6 6.9 4.6 12.6 10.8 19.1 16 1.4 1.1 3.3 1.4 5 1 4.9-1.9 9.7-4.3 13.6-6.1-2.2-13-5-25.3-6.4-37.8-1.7-15.6 2.4-29.9 12.2-42.5 15.9-20.3 37-32.6 60.8-40.9 11.9-4.2 24.4-6.9 36.2-11.4 12-4.6 21.8-12.5 25.5-25.6 1.2-4.5 1-9.6.4-14.2-.3-2.1-2.8-4.2-4.7-5.7-.5-.4-3.1 1.3-4 2.5-.5.8.3 2.5.6 3.8 1.9 9.8-2.1 17.4-11.4 21.1-15.8 6.2-31.2.6-34.7-18.7-4-22 15.3-44.8 40.8-41.8C376 76.9 391.2 95.8 391 114c-.1 8.6-.3 17.3-2 25.7-1.6 7.9-7.1 13.9-13.3 19.4-15 13.5-34.1 18.3-52.2 25.2-20.4 7.8-33.5 23.1-39.9 43.3-7 22-1.2 41.4 15.5 56.3 8 7.2 18.7 7 29 6 1.7-.2 3.3-.4 4.9-.8 15-3.3 23.4-13.4 24.1-29.5.2-5.8 0-11.6-.6-17.4-.9-8.1-5.8-13.6-12.6-17.5-4.4-2.5-8.6-2.4-12.5 1-3.1 2.8-3.5 8.2-1.5 13 1.3 3.3 2.6 6.9 2.8 10.5.6 15.4-13.9 25-28 18.5-9.6-4.4-12.3-13.1-13.2-22.9-2.8-30.2 25.2-43.5 47.4-42.4 19.8 1 34.5 16.7 39.1 33.9.9 3.3 1.9 6.5 2.9 10 10.4-5.8 16.4-13.2 16.9-25.4 1.2-26.1 4-52.1 5.4-78.2.7-13.3.4-26.6-.8-39.9-.5-6.2-3.6-12.4-6.5-18.2-9.6-18.9-12-38.1-2.8-57.6 3.5-7.2 7.7-13.9 12.7-20.1 7.2-9.2 22.2-9.3 30-.4 9.6 11 16.5 23.6 18.2 38.2 1.5 12.8 0 25.8-6.6 36.8-8.5 14.1-10 29.1-9.2 44.7 1.2 24.6 2.6 49.2 4.1 73.8.5 8.6 1.6 17.2 2.2 25.9.8 10.3 8.4 15.1 16.3 20.8 1.1-3.6 2-6.6 2.9-9.7 8.7-28.1 29.2-38.4 55.1-33 10 2.1 18.2 7.6 24.8 15 7.9 8.7 10.6 32.6-.3 44.8-4.4 4.9-14.7 7.5-21.3 5.1-12-4.5-16.7-16.2-11.2-28.2.7-1.1 1.3-2.3 1.7-3.6 1-4 1.1-8.1-2.2-11.2s-7.4-3.6-11.6-1.5c-9.4 4.8-14.3 12.5-14.1 22.8 0 7.6.7 15.2 1.9 22.7 1.6 9.3 8.5 14.5 16.9 17.5 11.9 4.3 24.3 5.2 35.4-1.2 13.8-8.1 20.4-21.6 21.6-37.4s-4-29.2-13.4-42.2c-11.1-15.3-26.4-22.2-43.3-27.5-15.6-4.9-29.8-12.2-41.6-23.8-9.9-9.8-12.1-22.3-11.9-35.4.2-8.9 1.3-17.6 6.3-25.8 8.6-14.2 21-20.3 37.1-19.7 23.5.9 39.7 25.8 31.7 48.1-6.6 18.3-28.1 17.2-37.8 9.7-6.2-4.8-8.5-10.7-6.7-18.3.5-2.4 2.3-6.2-1.6-6.4-2.1-.1-5.6 3-6.4 5.3-2.5 7.8-1 15.5 3.5 22.5 8.4 13.1 21.5 19 35.8 22.7 15.5 3.9 31 8.2 45 16.1 16.2 9.2 31.6 19.8 41.9 36.1 8.2 13 10.6 27.2 8.3 42.2-1.6 10.8-4 21.5-6.3 33.1l15.1 7.3c10.6-8.1 20.1-16.1 30.2-22.9 5.2-3.5 11.6-5.8 17.8-7.5 20.3-5.5 41-7.3 61.8-3.9 26.5 4.3 50 15.6 70.6 33 16.3 13.8 30.1 29.4 37.5 49.6 3.7 10 6 20.4 6.7 31 2.3 35.2-3.6 70.4-17 103.1-5.9 14.6-16.6 26.4-25.9 38.9-13 17.4-30.1 30.5-46.7 44.2-18.6 15.6-39.4 27.6-60.4 39.5-.9.7-2 1.2-3.2 1.4-8.8.6-14.4 6.1-19.4 12.5-5.2 6.6-8.3 14.6-8.8 23 0 .5-.1 1-.1 1.5-2.7 16.7 6.8 22.2 22 25 2 .3 4 .3 6 .2 5.5-.1 8.1-2.8 8.1-8.3-.2-3.2-.2-6.3 0-9.5.8-8.7 6.3-14.4 14-15 7-.6 16.3 5.7 17.9 12.7 3 12.9.3 24.9-5.3 36.8-6.7 14.1-19.1 16.1-32.4 17.2-22 1.7-43.2-.7-62.7-12.2-7.7-4.6-13.5-11.2-18.6-18.5-.9-1.3-1.9-2.6-2.8-3.9zm-154-63.2c50.8-12.9 84.9-45.4 100.7-95.4 8.9-.9 17-.9 24.6-2.7 24.3-5.5 32.4-23.8 24.1-45.9-5.9-15.7-19.5-22-36.1-21.2-4.3.2-8.5 1.2-12.8 1.9-15.9-52-50.2-84.7-103-98.2.3-1.1.5-1.9.7-2.7 3.7-14.2-1.9-27.8-14.9-32.8-5.5-2.1-12-1.9-18.1-2-12.8-.4-23 7.8-25.1 20.4-.9 5.6-.2 11.5-.2 17.5-24.1 5.9-46 16.7-64.5 34.5s-30.5 39-37.6 63.6c-2-.5-3.9-1-5.9-1.4-8.2-1.6-16.5-1.9-24.1 1.5-13.9 6.2-21.7 16.9-22 32.7-.3 13.1 5.9 23.5 18.1 28.9 10.6 4.7 21.8 5.3 33.6 4.9 7.2 23.9 19.4 45 37.9 62.5s40.2 28.2 64.3 34c.3 5.6 0 10.6.9 15.5 1.4 8.2 4.1 16.3 12.4 19.9 9.2 4 19.1 3.5 28.9 1.2 6.2-1.4 10.7-5.4 12.5-11.2 2.5-7.8 3.7-16.2 5.6-25.5zm-244-46 .3-1.6c-4.3-5.2-9-10.2-12.9-15.8-6.1-8.9-12.4-17.8-17-27.4-5-10.2-10-20.2-17.4-28.9-6.1-7.1-5.6-11.9.4-18.8 3.3-3.8 6.4-8.2 7.9-13 4-11.9 10.1-22.9 18.1-32.5 3.2-4 6.2-8.3 8.8-12.7 4.8-8.5 2.4-18.5-5.6-24.2-2.9-2-6-3.6-8.9-5.6-17.9-12.4-38.4-15-58.8-11.9-30.7 4.7-59.4 30.4-59.2 67.5.2 38.2 17.9 66.5 47.8 88 17.8 12.7 37.1 23.1 57.5 30.8 8.7 3.3 18.2 4.9 27.5 6.6 3.6.6 7.6-.3 11.5-.5zm426.4-.6c1.5.4 2.9 1.2 4.3 1.2 12 .3 23.5-1.6 34.5-6.4 17.8-7.9 35.2-16.5 51.7-27.1 21.2-13.7 38.4-30.7 47.2-54.5 7.8-20.9 10.9-42.6 1.2-64.1-11.3-25.3-31.8-38.6-58.5-41.5-22.2-2.4-42.8 3.4-61.1 16.9-10.1 7.4-12.7 17-6.1 27.6 2.3 3.7 4.8 7.2 7.6 10.5 7.4 9.1 13.8 18.8 17.2 30.2 1.6 6.1 4.9 11.7 9.4 16.1 5.8 5.6 5.3 11.1.3 17.7-4.5 5.8-8.6 11.8-12.2 18.1-3.8 6.6-6 14.2-10.1 20.5-8 11.7-16.7 22.9-25.4 34.8zm-125 140.3c-1.5-4.7-2.3-9.8-4.6-14-6.1-11.3-19.2-11.8-26.2-1.4-.6 1-1.4 1.9-2.2 2.7-7.8 7.2-15.6 14.5-23.5 21.6-10.9 9.8-20.1 20.8-23.9 35.4-1.1 4.3-3.5 5.9-7.8 6-4.5 0-6.1-2.2-7.7-6.2-2.7-6.7-6-13.2-9.6-19.5-6.5-11.3-17.7-17.9-26.9-26.5-4.8-4.5-10-9.2-13.3-14.7-3.2-5.2-7.1-6.8-12.4-6.2-7.6.9-12.9 5.3-15.3 12.6-3.6 11-1.8 21.8 2.2 32.2 4.9 13 13.6 23.7 22.2 34.2 10.1 12.5 19.7 25.6 33.6 34.6 7.6 5 14.5 11 19.7 18.8 4.7 7 10.4 7.1 15 .2 5.6-8.4 13.4-14.1 21.2-20.1 5-3.8 10.2-7.7 14.3-12.4 10.2-11.8 20.2-23.9 29.6-36.5 8.8-11.9 15.1-25.1 15.6-40.8zm-237-145.4c-16.6 18.8-25.1 39.3-20.8 64.4 1.3 8 6.5 13.2 12 16.9 5 3.3 12.2 4 18.6 4.7 21.2 2.2 40.2-3.1 56.7-19.8-33.4-11-50.2-37.9-66.5-66.2zm232 67c10.2 8.9 20.5 15.9 33.5 18 12.8 2 25.5 1.9 38-2.3 6.8-2.3 12-7.5 13.7-13.3 6.8-23.2.5-44.2-14-63-1.6-2-3.4-3.9-5.3-6-4.2 6.8-7.9 13.3-12.2 19.5-9.4 13.5-18.4 27.4-33.3 35.8-6.6 3.7-13.2 7.3-20.4 11.3zM268.9 393.6c3.5-4.6 6.7-8.5 9.6-12.7 3.2-4.8 5.7-10.1 9.2-14.6 9.3-11.9 20.2-22 33.9-28.8 9.4-4.7 9.1-5.8.6-11.6-18.9-12.7-39.1-16-60.7-8.7-3.7 1.2-7 3.3-9.7 6.1-1.7 1.8-1.5 5.3-2 8.1-4.4 24 2.7 44.5 19.1 62.2zm303.4.3c2.9-3.6 5.8-6.7 8.2-10.2 12.2-18 15-37.7 9.8-58.6-1-2.9-3.2-5.3-6.1-6.6-11-4.5-23-6-34.7-4.5-11.4 1.5-22.3 5.9-31.5 12.8-1.8 1.5-3.4 3.1-5 4.8 1.7 1.7 3.1 3.7 5 5 6 4.1 12.5 7.5 18.4 11.9 15.7 11.7 24.3 29.2 35.9 45.4z" fill="#FFFFFF"></path><path d="M478.3 480.9c13.6-7.4 18-19.1 21.8-31.1 3.6-11.1 6.6-22.4 9.6-33.6.6-2.4.1-5.2.1-9.7 4 3.4 7.6 5.6 9.9 8.7 10.6 14.5 10.5 30.1 3.7 45.9-5.1 11.8-13.2 21.5-22.4 30.4-4.9 4.7-9.8 9.6-10.9 17.8 10-4.9 19.2-10.4 26.2-18.1 7-7.8 12.2-17.2 18.3-26.1 7.2 5 7.1 12.9 6 20.7-1.5 10.2-5.8 18.9-15 24.8-12.3 7.9-24.5 16-36.4 24.6-19.1 13.8-38 27.9-56.9 41.9-7.8 5.7-15.5 5.7-23.4 0-22.9-16.7-45.9-33.4-68.8-50.1-10-7.2-20.5-13.7-30.1-21.3-8.3-6.6-12.3-24.9-8.3-34.6 1-2.3 3.2-4.2 5.7-7.3 9.7 24.8 28.4 39.4 52.1 49.9-7-8-13.1-15.6-19.8-22.5-8.7-8.9-16.7-18.2-21.7-29.7-6.9-15.8-7-31.5 3.5-45.9 2.3-3.1 5.9-5.3 9.8-8.7-.8 22.5 15.6 63.1 30.6 77.4 2.9-1.5 3.2-3.3 1.7-6.3-9.8-18.7-15.8-38.8-21.1-59.2-2.4-8.6-1.8-17.8 1.5-26.1 2.3-5.3 6.3-9.7 11.3-12.5 6.7-3.5 14.6-4.5 22.5-6.7.9 12.4 1.3 23.4 2.5 34.2 1.4 12.7 2.9 25.5 5.4 38.1 1 5.3 4.6 10.1 6.9 15.2.7 1.5.9 3.3 1.8 4.6 1.9 2.9 4.2 5.5 6.3 8.2l1.8-.9c-.3-2.4-.4-4.8-.9-7-6.6-29.3-9.7-59.2-9.3-89.2.1-4.8 2.3-9.6 3.7-14.4.5-1.1 1.3-1.9 2.3-2.5 15-8.7 30.4-9.4 44.6.4 4 2.8 6.2 10.8 6.1 16.4-.3 18.4-1.9 36.9-3.3 55.3-1 13.6-1.2 27.3-6.8 40.2-.4.9.7 2.5 1.1 3.8 1.3-.7 3-1.1 3.7-2.2 9.5-15.1 13.7-31.9 15.3-49.4 1.5-15.6 2.6-31.2 3.9-46.8.1-.8.2-1.6.3-2.8 8.4.6 16.5 1.5 23.6 5.8 6.2 3.8 10.4 8.9 11.7 16.5 1.5 9 2 18-1 26.7-6 17.3-12.3 34.5-18.4 51.7-.4 1.2-.4 3.1-.8 5.5z" fill="#FFFFFF"></path></g></g></svg>