<svg xmlns:xlink="http://www.w3.org/1999/xlink" xmlns="http://www.w3.org/2000/svg" x="0" y="0" viewBox="0 0 1823 2555" focusable="false" aria-hidden="true" class="classes-experience-1i91nb7" width="1823"  height="2555" ><g fill="#FFFFFF"><g fill="#FFFFFF"><path d="M557.8,2078.4c-8.8-2.2-18-3.3-26.2-6.8c-44.1-18.6-65.4-68.2-43.6-109.3c10.5-19.8,28.1-37.1,45.5-51.9
        c29.9-25.5,65.7-40.7,104.4-48.3c22.5-4.4,45-8.4,71.5-13.3c-24.1-12.7-46-23.9-67.6-35.7c-13.3-7.2-27.1-9.4-42.3-9.7
        c-45.6-0.7-81.9,19.4-112.1,50.7c-33.9,35.1-53,78.6-65,125.7c-9.2,36.3-0.5,68.5,17.5,99.9c21.7,38,52.7,64,95.4,73.9
        c15,3.5,31.2,4,46.5,2.7c27.4-2.4,43-28,36.9-57.4c-5-24.2-10.6-29.6-34.6-33.5c0.8-16.1,6.5-22.2,21.2-22.7
        c34.9-1.1,61.1,26.4,64.6,63.4c5.5,58.3-39.1,101-79,117.5c-22.9,9.5-49.6,10.7-75,4.7c-20.4-4.8-40.8-9.2-60.9-14.9
        c-30.3-8.6-55.1-27.2-78.4-47.3c-19.2-16.5-38.1-33.8-54.9-52.7c-10.7-12-18.9-27-25.3-41.9c-8.6-20.2-22.6-36.6-34.4-54.5
        c-16.2-24.4-25.1-50.9-22.7-80.8c1-12.4-0.8-25-0.2-37.4c1.6-33.8,21.2-57.7,44.6-79.3c4.5-4.2,9.2-8.3,16.2-14.5
        c-6.5-0.6-10.1-1.1-13.7-1.2c-37.6-0.1-75.1,0-112.7,0c-17.3,0-21.7-4.4-21.7-22.2c0-167.7,0-335.5,0-503.2
        c0-161.5,0-322.9,0-484.4c0-20.8,7.1-27.8,28-27.8c107.3,0,214.7,0,322,0c4.9,0,9.7,0,17.8,0c-9.7-7.2-16.2-13.8-24.2-17.6
        c-27.8-13.6-42.8-39.4-57.3-63.8c-11.2-18.8-5.6-41.8,0.8-62.5c2.7-8.9,7.3-17.3,11.6-25.5c22.8-44,73.2-67.7,122-57
        c42.5,9.3,59.2,45.4,55.7,83.6c-1.9,20.9-11.1,36.7-32.2,42.9c-5.2,1.5-11.5,1.7-16.7,0.4c-20.8-5.3-22.3-8.9-13.9-28.6
        c10-23.3-1.9-43.6-27.2-46.3c-4.9-0.5-9.8-0.8-14.7-0.9c-19-0.5-32.1,10.9-34.2,29.8c-0.7,6.2-0.5,12.6-1.8,18.7
        c-4.8,23.4,7.4,37.1,26.2,47.1c21.7,11.6,44,19.1,69.7,18c33.9-1.5,68-1.4,100.6-11.8c29-9.3,50.9-28.4,66.1-54.7
        c10.8-18.7,15.2-39.4,20.8-60.2c9.8-36,26.5-69.6,62.8-87.3c7.7-3.8,16.9-5.4,25.6-6.1c35.6-2.9,66.9,9.3,94,31.3
        c22.1,18,43,37.6,63.4,57.5c10.2,9.9,16,22.6,9.6,39.6c-6.3-3.2-12.9-6.3-19.2-9.9c-18.1-10.3-37-14.3-57.7-10
        c-49,10.2-79.3,42.2-99.7,85.3c-8.6,18.1-15.3,37-22.2,55.8c-5.8,15.7,8,32.9,24.5,30.5c3.5-0.5,6.5-5.3,9.6-8.2
        c19.6-18.7,38.2-38.7,59.1-55.8c30.6-25.1,68.3-31.2,106.4-34.6c39.9-3.6,79.1-0.8,117.4,12.8c9.4,3.3,20.4,3.2,30.6,2.8
        c9.5-0.3,17.8-4.8,17.9-16c0.2-15.9,1.5-32.3-1.3-47.8c-6.9-37.9-43.6-52.4-75.5-44.1c-13.3,3.5-26.6,7.2-40,10.3
        c-3.4,0.8-7.3-0.3-11-0.6c0.7-3.8,0.5-8,2.1-11.4c19.1-38.1,45.7-69.8,80.8-94.5c31.7-22.3,63.6-44.4,93.8-68.7
        c41.3-33.3,89-50.1,140-59.5c51.3-9.5,102.5-19.7,154.2-25.5c26.6-3,54.1,3,81.2,4.9c0.2,1.9,0.4,3.8,0.6,5.7
        c-6.8,2.2-13.5,4.7-20.5,6.6c-12,3.1-24.3,5.3-36.2,8.7c-58.4,16.9-96.4,56.6-122.7,109.5c-17.7,35.5-27.2,74-26.3,112.7
        c1,44.5,22.9,90.3,74.7,105.7c51.5,15.3,101.5,35.7,152.3,53.8c10.7,3.8,21.6,6.9,32.1,12.9c-9.3,0-18.5-0.2-27.8,0
        c-53,1.4-105.1,8.1-153,32.6c-32.8,16.8-62.8,37.6-77.9,73.8c-7.8,18.7-3,37,0.8,55.2c7.3,34.7,18.6,67.9,41.6,95.9
        c9.3,11.3,19.1,22.3,27.3,31.9c-30.2-8.5-64.1-17.3-97.5-27.6c-33.8-10.4-62.2-2.3-86.6,22.3c-15.5,15.7-13.5,35.2-9.3,54.2
        c4.3,19.5,12.6,37.2,23.9,54.5c17.3,26.5,27.6,56.8,31.5,88.8c3.9,31.4,8.1,62.7,12.1,94c0.5,3.9,0.1,7.9,0.1,13.3
        c-2-1.6-3.7-2.3-4.2-3.5c-17.5-43.6-51.7-70.2-92.4-90c-21-10.2-42.7-17.6-66.8-15.7c-19.7,1.5-38.2,26.8-31.8,45.6
        c9.8,29.1,13.3,58.6,6.6,89c-20.2-21.2-39.5-43.4-61-63c-9.3-8.5-22.9-13.4-35.5-16.7c-11.9-3.1-28.4,16.9-31.3,34.9
        c-1.1,6.9,2.3,18.5-8.5,17.6c-5.7-0.5-12.1-10.2-15.4-17.1c-8-16.5-6.1-33.2,0.3-50.5c19.7-52.7,55.6-93.9,96.6-129.8
        c56.9-49.9,90.8-111.4,100.4-185.2c5.8-45-1.5-89.7-32.6-125.9c-23.2-27.1-53.7-41.8-88.7-50.3c-27.9-6.8-53.8-2.8-80.2,3.4
        c-30.4,7.1-55.3,25.3-73.6,48.6c-36.4,46.5-47.8,100.2-31,157.9c6.3,21.5,24.6,34,42.1,45.2c30.2,19.3,64.4,22,99.1,17
        c6.3-0.9,13.1-3.9,18.2-7.9c42.5-33,64.8-75.5,58.3-130.3c-2.9-24.5-16.8-36.9-41.6-39c-20.4-1.8-38.7,10.9-45.2,32.2
        c-2.1,7.1-2,14.9-3.1,24.1c6.6-0.9,9.5-1.4,12.5-1.7c16.6-1.6,29.2,7.9,30.6,24.6c1.3,16.4-0.5,32.1-16.8,41.8
        c-17.5,10.5-36.6,14.1-52.5,0.4c-41.9-36-54.5-61.6-38.8-113.1c8.9-29.3,59.3-66.9,89.6-70.6c44.6-5.4,80.8,9.3,99.2,49.2
        c19.3,42,25,87.4,1.2,131.6c-12.7,23.5-22.2,49.2-37.8,70.5c-19.9,27.2-45.1,50.4-66.9,76.3c-20.3,24-44.4,43.6-67.6,64.3
        c-37.1,33.1-40.1,76.8-32,121c3.8,20.6,20,36,39.5,48c24.9,15.4,51.2,17.2,79,19.5c60.6,5,99.2,43.9,99.8,110.3
        c0.3,33-9.6,63.8-21.8,94.4c-20.5,51.3-38.4,103.5-74.6,147c-33.6,40.4-71.4,76-112.9,108c-55.2,42.6-116.1,74.5-180.7,99.9
        c-20.6,8.1-41.6,8.6-64.2,4.9c-60.3-10.1-118.1-4-169.7,33.5c-13.6,9.9-26.6,18-28.3,37.5c-2.3,26.3,11.5,40.6,32.5,51.1
        c0.8,0.4,1.8,0.4,2.5,0.9c0.7,0.4,1.2,1.2,1.7,1.8C558.2,2076.1,558,2077.3,557.8,2078.4z M505,1055.4c-3.9,5.2-6.1,7.9-8,10.8
        c-42.8,68.6-85.4,137.3-128.3,205.8c-4.4,7-4.5,12.3-0.1,19.4c36.4,57.8,72.3,115.8,108.4,173.8c8.6,13.8,17.3,27.6,26.6,42.5
        c3.1-3.5,5.1-5.2,6.5-7.4c43.3-69.8,86.5-139.6,130-209.2c4.5-7.1,4.5-12,0.1-19.1c-33.7-53.7-66.9-107.7-100.4-161.6
        C528.8,1092.6,517.5,1075.1,505,1055.4z M764.4,1803.8c-0.5,1.4-1,2.9-1.5,4.3c15.1,8,29.7,17.3,45.4,23.9
        c42.2,17.6,84.3,13.1,121.6-11.2c42.8-28,79.5-63.4,103.8-109.8c7-13.4,15.1-26.3,22.3-39.6c31.2-56.8,50-116.2,40.5-182.1
        c-3.7-26.1-21-43.3-42.9-38.4c-27.8,6.3-53.5,2.9-79.3-8.9c-45.4-20.8-81.5-50.3-100.3-98.3c-6.5-16.7-15.4-32.5-24.7-51.8
        c0,25.1,2.5,47.2-0.6,68.6c-5,35.5,11.3,59.7,35.9,81.1c3,2.6,5.9,5.5,9,8c24.2,19.4,46.4,41.9,79.9,45.6
        c42.6,4.6,78.2,59.2,68.8,95.3c-6.2,23.8-19,45.8-29.3,69.6c-6.6-14-10.7-25.8-17.5-35.8c-5.8-8.5-10.7-16.2-8.6-26.8
        c5.1-26.8-24.3-56.6-53.3-51.9c-19.2,3.1-35.7-5.2-51.2-15.6c-10.5-7-21.1-14-32.1-21.3c0,74,0,146.1,0,218.1
        c25.6,5.5,42.8-7,58.9-22.9c31.5-31.2,22.9-74.3-18.2-90.7c-2.4-1-5-3.6-5.9-6c-3.5-9.5,2.4-15.9,15.4-18
        c21.1-3.5,35.1,7.7,49.4,21.1c28.2,26.6,32,80.1,11.4,108.5c-22.2,30.7-51.6,53.1-83.2,72.4c-16,9.8-34.2,14.2-53.8,12.9
        C804.6,1802.8,784.5,1803.8,764.4,1803.8z M223.6,1499.4c3.7-4.7,4.9-6,5.8-7.5c41.7-67.1,83.5-134.1,124.6-201.5
        c2.7-4.4,2.4-13.3-0.4-17.8c-31.2-51.6-63.1-102.7-94.9-153.9c-10.8-17.4-21.9-34.7-32.8-52.1c-0.8,0.3-1.5,0.6-2.3,0.9
        C223.6,1210.2,223.6,1353,223.6,1499.4z M504.6,1514.5c-46.7,75-91.4,146.7-137.4,220.7c91.4,0,180.3,0,274.1,0
        C596.5,1660.8,550.8,1589.6,504.6,1514.5z M783.9,1501.3c0-148,0-292.2,0-439.3c-45.2,72.4-88.8,142-131.8,211.9
        c-2.3,3.8-1.9,11.4,0.4,15.4c9.9,17.4,21,34.2,31.6,51.2C716.8,1393.1,749.4,1445.8,783.9,1501.3z M640.4,830.2
        c-92,0-181,0-271.6,0c45.5,73,89.9,144.2,135.8,217.9C550.6,974.2,595.1,902.9,640.4,830.2z M355.5,1735.3
        c-44.3-71.3-87.1-140.3-129.9-209.2c-2.7,5.3-3.1,10.1-3.1,14.9c0,47.8,0,95.5,0,143.3c0,30,21.7,52.2,51.7,52.5
        c22.8,0.3,45.5,0.1,68.3,0C345.9,1736.7,349.3,1736,355.5,1735.3z M785.3,1524.6c-2.2,1.1-3.2,1.2-3.6,1.8
        c-40.7,65.1-81.4,130.1-121.8,195.3c-2.5,4-2.9,9.3-4.6,15.1c27.7,0,53.2,0.8,78.6-0.2c34.5-1.4,51.1-20,51.2-55.2
        c0.1-29,0.1-58.1,0.2-87.1C785.3,1571.3,785.3,1548.3,785.3,1524.6z M224.7,1038.3c43.6-70.3,86-138.6,129-207.9
        c-36.5,0-70.7-1-104.9,0.4c-17.5,0.7-25.1,10.7-25.3,28.3c-0.6,55.4-0.7,110.7-0.9,166.1C222.6,1028.9,223.7,1032.6,224.7,1038.3z
        M782.4,1037.8c0.9-0.2,1.8-0.3,2.7-0.5c0-59.8,0.2-119.7-0.2-179.5c-0.1-13.3-11.4-26.3-25.7-26.8c-34.6-1.3-69.3-0.4-105.9-0.4
        C696.7,900.2,739.6,969,782.4,1037.8z M849.9,1237.5c10.7-38.1,28.3-72.8,49.4-106c14.4-22.7,11.5-41.1-8.2-59.3
        c-14.2-13.1-27-27.6-41.2-42.2C849.9,1100,849.9,1168.7,849.9,1237.5z M321.1,1991.6c19.1-60.3,44.4-117,84.4-167.6
        c-42.5-8.6-62.4,22.3-82.4,48.1C300.9,1901,293,1960.6,321.1,1991.6z" fill="#FFFFFF"></path><path d="M1427.9,1491.3c2.1,70.2-17.1,133.7-34.7,193.6c-33.6,1.6-64.8,3.8-96.1,4.5c-35.2,0.8-70.4,0.2-107.4,0.2
        c3.8-12,7.7-24,11.3-36.2c4.7-15.8,8.5-31.9,14.2-47.2c2.7-7.2,7.6-15.9,14-19.1C1294.7,1554.8,1360.6,1523.6,1427.9,1491.3z" fill="#FFFFFF"></path><path d="M1360.4,1753c-26.3,67-75.5,113.1-130.2,155.4c-46.8-22.8-94.6-46-144.5-70.3c24.6-26.7,47.4-51.7,70.5-76.5
        c2.1-2.2,5.7-4.2,8.7-4.3c61.5-1.6,123-2.9,184.6-4.3C1353,1752.9,1356.6,1753,1360.4,1753z" fill="#FFFFFF"></path><path d="M1162.5,1950.7c-38.6,29-71.8,62.3-116.8,79.2c-18.7,7-36,17.4-54.2,25.6c-23.6,10.6-28.2,9.4-45.2-9
        c-19.6-21.3-39.4-42.5-59.9-64.7c45.2-18.2,81.9-47.4,119.4-75.2c8.2-6.1,16.8-11.6,25.9-16.1c3-1.5,8.5,0,12,1.8
        C1082.6,1911.2,1121.3,1930.4,1162.5,1950.7z" fill="#FFFFFF"></path></g></g></svg>