<svg xmlns:xlink="http://www.w3.org/1999/xlink" xmlns="http://www.w3.org/2000/svg" x="0" y="0" viewBox="0 0 615.4 661.3" focusable="false" aria-hidden="true" class="classes-experience-1i91nb7" width="615.4"  height="661.3" ><g fill="#FFFFFF"><g fill="#FFFFFF"><path d="M274.1 366c-5.4 2.1-10.6 4.7-16.1 6.1-28.1 6.8-53.2-2.6-71.2-25.6-5.3-6.7-6.9-15-7.3-23.5-.1-2.4-1.4-4.9-2.6-7-4.9-8.7-11.1-16.8-14.5-26-2.2-5.9-.9-13.4.1-20 .8-5.5 2.7-10.8-.8-15.8-1.6-2.3-3.6-4.2-6-5.6-4.4-2.5-5.2-5-1.5-8.4 2-2 4.5-3.3 7.2-3.9 15.1-2.1 30.2-2.3 45.1 1.5 15.5 3.9 28.7 12.4 41.8 20.8 8.6 5.7 16.9 11.8 24.9 18.4 7.9 6.3 15.4 13.1 23.3 19.9.1-1.4 0-2.7-.2-4.1-2.2-8.7-6.2-16.9-11.7-24-.7-.9-2.5-1.1-3.8-1.5-3.6-1.1-7.5-1.5-10.6-3.3-6-3.6-7.4-10.8-3.7-15.5 4-5 13.7-6.3 17.9-1.4 5.3 6.3 10.8 12.9 14.2 20.3 3.9 8.5 5.6 18 8.2 27.1.2.7.5 1.4 1 3.2 1.7-6.8 3-12.5 4.5-18.2 3.2-11.4 9-22 17-30.7 3.9-4.4 8.4-5.6 13.9-3.9 8 2.4 10.5 10.7 4.9 16.9-3.5 3.8-7.8 6.1-13.3 5.6-1.1-.1-2.7 0-3.2.6-6.6 8.6-11.7 18-13 29.7 5.7-5.2 10.7-10 16-14.4 18.6-15.5 38-29.9 60-40.3 17.4-8.3 35.9-9.3 54.7-7.3 4.4.5 9 .3 12.3 4.3s2.9 6.3-1.6 8.5c-5.7 2.7-9 8.9-8 15.1.8 4.6 2.5 9 2.9 13.6 1.3 15.4-7.5 26.7-15.6 38.4-1.7 2.3-2.7 5-3 7.9-.7 11.2-4.5 20.8-12.4 29.1-12.1 13.2-29 21-46.8 21.8-9.2.5-18.6-.6-27.2-5-2.6-1.3-5.4-2.4-8-3.6l-.9 1.8c6.3 3.2 12.6 6.5 18.9 9.7 11.7 5.9 23.6 11.4 35.2 17.7 8.7 4.7 12.5 12.7 12.4 22.4-.1 11.7-3.2 23.2-9 33.4-3.8 6.8-4.1 7 1.5 12.3 7.3 7.2 15.3 14 23.2 21 17.9 15.8 30.5 36.6 36.3 59.7 3.1 12.3 2.3 24.4-4 35.9-5.3 9.7-18.4 14.4-27.9 9.6-11.8-5.9-16.7-18.2-9.9-28.8 7.1-11.1 5.2-21.1 1-32.2-6.1-16-13.5-31.1-25.4-43.7-1.8-1.9-3.8-3.8-5.8-5.5-4.5-3.8-8.3-3.9-13.1-.5-12.4 8.7-17.6 8.7-28.7-1.7-16.5-15.5-29.7-33.2-35-55.9-.3-1.2-1.7-2.1-2.5-3.2-.8 1.1-2 2-2.3 3.2-5.9 22.3-18.8 40.3-35.3 55.8-3.1 2.8-6.6 5.1-10.4 6.8-4.7 2.5-10.5 1.8-14.4-1.8-9.2-7.9-13.2-7.7-21.4 1.2-10.5 11.4-18.9 24.1-24.1 38.8-2.3 6.6-4.7 13.2-6.5 19.9-1.4 5.2-.1 10 2.7 14.8 2.2 4 4.3 8.5 4.8 12.9.9 9-6.8 19.5-15.8 21-11.5 2-19.6-1.4-24.9-11.1-7.1-13.1-6.5-26.5-2.5-40.2 7.4-25 22.1-44.8 42-61.2 6-5 11.4-10.7 17.4-15.7 4.1-3.4 2.7-6.5 1-10.5-3.3-7.8-6.5-15.7-8.6-23.8-1.8-7-2-14.4 1.1-21.6 3.7-8.5 11.2-12.5 18.8-16.2 13.6-6.7 27.2-13.3 40.8-20 1.5-.9 3-1.9 4.4-3l-.9-1.1zm11.6 12.3c-13.1 5.6-24.1 14.4-33.4 25.2-5.8 6.8-5.5 17.4-.3 24.7 4.3 6 9.5 7.5 16.6 5.1 10.7-3.5 17.8-11.5 23.9-20.3 1.9-2.7 3.6-6.9 2.8-9.6-2.5-8.6-6.3-16.7-9.6-25.1zm44.6-1.1c-3.8 9.5-7.1 17.8-10.3 26.1-.3 1.3-.2 2.6.4 3.8 5.4 13 14.6 22 27.9 26.6 4.2 1.6 8.9.6 12.1-2.4 8.9-7.5 9.4-21.9 1-30.2-2.4-2.3-4.6-4.9-7.2-6.9-7.8-5.7-15.8-11.3-23.9-17zm-77.8-49.5-.3-1.7c-.9-.3-1.9-.5-2.8-.5-10.7.1-19.9-3.8-27.6-11-10.1-9.4-20.1-18.8-29.8-28.6-4.6-4.6-8.4-10.1-13.3-16.2-.9 2.6-2.1 4.4-2.2 6.3-.8 12.2 2.5 23.2 11 32 13.9 14.4 31.3 21.6 51.1 22.6 4.5.1 9.2-1.9 13.9-2.9zm111-1.9-.3 2c4.6 1 9.2 3 13.7 2.8 20-.9 37.5-8.2 51.5-22.9 8.3-8.7 11.5-19.6 10.8-31.6-.1-2-1.5-3.9-1.9-5-11.7 12.2-22.5 24.4-34.2 35.6-8.3 8-17.1 16-29.3 18-3.4.5-6.8.7-10.3 1.1zm-165.6 5.4-1.1.6c2.1 3.8 3.9 8 6.5 11.4 8.6 11.1 21 15.1 34.2 17.5 15.7 2.9 30.3-.6 44.3-7.5 1.6-.8 2.7-2.2 3.3-3.9 1.3-5.1 2.1-10.4 3-15.7.6-3.6-2.6-9.3-5.9-11.2-1.2 12.6-8.3 20.7-19.9 25-12.8 4.7-25.5 4.2-37.8-1.8-8.9-4.6-17.7-9.7-26.6-14.4zm220.5-1.3c-4 2.5-6.7 4.5-9.6 6-8.4 4.3-16.7 9-25.5 12.4-11.8 4.5-23.8 2.5-34.8-3-9.3-4.6-14.7-12.6-15.9-23.5-2.2 3.5-5.2 7-5.1 10.5.2 6.4 2.1 12.7 3.5 19 .2.9 1.7 1.6 2.7 2 5.5 2.1 11 4.6 16.8 6.1 18.3 5.1 35.7 1.9 51.9-7.5 8.4-4.5 14.3-12.6 16-22zm-110.6-14.3c-13.8 15.1-13.8 63.7-.1 79.2 13.9-14.8 13.9-63.4.1-79.2zM203.2 493.7l.5.4-9.3 7.5c-14.1 11.5-21.6 27-24.9 44.2-1.6 8.2-.5 17.1.5 25.5.5 4.1 7.2 6.8 10.4 5.5 2.9-1.1 4.3-6.3 2.9-10.7-6.1-19.7-3.3-38 8.3-55 4-5.7 7.7-11.6 11.6-17.4zm210.4-1.1-1.3 1c4.3 6.4 8.6 12.8 12.8 19.3 10.5 16.5 13 34.1 7.4 52.9-.6 1.9-.7 3.9-.5 5.9.6 4.7 3.1 6.1 7.7 5 5.1-1.2 7-5.2 7.6-9.5 1.9-16.2-1.8-32.5-10.5-46.3-6.4-10.4-15.4-19-23.2-28.3zM234.4 300.4c-4.4-3-9.1-5.2-12.5-8.6-7.8-8.1-14.9-17-22.5-25.4-4.8-5.2-9.9-10.2-15.1-15.1-1.7-1.6-4.2-4.1-6.2-1-1 1.5-.5 4.8.5 6.5 7.9 13.8 20.1 23.9 32 34 6.6 5.7 14.5 9.5 23.8 9.6zm147 .4c3.3-.8 6.7-1.3 10-2.3 10.9-3.4 18.8-11.4 26.4-19.1 7.2-7.3 13.5-15.5 19.9-23.6.9-1.1-.1-3.8-.2-5.7-1.8.2-4.1-.3-5.2.6-5 4.1-10.4 8.1-14.2 13.2-10.6 13.9-20.9 27.9-36.7 36.9zm96-129.7c-2.3 2.6-4.3 5.9-7.1 7.8-10 6.7-15.5 16.2-19 27.3-2.1 6.8-2.2 6.3-9 4.6-22.6-5.8-45.5-8.2-67.9-.4-8.1 2.8-15.1 8.8-22.5 13.4-1.7 1.2-3.2 2.6-4.7 4-8.7-13.6-18.6-26.2-25.1-40.3s-9.7-29.9-14.7-45.8c-1 3.6-2.1 6.6-2.5 9.7-3 21.6-11.6 42-25 59.1-3.5 4.4-6.3 9.4-9.4 14.2-1.3 2-2.6 3-4.7.9-19-19.1-42.8-21.4-67.8-19-9.2.9-18.3 3.1-27.4 5.2-3.1.7-4.3 0-5.2-2.6-1.1-3.1-2.3-6.2-3.4-9.4-2.9-8.3-8.4-14.6-15.3-19.9-3.2-2.4-5.7-5.7-8.8-8.9 10.4-3.7 24.5 1.9 29.8 10.9.8 1.4 1.3 3.2 2.4 4.3 1.5 1.5 4.5 3.8 5.1 3.4 2-1.5 4.6-4.1 4.5-6.2-.3-3.1-1.7-6-3.9-8.2-8.8-8.3-19.3-12.8-31.6-12.6-3.8.1-7.7.7-11.4.4-1.9-.4-3.5-1.6-4.3-3.4-4.2-13.9-3.7-27.9 3-40.8 14.5-27.9 38.7-41.7 69.2-42.2 23.4-.4 40.4 11 43.7 36.8.2 2 .4 4 .8 5.9 1.7 11.1-.7 20.5-10.7 27-10.7 6.9-21.9 8.4-33.7 3-10-4.4-14.5-16.1-10.1-26.1 1.1-2.4 2.6-4.6 4.5-6.4 3.8-3.9 9.4-5.5 14.7-4.4 1.9.4 3.8 3.3 4.7 5.4.4 1.1-1.8 3-2.5 4.7-.9 2-2.7 4.5-2.2 6.2.8 2.8 7.7 3.8 10.2 1.7 3.3-2.6 5.1-6.8 4.6-11.1-1.2-15.9-15-27.8-30.9-26.6-1.6.1-3.1.4-4.6.7-8.8 2-17.9 4-22.6 13-7.7 14.9-5.5 33.2 8.4 44.8 3.3 2.8 6.9 5.2 10.4 7.8 11.4 8.5 24.1 8.8 37.7 7.2 17.8-2.1 32.1-10.9 44.6-22.6 7.6-7.1 11.1-17.1 12.3-27.3 2-17.4-.6-34-10.8-48.7-4.1-6-8.8-11.4-17.1-11.5-8-.1-12.3 3.8-12.9 11.9-.1 1.3-.5 2.5-1.3 3.5-1.9-1.9-4.6-3.4-5.6-5.7-9.1-20.6 5.2-38.2 24.4-38.8 2.8-.1 5.9 1.9 8.5 3.4 2.1 1.2 3.8 3.1 6.9 5.6.8-4.8 1.9-8.4 2-12 .1-8.3 2.6-15.4 9.5-20.5 5-3.7 10.7-4.4 17.7-3.2-14.4 10.7-9.9 23.5-5.5 35.8 3.7 10.4 8.6 20.4 12.8 30.3 0 .1.3-.7.6-1.5 3.3-8.5 6.2-17.2 9.9-25.5 3.5-7.6 5.3-15.8 5.3-24.1-.1-6.6-3.9-10.7-9-14.2 12.1-4.7 24 5.4 25.8 15 .7 4.1.6 8.3 1.1 12.4.3 2.1 1.3 4.1 2.5 7.4 8-9.5 17.1-11.7 27.3-6 6.6 3.7 11.6 8.7 13.8 16.3 3 10.2-.8 22.2-8.2 24.4-.2-.4-.6-.8-.6-1.2.1-5.4-1.3-10.4-6.5-12.5-5.7-2.4-12.3-1.2-16.9 3-6.9 6-11.3 13.7-14 22.1-5.6 17.5-6.4 35.1 2.5 51.9 2 4.2 4.8 8 8.1 11.2 16.6 14.8 35.8 23 58.3 21.5 6-.5 11.7-2.2 17-5 10-5.4 19.6-11.5 24.8-22.4 5.7-12.1 5-24.1-2.1-35.2-6.1-9.7-26.6-14.3-38.8-9.4-10.9 4.4-17.8 14.1-18 25.2-.1 8.1 5.9 13.2 12.1 10.3 1.4-.7 3.1-2.4 3.2-3.7-.1-1.8-1.1-3.3-2.6-4.2-3-1.1-3.3-2.8-2.7-5.4.7-3.1 2.3-5 5.7-5.2 8.6-.6 16.6 4.7 19.2 13 2.5 8-1.4 18.8-8.3 22.9-14.1 8.4-34 4.8-43.5-8.6-2.5-3.9-3.9-8.4-3.9-13 .1-7.3 1-14.6 2.9-21.7 4-14.7 14.2-23.5 29-26.4 33.5-6.4 67.2 10.3 82.3 40.9 6.3 12.7 6.8 26.3 3.1 40-.9 3.3-2.4 4.4-6.1 3.9-13.5-1.9-26.3.2-37.4 8.6-3.2 2.6-5.8 5.8-7.8 9.4-1.8 3.3-.4 6.7 3.1 8.4 3.8 1.8 5.4-1 6.7-3.9 4.5-9.7 12.5-14.4 22.7-15.8 2.6-.2 5.1-.2 7.7-.1 0 .8.3 1.4.5 1.9zm-169.2-56.3c.2.5.3 1 .4 1.6 2.6 15.2 6.7 29.9 16.5 42.3 7.8 9.8 15.7 19.3 26.8 25.8 13.5 7.8 28.3 11.5 43.5 13.8 4 .5 7.9.4 11.9-.1 1.6-.2 3-1.8 4.5-2.8-1.6-.7-3.2-1.9-4.9-2.1-8.4-.9-17-1-25.4-2.4-13.4-2.1-25.8-7-36.2-15.8-14-11.9-21.8-27.6-25.4-45.3-5.6-27.5-2.6-53.3 15.8-75.9 1.2-1.4 1.6-3.5 2.4-5.2l-2.2-1.2c-17.6 11.4-22.5 30.7-28.4 49.4-.7-1-1.2-2.2-1.5-3.5-2-13.6-8-25.4-15.6-36.5-2.9-4.2-6.3-8.4-12.7-8.5.4 2.3 1.4 4.5 2.9 6.3 5.9 6.8 10.3 14.8 12.9 23.5 6.1 20.9 6.2 41.6-.9 62.4-8.4 24.4-24 41.5-49.3 47.9-11.4 2.9-23.4 3.1-35 4.7-1.6.2-3 1.3-4.6 2 1.4 1 2.9 2.9 4.3 2.9 6.3.1 12.6-.2 18.8-1 32.6-4.5 56.4-22.1 71.3-51 4.9-9.6 6.8-20.8 10.1-31.3z" fill="#FFFFFF"></path><path d="M497.7 412.3c2.7-12.8 4.4-24.5.8-35.8s-9.7-21.3-21.8-25.7c-5.6-2.1-10.8-1.7-15.5 2.2-3.8 3.2-4.3 7.5-2.8 11.8.5 1.4 3 2.2 4.8 3.1.6.3 1.6-.2 2.4-.5 5.8-2.1 11.4-3.8 16.9.9 7 5.9 12.7 11.9 13.4 22.2.8 13.5-3.7 23.9-14.1 31.7-12.4 9.4-25.4 18-38.1 27l-1.2-1.3c2-3.1 4.1-6.1 6.1-9.3 2.9-4.7 5.5-9.5 8.4-14.1 2-3.3 4.3-6.6 6.7-9.7 3-3.7 3.5-9.8.9-13-3-3.3-7.9-4.1-11.9-2-3.7 2.3-6 8.4-3.4 12.4 4 6 1.5 10.9-1 16.3-4.8 10.3-12.7 18.2-19.8 26.7-4.5 5.3-8.5 11-13 16.8-1.8-1.4-4.4-2.7-5.7-4.8-.9-1.5-.8-4.7.2-6 5.5-6.9 11.4-13.4 17.2-20 2.5-2.9 6-5.2 7.7-8.4 1.9-3.6 3-7.5 3.2-11.6.1-2.8-1.1-5.8-5.7-4.5-3.4.9-4.9-1.6-3.1-4.7 5.4-9.1 12.4-16.9 21.6-22.3 7.1-4.1 14.2-3.8 19.6.7 7.3 6.1 9.8 13.6 6.6 21.7-1.8 4.5-4.4 8.8-6.6 13.1 11.5-5.9 23.5-27.3 10.4-43.9-3.8-4.8-7.6-5.2-12.8-1.8-10.6 7-22.1 7.7-34 4.5-2.8-.8-5.5-1.9-8.3-2.8l-1.4-2.2c1.6-.8 3.4-1.5 4.9-2.5 8.1-5 12-12.7 14.9-21.6 1.7-5.3 4.6-11 8.8-14.5 9.6-7.9 20.3-4.3 30.2.2 10.9 4.9 20.5 11.7 28.1 21.1 3.2 4 7.9 4.6 12.3 2.6 4.2-2 8.5-4.4 11.5-7.6 21.2-22.5 31.2-49 25.4-80-3.3-17.3-14.4-28-31.7-32.2-12-2.9-33 6.1-35 22.4-1.2 9.6-3.1 19.1 3.2 27.9s14.7 11.3 25 9.6c7.9-1.3 14.3-12.3 9.4-20.7-.4.3-.8.6-1.1 1-2.7 4.2-6.3 6.3-11.4 5.1s-7-5.2-8.1-9.8c-1.2-4.5.5-9.3 4.3-11.9 6.4-5 15-5.9 22.3-2.5 7.6 3.3 10.6 10.8 11.5 18.8 2.1 18.6-7.1 32.3-20.1 44-4.8 4.4-11 5.6-17.6 6.2-14.4 1.4-27.2-3.7-40-9-2.6-1-5.2-2.1-7.7-3.4-2.5-1.4-2.9-3.4-1.2-5.9 7.8-11.4 9.1-24 9.3-37.5.3-20.2 6-38.7 23.9-51.3 10-7.1 20.9-8.5 32.3-6.1 7.3 1.5 14.4 4 21.1 7.3 15 7.4 21.2 21.4 25 36.7 7.3 29.8 5.5 58.8-9.2 86.3-8.8 16.6-22.5 28.7-37.5 39.5-9.3 6.8-19 13.6-29.5 21.1zM84.3 283.5c-4.8 8.3 1.4 18.9 8.9 20.7 14.8 3.5 29.2-7 29.7-22.1.3-9.6.6-19.5-6.4-27-13.5-14.5-32-15.3-48.6-1.4-8.7 7.3-12.4 17.5-13.8 28.5-2.3 18.5 1.6 35.9 10.2 52.1 5.3 10 11.9 19.3 21.2 26.2 8.6 6.4 14.3 5.7 21.6-2.1 9.9-10.9 22.9-18.6 37.2-22.1 11.9-2.9 22.5 2.6 26.2 14.9 3.2 11 7.7 20.5 17.7 26.6.5.4.9 1 1.2 1.6.1.3.2.7.2 1-12.5 7-30.3 7.2-42.1-1-5.5-3.8-9.7-2.8-13.6 3-8.9 13.2-4.7 26.1 4.2 37.1 1.9 2.3 4.4 4.2 6.6 6.2-2.6-6.4-6-12.2-7.2-18.5-2.4-12.1 11.7-23.9 23.2-19.5 12 4.7 19.9 14.3 26.1 25.1 2.1 3.7-1.4 4.5-3.9 3.7-3.4-1-4.3.9-5 3.2-2.2 6.4.8 11.3 5 15.8 6 6.4 12.2 12.7 18.3 19.1.7.7 1.3 1.5 1.9 2.3 6.1 8.1 5.7 9.9-2.7 14.6-6.6-8-13.5-15.7-19.6-23.9-5.3-7.2-10.2-14.7-14.8-22.4-2.5-3.7-2.5-8.5 0-12.2 3.9-6.5-.4-14.8-7.2-14.3-3 .2-6.9 2.3-8.4 4.8-2.3 3.7-.9 8 2.1 11.5 2.2 2.7 4.1 5.5 5.9 8.4 4.9 8.1 9.6 16.3 14.9 25.3-2.8-1.6-5.1-2.6-7-4.1-12.6-9.2-25.5-18-37.6-27.9-12.6-10.2-13.6-38.2 5.3-49.2 3.8-2.2 7.5-3.5 11.8-1.6.7.4 1.5.6 2.4.8 2.9.4 6.4 3.1 8.6-.7 2.2-3.7 1.9-8.4-.9-11.7-3.7-4.8-10.7-5.9-17.4-3.5-12.8 4.5-24.3 23.5-23 39.4.6 6.9 1.1 13.9 1.7 20.9-3.1-2-6.7-4-9.9-6.4C92.6 393.8 77 384 64.4 370.4c-15.4-16.7-23.6-36.5-26.2-58.7-2-17.3-.1-34.5 4.3-51.4 9.4-35.6 46.5-45.2 68.6-37.7 9.6 3.4 17.6 10.1 22.6 18.9 7 11.9 10.9 25.1 10.2 39.1-.7 12.6 1.6 24.2 8.7 34.7 2.7 3.9 1.2 6.6-2.3 7.9-13.7 4.8-26.7 11.7-42 11.4-12.9-.2-22.2-5.1-29.9-14.9-7.6-9.6-12.9-19.9-11.7-32.4.4-4.9 1.7-9.8 3.8-14.2 6.3-13.1 24.9-10.5 31.5-3.7 4.6 4.6 3.8 14-1.3 18.5-4.7 4-10.7 2.8-15.4-3.1-.3-.7-.6-1-1-1.3z" fill="#FFFFFF"></path><path d="M142.6 235.9c-3.2-3.8-6.9-8.5-11-12.9-16.6-17.5-36.8-20.6-58.6-10.2-22.5 10.6-33.3 29.6-37.9 52.5-4.4 22.1-4.5 44.6 1.1 66.5 3.9 15.3 12.4 28.7 23.5 40.2 17.2 17.8 37.2 32.2 57.8 45.8 19.2 12.6 38.2 25.4 56.9 38.7 6.4 4.6 11.8 10.7 17.4 16.3 4.6 4.6-.7 6.5-3 8.9-2.9 3-4.2 0-5.8-1.8-8.5-9.8-19.9-15.6-30.9-21.6-24.6-13.4-49.6-25.8-73.9-39.6-19.6-11.1-38-24.2-51.4-42.9C15 359 9.2 339.8 4.3 320.4c-6-23.9-5.5-48-.2-71.8 4.7-21 17.3-37.6 32.8-52.1 13.5-12.6 28.7-22.4 46.7-26.9 15.9-4 30.6-.5 43.8 9.4 12.8 9.7 24 20.7 29.7 36.1.5 1.3.6 3.4-.1 4.3-4.6 5.8-9.6 11.2-14.4 16.5zm330.3-.1c-4.6-5.1-9.4-10.3-14-15.7-.9-1.2-1.2-2.7-.9-4.2 6.7-18.1 20-30.8 35.6-40.6 13.7-8.5 29.3-9.9 44.7-3.8 31.4 12.4 54.6 33.9 68.9 64.6 5.1 10.9 6.2 22.7 7.3 34.5 3.1 33.7-4.9 65.2-19.8 95.1-8 16-21 27.8-35.3 38.1-24.2 17.5-50.7 31.2-77.1 45.1-13.8 7.3-27.5 14.8-41 22.8-3.6 2.1-6.5 5.7-9.4 8.8-1.6 1.7-3 3.8-5.1 1.2-1.9-2.3-7.6-3.6-3.8-8 5-5.8 10.3-11.5 16.4-16 9.7-7.3 20.1-13.5 30.2-20.3 9.5-6.5 19-12.9 28.3-19.6 14.9-10.9 29.9-21.7 44.4-33.1 15.5-12.3 27.8-27.5 34.7-46.2 2.7-7.3 4.4-15 5.1-22.7 1.6-19.5 2.3-39-3.3-58.1-7.9-26.7-24.5-44.8-52.5-50.1-15.7-3-29.3 2.5-40.4 13.6-4.9 4.7-9.1 10.1-13 14.6zM187.8 660.7c21.9-25.5 28.8-55.4 26.7-88.1-.8-12.3-3.1-24.3-8.4-35.7-1.2-2.8-1.4-6-.6-8.9 1.5-4.8 4.2-9.2 7-14.9 10.2 16.8 11.2 34.8 15.7 52-.2-5.5.4-11.2-.9-16.5-3.2-13.2-7.2-26.2-10.9-39.3-.3-1-.7-2.5-.2-3.3 2.2-4.3 4.9-8.4 7.9-12.3 14.9 33.8 22.1 68.3 9.3 104.3-9 25.2-21.1 48.6-45.6 62.7zm204.4-167.2c2.4 4.1 4.9 8.1 7.1 12.4.5.9.1 2.6-.4 3.7-6.8 15.8-10.7 32.6-11.6 49.8-.1 1.9.4 3.9.7 7.2 3.8-18.6 5-36.5 14.2-52.1l1.7-.3c2.3 5.5 4.7 11 6.8 16.7.4 1.6.2 3.2-.5 4.7-11.5 26.1-12 52.9-5.5 80.2 3.5 15.5 10.8 29.9 21.3 41.9.8.9 1.4 1.8 2.1 2.7 0 .1 0 .2-.1 1.1-2-1.2-3.9-2.1-5.6-3.3-12.6-8.7-21.6-20.7-28.8-34-10.8-20-18.1-41.1-18.1-64.2s6.1-44.9 14.9-66l1.8-.5zm-146.9 43.3c20.6 13.9 30.2 35.4 40.5 57-.7-5.9-1-11.9-2.2-17.7-3.2-14.3-8.5-28.1-15.8-40.8-6.5-11.3-13.9-21.7-28-24.5-1-.4-1.8-1.2-2.2-2.2-1.4-3.5-2.5-7.2-4-11.8 12.6 2.8 22.8 7.7 30.8 17.1 11.2 13.2 18.7 28.4 23.5 44.8 6.5 22 8.5 45 5.7 67.8-1.1 9.8-4.4 19-13.2 26.3-.1-1.2-.1-2.4 0-3.5 4.3-32.2-6-60.7-22.4-87.5-1.4-2.1-2.9-4-4.7-5.8-6.9-7.8-7.1-8-8-19.2zm89.8 116.1c-9-7.7-12.3-17.1-13.3-27.1-3.1-32.3.9-63.5 16.3-92.6 8.1-15.3 18.4-28.7 35.8-34.4.9-.4 1.9-.7 2.8-.9 1.4-.3 2.9-.4 5-.6-1.4 4.3-2.6 8-3.9 11.7-.3.8-1.1 1.8-1.9 2-13.4 2.3-20.9 11.9-27.1 22.5-10.2 17.6-17.3 36.3-18.9 56.8-.1.8-.1 1.7-.1 2.5.1.8.3 1.5.6 2.2 9.5-22.5 19-44.1 39.5-57.9.2 8.2-1.7 12-6.9 17.9-4.2 4.7-8.3 9.8-11.1 15.3-10.7 20.8-18 42.7-18.3 66.3 0 5 1 10.1 1.5 16.3z" fill="#FFFFFF"></path></g></g></svg>