<svg xmlns:xlink="http://www.w3.org/1999/xlink" xmlns="http://www.w3.org/2000/svg" x="0" y="0" viewBox="0 0 678.1 810" focusable="false" aria-hidden="true" class="classes-experience-1i91nb7" width="678.1"  height="810" ><g fill="#FFFFFF"><g fill="#FFFFFF"><path d="M366.8 723.6c3.8-2.9 6.5-5 9.2-7.1 12.4-10.1 27.6-3.6 33.1 10.8 5.4 14.2-.9 24.9-10.1 33.6-16 15.2-33.2 29.3-49.9 43.9-1.2 1.1-2.7 2-4 3-3.9 3-8.1 3.3-11.9.1-17.1-14.4-34.2-28.7-50.9-43.5-4.4-3.9-7.8-9.1-11.2-14-8.6-12.3-2.8-29.6 9-36.6 6.4-3.8 13.9-3.2 20.4 1.4 3.4 2.4 6.5 5 10.6 8.2-.4-2.1-.9-4.2-1.6-6.2-3.3-7.6-6.4-15.3-10.3-22.7-4.6-8.7-12.4-15.2-21.7-18.3-14.6-5.2-29.2-10-44-14.5-27.4-8.4-54.8-16.5-82.2-24.7-7-2.1-14-4.1-21.1-5.9-31.6-8.1-58.9-24.4-84-44.6-21-17-34.6-39.2-41-65.3-8.5-34.1-6.6-70 5.6-103.1 14.4-39.9 37.3-74.5 64.6-106.5 19.8-23.2 39.7-46.3 59.6-69.4 11.8-13.6 24-26.8 35.5-40.6 11.3-13.8 19.9-29.7 25.1-46.8.6-1.2 1.7-2.1 3-2.4 6.8-.2 13.6-.1 20.1-.1 2.9 5.6 1.8 10.9 1.5 16.4-.9 17.1-7.5 32.4-14.3 47.5-8.1 18.1-18 34.9-33.1 48.7-28.4 26-53 55.3-68.9 90.9-2.7 6.1-4.2 12.9-5.9 19.5-1.9 7.1-3.3 14.2-4.4 21.5-1.4 11.2-1.8 22.5-3.4 33.7-2.5 17.6.6 34.9 3.4 52 .9 5.7 4.1 11.2 6.7 16.5 5.4 10.7 10.8 21.7 21.3 28.4 4.5 2.9 9.9 4.5 15 6.3 2 .9 4.3.1 5.2-1.9.2-.5.3-.9.4-1.4.8-5.2 2.1-10.6 1.4-15.7-4.6-32.4 6.5-58.2 31.8-78.3 6.6-5.3 13.6-10.1 20.8-14.6 22.5-13.9 60.1-5.5 77.4 12.1 6.2 6.3 10.5 14.3 12.4 22.9 3.7 15.6 7.4 31.2 1.9 47-4.7 13.5-10.2 26.8-25.9 31.2-18.4 5.1-33.6-.7-47.9-12.7-12.5-10.4-15.5-39.4-6.4-51.5 6-8 14.1-11.6 23.9-10 6.8 1.1 12.4 4.7 14.9 11.7 1.9 5.2.5 9.6-3.8 12.8-5.2 3.8-9.1 4.2-13 .9-1.4-1.2-1.9-3.2-2.8-4.9-.7-1.3-1.7-3.8-2.2-3.7-1.9.3-4.4 1-5.4 2.4-4.2 5.6-1.2 13.8 5.8 17.5 8.9 4.6 29.7 1.4 36.6-6 1.7-1.9 2.8-4.4 3-7 .6-9.9-1.8-19.7-6.9-28.2-4.8-8.1-13.1-11.4-21.6-13.1-10.1-2-20.4-1.4-29.9 2.9-4.8 2.2-9.1 5.4-12.7 9.3-13.2 14.2-15.6 31.5-13.1 49.9 1 7.6 1.5 15.4 4.1 22.5 7.1 19.5 19.6 35.7 35.6 48.5 23.4 18.7 47.8 36.1 71.8 54.2 12.2 9.2 23.1 19.5 32.1 32.4-1.5-6.8-2.8-13.7-4.7-20.4-2-6.8-4.7-13.5-7.3-20.2-2.6-6.9-5.2-13.7-8-20.5-2.7-6.6-5.3-13.3-8.5-19.7s-7.1-12.5-10.8-18.6-7.7-12-11.3-17.6c5.4-5.6 10.8-10.5 15.4-16.2 7.8-9.4 11.1-20.6 11.3-32.8.4-21.4-3.7-41.9-14.7-60.4-5.3-8.9-12.2-16.9-18.6-25.2-3.3-4.2-7-8-11.4-12.9h166.9c-3.4 4.1-6 7.8-9.2 11-25.7 25.7-37.1 57-34.9 92.8 1 15.2 8.7 28.1 20.9 37.8 1.9 1.5 3.8 3.3 6.1 5.3-25.9 35.2-40.7 75.2-51.6 116.9l1.4.8c.8-1.4 1.6-2.8 2.5-4.1 1-1.5 2.1-3 3.2-4.5 11.1-14.3 25.8-24.4 40.2-34.9 20.6-15 41.5-29.8 60.5-46.6 14.1-12.5 26.9-27.4 32.1-46.2 4.8-17.2 7.6-35.2 1.8-52.6-2.6-7.8-8.1-14.9-13.2-21.5-5.5-7.2-14.4-8.8-22.8-10-9.9-1.4-19.8-1-28.6 4.4-4.3 2.6-8.1 6.1-11 10.3-4.8 7.2-6.1 15.6-6.7 24.3-.5 7.3 3 11.5 9.5 14.1 8.6 3.5 17.9 4.4 27 2.7 7.4-1.3 12.1-8 10.6-14.9-.6-2.4-2-4.5-3.9-5.9-2-1.4-4.5-1.2-5.1 2.3-1 5.3-4.7 8.9-8.5 8.5-5.4-.5-11.3-5.8-11.9-10.6-1.2-9.2 8.5-16.5 16.4-17.4 15.3-1.6 25.9 8.8 27.9 22.9 4.3 29.8-14.2 49.6-43.3 53.3-14.3 1.8-31.2-6.7-37.3-21.7-4.2-10.4-8.3-20.6-7.2-31.8 1.2-13 2.8-26.2 8.7-38.1 4.8-9.5 12.6-17 22.2-21.5 27.2-12.9 53.2-12.9 77.6 7.1 9.1 7.3 17.4 15.4 24.9 24.4 13.8 17.1 15.3 37 13.9 57.7-.3 4.6-.6 9.4.1 13.9 1.1 7 3.2 8.2 10 6.3 11.4-3.1 19.4-10.7 25.4-20.5 4.2-7 7.9-14.2 11.5-21.5 1.4-2.6 2.4-5.5 2.9-8.4 1.6-13.4 3.9-26.7 3.9-40.1 0-14.9-1.8-29.9-3.7-44.6-1.4-11-3.2-22.2-6.8-32.6-6.4-18.7-16.8-35.5-28.3-51.5-13.8-19.3-30.5-36-47.9-52-12-11.1-19.9-25.2-26.7-39.5-6.4-13.4-11.4-27.3-15.2-41.7-2-7.8-4.4-16.3-1.8-24.9.8-2.6 1.7-3.6 4.3-3.5 5.5.1 11-.1 16.5.2 1.6.3 3 1.3 3.7 2.7 7.9 24.7 22.4 45.2 39.5 64.1 16 17.6 32.2 35.1 47.5 53.4 21.5 25.8 42.5 52.1 63.3 78.5 13.8 17.4 21.8 38 30.5 58.2 5.4 12.7 9.5 25.9 12.1 39.4 3.4 17.7 3.1 35.5 1 53.2-4.5 38.3-22.2 68.8-53.3 91.7-18.2 13.4-38 24-58.7 32.8-9 3.8-18.8 5.5-28.2 8.3-18.7 5.6-37.2 11.4-55.9 16.8-14.4 4.2-29 7.5-43.3 12-13.5 4.2-26.8 9-39.9 14.4-14.5 5.9-20.7 19.2-26.2 32.5-1.5 3.9-2.5 8.1-4.1 13.3z" fill="#FFFFFF"></path><path d="M374 138.6v248.5h-13.6V138.8h-42.3v248.3h-13.9V139h-30v247h-14.7V138.4h-33c-7.8 0-15.7 0-23.5-.1-4.8 0-9.2-.1-13.7 3-6.7 4.6-15.9-2.8-16.2-9.5-.4-8.3 4.4-14.8 9.9-15.8 3.5-.6 6.5-.4 9.1 2.4 1.1 1.2 3 2.5 4.5 2.5 20.2.1 40.3 0 60.5-.2.8-.1 1.7-.3 2.5-.6V58.8h14.3v61.7h30V58.9h13.9v61.9h42.4V58.9H374v61.8h29.9V58.9h14.7v61.7c2.4.1 4.1.2 5.9.2 18.7.1 37.3.1 56 .1 1.6.1 3.2-.3 4.6-1.2 7.9-6.2 15.2-5 19 4.2 3.6 8.8-.5 18.8-10.7 18.6-1.7 0-3.5-.9-5.2-1.4-2.9-.9-5.8-2.6-8.7-2.7-18.8-.2-37.7-.1-56.5-.1-1.1 0-2.3.1-4.1.2v247.6H404v-6.2l.2-235c0-6.4 0-6.4-6.6-6.4l-23.6.1z" fill="#FFFFFF"></path><path d="M504.1 66.2c2.7 2.2 4.6 3.8 6.5 5.4 5.1 4.3 10.7 5.5 16.7 2.6s5.1-9 5.3-14.1c.3-7.8-3.6-14.1-9-19.3-6.5-6.3-17.5-5.7-25 1.2-8.7 7.8-13.7 17.8-16.9 28.9-3.9 13.9-3.3 27.9-2.2 42.6h-26.6c-.5-2.8-1.5-5.9-1.7-9-1.4-24.3.6-48.3 9.6-71.2C468.5 13.7 482.7 2.2 504 .8c8.4-.4 16.8.1 25.2 1.4 3.7.5 7.6 2.9 10.4 5.6 12.3 11.6 22.6 24.6 22.5 42.8-.1 11.3-6.2 20.1-12.6 28.7-8.8 12-21.2 12.5-34.2 10.8-5.3-.7-10.5-6.5-11.3-12.6-.2-3.3.1-6.8.1-11.3zM199.4 114c0-9.2.5-17.6-.1-26-1.2-16.6-5.8-32.1-18-44.3-5.6-5.7-12.4-8.7-20.4-6.4-8.4 2.5-12.2 9.5-14.5 17.1-1 3.3-.8 7.3-.3 10.8 1.3 9.6 9.9 13.6 18.4 8.5 3.2-1.9 6-4.5 9.1-6.8 3.1 11.2-2 23.6-17 24-16.5.5-26.1-7.2-34.1-20.4-10.5-17.3-7.5-32.9 3.3-48.3 6.3-9 12.8-18.1 24.2-20.5 27.9-5.8 56.3 2 67.5 32.2 8.9 23.9 11.1 48.5 9 73.7-.4 4.9-2.2 6.9-7.4 6.5-6.8-.5-13.6-.1-19.7-.1zM362 22.7c0 12.4-9.9 22.4-22.3 22.5-12.4 0-22.4-9.9-22.5-22.3 0-12.4 9.9-22.4 22.3-22.5h.2c12.3.1 22.2 10 22.3 22.3zm-79.7 18.7c-9.4-.1-17-7.9-16.9-17.3s7.9-17 17.3-16.9c9.4.1 17 7.8 16.9 17.3-.1 9.4-7.9 17-17.3 16.9zm113.6 0c-9.4.1-17.2-7.6-17.2-17-.1-9.4 7.6-17.2 17-17.2 9.4-.1 17.1 7.5 17.2 16.9 0 9.5-7.6 17.2-17 17.3z" fill="#FFFFFF"></path></g></g></svg>