<svg xmlns:xlink="http://www.w3.org/1999/xlink" xmlns="http://www.w3.org/2000/svg" x="0" y="0" viewBox="0 0 380.4 468.8" class="classes-experience-1i91nb7" width="380.4"  height="468.8" ><path d="M103.7 101.2c3.8-.7 9.2.1 11.5 2.7 2.3 2.6 3.7 4.7 6.3 9.7 2.6 5 5.9 8.9 8.4 6.3 2.6-2.6 7.1-7.4 12.8-6.2 5.7 1.2 12 4.2 14 6 2 1.8 3.7 2.5 5.6 2.1 0 0 .8-.1 1.5-.5 1.8-.8 2.7-2.3 3.3-5 .5-2.7 3.8-8.8 7.7-13.2 3.9-4.3 10.4-3.2 14-2.6 3.6.6 4-4.5 3.1-10.1-.9-5.6-1-8.2-.7-11.6.3-3.4 4.2-7.3 7.7-9 3.4-1.7.4-1.8.4-1.8-12.7-1.1-19.2 3-21.7 4.3-2.5 1.3-5.9 5.7-4.2 9.6 1.8 3.9.9 7.4-2.7 9.7-3.6 2.4-6.6.9-7.1-1.7-.6-2.5 4.5-5.3 4.5-5.3s-4.2-6.2-8.8-10.3c-4.7-4.1-7.5-13.6-8.7-17.1-1.2-3.5-5.5-12.9-7.2-16.4-1.6-3.5-9.4-14.9-13.4-25.1-2-5.2-3.1-7.4-3.8-8.4-.6-.9-.7-.6-.7-.6l.1.2-.1.1s-.2-.1-.2.5V8c.1 1.1.5 3.6 1.9 9 2.9 10.5 3.3 24.4 4.1 28.1.8 3.8 2.8 13.9 4 17.5 1.2 3.5 4.4 12.8 3.1 18.9-1.3 6.1-1 13.5-1 13.5s5.7-.8 6.8 1.6c1 2.4-.5 5.3-4.8 5.6-4.3.2-7-2.1-7.9-6.2-.9-4.2-6.2-5.7-9-5.3-2.8.4-10.4.9-20 9.4-.1-.2-2.6 1.7 1.2 1.1z" fill="#FFFFFF"></path><path d="M370.7 158.7c-6.5-12-29.8-14-58.4-8.1-9.1 1.9-16.7 3.6-22.9 5.2-4.1-6.2-12.6-16.4-29-26.8-26.3-16.6-51.7-18.7-64.3-18.2 0 0-15.1 14.5-32.6 18.7-17.5 4.3-36.2 1.2-36.2 1.2S107.5 143 92 166c-11.9 17.6-17 37.9-17.8 52.4-6.4 3.5-16.8 9.3-30.8 18.2C18.7 252.2 3.3 269.8 7 283c3.7 13.1 37.7 15.4 61.2 14.1 23.4-1.3 18.6-2.4 18.6-2.4-17.5-4.2-35.7-12.6-45-17.9-9.3-5.3-3.8-18.9 8.5-29.3 8.9-7.6 19.3-14.7 24.3-18v.3S89.8 234 94.5 249c4.7 14.9-.4 26.8-7.5 34.7 0 0 12.6 23 37.5 39 23.8 15.4 57.9 24.9 95.9 16.3 0 0 0 .1-.1.1-4.6 6.2-14.6 12.3-20.2 12.8-5.6.4-6.9.6-6.9.6s-3.3-.3-3.7 3.5c-.4 3.8.2 11.8-14.1 14.7 0 0 8.5 8 20.3 5.8 11.7-2.3 14.3-5.3 17.7-5 0 0-5-6.8.3-10.8 5.3-4 10.8-3.2 12.6-2.5s5.3 4.8 3.6 8.4c-1.6 3.5-7.8 10.4-12 12.9 0 0 6.6 7.8 12 11.4 5.3 3.5 6.9 4.2 8.2 8.4 1.2 4.2 2.5 10 12.8 27.2 9.7 16.3 17.8 21.8 22.1 31.2l.6 1.3c0 .1.1.2.1.4l-.1-.2c.2.2 1.7 1.6 1.2-.7l.1.4c-3-10.8.8-20-1.1-39.9-1.9-20-4.3-25.4-5.8-29.5-1.5-4.1-.6-5.6 1.6-11.6s2.9-16.2 2.9-16.2c-4.9.5-13.9-1.3-17.3-3.2-3.4-1.9-3-7.3-2-8.9.9-1.6 5-5.5 11.6-5.4 6.6.1 6.6 8.5 6.6 8.5 2.6-2.2 6.4-1.3 17.2-6.4 10.8-5.1 12.9-16.7 12.9-16.7-13.3 6.2-17.5-.7-20.1-3.5-2.6-2.8-5.1-.6-5.1-.6s-1.2.6-5.9 3.6c-4.8 3-16.5 3.9-23.9 1.7-.4-.1-.7-.3-1-.4 30-15 51.9-42.4 57.8-60.5 7.1-21.9 11.2-36.1 9.3-53.7 0 0-17.1-5.7-21.2-15.9-4-10-6.6-21.5 1.2-34.2 6.3-1 14.4-2.1 22.3-2.6 16.1-1 29.4 4.9 26.4 15.2-3 10.3-10.2 28.9-19.9 44.1 0 0-2.7 4.1 15.1-11.2 17.8-15.6 40.7-40.9 34.2-52.9zm-83.4 47.2c5.7 20.9 5.5 55.1-18.6 82.9-12.4 14.3-24 22.6-32.3 27.3.1-2 .9-4.3.9-4.3-5-.3-14.5-11.6-14.5-11.6s-1.7-3.8-1.2.7c-.2 2-1.2 14.7-4.8 17.7 0 0 2.9 2.1 3.9 3.9v.1c-8 2.1-31.6 6.4-60.5-3.7-35.8-12.5-56-45.9-60.5-70.6-4.5-24.7 1.8-64.8 27.8-87.1 26.1-22.4 43.8-33.3 89.2-24.2 45.6 9 64.9 48 70.6 68.9z" fill="#FFFFFF"></path><path d="M136.4 207.2c10.5-.1 21 4 25.9 7.8 0 0-1.5 8.7 2.3 12.2 3.8 3.6 9.7 7.7 9.7 7.7s-3.7-5.7-3.5-10.6c.2-4.9.1-10.2.1-10.2s-3.9-4.7-12.8-8.6c-9-3.9-15.6-9.7-39.4-8.1 0 0 .8 13.1 8.6 21.1.1 0-1.4-11.2 9.1-11.3z" fill="#FFFFFF"></path><path d="M198.7 274.2c-11.2 1-21.7-4.4-21.7-4.4 0-6 4.6-7 4.6-7 10.4-4.6 10.8-12.9 10.8-12.9-9 8.6-18.2 7.1-18.2 7.1-1.5 1.5-5.6 8.9-5.6 8.9-6.8-2.3-13.8-10.1-17.5-19.8-3.7-9.7-.5-25.4-.5-25.4-12.7-7-22.2 1.5-22.2 1.5 2.9 1.1 5.3 4.4 9.5 10.1 4.2 5.6 2 10 6.4 22.7s20 19.7 20 19.7-3.7 8.1-4.6 18c-.9 10 2.7 19.3 2.7 19.3 2.9-1.4 18.6-18 18.6-18s-4.2-.5-7.6-3.3c-3.4-2.9-1.1-12.1-1.1-12.1 10.2 4.5 20.1 3.3 25.9 7.8 5.8 4.6-.8 12.1-.8 12.1s13.9-.1 25.6-12.1c11.7-12 5.7-26.3 5.7-26.3-5.7 8-18.8 13.1-30 14.1zM259.4 248.9c-5.6 2.3-12.6 3.2-16.8 1 0 0 9.4-16.2 7.1-28.3-2.3-12.2-8.5-16.6-7.2-25.3 1.3-8.7 2.8-11 2.8-11l-12-1.1s-3.5 10.3-6.3 13.3c0 0 10.2 9.2 12.6 21.3s-.2 23.9-4.1 29.3c0 0-6.5-1.8-8.2-3.1 0 0-.1-15-12-17.8 0 0 6.5 11.3 4.5 20 0 0 15.5 9.4 26.2 11.4 10.8 2 19.2 2 24.7 0s-2.2-16.3-8.3-20.2c0-.1 2.6 8.2-3 10.5zM180.5 185.4c11.3-1.8 21.6-1.9 27 1.3 5.4 3.3 4.6 5.3 3 8-1.6 2.7-4.6 1.7-7.6 4.6-3 2.9-5 7.1-5.2 9 0 0 10.2-7.6 17-6.1 0 0 4.9-11.8 8.1-15.8 3.2-4 10.8-20.3 1.8-35.1l-15.4 13.3s11.1 7.7 6.6 17.2c0 0-8.5-8.5-22.7-8.2-14.2.2-13.7-7-10-12.4 0 0-13.7 3.8-20.3 13.6-6.6 9.8-5.6 19.9-3 24.8.1.2 9.5-12.4 20.7-14.2z" fill="#FFFFFF"></path></svg>