<svg xmlns:xlink="http://www.w3.org/1999/xlink" xmlns="http://www.w3.org/2000/svg" x="0" y="0" viewBox="0 0 789 807" focusable="false" aria-hidden="true" class="classes-experience-874rm2" width="789"  height="807" ><g fill="#FFFFFF"><g fill="#FFFFFF"><path d="M357 0h39c1.5.4 3 1.1 4.5 1 23-1.5 45.5 3 67.9 7 64.5 11.8 124.9 39.6 175.9 80.8 64.6 52.4 110.9 124.1 132.2 204.5 7 26.1 11.5 52.7 11.5 79.9 0 5.3.7 10.5 1 15.8v29c-.3 1.3-.5 2.5-.7 3.8-.8 13.6-1.2 27.3-2.5 40.9-2.9 31.7-11.4 62.1-22.8 91.7-29 75.3-80.5 139.7-147.5 184.7-35.6 23.9-74.1 41.7-115.8 52.3-32.6 8.3-65.5 15.3-99.5 14.4-1.4 0-2.9.8-4.4 1.2h-38c-1.9-.9-3.9-1.6-6-2.1-12.5-2.2-25-4.2-37.4-6.4-27.2-4.8-53.3-13.3-78.5-24.2-34.9-15-67.4-35.1-96.4-59.6-62.9-53-107.7-124.5-127.7-204.4-6.2-24.5-10.4-49.2-10.4-74.5 0-12-.2-24-.3-36-.2-24.8.3-49.5 4.5-74.1 5.3-30.8 14.3-60.8 26.7-89.5 41.8-96.8 121-172.5 219.5-209.9 27.7-10.5 56.5-17.9 85.9-22.1 6.5-1 12.8-2.8 19.3-4.2zm-32.5 44.6v-.2c-1.5 0-3 .2-4.4.5-26.3 7.9-52.9 15.1-77.8 27-42.9 20.5-81.6 46.9-112.7 83-38 44.1-66.7 93.4-79.3 150.9-3.4 15.6-6.7 31.3-7.9 47.2-1.8 23.6-2.6 47.5-2.2 71.2.3 18.2 2.5 36.5 5.3 54.6 2.3 15.6 4.9 31.5 10.4 46.2 9.9 26.8 22 52.9 37 77.4 23.6 38.3 53.2 71.1 89.9 97.4 32.8 23.6 69.2 41.7 107.8 53.5 18 5.5 36.1 10.2 54.9 12 17.6 1.7 35.1 4.4 52.9 2.4 23.6-2.7 47.8-2.6 70.9-7.5 26.8-5.7 52.8-14.5 77.5-26.3 36.8-17.4 70.2-39.8 99.1-68.2 31.7-31.2 55.7-67.9 73.7-108.5 6-13.5 12.8-27 16.6-41.2 4.7-17.3 7.3-35.2 9.5-53 2-16.8 2.6-33.8 3.3-50.7.5-11.6.7-23.3.1-34.9-.5-11.8-1.7-23.6-3.6-35.3-3.2-19.2-5.2-38.9-11.3-57.1-8.7-25.8-20.2-50.5-34.3-73.8-21.7-36.2-48.1-68.2-81.7-94.2-25.4-19.7-52.6-36.5-82.3-48.8-31.1-12.9-63.1-23.1-97-26.1-17.9-1.7-35.9-3.4-53.9-3.7-12.6-.2-25.2 1.7-37.8 3-7.7.7-15.2 2.1-22.7 3.2z" fill="#FFFFFF"></path><path d="M314.8 472.4c-3.1 3.8-6.5 4.8-10.7 2.4-1-.6-2.2-.9-3.3-1-13.9-.6-24.5-17.3-25.3-28.9-1.4-21.8 7.6-38.5 25.7-49.4 7.1-4.2 16.9-4.7 25.5-5.4 32-2.4 51.5 17.4 68.3 40.4 9.3 12.8 7.6 28.5 6.8 43.6-.1 1.5-.6 3-.6 4.5.6 18.5-6.6 34.3-16.1 49.5-9.7 15.6-22.4 28.2-38.9 36.1-17.1 8.2-35.3 9.9-54 6.4-6.4-1.2-12.9-1.4-19.3-2.6-16.1-3-27.5-13.4-37.8-25.3-25.7-29.8-39.1-64.4-43.8-103.5-3.3-27 1.4-52.4 6.8-78.1 6.3-30 21-56 41.1-78.9 8.8-10 18.9-18.8 29-27.4 5.4-4.6 12.2-7.8 18.4-11.6l1.2.8c-3.5 11.4-6.3 23.1-10.8 34-10.2 24-15.1 49.9-14.5 76 .1 2.6-.4 5.3-1.5 7.7-11.6 23.2-14.2 48.2-13.4 73.5.7 26 13.1 46.2 34.8 60 14.5 9.2 33.9 3.9 43.5-10.2 3.1-4.6 7.1-8.6 7.5-14.7.4-4.9-1.6-9.7-5.2-12.9-3.3-3.1-8.6-3.2-11.5-.6-4.6 4-5.4 9.9-1.9 15.6z" fill="#FFFFFF"></path><path d="M589.8 387.5c-6.9-8.2-14.3-16.1-20.6-24.7-9.4-12.9-20.9-22.7-35.4-29.2-2.2-1-4-2.7-5.3-4.8-8.4-14.2-21.2-24.2-33.3-34.9-15.3-13.5-33.7-18.7-52.9-22.9-11.8-2.6-21.7 0-30.8 7.2-6.6 4.9-10.1 12.9-9.2 21.1.2 2.7 2.1 5.2 3.8 9 1.4-1.8 2.7-3.8 3.9-5.8 2.5-4.8 6.3-7.3 11.7-6.9 12.8 1 24.9 4.1 32.4 15.6 11.5 17.6 8.2 41.1-7.9 54.7-13 11-28.3 15.5-45.5 13.8-4.8-.5-9.7.9-14.5 1.2-1.8.2-3.6 0-5.3-.6-15.8-7.1-32-13.4-47-21.9-8.7-4.9-14.2-14.5-17.7-24-3.4-9.3-5.8-19.1-8.4-28.7-.5-2.6-.6-5.3-.1-8 .9-8.4 2.2-16.8 3-25.3 2.5-28.3 17.8-48.5 40.6-63.8 9.7-6.5 21-8.8 32.4-11 27.1-5.1 52.4 2.1 77.9 9.7 16.3 4.8 31.2 12.4 46.1 20.1 11.6 6 19.1 16.4 28.9 24.4 17.7 14.6 29.1 33.7 38.7 53.9 4.4 9.5 7.5 19.6 9.2 30 3 17 4.5 34.3 6.6 51.4l-1.3.4z" fill="#FFFFFF"></path><path d="M481.5 441.4c2.2 4.6 5 8.8 6.1 13.3 4.7 19.4-3.6 31.1-21.8 38.1-22.7 8.7-51.1-10-47.1-37.1 2.3-15.9 6.7-30.9 14.3-44.9 5.6-10.4 14.5-18.1 24.2-24.1 18.1-11.2 38.2-18 59.5-18.4 9.4-.1 19.4 3.5 28.1 7.5 13.9 6.4 24.4 17.7 34.5 29.1 9.4 10.5 14.2 23 16.1 36.9 3.4 25.2.7 49.2-11.7 71.7-5.6 10.1-11.8 19.8-20.6 27.4-12.1 10.4-23.7 21.5-36.3 31.3-26 20.3-55.7 32.8-88.5 36.7-12.4 1.5-25.3.7-37.8-.4-18.2-1.6-36.3-4.2-54.4-6.7-4-.6-7.9-2.3-12.7-3.8 1.2-.9 1.8-1.7 2.3-1.7 10.5.1 18.6-6.7 28.2-9.2 9.1-2.3 18.4-4.4 27.4-7.2 9.7-3 19.4-6 28.6-10.2 11.6-5.3 23-11.4 34-17.9 5.7-3.3 10.6-8 15.8-12.1 4.2-3.2 8.5-6.3 12.4-9.9 2.7-2.5 4.9-5.3 6.6-8.5 3.3-6.3 6-12.9 9.1-19.2 6.3-12.4 8.5-26.5 6.5-40.3-1-6.2-5.1-12.3-8.8-17.6s-9.1-5.8-14-2.8zM94 553.9c-20.4-40.3-33.2-82.7-34.8-129.1 6.8-.3 12.7-.8 18.6-.8 17.5-.1 35 .1 52.5.1 7.7 0 13.1-5 13.6-12.7.4-5.3.5-10.6.1-15.9-.8-8.7-5.9-12.8-14.6-12.8-19.7 0-39.3 0-58.9-.1-3.3 0-6.6-.4-9.8-.7-6.5-19.8 20-117.2 35.3-129.1 3 8.2 5.8 16.3 8.9 24.3 1.7 4.7 3.6 9.3 5.9 13.8 15 27.5 29.6 55.2 45.6 82.1 10.4 17.6 8.4 35.3 4.3 53.5-.9 3.8-4.3 7-6.3 10.6-13.8 24.7-27.9 49.3-40.9 74.4-6.3 12-10.4 25.2-15.6 37.8l-1.8 4.5-2.1.1zm601.2-299.8c20.4 40.4 33.3 82.8 34.8 130h-33.7c-12.7 0-25.3-.2-38-.2-6.9-.1-12.7 5.3-13.1 12.3-.4 4.6-.6 9.3-.7 14-.1 6.5 6.3 12.8 13.3 12.8 20.7.1 41.3 0 62 .1 3.1 0 6.2.5 10.2.9-1.5 46.1-14.4 88.5-35.4 130.1-1.4-2.3-2.2-3.1-2.5-4.1-9.5-32.5-27.7-60.8-43.6-90.2-5.8-10.7-12.5-20.9-17.9-31.8-4.3-8.7-5.1-18-4.2-28.1 2.4-25.4 18.5-44.1 29.3-65.5 8.7-17.3 18.2-34.1 26.7-51.4 3.8-7.7 6.1-16.2 9.1-24.3.5-1.5 1.2-3 1.8-4.5l1.9-.1zM540.4 715c-40.2 21.1-83.1 32.8-129.1 36.1v-14.4c-.2-19.7-.1-39.3-.6-59-.2-9.4-12.3-15.2-21.8-10.9-7 3.2-10.9 7.7-10.8 16.1.4 21.6 0 43.3 0 65v3.3c-22.8 4.5-117.6-22.3-129.5-36.9 6.6-2.3 13.2-4 19.2-6.9 19.2-9.2 38.5-18.3 57.2-28.5 15.4-8.3 29.7-18.4 45-26.7 6.5-3.5 14.2-4.9 21.5-6.9 12.8-3.5 22.6 3.1 33 9.2 24.8 14.6 49.8 28.9 75.3 42.4 11.5 6.1 24.3 9.9 36.6 14.7 1.3.5 2.6 1 3.9 1.6l.1 1.8zM248.7 90.6C289.1 69.5 332 57.7 378 54.5v11.8c.1 19.7.4 39.3.2 59-.1 9 5.4 12.5 13 15.4 4.5 1.8 9.6 1.1 13.4-2 3.8-2.9 6.3-6.1 6.2-11.2 0-22.5.1-45 .2-67.4v-4.4c46 3.2 88.9 15 129.3 36.1v1.8c-2.1.8-4.1 1.7-6.2 2.3-22.4 7-43.1 17.7-63.3 29.4-17.4 10.1-34.3 21-52 30.7-7.5 4.1-15.4 7-25.3 6-14.2-1.4-24.8-8.8-36.2-15.2-21.8-12.2-43.2-25.1-65.3-36.7-12.3-6.4-25.8-10.7-38.7-16-1.4-.6-2.9-1.2-4.4-1.7l-.2-1.8zm-101.8 212c-9.9-13.8-18.1-27.2-23.5-42.3-2.7-7.7-4.9-15.6-7.7-23.2-1.5-3.9-1.1-8.4 1.2-11.9 20.3-34.2 46.4-64.5 77.3-89.6 12-9.7 25-18.1 37.8-26.9 1.8-1 3.9-1.2 5.9-.4 19.4 9.9 38.7 20.1 57.9 30.3 1.4.8 2.7 1.8 4.8 3.2-74.6 31.3-125.4 84.6-153.7 160.8zM488.6 143c2.7-1.8 4.5-3.3 6.7-4.4 15.8-8.3 31.9-15.8 47.2-24.9 8.7-5.2 14.8-4.5 23.1 1.1 31.5 21 59.4 47 82.7 76.9 8.1 10.5 15.2 21.8 22.8 32.8 3.2 4.7 3.8 9.4 2.1 15.1-6.5 21.1-14.2 41.6-27.5 59.6l-3.4 4.6c-28.2-76-78.8-129.5-153.7-160.8zm0 520.7C563.4 632.5 614 579.1 642.3 503c1.7 2.4 2.9 4.3 4.2 6 13.7 18.6 21.3 39.8 27.3 61.8.9 3.3-.8 7.9-2.7 11.1-15.9 27-35.7 50.9-58.4 72.5-16.7 16-35.2 30.2-55 42.2-1.8 1.1-5 1.5-6.8.6-19.3-9.8-38.4-19.9-57.5-30-1.6-1.1-3.2-2.2-4.8-3.5zM147 504.4c28.1 75.8 78.8 129.2 153.6 160.6-2.4 1.6-4 3-5.8 3.9-18.8 9.9-37.7 19.8-56.7 29.5-1.7.9-4.9.4-6.7-.7-29.1-17.4-55.1-39.4-77-65.3-13.2-15.4-24.4-32.8-36.4-49.3-3.3-4.5-3.5-9.2-1.9-14.6 6.5-21.3 14.4-41.9 27.8-60 .8-1.2 1.7-2.3 3.1-4.1z" fill="#FFFFFF"></path></g></g></svg>