<svg xmlns:xlink="http://www.w3.org/1999/xlink" xmlns="http://www.w3.org/2000/svg" x="0" y="0" viewBox="0 0 748.7 753.2" focusable="false" aria-hidden="true" class="classes-experience-1i91nb7" width="748.7"  height="753.2" ><g fill="#FFFFFF"><g fill="#FFFFFF"><path d="M0 364.7c1-4.8 2.5-9.6 3.1-14.5 3.2-24.6 15.5-45.5 27.4-66.5.3-.5.9-.9 1.8-1.7 3.2 14.1 8.1 26.9 17 38.1 8.6 10.8 16.9 21.7 26 33.5-1 .4-2.9 2-4.9 2.1-11.2.1-22.3 0-33.5-.3-2.6-.1-6.7.7-6.9-3.7-.2-5.4 3.1-8.9 7.5-9 1.6-.1 3.2-.3 5.2-.5l-12-16.6c-1 1.5-1.9 3-2.6 4.7-3.2 9.4-6.5 18.9-9.3 28.4-1.6 5.5 0 7.3 5.8 7.3 14.8.1 29.7 0 44.5.1 2.8 0 5.7.1 8.5.4 6.7.7 11.6 4.3 12.6 10.9 1 6.2 1 12.6.2 18.8-1 7.4-6.4 11.5-14.1 11.6-16.8.3-33.7.2-50.5.3-7.4 0-8.9 1.6-6.8 8.6 2.7 9.1 5.9 18 9 27 .7 1.7 1.6 3.4 2.6 5l11.9-16.4c-1.4-.3-2.6-.9-3.8-.7-4.8.8-6.8-1.6-8-6-1.3-5.2-1.1-6.5 4.3-6.7 12-.4 24-.5 36-.4 1.7 0 3.4 1.7 4.9 2.6-19.1 21.3-37.6 41.8-43.8 71.3-1.7-2.6-3.2-4.5-4.4-6.7-8.6-16.1-18.4-31.8-22.2-50-1.6-7.4-2.9-14.8-4.3-22.2-.3-1.6-.8-3.2-1.3-4.8v-12c1.8-.6 3.6-1.6 5.4-1.6 21-.1 42 0 63 0 5.7 0 8.3-2.4 8.4-8s-2.7-8.4-8.6-8.3c-21 .1-42 .1-63 0-1.7 0-3.5-.7-5.2-1.1l.1-13z" fill="#FFFFFF"></path><path d="M701.1 497.7c-29-7.9-55.8-15.9-73.3-42-29.6 90-88.2 149.5-177.8 180.1 23.9 16.9 30 43 38.3 69.9-6.9-1.9-12.5-3-17.8-4.9-21.2-7.7-38.8-21-55.1-36.3-12.8-11.9-27.3-19.8-45.4-17.8-13.5 1.5-25 7.7-34.8 17-16.2 15.3-33.7 28.7-54.8 36.6-5.8 2-11.8 3.5-17.9 4.4 7.4-25.3 12.7-51 36.3-68C209.4 607.4 150 549 119.2 459.8c-17 25.3-43.8 32.3-71.8 40.5 1.9-6.8 3-12.6 5-18.1 7.9-21.5 21.5-39.3 37.1-55.7 15.2-16 21.1-34.9 14.5-56-2.6-8.4-8.6-16.2-14.6-22.9-15-16.8-28.9-34-36.8-55.4-2-5.7-3.4-11.6-4.3-17.5 25.6 7 51.4 12.9 68.5 36.7 30.3-95.5 92.6-157.1 187.7-186.2-10.5-10.8-23.5-19.4-29.8-33.6-5.9-13.7-10.7-27.8-16-41.8l1.5-1.7c5.6 1.5 11.4 2.7 16.9 4.7 21.4 7.8 39 21.4 55.4 36.8 15.8 14.8 34.2 21.9 55.3 14.9 8.7-2.9 17-8.6 23.9-14.8 16.7-14.8 33.8-28.7 55-36.5 5.9-2.1 11.9-3.6 18.1-4.4-4 14.9-8 29.4-14.7 43-6.8 13.8-19.2 22.6-29.7 33.3C536 154 598.6 215.8 628.8 311.3c10.5-11.9 21.4-22.9 36.4-28.3 11.2-4 22.6-7.7 33.9-11.6l1.5 1c-1.5 5.6-2.6 11.4-4.6 16.9-7.8 21.4-21.4 39-36.7 55.4-10.2 10.9-17.1 23.2-17.2 38.6-.2 16 6.1 29.4 16.9 40.8 15.3 16.2 28.8 33.6 36.7 54.8 2.1 5.6 3.4 11.6 5.4 18.8zM136.6 380.4c-.2 131.3 106.1 237.9 237 238.5 126.2.6 239.1-99.1 239.3-238.2.2-131.5-103.6-238.1-237.8-238.2-139-.1-238.6 112.2-238.5 237.9z" fill="#FFFFFF"></path><path d="M88.9 540.4c1.9 3.9 2.9 6.8 4.5 9.2 8.3 12.9 16.5 25.8 25.2 38.4 2.7 3.9 2.1 6.1-1.1 8.7-2.4 2-4.9 4-7.5 6.1-10.2-8.8-17.6-19.3-24-30.7-.9-1.6-3.7-3.9-4.4-3.6-2.6 1.4-6.4 2.7-3.7 7.3 8 13.5 16.5 26.6 28.5 37 1 .8 4 .7 5.1-.2 6.6-5.8 12.8-12 19.4-18 2.5-2.2.8-3.8-.4-5.5-7.3-10.5-15.1-20.8-21.9-31.6-5-8-9-16.7-13.1-25.2-1.6-3.3-3.1-4.1-6.4-2.4-13.5 7.1-27.1 14-41.2 21.3-1-1.7-2.2-3.6-3.1-5.7-2.1-4.5-4-9.1-6-13.7-1.4-3.2-1.2-5.4 2.5-7.2 19.5-9.5 38.9-19.2 58.4-28.7 3-1.5 6.2-2.6 9.4-3.9 12.9 35.9 32.5 66.6 57 95.1-4.2 5.1-8.2 10.8-13.1 15.8-10.7 10.9-21.8 21.5-32.8 32.1-5 4.8-6.3 4.6-12 .5-18-13.2-30.6-31-42.1-49.6-3.4-5.5-6.8-11.1-10-16.7-2-3.5-1.5-6.6 2.2-8.9 10-6.5 19.9-13 30.6-19.9zM45.8 217c14.6 7.6 28.2 14.6 41.7 21.6 2.1 1.1 4.3 2.2 5.6-1.2 8.4-21.9 23.3-39.9 36.3-59 .5-.7.9-1.4 1.9-3-7.3-6.8-14.7-13.7-22.3-20.3-.8-.7-3.6-.2-4.7.7-11.6 9.9-19.5 22.6-27.5 35.3-1.2 1.9-3.5 4.5.4 7.2s5.2 2.1 7.3-2c5.7-11.6 13.6-22 23.3-30.5.6.2 1.2.4 1.8.7 11.2 8.4 11.2 8.4 3.1 19.9-8.8 12.4-18.2 24.3-23.8 38.6-.6 1-1.3 1.9-2.1 2.7-10.6-7-21.3-13.9-31.8-21.1-1-.7-1.1-3.2-1.2-4.9.1-1.2.5-2.3 1.2-3.2 14.5-24.2 28.7-48.6 52-65.8 3.4-2.5 6.7-4.4 10.1-.7 15.2 16.2 33.3 29.7 46.2 48.2.4.5.7 1.1.9 1.4-24.2 28.2-43.8 58.9-56.6 94.5-2.2-.5-4.4-1.3-6.6-2.1-18.5-9.2-36.9-18.7-55.5-28-9.4-4.8-9.6-4.7-5.7-14.8 1.8-4.8 4-9.4 6-14.2zm620 349.5c-6.9 13.3-14.8 25.5-25.9 35.1-.6-.1-1-.1-1.2-.2-11.8-8.7-11.7-8.6-3.6-20.5 8.8-12.9 17.2-26 26.2-39.7 2.1 1.1 5.4 2.5 8.4 4.4 7.2 4.5 14.2 9.3 21.4 13.8 3.5 2.2 4 5.2 2.1 8.6-2.6 4.7-5.2 9.3-8 13.8-11.4 18-22.9 36-40 49.5-10.1 8-10.4 8.7-19.6-.5-13.8-13.7-26.9-28.1-40.2-42.2-.7-.9-1.3-1.8-1.8-2.8 24.2-28.2 43.8-58.8 56.6-94.5 2.4.6 4.7 1.4 6.9 2.4 18.4 9.2 36.7 18.6 55 27.9.5.2.9.4 1.4.6 8.3 3.6 8.4 3.6 5 12.6-2 5.3-4.3 10.6-6.5 15.8l-42-21.7c-2-1-4-2.2-5.2 1-8.6 22.4-23.9 40.7-37.1 60.2-.4.7-.7 1.5-1 2.2 7.1 6.5 14.3 13.4 21.8 19.9.9.8 4 .3 5-.7 5.6-5.9 11.1-11.9 16.2-18.2 3.6-4.5 6.6-9.6 9.8-14.5 4.3-6.9 4.2-7.5-3.7-12.3zm-7.2-337.7c-1.9-4.1-2.9-6.9-4.5-9.4-8.3-12.9-16.5-25.8-25.2-38.4-2.3-3.4-2.3-5.5.7-8l7.9-6.5c7.9 6 13.5 13.8 18.9 21.8 2 2.7 3.6 5.6 4.9 8.7 1.7 4.5 3.9 5.5 7.5 2 .8-.6 1.5-1.2 2.4-1.7-.8-2-1.1-4.3-2.3-5.9-8.8-11.5-17.7-22.8-26.6-34.2-2.1-2.6-4.2-2.7-6.7-.3-6.7 6.4-13.6 12.7-20.7 19.2 13.6 21.5 30.8 40.4 39.2 65.5l46-23.6c1.5 3.1 3.2 6.4 4.8 9.8 1.5 3.2 3 6.3 4.2 9.6 1.1 2.8 1.5 5.5-2 7.2-13.6 6.5-27.2 13-40.7 19.7-7.3 3.6-14.4 7.4-21.7 11-1.9.8-4 1.4-6 1.9-13-35.3-32-66.2-57-94.8 4.2-5.2 8.3-11 13.2-16 10.6-10.8 21.5-21.3 32.5-31.8 5.2-5 6.5-4.9 12.3-.4 15.4 11.6 27.5 26.2 37.5 42.5 4.6 7.5 9.6 14.8 13.9 22.5 3.2 5.7 2.7 7.1-2.7 10.7-9.7 6.3-19.5 12.3-29.8 18.9zM480.9 117c6.9-15.4 13.6-30.4 20.4-45.3 3.2-7.2 6.6-14.4 9.8-21.7 1.6-3.6 4.1-4.7 7.6-3.2 4.6 2 9.1 4.2 13.4 6.6 1 .6 1.9 3.4 1.3 4.6-5.3 12.5-10.7 24.8-16.4 37-1.7 3.7-1.2 5.7 2.7 7.2 18.5 7.5 33.2 20.9 49.6 31.6 2.1 1.3 4 2.9 6.9 4.9 6.2-7.7 12.2-15.2 18-22.8.6-.8.3-3.5-.6-4.3-11.8-11.1-25.2-20-39.1-28.7-.8 1.3-1.6 2.5-2.5 3.6-2.8 3-1.5 4.4 1.5 6.5 9.3 6.3 18.4 13.1 27.6 19.7 2.5 1.8 2.8 3.3.9 6.1-6.4 9.1-6.2 9-15.4 2.9-12-8-24.2-15.8-36.5-23.5-2.5-1.6-3.1-3.2-1.8-5.7 5-9.2 9.9-18.5 14.8-27.7 1.6-3 3.8-3.6 6.6-1.9 6 3.6 12 7.2 17.9 10.9 17 10.6 33.4 22 46.5 37.4 5.4 6.3 5.7 7.8.4 14-14 16.5-28.1 32.8-42.8 49.9-26.8-24.2-57.7-42.4-90.8-58.1zM193.2 686.5c.7-1.3 1.5-2.6 2.4-3.8 2.6-3 1.5-4.5-1.6-6.5-10.4-6.8-20.5-14-30.8-21l.8-1.2c0-.5.1-1 .3-1.4 9.2-13.5 6.4-11.4 18.4-3.6 11.4 7.4 22.9 14.8 34.4 22 2.6 1.6 3.6 3.1 2.1 6-4.9 9-9.8 18.1-14.6 27.3-1.8 3.5-4.3 3.8-7.4 1.9-23.5-14.2-47.3-28-65.3-49.6-3.7-4.5-3.8-6.6.2-11.4 11.4-13.5 22.9-26.9 34.3-40.3 2.8-3.3 5.6-6.5 9.2-10.8 27 24.2 57.7 42.5 91.2 58.3-4 8.5-8 16.7-11.7 24.9-6.3 14-12.6 28-18.8 42.2-1.6 3.7-4.3 4.2-7.3 3-4.8-1.9-9.3-4.4-13.9-6.6-2.4-1.2-2.2-2.6-1.2-4.9 5.8-12.7 11.3-25.5 17.1-38.2 1.2-2.7.5-4-1.9-5-19.6-8.2-35.6-22-52.9-33.9-3.3-2.3-5.5-2.8-8.1.7-4.5 6-9.5 11.5-14 17.5-.9 1.2-1.1 4.5-.2 5.4 11.8 11.3 25.3 20 39.3 29zm-31.9-572.8c9.8-6.9 19-13.8 28.7-20.2 6.5-4.4 6.8-4 1.2-11.4-6.7 4.4-13.5 8.7-20 13.5-6.2 4.5-11.9 9.6-18 14.3-2.5 1.9-3 3.8-.9 6.3 5.2 6.3 10.4 12.5 15.5 18.9 1.8 2.2 3.3 2 5.4.4 5.9-4.3 12.2-8.2 18-12.6 11-8.5 22.5-16.1 35.3-21.6 3.7-1.6 4.1-3.5 2.5-6.9-5.6-12.2-11.1-24.5-16.4-36.9-.5-1.3 0-4.1 1-4.7 4.4-2.6 9.1-4.8 13.8-6.8 2.7-1.1 5.6-.9 7.1 2.5 9.7 21.7 19.5 43.5 29.3 65.2.2.7.4 1.3.6 2-15.8 8.8-31.9 16.9-46.9 26.4s-29.2 20.7-44.3 31.6c-6.7-8-13.8-16.3-20.8-24.6S138 132.4 131 124c-4.8-5.8-4.5-7.5.4-13.3 12.6-14.7 28-26 44.3-36.2 6.5-4 13.1-8 19.6-12 3.3-2 5.9-1.7 7.8 2 4.7 9 9.5 17.9 14.3 26.8 1.2 2.3 1.4 4.1-1.3 5.8-13.6 8.6-27.2 17.3-40.6 26.3-4.1 2.8-6.4 2.3-8.8-1.6-1.4-2.2-2.9-4.3-5.4-8.1zm394.9 572c7-4.7 13.8-8.9 20.4-13.7 6.2-4.5 12.1-9.4 17.8-14.5 1.1-1 1.9-4.2 1.2-5.2-5.6-7.6-11.6-14.8-17.8-22.5-9.9 7-18.8 13.7-28.1 19.7s-19 11.6-28.7 16.9c-3.1 1.7-4.1 3-2.5 6.4 5.7 12.4 11 24.9 16.7 37.3 1 2.2 1.2 3.7-1.2 4.9-4.6 2.2-9.2 4.6-14 6.6-3.1 1.3-5.6.6-7.2-3-6.2-14.2-12.5-28.4-19-42.6-3.7-8.1-7.6-16.1-11.2-23.8 16.4-9.1 32.5-17.2 47.7-26.8s29.1-20.8 44-31.6c9.8 11.9 19.8 24.1 30 36.2 4 4.7 8.4 9 12.3 13.7 4.5 5.4 4.3 7.2-.1 12.5-12.7 15.2-28.4 26.5-45 36.9-6.4 4-12.8 7.9-19.1 11.8-3.4 2.1-6.1 1.8-8.2-2.1-4.7-9-9.5-17.9-14.3-26.9-1.3-2.4-1.1-4.1 1.5-5.7 13.8-8.7 27.5-17.5 41-26.6 3.5-2.3 5.4-2 7.8 1.2 5.9 7.8 6.2 8-1.3 14-6.8 5.4-14 10.2-21.2 15-6.4 4.4-6.5 4.2-1.5 11.9zm116.1-267.3c1.7-.9 3.4-2.5 5.2-2.5 11.7-.1 23.3.1 35 .3 2 0 4.1 1 6.1 1.6-.6 8.1-3.2 13.4-13.5 10.8l12.8 17.6c5.9-11.5 10.2-23.1 12.2-35.5.7-3.9-2.2-5.1-5.7-5.1-10.3.1-20.7.1-31 .1-7.2 0-14.3-.1-21.5-.5-8.1-.4-13.2-4.7-14.3-12.7-.7-5.3-.7-10.6 0-15.9 1.2-8.2 6.5-12.6 14.8-12.7 16.8-.2 33.7-.2 50.5-.3 6.8 0 8.4-1.8 6.5-8.1-3.3-10.9-7-21.7-10.9-33.7l-13 17.9c8.3-1 12.9 2.3 12.7 12-13.5 2.4-27.7 1.4-41.8 1.5-1.4 0-2.8-1.8-4-2.7 19.2-21.2 37.7-41.9 43.9-71.6 2.4 4 4.4 7.1 6.3 10.3 13.2 22.3 21.9 46.2 25.1 72.1 1.8 14.9 2 15.2-12.8 15.2-18.5 0-37-.1-55.5-.2-5.3 0-7.8 2.5-7.9 8-.1 5.7 2.5 8.4 8 8.4 21 0 42 .1 63-.2 4.6-.1 6 1.7 5.6 5.8-1.5 19.5-4.7 38.7-12.9 56.6-4.9 10.6-10.8 20.6-16.3 30.9-.8 1.4-1.7 2.7-2.7 3.9-6-29-24.3-49.7-43.9-71.3zM270.4 721.3c28.6-6.5 49.1-25 70.7-44.3.9 1.8 2.6 3.7 2.6 5.7.1 11.5-.2 23-.5 34.5-.1 2-1 4.1-1.5 6-9.5-1.3-9.5-1.3-12-12.7L312.6 723c9.8 3.5 18.7 6.7 27.7 9.9 2.2.7 4.5 1.3 6.8 1.7 4.9 1 6.8-.5 6.9-5.6.1-15 0-30 .1-45 0-2.7 0-5.3.2-8 .5-6.8 4.2-12 11-13.1 6.1-1 12.2-1.1 18.3-.3 7.7 1 11.9 6.3 12.1 14.3.3 16.8.3 33.6.4 50.5 0 7.5 1.5 8.9 8.6 6.8 8.9-2.7 17.7-5.7 26.5-8.8 1.9-.8 3.7-1.7 5.4-2.8l-16.3-11.9c-.3 1.1-1 2.2-.8 3.2 1 5.6-2.2 7.3-6.9 8.9s-5.5-.9-5.7-4.1c-.4-6.8-.5-13.7-.6-20.5-.1-5-.3-10 0-15 .1-2.1 1.5-4.1 2.3-6.3 21.6 19.5 42.3 38.1 72.1 44.3-3.7 2.3-6.5 4.2-9.5 5.7-15.2 7.8-29.8 17.2-46.9 20.5-11.4 2.2-22.9 4.3-34.4 5.7-6.3.8-6.8-.2-6.8-6.6 0-20.7 0-41.3.1-62 0-5.6-2.6-8.3-8.2-8.2s-8.1 2.7-8.1 8.3c0 20.8-.1 41.7.2 62.5.1 5.2-2.3 6.8-6.5 6.1-15.2-2.7-30.6-4.8-45.4-9-16.3-4.8-30.4-14.4-44.8-22.9zm208-689c-29.9 6.2-50.6 24.8-72.1 44.1-.8-1.8-2.4-3.6-2.5-5.5-.1-11.5-.1-23 .4-34.5.1-2.2 1.9-5.8 3.3-6 4.7-.8 9.2 3.2 9.3 7.1.1 1.6.2 3.2.4 5.8 3.2-2.4 5.6-4.5 8.2-6.3s5.5-3.7 9.7-6.5l-28.1-10-2.4-.6c-10.9-2.5-11.2-2.2-11.2 9.2-.1 15.8 0 31.6-.3 47.5-.1 8-4.2 13.2-12 14.3-5.9.8-11.9.8-17.8-.1-7.4-1.2-11.3-6.2-11.5-13.7-.3-17-.3-34-.4-51-.1-7.4-1.5-8.8-8.7-6.6-10.6 3.2-21.1 6.8-33 10.6l18.2 13.2c-1.5-9 2.6-12.8 11.8-13.1 2.5 14 1.3 28.4 1.3 42.7 0 1.1-2 2.3-2.7 3.1-21.3-19-41.9-37.5-72-43.7 8.7-4.8 16.4-8.6 23.8-13C309.6 7.7 331.4 3.7 353.4.6c10.4-1.5 11-.7 11 9.7 0 19.5 0 39-.1 58.5 0 5.8 2.7 8.6 8.5 8.4 5.6-.2 7.9-2.8 7.9-8.5-.1-20.7.1-41.3-.3-62-.1-5.4 2.3-7 6.8-6.3 11 1.6 22.1 3.2 33 5.4 20.3 4.1 37.5 15.2 55.3 24.9.6.3 1.3.7 2.9 1.6zM431.2 378c-.3-3.7-.7-7.4-1.5-11.1-.7-3.1.3-4.8 2.6-6.2 4.1-2.6 8.4-3.9 13.2-2.4 6 1.9 10.8 1 15.5-4 6.4-6.9 14.2-11.6 24.7-10.4s15.2 8.7 20.4 16c.6.9-.5 3.8-1.7 5-7.1 7.1-14.6 13.7-21.5 20.9-3.9 4-6.9 8.8-10.3 13.3-2.5 3.3-4.6 7-7.2 10.1-7.4 8.8-15 17.4-22.4 26.2-5.9 7-12.7 13-21.4 15.9-18.1 5.9-36.5 10.9-55.8 8.5-10.7-1.5-21.3-3.6-31.8-6.4-10.3-2.6-19.5-8.4-26.2-16.5-9-10.7-18.1-21.3-26.9-32.2-3.3-4.1-5.1-9.5-8.6-13.3-7.3-7.9-15.3-15.2-23.1-22.8-.8-.8-1.8-1.4-2.7-2.2-4.6-4.2-4.7-4.9-.8-9.8 4.5-5.6 8.8-11 16.8-12.4 11.5-2 19.8 3.4 26.9 11 4.1 4.4 8.3 4.5 13.4 3.7 2.9-.5 6-1.1 8.8-.5 7.7 1.7 8.8 4.1 8 11.7-.6 5.8-.9 11.6-.8 17.4.2 12.3 8.5 18.4 18.6 22.1 5.6 2.1 11.9 2.8 18 3.5 6.7.7 12.4-2 16.7-7.3 1.4-1.7 2.8-3.2 4.7-.7 6.8 9 16.4 9.5 25.8 7.2 7.1-1.8 13.8-4.7 19.9-8.7 8.8-5.3 8.5-14.6 8.7-25.6z" fill="#FFFFFF"></path><path d="M398.3 376.3c-3.9-4.5-7.6-5.3-12.4-2.5-2 1.2-3.8 2.7-5.4 4.3-5.1 4.7-5.7 4.7-10.9-.1-1.5-1.5-3.2-2.9-5-4-4.7-2.8-8.4-2.2-12.1 1.4 3.3 1.9 7.6 3.2 9.9 6.1s3.2 7.2 3.5 11c.6 5.7-4.4 11.8-10 12.9-9.3 1.8-17.5-.5-23.8-8-6-7.1-6.7-15.1-3.2-23.4 2.4-5.7 4.7-11.6 8.3-16.5 8.5-11.7 8.7-24.4 6.5-37.7-1.6-9.8-5.9-17.6-14.3-22.9-5.5-3.7-11.2-7-17.1-10-4-1.9-3.8-3.9-2-6.8 5.6-9.1 13.5-14.9 24.3-15 10.7 0 17.2-6 22.8-13.9 1.4-1.9 2.6-3.9 4.1-5.7 7.4-9.4 20-9.3 27.4.1 3.6 4.6 7.2 9.2 11 13.5 3.2 3.7 7.5 5.1 12.4 5.6 4.8.5 9.5 1.4 14.2 2.8 6.4 1.8 14 11.1 14.6 16.6-7.5 4.8-14.9 9.2-22 14-6.6 4.4-11 11.5-12 19.4-.8 5.1-1.4 10.2-1.7 15.4-.5 6.9 1.2 13.7 4.9 19.5 3.8 6.4 7.2 13.2 10.4 19.9 3.9 8 4.1 16.1-1.4 23.6-5.7 7.9-13.6 10.9-23.1 9.8-6.6-.8-11.7-6.3-12-12.9-.2-10 4.2-15.2 14.1-16.5z" fill="#FFFFFF"></path><path d="M271.4 261c-6.9-11.8-10.5-23.3-5.2-36.7 7.1-17.9 20.5-26.4 39-27.8 5.2-.4 5.9-3.4 7-7.2 3.6-12.5 11-21.7 24-25 3.7-.8 7.6-.8 11.2.2 4.6 1.1 8.9 1.1 12.2-1.9 4.6-4.2 8.4-9.1 12.6-13.7.8-.9 2.2-2 3-1.8 1.1.3 2.1 1.6 2.8 2.8 4.7 7.3 10.1 13.6 19.3 15.2 1 .2 2 .2 3 0 17.7-3.5 32.4 5.2 37.2 22.3.2.6.4 1.3.5 1.9.5 5.2 3.1 7.1 8.5 7.4 23.5 1.4 41.2 20.5 39.8 43.8-.4 7-4.2 13.7-6.9 21.7-31.2-25.8-64.7-40-104.5-39.6-39.2.2-72.8 13.9-103.5 38.4zm222.5 225c25.5-31 39.8-64.4 39.4-104.1-.4-39.3-14-72.9-38.6-103.8 6.7-3.6 13.3-7.5 21-7.8 17.1-.5 35 9.6 40.7 27.9 1.5 4.2 2.4 8.6 2.7 13.1.2 4.5 2.4 6 6.2 7.5 5.8 2.3 11.8 4.8 16.5 8.7 8.8 7.3 12.6 16.7 9.2 28.5-.8 2.8-.1 7.2 1.7 9.4 4.1 5 9.3 9.1 14.1 13.6.9.8 2.1 2.2 1.9 3-.3 1.1-1.6 2.2-2.7 2.9-7.4 4.6-13.7 10-15.2 19.2-.3 1.1-.2 2.3.1 3.4 6.7 16.5-9.3 33.2-22.8 37-8.3 2.3-7.8 2.3-9 10.7-3.3 24.6-22.1 39.4-45.2 37.9-6.4-.6-12.7-4.5-20-7.1zm-221.8 14.2c51.8 44.8 140.3 58.5 207.6.4 6.3 10.5 10.3 21.1 6.3 33.5-6.2 19.3-19.9 29.3-39.7 30.9-5 .4-6.2 2.9-7.3 6.9-3.4 12.8-11 22-24.2 25.4-3.5.9-7.2.9-10.8-.1-5.2-1.5-9.8-1-13.5 2.3-4.1 3.7-7.6 8.1-11.5 12.2-.9 1-2.1 2.8-2.9 2.6-1.2-.3-2.5-1.6-3.3-2.8-4.7-7.3-10.1-13.6-19.3-15.1-1.3-.2-2.6-.1-3.9.3-9.8 3.6-18.1-.2-25.3-6.2-6-4.9-10.3-11.3-11.6-19.3-.7-4.4-3.1-6-7.8-6.4-24.1-1.8-40-18.8-40.6-42.3 0-8 4.5-14.6 7.8-22.3zm-18.9-14.9c-10.3 6.2-20.7 10.5-32.6 6.7-18.3-5.8-29.1-15.9-31.7-39.5-.6-5.1-2.7-6.6-7-7.8-12.6-3.4-21.7-10.7-25.2-23.7-1-3.5-1.1-7.2-.2-10.7 1.8-5.8 1-10.7-2.8-14.9-3.6-4-8.1-7.1-12.1-10.8-.9-.8-2-2-1.9-3s1.2-2 2.1-2.9c4.7-4.6 9.8-8.7 13.9-13.8 1.7-2.2 2.2-6.6 1.3-9.4-2.8-8.9-.5-16.6 4.7-23.5s11.8-11.8 20.5-13.4c4.5-.8 6.5-2.8 6.9-7.9 1.8-24.2 18.8-40 42.3-40.6 8.2-.2 14.8 4.3 22.6 7.7-25.1 30.5-39.4 63.9-39.1 103.6.2 39.5 13.7 73 38.3 103.9z" fill="#FFFFFF"></path><path d="M495 412.4c-7.6 11.3-11.5 24.7-11.2 38.4.3 19.5-10.1 33.4-25.4 44.2-4.7 3.3-9.6 6.6-14.9 8.9-3.6 1.5-8.1 1.6-12.1 1.5-3.5 0-6.9-1.3-10.3-1.6-14.4-1.5-24-10.8-33.1-20.5-1.4-1.7-2.5-3.6-3.2-5.6-1.7-4.2-.3-6.1 4.1-5.7 15.2 1.1 28.5-3.5 40.3-13 13.1-10.6 26-21.2 36.6-34.5 6.9-8.9 17.1-12.4 29.2-12.1zm-239.9 0c12.7-.2 23 3.9 30.6 13.4 12.4 15.5 27.5 28 44 38.9 9.4 6.2 20.2 8.2 31.6 7.1 4.2-.4 5.6 1.3 4.3 5.3-.4 1.4-1 2.8-1.9 4-8 9.5-16.4 18.5-29.2 21.5-4.7 1.1-9.5 1.7-14.2 2.7-5.6 1.2-11.4.3-16.5-2.4-16.7-8.6-29.5-21-36.1-38.9-1.5-4.2-1.5-9.2-1.4-13.8.3-13.5-3.4-25.8-11.2-37.8zm66.4-69.7c-6.3 1.5-12.8 2.3-18.7 4.7-4.8 1.9-8.9 1.4-11.9-1.7-4.2-4.1-7.8-8.9-10.6-14.2-4.7-9.4-9.4-18.3-20.1-22.2-.9-.3-1.5-3.7-.9-5.2 4.9-14 25.8-21.4 39-12.5 4.7 3.1 8.6 7.2 13.1 10.7 1.5 1.3 3.4 2.1 5.4 2.3 9 .5 19.4 5.2 20.3 17.4.3 3.9 1.2 8.2 0 11.7-2.8 8-6.6 10-15.6 9zm90.6-14.6c.8-14.6 5.7-21.8 17.8-23 5.3-.5 8.6-2.6 12-6.2 3-2.9 6.3-5.5 9.8-7.6 13.2-8.5 33.7-1.3 38.9 12.4 1.1 2.9 1.6 4.7-2.5 6.3-9.6 3.8-14.7 12-18.4 21.2-2.9 7.2-7.3 13.1-14.5 16.3-2 .9-4.7.4-7 0-7.2-1.2-14.2-3.3-21.4-3.8-8.5-.4-15.1-6.7-14.7-15.6z" fill="#FFFFFF"></path></g></g></svg>