<svg xmlns:xlink="http://www.w3.org/1999/xlink" xmlns="http://www.w3.org/2000/svg" x="0" y="0" viewBox="0 0 717 717" focusable="false" aria-hidden="true" class="classes-experience-1i91nb7" width="717"  height="717" ><g fill="#FFFFFF"><g fill="#FFFFFF"><path d="M337 0h43c1.9.4 3.9 1 5.8 1.2C396.9 2.7 408 3.6 419 5.5c159.2 27.3 280.5 157.9 296.1 318.8.3 3.6 1.3 7.2 1.9 10.7v47c-.7 3.9-1.6 7.8-2 11.8-15.3 162.5-142.8 296.4-304.4 319.3-10.2 1.5-20.4 2.6-30.6 3.9h-43c-2.1-.3-4.2-.8-6.4-1-41.7-3.5-82-12.9-119.8-30.9C91.7 628 22.5 533.8 2.9 403.2 1.6 394.9 1 386.4 0 378v-39c.3-1.5.6-2.9.8-4.4 2.1-15.7 3.4-31.5 6.4-47C36.4 137.8 162.6 21 314.3 3c7.6-.9 15.1-2 22.7-3zm22.2 676h4c21.6.6 43.1-.6 64.2-5.9 20.8-5.3 41.2-12.2 60.9-20.7 30.8-13.1 58.1-31.5 82.9-53.5 16.6-14.7 31.5-31.2 44.6-49.1 17.6-24.4 31.9-51 42.3-79.2 6.8-18 12.1-36.5 14.8-55.6 1-7.1 3-14.3 2.9-21.4-.6-27 2.8-54.1-2.8-80.9-2.9-13.9-5.3-27.9-9.1-41.5-7-24.9-18-48.1-30.9-70.6-11.6-20-25.5-38.6-41.5-55.2-12-12.7-25.6-23.9-38.9-35.2-25.7-21.8-55.8-36.2-87-48.2-17.8-6.9-36.4-11.6-55.3-14.1-6.8-.9-13.6-3-20.4-2.8-27 .6-54.1-2.7-80.9 2.8-12.6 2.6-25.3 4.6-37.7 8-25 6.8-48.3 17.8-71 30.1-23.3 12.6-43.4 29.3-62.7 47.1-10.2 9.4-18.6 20.9-27.8 31.4-13.5 15.5-24.4 32.8-33.7 51.1C66 233 56.9 254 51.5 276.2c-4 16.6-8.1 33.5-9.1 50.5-1.3 23.2-.3 46.5.8 69.8.5 11.5 2.7 23.1 5.3 34.3 7.1 29.7 18.2 58.2 33 84.9 13.1 23.9 29.9 45.4 48.9 65 8.6 8.9 18.1 16.8 27.6 24.7 15.2 12.7 31.2 24.1 48.9 33.2 23 11.8 46.6 21.9 71.6 28.6 17.4 4.7 35 8.5 53.1 8.7 9.3.2 18.4.1 27.6.1z" fill="#FFFFFF"></path><path d="M148.7 188.4c-14.1-4.7-21.2-14.3-20.1-27 .9-11.4 9.4-20.7 20.7-22.6 13.1-2.1 22.6 4 29.4 19.4 23.5-20.9 50.3-37.6 79.3-49.6-14.2-13.2-17.2-25.3-9.2-37.1 6.9-10.2 20.2-13.9 31.4-8.8 12.4 5.7 17 18.1 12.3 34.1 43.6-10.6 87.2-10.6 130.8-1.4-3.7-17.6 1-29 13.9-34.2 11.5-4.5 24.5-.1 30.9 10.5 6.9 11.6 3.8 24.2-9.1 35.3 29.3 11.8 56.5 28.3 80.4 48.9 2.2-8.6 6.1-15.5 13.9-18.4 5.2-2 10.9-2.7 16.4-2.1 11.1 1.4 19.3 11.6 19.9 23.1.7 12.5-6.9 22-21.6 26.4 17.7 21.8 32.6 45.1 43.4 70.8 12.8-10.2 23.2-11.8 33.6-5.2 9.1 5.8 13.9 17 10.8 27.4-4.5 15-15.5 20.2-30.7 18.6 9.4 40.4 9.2 80.5 2 121.2 8.2-1.8 16-1.9 22.2 3.3 4.2 3.5 7.5 7.8 9.7 12.8 4.4 10.5-.2 22.6-9.8 28.9-10.5 6.9-22.3 5.1-34.2-5.6-10.5 26.8-24.9 51.9-42.8 74.5 8.1 2.1 14.9 5.7 18 12.9 2.1 5 3.1 10.4 2.9 15.8-.7 10.7-9.7 19.4-20.3 21.1-13 2.1-21.8-3.6-29.4-19.1-23.4 21.1-50.2 38.1-79.2 50.4 11.4 12.2 13.4 24 6.2 34.9-6.4 9.6-18.6 13.7-29.5 9.7-12.4-4.5-17.7-15.1-15.7-31.5-43.8 9.7-87.6 10-132-.8 2.4 9 2.5 17.7-3.6 24.4-3.7 4.2-8.4 7.4-13.7 9.3-11.1 3.7-23.4-2.2-28.7-12.6-5.9-11.5-2.6-23.4 8.5-32.7-13.8-7.7-28.3-14.8-41.7-23.5s-26.1-19-38.9-28.5c-5.2 18.1-14.1 25.7-28.6 24-12.1-1.4-21.4-11.3-22-23.5-.9-14.2 7.5-22.9 26.6-27.2a279.67 279.67 0 0 1-45.6-77.9c-11.2 14-23.9 17.5-36.1 10.2-10.7-6.5-15-19.9-10-31.4 5.7-13.1 18-17.6 35.3-12.5-8.8-40.6-8.9-82.7-.3-123.4-8 1.7-16 1.7-22.3-3.7-4.1-3.5-7.4-8-9.5-13-4.1-10.4.6-22.3 10-28.4 10.6-6.9 22.1-5.1 33.8 5.3 6.3-12.1 12.2-24.5 19.2-36.3 7.2-12.1 15.3-23.4 23.1-35.2zm211.5 427.1c70.9-1.9 132.1-26.7 181.8-76.2 44.7-44.5 68.9-100.2 72.7-162.9 4.4-73.7-20-138.5-70.9-192.1-45-47.4-101.9-73.3-166.6-77.2-78.8-4.7-147.1 22.5-201.7 80C134 230.8 111 284 107.3 344c-4.8 77 21.2 144.2 76 198.3 48.7 48.1 109 71.2 176.9 73.2z" fill="#FFFFFF"></path><path d="M537.8 389.3c2.6-9.2 2.8-17.4-1.8-25.3-3.2-5.4-4.3-5.6-7.8-.5-1.4 2-3.7 3.8-4.2 6.1-1 3.6-.9 7.6-1.4 12.7-2.2 1.5-5.2 1.5-7.3-.1-3.6-2.5-5.5-6-4.8-10.3.5-3.3 1.8-6.4 2.7-9.6 3-10.3 3.3-19.9-4.9-28.4-3.7-3.8-6.6-8.3-9.7-12.7-2.4-3.5-5.4-4-9.2-2.9-4 1.1-6.5 3.5-6.8 7.6-.5 9.8-1 19.6-1.1 29.5.1 2.3 1 4.4 2.6 6 16.1 15 27 33.3 35.4 53.3 5.3 12.6 5.1 26.1 4.7 39.4-.7 21-7.9 39-22 55.3-11.5 13.3-24.8 17.7-41.3 17.8s-32.2-2.5-47.9-6.4c-16.9-4.1-33.5-1.2-49.9 2.5-6.4 1.4-11.9 9.3-12.5 16-.7 7.3 3.3 11.3 9.3 14.4 12.7 6.5 29.2 3.9 40.1-6.3 2.6-2.4 5.4-4.6 8-7l1.6.7c0 2.1.8 4.7-.1 6.3-6.5 11.2-12.1 23.4-24.7 29.2-5.8 2.7-12.4 3.8-18.7 5.1-24.1 5-46.1 1.4-65.4-15.3-18.2-15.7-38.4-28.9-60.1-39.2-18.2-8.7-32.9-21.2-43.2-38.7-6.6-11.2-13.8-22-20.2-33.3-19.4-34.2-27.7-70.9-25.6-110.3 1.5-27.3 7.1-53.8 15-79.8.7-2.3 2-4.3 3.8-5.8v3.6c.5 24-.6 48.1 1.8 71.8 3.1 31.9 20 56.2 47.8 72.6 9 5.3 17.9 11.2 27.5 15.1 23.6 9.6 47.7 18.1 73.6 18.7 6.7.1 13.6-1.5 20.1-3.3s10.2-6.6 11.3-13.4c1.1-7.1-2.2-12.6-7.4-16.5-5.4-4.1-10.7-1.2-15.2 2.9-4-9.3 2.1-15.7 10.4-15.6 14.6.2 24.3 6.1 29.3 19.1 6.6 17 5.8 34-4.2 49.8-2.5 4-6.2 7.2-10.4 12 4.3-1.3 7.7-1.7 10.3-3.2 11.3-6.5 23.1-12.7 27.8-26 6.1-17.3 7.4-34.2-4.4-50.4a79.207 79.207 0 0 0-44.7-30.8c-21.6-5.8-47.8 15.8-46.4 38.2.3 4.9-2.1 5.8-6.1 6.3-13.7 1.8-25.7-2.9-36.8-10-20-12.8-37.1-29.6-50.3-49.3-10.2-14.9-14.1-31.4-13.4-49.2.2-4.3.6-4.8 4.6-5.5.6 5.1 1 10.2 1.7 15.2 1.5 10.9 7.4 19.7 15 27.1 6.4 6.2 13 12.7 20.7 17.1 8.2 4.7 17.7 7.2 26.7 10.4 1.7.6 4.1-.4 6.3-.8l-8.4-17.1c6.3 3 11.2 6.4 16.6 7.4s11.3-.2 17-.4l.2-1.8c-4.9-2.6-9.7-5.2-14.6-7.8-2-1.1-4.3-2-6-3.5-13.9-12.3-26.9-25.3-35.7-42-1.8-3.4-3.4-6.9-5.4-10.1-5.4-8.7-8.3-18.8-8.4-29-.1-8.7-.2-17.3 0-26 .4-24.1 11.6-43.5 27.3-60.6 6.5-7.1 14-13.2 22.3-18.1 19.2-11 40.3-12.6 60.8-5.5s34 22.2 40.2 43.4c4.1 14-7.6 35.1-19 36.5h-2.4c9.1-13 10.1-26.4 2.2-38.1-5.9-8.7-15.1-13.3-24.6-17.3-11.5-4.8-22.7-4.5-33.5 1.8-7.2 4.2-11.7 10.8-15.7 17.7-12.2 21.4-11.9 43.2-.6 64.7 3.9 7.4 9 13.9 17.4 17.1 4.4 1.7 8.2 4.8 12.8 7.5-3.9-20-6.3-39.1-1.2-58.3l1.5-.2c.7 3.4 1.5 6.9 2.1 10.4 1.8 12 7.4 22.4 14 32.3 1.7 2.5 4.4 4.5 7 6.3 3.5 2.5 5.9 1.3 6.2-3.1.7-8.3-2.3-15.7-6.3-22.7-1.3-2.3-2.9-4.5-4.3-6.7 4-2.2 8.3-1.4 12.9 1.1 13.7 7.5 19.3 19.4 18.7 34.4-.8 18.6 4 36 10.9 52.9.7 1.8 2.3 4 3.9 4.5 17 5.8 30.3 16.5 40.9 30.7 9.3 12.6 17.1 26.2 23.2 40.7 4.4 10.3 5 20.9 3.2 31.9-.9 5.1-.9 10.3-2 15.3-1.9 9-4.4 17.9-6.8 27.2 3.5-1.4 8.1-2.5 12.1-4.8 7.9-4.4 14-10.5 17.2-19.4 4.8-13.4 8.1-26.9 4-41-1.4-4.8-4.1-9.4-6.9-13.7-2.6-4-6.4-6-11.9-5.8-8.4.4-14-4-16.8-11.6 2.7-1.1 5.6-1.9 7.9-3.5 8.1-5.5 8.9-14.3 8.7-22.7-.3-13.8-4.6-27.1-12.4-38.5-4.5-6.8-9.6-13.2-14.5-19.7-.4-.5-.8-1-1.1-1.6-2.3-5.4-4.5-10.9-7-17.1 13.7 4.6 22.8 15.6 34.1 24.8 5.2-14.4 14.9-23.2 28.9-28.1-2.5-6.5-5-12.2-12.8-14.4-25.5-7.2-42.8-24.2-52.8-48.1-7.9-18.8-7.7-38.1 1.7-56.6 3.9-7.6 10.2-13.2 19.7-13.1 1.6.2 3.2.5 4.8 1-14.3 9.5-15.2 23.3-13.9 37.3 1.8 20.4 11.1 30.6 31.3 34.5 5.2 1 10.9.2 16.3-.6 4.5-.7 7.4-3.6 9.1-8.3 2.9-8.1 8-10.9 14.8-8.9 4.3 1 7.1 5.1 6.5 9.4-.4 4.7-3.2 7.2-8.2 7.7-1.3.1-2.6.8-3.4 1.8-4.8 9-3 22.3 3.5 30.1 12.2 14.8 26.8 27.4 43.1 37.6 16 10 23.9 25 23.4 44.2-.1 4.3-1.4 7.9-5.2 10.2-2.8 1.7-3.1 3.8-1.9 6.8 3.5 8.7 4.3 18.3 2.1 27.5-1.5 6.5-6.6 9.8-11.5 13.2-.6.5-2 0-3.5 0zm-286.3 87c7.6 4.3 15.4 8.6 23 13.1 5.3 3.1 10.1 7.5 15.7 9.4 19.1 6.4 33 1.6 45.9-15.7-.5-.1-1-.1-1.4-.1-11.2 2-22.3 2.7-33.6.2-12-2.7-24.1-4.8-36.2-6.7-4.5-.8-9.3-.2-13.4-.2zm-72.4-75.6c2.2 5.9 2.9 13.1 6.9 17.4 9.1 10 20.3 17.9 32.7 23.2 17.6 7.7 36.1 13.3 55.1 16.6 3 .5 6 .4 9.1.5l.3-1.6c-1.5-.6-3-1.3-4.5-1.8-15.1-4.6-30.2-9-45.2-13.8-2.2-.7-3.7-3.6-5.5-5.5-1-1.1-1.9-2.5-3.2-3.3-5.6-3.2-11.8-5.5-16.9-9.3-9.8-7-18.9-14.6-28.8-22.4zm362.8-76.2c-1-3.2-1.3-5.9-2.7-7.8-1-1.4-3.4-1.8-5.1-2.6-.8 1.8-2 3.5-2.2 5.3-.1 1.8.3 3.6 1.3 5.1 1.2 1.8 3.1 3 4.7 4.5l4-4.5z" fill="#FFFFFF"></path></g></g></svg>