<svg xmlns:xlink="http://www.w3.org/1999/xlink" xmlns="http://www.w3.org/2000/svg" x="0" y="0" viewBox="0 0 623.1 726.6" focusable="false" aria-hidden="true" class="classes-experience-1i91nb7" width="623.1"  height="726.6" ><g fill="#FFFFFF"><g fill="#FFFFFF"><path d="M335.9 252.2c21.6-8 43.4-14.8 52-39.9-9.5-4.9-19.5-8.3-31.3-4-.2-2.2-.4-4.2-.6-6.3-.9-8.2-1.8-16.4-2.8-24.6-.4-3.1-1.7-3.8-4.8-2.4-8 3.8-15.4 8.4-20.4 15.9-2.5 3.7-3.7 8.2-5.7 12.9-1-1.6-2.6-3.2-3.1-5.1-3.6-12.1-12.8-19-23.1-24.8-3.4-1.9-5.1.4-5.9 3.2-2.9 10.6-5.5 21.3.2 31.9.1.2-.1.6-.1.9-7.6 0-15.2-.2-22.8.1-4.8.2-9.5 1.2-14.2 1.9-3.5.5-4 2.2-2.5 5.2 3.9 8 8.8 15.2 16.1 20.6 1.4 1 2.8 2.1 4.6 3.5-5.3 3-10.3 5.3-14.6 8.5-2.9 2.1-4.8 5.6-7.2 8.5 3.2 1.6 6.2 3.8 9.5 4.5 5.8 1.3 11.8 1.6 18.1 2.4-.6.8-1.2 1.6-1.9 2.2-8.2 6.8-16.9 13.1-27.3 16.3-11.4 3.5-22.5-2.1-27.6-12.9-7.5-16.1-8-33-7-50.3.9-14.8 6.4-28.1 12.9-41 2.3-4.6 6.4-8.3 10.6-13.6-6.3 3.2-11.9 5.2-16.6 8.6-14.2 10.2-29 19.7-40.2 33.5-17.5 21.5-32.9 44.1-36.1 72.7-1.1 8.6-1.7 17.2-1.8 25.8 0 8.1 4 14.7 10.8 19.3 5.3 3.6 8 3 11.7-2.2 1.2-1.7 2.2-3.6 4.1-6.6.5 2.5 1.2 3.9 1 5-3.3 14.5-8.6 27.5-20 38.2-8.4 7.8-24.3 5.8-30.9-5.5-4.6-7.8-5.6-16.2-6.1-24.9-2.1-37.8 6.9-73 26-105.4 6.9-11.8 16.1-22.3 24.3-33.3.9-1.2 1.9-2.2 3.4-3.9l-16.6-19c-6.3 7.3-12.4 13.4-17.3 20.3-15.8 22.2-27.6 46.9-35 73.1-8.5 30.5-9.9 61.4-2.6 92.5 3.5 14.8 7 29.5 14.4 43 1.4 2.7 2.2 5.6 2.3 8.6 2.4 29.1 17 52 36.3 72.7 14.2 15.2 31 27.2 48 38.9 3.8 2.6 8 4.7 11.8 7.3 1.3.9 2.2 2.3 2.4 3.9.5 4.9.6 9.9.9 15.5-1.6-.5-2.9-.8-4.2-1.4-70.8-30.7-119.7-81.7-144.6-155.2-.8-2.5-1.8-3.8-4.6-4.2-7.6-1.3-14-5.3-19.4-10.7-11.9-11.7-19.6-26.3-27.5-40.8C7.8 326 4 320.7.8 315.1c-.8-1.5-1.1-4.2-.3-5.6 5.9-10.4 12.2-20.5 18.4-30.8 7.4-12.3 14.6-24.7 26.7-33.1 3.1-2.1 6.7-4.2 10.3-4.8 5.2-.9 6.8-3.7 8.3-8.2 18.7-53.3 51.4-95.9 98.2-127.7 22-14.9 46.2-26.2 71.7-33.5 4.7-1.4 7.4-3.6 8.5-8.1 3.4-15.4 14-25.5 26.2-34C282 20.1 296 12 309.6 3.4c1.7-1.1 3.2-2.4 4.5-3.4 15.3 9.8 30.7 19.2 45.6 29.4 11.7 8 21.9 17.9 25.1 32.4 1.5 6.9 4.4 9.6 11 12.1 29.7 11.3 57.8 25.5 82.4 46.2 37.5 31.6 64.5 70.2 79.1 117.2.8 2.7 1.8 4.1 5.1 4.1 8.8.1 16 4.4 22.2 10.2 10.6 9.9 17.7 22.3 24.7 34.9 4.6 8.3 9.3 16.5 14 24.6-8.2 13.9-16.5 28.2-25.1 42.4-5.7 9.8-14 18-23.8 23.6-3.2 1.7-6.9 2.5-10.5 2.4-4.6-.1-6.3 1.7-7.6 5.8-3.4 10.4-7.4 20.6-11.5 31.8-1.3-1.5-2-2.2-2.7-3-5.9-7-11-14.8-17.9-20.7-5.9-5.1-6.6-9.9-4.3-16.4 7.5-21.2 11.3-43.5 11.3-66 0-15.9-1.8-31.8-5.5-47.3-4.3-19.1-11.6-37.4-21.6-54.3-7.6-12.7-16.7-24.5-25.7-37.5-6.9 9-13 16.8-19 24.5 49.3 61.7 52.8 129.8 38.4 177.8-7.2-.8-14-5.1-22.9-3.3 10.4 9.8 12.7 21.3 11.9 33.3-1 14.5-6.9 27.4-16.4 38.4-5.4 6.2-13.6 7.1-17.4 2.3-1.6-2.2-2.4-4.9-2.2-7.6.8-9.6 7.4-16 13.4-22.8 1.3-1.5 2.2-4.7 1.6-6.4-1.6-4-3.7-7.8-6.3-11.3-12.4-17.2-28.1-31.1-45.7-42.8-3.3-2.2-6.6-4.4-9.8-6.8-.9-.9-1.4-2.1-1.4-3.3-.1-13 0-25.9 0-38.9 0-1.8-.1-3.7 0-5.5.2-3-1.1-4.2-4.1-5.1-14.4-4.3-28.5-9.6-40.3-19.2-5.9-4.8-11.4-10.2-16.8-15.5-2.2-2.1-3.6-4.8-5.5-7.5zm125.2-96.4c-4.5-3.3-9.1-6.2-13.1-9.8-13.4-12-29.2-20.1-45.4-27.5-24.7-11.3-51-17-78-18.6-20.4-1.2-40.9.5-60.9 5.1-26.2 6.1-51.1 15.7-74 29.9-7.8 4.8-14.7 11.2-22.5 17.2l17.6 18.6c38.4-30.3 81.9-44 130.5-43.1 49 .9 90.5 19.3 126.9 50.9l18.9-22.7z" fill="#FFFFFF"></path><path d="M468 542.6c-2 3-3.1 4.9-4.5 6.7-9.9 12.3-24.2 18.5-37.3 26.3-19.5 11.4-40.7 19-61.5 27.5-23.3 9.5-43.4 23.6-61.5 41-8.3 7.9-13.9 17.3-18.1 27.7-.6 2.1-.4 4.4.7 6.4.5.9 3.5.1 5.2.6 2.7.8 6 1.4 7.6 3.3 4.5 5.1 4.2 15.1 1.2 21.2-4.5 9-10.3 16.4-19.8 20.1-4.1 1.7-8.5 2.8-13 3.2-11.9.9-21.4-7.3-25.5-19.6-4.6-13.7-2.1-27.2 1-40.4 4.2-17.8 9.5-35.4 14.7-52.9 1.5-5.2 4.4-10 7.1-16-5.8 0-10.9.3-15.9 0-12.4-.8-12.1 2.6-12.6-12.5-.6-18.8-1.2-37.6-2.1-56.4-.1-1.7-1.8-3.8-3.3-4.8-11.2-7.2-22.7-13.8-33.7-21.4-6.9-4.7-13-10.7-20-16.5 25.1 2.5 46.7-2 62.4-22.4 10-13 11.2-39.7-5.2-52.7-1.7-1.6-2.7-3.8-2.9-6.1-.9-14.3-1.5-28.6-2-42.9-.1-2.9-1.2-4.1-4-4.6-11.2-2.1-22-.2-32.4 3.6-16.3 5.9-30.7 14.7-42.6 27.8-11.6 12.8-16 39.7 1.3 53.9 9.2 7.5 18.1 15.1 29.7 18.6 1.1.3 2.2.5 3.4.6-8.2-7.6-16.5-15.2-24.6-23-2.4-2.3-4.5-5-6.1-7.8-6.3-10.7-6.5-21.2.7-31.9 9.7-14.4 24.1-21.5 39.9-26.4 3.9-1.2 7.9-1.8 12.5-2.8.9 8 1.7 15 2.5 22.2-8.6 3-16 7-20.5 14.9-5.8 10.2-7 20.9-1.9 31.5 4.6 9.7 15.5 12.6 24.6 7.5 1.2-.9 2.4-1.8 3.4-2.9-4.2-.6-8-.6-11.5-1.8-2-.7-4-3-5-5.1-2.6-5.7 0-16.5 4.4-21 5.9-6 13.2-6 19.9-3.5 4 1.5 7.7 5.5 10 9.4 12.1 20.7-1.1 45.9-24.8 50-18.2 3.1-35-.3-50.9-8.1-19.9-9.7-30.9-25.9-31.5-48.8-.6-22.6 7.8-40.5 26.5-53.3 8.6-5.9 17.2-11.9 26.2-17.4 14.8-9.1 31.2-12.9 48.7-14.3v-27.4c5.3-1.9 10.5-3.2 15.1-5.6 14.3-7.5 28.6-15 42.3-23.5 6.9-4.3 12.8-10.5 18.6-16.3 5.6-5.6 16.8-4.8 20.2 2 4 7.9 10.2 13.6 17.5 18 10.3 6.1 20.9 11.7 31.7 16.9 6.5 3.1 13.6 5 19.9 7.3 0 8.8.2 18.1 0 27.3-.4 17.5-1.2 35-1.5 52.4.2 1.7 1.1 3.2 2.5 4.1 9.6 6.5 19.8 12.2 29.1 19.2 5.7 4.3 10.1 10.4 15.3 15.9-1.3 2.7-2.8 5.2-4.5 7.7-7.7 10.4 1.2 28.6 12.6 34.1 6.4 3 23.1-.2 28.5-4.6 14.5-11.9 22.5-28.3 31-44.3 3.5-6.6 3.3-6 9.6-1.7 9.5 6.4 15.8 15 20.7 25 7.8 15.8 7.1 31.7-.4 47.2-7.9 16.5-20.6 30.3-36.5 39.3-10.2 5.8-31.8 5.1-41.1-1.9-7.6-5.7-7.2-23.8 1.1-28.4 7-3.9 12.5-2 14.5 8 .5 2.5.6 5 1.1 9.1 1.6-2.1 2.6-2.9 2.8-3.8 1.2-6.3 3.3-13-1.6-18.5-5.9-6.6-13.5-7-21.2-2-13.7 9.1-19.3 32.9-10.3 46.5 5.1 7.5 12.5 12.4 24.1 11.3zM374.8 394c.2-3.3.3-6.7.5-10l3-63.9c.1-3.1-.4-4.6-3.9-6-21-8-39.5-19.9-54.1-37.2-3.3-4.1-9.3-4.8-13.4-1.5l-.1.1c-19 14.8-38 29.7-59.6 40.8-1.5.9-2.6 2.3-2.9 4.1-.2 8-.3 16 0 23.9.7 16.5 1.5 32.9 2.5 49.4.2 2.7 1.2 5.4 2.9 7.5 7.9 9.5 13.2 20.1 14.5 32.3 1.7 16.3 1.3 32.1-12.7 44-1 1-1.6 2.4-1.7 3.9 1 28.6 1.8 57.3 3.4 85.9.2 3.5 4 8.6 7.2 9.7 5.1 1.6 11.3 1.2 16.8 0 2.5-.5 4.2-4.8 6.2-7.3 1.8-2.2 3.3-4.6 5.3-6.7 13.5-14 26.9-28.2 40.7-41.9 10.6-10.5 22-20.4 32.9-30.5 6.3-5.8 10.8-12.6 10.7-21.6 0-3.2-.3-6.3-.2-9.5.8-21.9 1.4-43.6 2-65.5zM271.4 681.4c1.4-32.7 12-63 30.3-90.3 15.2-22.7 32-44.3 56.4-58.5 8.3-4.8 16.6-9.4 26.7-7 2.7.7 5.8 2.1 7.5 4.2 11.4 13.9 4 30.7-11.7 36.9-2.1.9-5.6 0-7.7-1.2s-3.3-3.8-5.6-1.2.1 4.4 1.8 6.2c4.6 4.8 10.5 3.4 16 3.2 9.9-.4 21.9-12 23-21.7.4-3.5 1.4-6.9 1.4-10.4 0-9.1.8-19.1-8.1-24.8-13.9-8.9-28.8-13.9-44.9 1.8-15 14.6-30 29.4-43.9 45-14.9 16.7-29 34-37.1 55.7-8.1 22-14.2 44.1-13.9 67.5.1 6 2.1 12.4 4.7 17.9 2.7 5.8 8.2 7 13.6 4.8 7.6-3.1 11-7.9 10.1-14.2-.6-4.5-4.4-6-7.9-3.3-4.3 3.3-9.8 1-10.4-4.4-.4-1.9-.4-4-.3-6.2z" fill="#FFFFFF"></path><path d="M331.3 490.9c-7.2.8-13.4 1.2-17.8-3.4-4.1-4.2-8.4-9.1-10.1-14.5-5.6-18-5.4-35.9 5.8-52.1 6.5-9.4 13.1-18.8 20-27.9s7.3-26.2.6-35.2c-3.7-5-6.6-10.8-14-11.7s-12.9 1-17.5 7c-5 6.5-6.5 13.5-3.6 21.1 2 5.2 11.7 6.8 17.7 3.2 1.4-.8 2.7-1.8 4.1-2.8 3.8 8.5 1.4 15.6-6.2 20.6-5.7 3.8-12 5.5-18.5 4.4-3.7-.7-7.1-2.5-9.7-5.3-8.2-10-12.5-21.4-9.8-34.8 3.2-15.8 20.4-31.5 36.7-31.3 22.4.4 41.8 13.2 46.7 34.6 3.8 16.3.5 31.8-10.6 44.9-10.5 12.2-21.5 23.9-28.2 39-4.9 11-2.5 35 11.2 41.7 1.2.7 2.2 1.6 3.2 2.5z" fill="#FFFFFF"></path></g></g></svg>