<svg xmlns:xlink="http://www.w3.org/1999/xlink" xmlns="http://www.w3.org/2000/svg" viewBox="0 0 650 745.9" focusable="false" aria-hidden="true" class="classes-experience-vtosvo" width="650"  height="745.9" ><path d="M421.9 553.2c-3.4-7.1-6.3-13.4-9.4-19.6-.6-1.3-1.6-2.7-2.8-3.4-1.3-.7-3.2-1-4.6-.6-.7.2-1.1 2.5-1 3.7.5 8.1-5 17.5-12.4 20.7-1.1.5-2.5.6-4.4 1 5.9-9.5 1.3-16.8-4.1-23.1-5.5-6.3-8.7-12.7-7.8-21.2.2-1.7-2.4-3.9-4.1-5.4-.6-.6-3.2-.3-3.4.2-.9 2.2-1.2 4.6-2 8.1-.7-.5-2.5-1-3.1-2.1-1.7-3.6-3.5-7.3-4.3-11.1-3.5-16.6-15.2-25.7-28.7-33.9-6.7-4-12.9-9.2-18.6-14.5-5.3-4.9-3.7-11.6 2.9-15.1 6.8-3.6 13.6-4.7 21.6.5-2.2 1.1-3.8 1.6-5 2.5-1.4 1-2.5 2.4-3.8 3.7 1.5-.2 3-.4 4.6-.6.5-.1 1-.1 1.8-.2.2 1.9.4 3.8.7 6 1.6-.5 3-1 4.5-1.5 1.4 2 1.5 6.4 5.9 3.8.2-.1 1.4.8 1.8 1.4 4.7 7.3 19.9 11.2 26.1 5.7 3-2.7 4.6-8 5.3-12.3 1.3-8.8-3.5-16.4-6.8-24.1-1.4-3.2-1.9-5.6-.4-9.1 1.5-3.4 1.8-7.8 1-11.4-1.4-6.8-6.2-8.2-12.1-4-.5.3-1.2.4-1.9.7 1.7-13.4 8.4-13.6 17.2-12.9-1.2-4.7-2.6-8.9-6.8-11.6-1.9-1.3-4.1-2.5-5.3-4.3-1.5-2.3-3.5-6-2.6-7.6 1.9-3.4 4.8-6.8 10.1-4.9 1.6.6 3.9-.9 5.9-1.5 2.2-.7 4.3-1.7 6.6-2.1 2.5-.5 5.2-.2 7.6-.7 3.3-.7 7.2 2 9.4 6.6 4.3 8.9 5.3 18.1 3.3 27.7-.8 3.8-1.1 7.4 3.3 9.9 1.2.7 1.5 4.3 1.2 6.4-.5 3.4-2.2 6.6-2.9 10-.3 1.5.5 3.2.7 4.8 1.1-.9 2.4-1.5 3.1-2.6 3-4.5 8.5-5.4 15.3-1.9 2.5 1.3 4.8 3.1 6.7 5.1 7 7.3 13.5 15.2 20.8 22.1 4.3 4 9.8 6.7 14.9 9.7 5.7 3.2 9.4 7.9 11.4 13.9 6 14.8 9.4 16.4 18.1 20.9 3.2 1.7 7.2 1.6 10.3 3.3 8.5 4.6 16.8 9.7 25.2 14.5 4.6 2.6 8.9 6.3 13.8 7.5 9 2.2 18.3 3.2 27.5 4.2 3 .3 6.4-.6 9.2-1.7 15.5-6.3 31.1-12.6 46.3-19.6 5-2.3 8.9-6.9 13.9-10.9 0 1.1.5 2.7-.1 3.8-6 12.7-13.6 24-26.7 30.5-10.7 5.3-21 11.5-32.1 15.8-12.8 4.9-26.2 8.3-39.5 12.1-3 .8-6.3.7-9.4.6-1.2 0-2.7-1.1-3.6-2.1-3.5-4-6.6-8.4-10.4-12.1-9.9-9.9-22-13.1-35.7-10.6-.4.1-.7.6-1.7 1.5 2.1.9 3.7 1.8 5.5 2.4 10.1 3.3 18.5 9 24.6 17.8 3.7 5.3 2.8 8.1-3.4 9.8-3 .8-6.2.7-9.3 1.2-2.3.4-6.1.8-6.5 2-.6 2.2 0 5.7 1.4 7.5 6 7.6 12.5 14.7 18.7 22.1 4.8 5.7 9.2 11.9 14.3 17.3 7.1 7.5 15.1 13.8 26.1 17-3.2 1.2-6.4 2.7-9.7 3.6-12.5 3.4-25.1 2.7-37.6.1-2.9-.6-5.6-3.3-8-5.6-5.6-5.5-10.4-11.8-16.5-16.6-2.7-2.1-7.7-2-11.5-1.6-3.3.4-4.8 0-4.7-3.4.2-6-2.2-12 1.8-17.9 2.2-3.3-2.1-5.5-4.5-5.2-5.9.8-8.4-3.1-11.2-6.6-7.9-10-17.9-14.6-30-12.5zm-50.7-70.4c-5.2 1.2-7.8-2.1-8.7-6.5-1.1-5.3-4.8-7.4-8.9-9.8-11.6-6.7-23.1-13.6-34.7-20.4-.8-.5-1.9-.5-4.2-1.1 3.6 6.1 7.1 10.1 12.3 12.8 7.7 4 15.2 8.2 22.7 12.4 1.7 1 3 2.6 4.3 4 4.2 4.6 3.7 12.5 11.3 14.9.2.1.2 2 .3 2.5 1.4 5.4 8.1 11.4 15.5 9.6 4.3-.8 5.9.2 8.9 5.5 2.4 4.1 5.4 10.6 12.4 10.1 10.3-.7 22.4-14.6 22-25-.2-3.9.9-6.4 4.5-7.8 2.6 1.8 5.3 3.6 7.9 5.3l1.2-1.5c-2.2-2.6-4.7-5-6.5-7.8-3.4-5.4-10.6-2.4-11.8 2.6-.7 2.9-1.3 5.8-2.2 8.7-1.8 5.8-6.1 9.6-11.3 12-5.5 2.6-11.5-.7-15.6-7.4-.8-1.3-2.6-2.9-3.7-2.8-10.8 1.4-12.4.4-15.7-10.3zm31.2-41.8c1.3 1.4 2.5 3.1 4 4.4 2.4 1.9 7.7 4.5 7.7 4.5 1.8 4.7 8.3 3.8 9.2.8 4.6-2.6 6.1-6 12.2-6.5-9.8-8-21-8-33.1-3.2zm43.2 78.5c1.1-1.4 3.9-4.1 3.5-4.6-3.5-4.8-7.4-9.5-11.7-13.7-.7-.7-4 .4-5.4 1.6-1.9 1.5-3 3.9-4.5 5.9-2.8 3.6-2.6 5.7 1.6 7 4.9 1.5 10 2.3 16.5 3.8zm-66-154.9c2.5 2.7 4.1 4.5 5.7 6.2 1.4-1.6 4-3.4 3.8-4.8-.3-1.9-2.6-3.7-4.4-4.8-.6-.4-2.6 1.7-5.1 3.4z" fill="#FFFFFF"></path><path d="M204.3 1c-10.5 19-15.4 38.1-19 57.7-3.2 17.7-1.9 35.1 2.8 52.4 3.5 12.9 6.6 25.8 15.3 36.4.2.3.4.5.6.8 6.2 8.3 8 8.4 14.4.3 3.2-4 6.4-8 9.5-12.1.1-.1.3 0 1.3 0-.6 4.7-.8 9.4-1.7 14-2.4 11.7-.1 30.5 2.6 41.8 3.4 13.9 5.4 20.5 11.7 33.9 2.4 4.2 4.2 6.2 6.3 9 1.1 1.5 2.9 3.7 3.7 3.2 2-1.3 3.3-3.8 4.8-5.8.2-.3.2-1 .1-1.5-4.2-10.3-3.8-11.9 8.7-23 7-6.8 15-12.6 22.7-18.6 1.5-1.1 7.2-5.7 5.9-1.7-9 19.5-11.7 39.5-11.4 59.8.3 17 3.2 33.9 10.3 49.5 4.1 8.9 9.3 17.3 14.5 25.6 11.1 17.6 22 35.3 36.1 50.8 3.3 3.6 7.3 6.7 11.2 10.2-1 1.6-1.8 3-3.3 5.6-50.1-45.3-90.5-97.7-121.3-156.7-1.7 4-4.9 7.1-13.6 9 4.2 9.9 1.6 22.3 2.4 32.6.4 4.8 1.9 8.1 4.7 12.1 4.1 4.1 8.6 4.9 11.7 4.5 4.8-.6 8.7-4.9 7.2-12 4.6 4.2 5.4 12.5 2.9 16.1-2 2.9-7.9 6.4-14.3 3.7-10.4-4.3-18.1-12.6-21.4-22.7-2.4-7.2-1.3-15.4-1.9-23.1-.9-11.5-9.6-20.5-19.9-19.8-2 .1-4.4 1.8-5.7 3.5-4.2 5.7.6 13.1 3.9 14.4 3.7 1.3 5.5-.8 6.3-2.2 1.2-2.1.5-4.3 1.3-6.4 5 2 8.4 7.8 6 13.1-1.4 3.1-7.9 4.7-12.5 3.8-14.4-2.7-27.7-20.3-17.5-35.5.3-.4 4.9-5.7 9.2-6.7 0 0-2.6-4-4.4-10-2.3-7.7-1.5-15.6 1.1-24 9 8.4 17.1 13.2 18.2 32.6 0 0 3.2.5 7.2 3.2-1.5-5.1-2.1-13.9 2.7-20.6 2.2 3.8 5.9 12.5 2.6 23.4 0 0 3.1 2.8 5.1 7 0 0 3.4-1.6 5.1-1.8 4-.4 7.1-.6 11 .1-7.9-17.8-11.6-34.1-14.1-57.8-1 .6-3 3.8-4.9 4.9-6 3.4-10.2 2.4-14.8-2.8-8.6-9.7-10.5-15.7-15.3-27.5-5.4-13.3-7.9-24.6-10.1-48.6 0-.4.5.7 0 0 0 0 .3-.6 0 0-10.9 20.3-14.4 35-21.2 58.5-5.3 21.6-3.7 46.9 6.2 69.5 6.3 14.5 14.1 27.9 24.3 39.9 22.1 26.2 44 52.6 66.4 78.5 8.5 9.8 18.1 18.6 27.3 27.8 16.5 16.4 33.2 32.6 49.8 49 2.4 2.4 4.6 5.1 7.8 8.6-4.6.8-8.3.9-11.4 2.3-4.5 2-6.4-1.2-8.9-3.3-3.7-3.1-7.1-6.5-10.6-9.9-34.6-34.6-67.2-71.1-99.1-108.2-1.2-1.3-2.2-2.8-3.7-4.7-2.3 2-4.5 3.9-7.6 6.5 40.4 41.1 80.4 81.7 120.6 122.5-2 3.2-4.3 2-6.9-.5-14.6-13.6-29.4-26.9-43.8-40.8-18.1-17.5-36-35.3-53.5-53.5-10.7-11.1-20.5-23.1-30.5-34.8-9.3-11-19-21.8-27.5-33.4-15.1-20.3-28.9-41.8-34.5-66.8-5.5-24.5-8.2-49.5-3.4-74.8 3.3-17.8 8.1-34.7 17.8-50C136.3 61 147.6 45 162.3 32.1c11.9-10.4 24.9-19.4 37.4-29 .9-.7 2.2-1 4.6-2.1zm-32.5 46.1c-13.8 7-36.7 39.4-43.1 70.2-6.5 26-7 61.3 5.3 86.2.4-1.3.4-2.6.1-3.9-3.8-18.2-3.7-36.4 0-54.5 5.1-24.7 15.9-47 29.9-67.9l2.7-3.9c.4-10.5 3.2-19.2 5.1-26.2zm-21 205.1c-.4.6-.9 1.2-1.3 1.8.5 1.3.8 2.7 1.4 4 6.6 13.7 15.8 25.7 25.8 37.1.8.9 4 1.2 4.1.8 1.1-2.3 5.9-3.2 2.8-7.2-8.9-11.2-17.6-22.5-26.6-33.6-1.4-1.5-4.2-2-6.2-2.9zm333.6 211.3c6-3 11.8-7.1 17.3-10.6 16.6-10.6 41.5-29.4 52.4-45.8 8.1-12.2 8.9-12.9 14.8-33 .9-4.5 1.6-8.9-.1-13.9-.4-1.7-2.8-4-4-4.6-4-2.1-2.8-5.1-1.3-7.6 11.8-20 5.1-39.4-7.7-53.4-1.5-1.7-8.3-6-10.4-6.7 0 0 .5-8.5.3-10.7-1.3-14.8-4.4-21.4-17.5-28.7-9.7-5.4-21.4-7.5-32.4-4.6-7.4 2-14.3 7.5-18.5 13.3-2 2.7-4.3 7.4-4.3 7.4-9.8.8-15.7 10.4-16.9 19.8-1.5 11.7-1.5 24.8 3.7 35.9 6.8 14.3 16.9 25.4 33.3 29 10.5 2.3 27.5-4.8 30.6-18.2 1.9-8 2.8-15.7-1-23.3-5-10.1-16.5-14.9-28.8-12.1-8.5 2-15 11.2-14.9 21.3 0 4.8 5.2 11 9.9 11.8 3.6.6 6.5-.2 7.1-4.5-1.9 0-4.1.7-5-.1-4.6-3.9-2.9-16.5 2.4-19.3 2.4-1.3 3.8-2.3 6-2.5 4.9-.3 10-1 14.6 5.6 4 5.8 5.4 11.9 3.7 18.8-1.5 6.4-7.9 10.5-16.9 11.6-21.4 2.7-35.5-16.3-35.9-33.5-.1-5-.4-10.1.4-14.9.6-3.4 2.5-6.7 4.7-9.5.9-1.2 4.1-1.7 5.6-1.1 4.2 1.6 7 .4 7.2-3.8.3-9.7 5.4-15.7 13.9-18.6 9.4-3.2 19-3.2 27.9 2.2 2.6 1.6 6.6 4.8 8.3 7.3 1.6 2.3 3.2 6.5 3.8 11.8.2 3.9 0 8 0 13.7 3.2 1.4 7.2 3.7 10.6 5.8 3.2 2 5.3 4.9 7.6 7.9 5.8 7.9 10.4 30.2 3.6 40.3-.6.8-1.1 1.7-1.8 2.4-3 3.4-5.5 8.1.3 11.4.9.5 2.3 2.6 2.4 3.9.5 6.5-1.7 14.9-4.8 21-13.6 26.9-31.3 46-56.1 63.4-4.9 3.4-11.1 5-16.8 7.1-.5.1-.3.1-.8-.8-3.4-5.4-7.6-8.2-14.6-11.9 7.8-5.8 17.8-11.2 25.1-17.6 15.1-13.2 28.2-27.8 32.7-48.3.3-1.6.6-3.3.5-4.9-.2-4.4.7-9.5-4.9-11.4-3.5-1.2-13.1 4.9-14.6 8.8-.2.5-.4 1-.3 1.4 2.4 17.7-7 30-19.3 40.3-6.8 5.7-11.6 8.2-19.6 11.9-5.6 2.6-13.4 5.4-16 5 0 0-3.9-3.2-8-8.7 19.4-4.9 31.2-18.3 40.1-30.2 3-4.4 4.4-13.7 2.4-18.6-4.9 1-9.8 1-15 .4-13.6-1.4-27.5-8.3-31.9-21.2-3.5-8.7-10.8-12.7-15.3-18.7-5-6.6-5-10.3-5-18.3 0-4.5 2-6.9 3.2-8.4 7.4-9.6 14.9-19.2 22.4-28.8 10.2-13.1 20.8-26 30.3-39.6 5.1-7.4 12.5-10.9 19.8-13.5 20.4-7.1 38.2-.2 53.7 13.5 13.1 11.6 14.8 29.5 12.5 45.8 0 0 3 2.5 3.8 3.2 10.4 8.3 13.7 17 15.4 26.5 1.5 8 2.6 13.3 1.5 22.4-1.1 9.2-5.6 17-5.6 17s2.5 2.5 3.4 4.4c7.1 11.7-2.1 31.6-5.5 40.7-6.7 15.7-13.8 27.8-22.3 38.4 0 0 .3 5.5-3.1 9.5-3.3 4.5-10.7 9.4-15.1 12.6-7.8 5.8-14.4 9-22.8 13.9-1.9 1.1-5.4 3.1-7.3 4.1-6.5 3.4-12.1.8-15-5.9-1.1-2.1-1.6-2.1-2.1-4.7zm-36.8-160.6c-.4-4.2-.4-6.1-.5-9.2.1-4.4.6-5.4.9-7.8-2.1.6-7.9.9-11.8 4.7-8.6 8.4-11.3 20.4-8.9 28.5 1.6 5.1 5.1 9.6 8.5 10.2 2.3.4 5.8-.3 5.8-.3 0 12.8 5.1 23.4 16.3 27.8 8.3 3.2 18.5 2.4 28.1-.6-4.2-.1-7.5-1.8-9.1-2.5-14.3-6-21.4-17.4-26.4-31.7-.6-1.7-1.9-3.3-3.3-4.3-1.2-.9-3.7-3-5.3-1.8-1.1 1.2.5 3.5 1.6 4.3 1.2 1 2.1 3.4.6 2.8-5.8-2.4-9.4-8.5-8-14.3 1.2-3.9 4.1-6.6 11.5-5.8zM222.7 578.5c-6.2 7.8-14.3 9.9-23.6 8.2-.9-.2-2.1-.6-2.5-1.4-6.7-10.9-17.2-11.2-27.6-8.6-6.2 1.5-12.5 5-17.2 9.3-7 6.5-14.3 13.6-18.6 21.9-8.1 15.5-21.1 19.1-36.5 18.7-8.1-.2-16.1-1.8-24.1-2.9-1.4-.2-2.9-.9-4-1.8-2-1.6-2.8-3.5.6-4.7 3.1-1.2 6.2-2.3 9.1-3.9 9.1-4.8 17.1-10.8 23.1-19.4 8.8-12.3 18.2-24.2 26.4-36.9 3.1-4.8 4.2-11.1 5.3-16.9 1.7-8.6-4.2-13.5-11.8-16.7-4.3-1.8-6.8-3.9-7.7-8.6-1.6-8.7-1.9-17-.1-22.8 2.8 2.8 5.4 5.9 8.6 8.3 4.5 3.4 9.9 2.6 14.1-.1 2.2-1.4 3-5.6 3.5-8.6 1.1-6.7.8-13.7 2.5-20.2 2.1-8 5.5-15.6 8.5-23.3.4-1.1 2.1-2.1 3.3-2.2.8 0 2.2 1.4 2.6 2.5 1.5 4.4 2.3 9.5 7.5 11 7.3 2 14.6 1.1 21.1-3 13-8.2 25-17.5 35.5-28.8 2-2.2 4.2-4.3 6.2-6.5 1.5-1.8 2.9-3.7 4-5.7 1.9-3.5 1.7-7.6-1.8-9.1-2.3-1-7.1 0-8.7 1.9-2.9 3.3-4.2 8.1-6.4 12.1-.7 1.4-2.1 2.4-3.2 3.6-.4-1.4-1.1-2.8-1.3-4.2-2.3-15.9 2.4-30.6 7.4-45.3 1.3-3.7 2.3-4.9 4.3-9.1 7.6 8.4 15.5 14.7 24 23.1-5.3 1.5-9.8 2.8-14.9 4.3 1.2.8 2.4 2.2 3.8 2.5 5.8 1.2 11.7 2.6 17.5 2.8 4.9.2 7.9 3.2 10.5 6.8-12.4 24.2-32.1 38.5-54.4 52.2-11.1 6.9-23.1 12.3-34.9 18.1-2.8 1.4-6.1 3.2-8.9-1.1-1.3-2-5.2.1-5.5 3.4-.6 7.2-.9 14.3 5.9 19.4 5.9 4.5 11.9 4.4 18.3 1.5 2.4-1.1 5-1.9 7.2-3.4 2-1.3 4.9-3.1 5.2-5 1.3-7.9 7.6-10.9 13.3-14.4 4.9-3.1 10.1-5.7 15.4-8.1 2.4-1.1 5.7-2.4 9-2.4-.2 2.3-1.1 5.9-1.6 7.3-2.8 8.9-5.2 15.2-8.5 21.3-3.4 6.8-5.5 8.4-11 10.5-4.4 2.6-4.3 10.7-4.4 17.6 0 2.8.4 5.6.8 8.4.7 5.6 5.3 10.1 10.8 9.9 4.3-.2 8.6-.9 12.8-1.8 4.2-.9 4.8-4.1 2.8-7.8-1.2-2.3-2-5.5-1.4-8 1.8-13.5 4.3-21.2 8.3-31.1 7.4-18.5 20.2-33.8 33.3-48.6 4.3-4.9 7.3-8.6 11.7-13.8 5.6 4.8 13.1 9.2 13.6 15.5 2.4 7.6 6.9 13.9 13 19.1 3 2.5 5.5 5.6 8.1 8.4-6.3 8.6-36.4 17.5-45.8 13.1 2.1-1.4 3.6-2.7 5.3-3.6 3.2-1.6 6.8-2.6 9.8-4.7 6-4.1 6.6-6.6 4.6-13.6-1.5-5.2-7.4-9.2-11.6-5.9-6.2 4.9-8.2 7.9-13.9 13.5-2.2 2.2-7.6 10-9.9 13.1-7.3 10.1-10.9 21.8-12.7 35.1-1 7.8 5.1 14.5 12.8 15.7 1.7.3 3.2 1.7 4.8 2.6-1.3 1.3-2.4 2.8-3.9 3.8-4.7 3-10.2 5.1-14.2 8.9-8.4 8-18.2 11.1-29.4 11.6-2.5.1-5.8-1.6-6.8 2.8-1 4.2-.5 7.8 3.2 10.2 2.6 1.4 5.9 2.5 9.4 4zm-20.4-35.9c-4.1 3.6-8.4 6.6-13.8 2.8-5.2-3.7-5-7.4-3.7-14.8.4-2.7 1.1-6.2 1.5-8.8.3-1.9.4-3.7 0-5.6-2.6-.1-4.9.4-6.8 1.1-6 2.2-11.8 5.1-18 6.4-2.1.5-5.9-2.3-7.3-4.5-1.6-2.7-2.8-6.7 1.5-9.1.6-.4.8-1.5 1.3-2.4-5.5-.8-9.4 2.9-8.3 7.8.6 2.8 2.1 5.5 4.1 7.4 5.6 5.4 4.9 11.2 2.5 17.4-2.6 6.6-5.4 13.1-8.1 19.3 1.2 1.7 2.1 1.7 3 2.9 6.8-5.4 12.9-9.1 19.4-13.2 5.2-3.3 7.2-6.1 16.2-.4 2.2 2 9.1 3.2 12.6 1.7 3.7-1.8 5.6-3.1 3.9-8z" fill="#FFFFFF"></path><path d="M320.8 330.4c-.6-1-5.1-6.6-8.4-13.3 0 0 4.3-5.2 7.3-8.7 13.5-15.6 27.3-30.8 40.8-46.4 12-13.8 23.6-28 35.6-41.8 13.1-15 26.4-29.9 39.9-44.6 8.3-9 16.9-17.8 25.4-26.5 7.5-7.7 15-15.4 22.8-22.7 12.2-11.3 24.5-22.5 37.2-33.3 9.7-8.2 19.9-15.8 29.9-23.6.9-.7 2-1.2 3.1-1.5 2.2-.5 4.5-.8 6.8-1.2-.3 2.6 0 5.4-1 7.7-4.2 9.2-8.4 18.4-13.2 27.3-10.6 19.6-20.9 39.4-32.7 58.3-11.4 18.5-24.1 36.3-36.9 53.9-10.7 14.8-22.5 28.8-33.4 43.4-16.2 21.5-32.1 43.3-48 65-6.9 9.4-13.5 19-20.4 28.3-.9 1.2-3.7 2.4-4.8 1.9-7.5-3.5-11.1.6-14.2 6.4-.3.6-.8 1-1.2 1.6-3.2-.8-3.6-2.3-1.7-4.9 10.4-14.2 20.7-28.5 31-42.8 10.3-14.3 20.5-28.7 31-42.8 9.6-13 19.7-25.6 29-38.7 12.4-17.5 23.7-35.6 32.7-55.1.7-1.5 1.4-3.4 1-4.8-.3-1.1-2.8-2.7-3.6-2.4-3 1.2-6.1 2.7-8.6 4.8-13.6 11-26.4 22.7-37.7 36.2-10.6 12.7-23.1 23.9-34 36.4-14.5 16.5-28 33.8-42.4 50.4-7.2 8.2-15.4 15.5-23 23.4-2.8 2.8-5.2 6.3-8.3 10.1zm-54.7 343.1c-4 6.7-7.6 13.7-12.2 19.9-8.1 10.8-18.6 18.4-32 21.4-1.1.2-2.2 0-3.3 0-.4-.5-.8-1.1-1.2-1.6 2.4-1.5 4.8-3.1 7.1-4.6-.3-.4-.7-.8-1-1.2-6.2.3-11.4 3.2-16.8 6.1-4 2.2-8.5 3.4-12.9 4.8-1.2.4-2.7-.2-4.8-.3 1.4-1.9 2.2-3.1 3.4-4.8-5.1-2-10.1-2.4-14 .4-3.8 2.7-7.1 6.5-9.5 10.6-2.3 4-3.2 8.8-5.8 13.4-.3-1.3-1-2.8-.8-4 .7-3.8 1.3-7.6 2.7-11.1 2-5.4 4.2-10.9 7.1-15.9 4.8-8.1 12.7-11.2 21.8-12 9.7-.8 19.5-1.6 29.2-3 7.2-1 15.3-12.3 14.8-19.6-.5-7.5-7-11.4-15-8.8-1.9.6-3.6 1.7-5.3 2.5-.3-.3-.7-.4-.8-.6-2.5-7.7-2.4-7.5-10.6-5.1-3.8 1.1-7.8 1.3-13.2 2.1 1.9-2.6 2.9-4.6 4.4-5.9 6.3-5.7 3.8-14.3-1.7-19.6-2.7-2.6-4.7-5.9-6.9-8.7.4-.6.4-.9.5-.9 9.2-1.3 11.1-7.2 10.9-15.6-.1-4.4 2.4-8.9 4.2-13.1 1.5-3.5 4.2-5.4 8.3-6.3 8.6-1.7 15.5-6.5 21.1-13.3 1-1.3 3-2.6 4.4-2.5 9.5.6 19.6-.6 27.9 5.5 7.2 5.3 13.8 11.4 20.7 17.1 3.5 2.9 6.5 5.8 10.8 8.4 11.7 7 26 10.2 45.2 1.9 2.8-1.3 4.5-1.8 8.2-4.1-4.5 11-10 19.9-16.2 28.5-9.2 12.8-21.3 13.1-35.1 9.9-13.3-3-22.4-12-31.9-20.4-5.8-5.1-12-8.5-20.1-8.3-11.1.3-17.8 11.8-12.3 21.7 5.4 9.6 14.4 11.2 24.3 11.5 2.9.1 6.1 1 8.5 2.6 6.9 4.5 12.2 10.6 15.9 18.1 2.4 4.9 2.5 9.4-.5 14.2-4.9 7.9-11.6 13.1-21 14.4-.6.1-1.3.1-2 0-.3 0-.5-.4-1.1-.8 4.5-6.8 8-14 7.9-22.4-.4-.1-.9-.3-1.3-.5zm-84-347.8c-3 1.3-5.4 2.4-7.8 3.4-16.4 6.8-27.2 17.7-27.2 36.7 0 4.6 1.4 8.2 6.2 13.1 8.8 9 10 22.2 3.2 34.7-5.6 10.2-15.9 14.4-28.6 11.7-.3-.1-.6.1-1.3.2-4.3 8.3-11.1 12.7-20.8 12-.9 6.1-1.4 11.9-2.6 17.5-2.8 13.7-13.5 16.1-24.1 15.7-1.4-.1-2.6-1.9-4-3 1-1.1 1.8-2.6 3-3.1 4.2-1.6 6.4-4.1 6.8-8.7.6-7.7-2.6-13.7-8.3-18.3-10-8.2-14-11.7-15-29.1-.7-17.3 2-31.3 6.1-45.8 4.7-16.2 14.5-28.5 26-40 13.9-13.9 40.5-24.1 58.4-30.1 0 0 2.5 2.7 5.8 6.9-6.1 1.6-12.1 3-18 4.9-20.1 6.7-37.8 17.3-51.1 34.1-4.7 5.9-9 12.5-11.8 19.5-6.7 16.9-10 34.5-8.3 52.8.7 7.6 3.6 13.5 10.3 17.7 8.9 5.6 14.7 13.3 13.7 24.8.6-.1 1.1-.2 1.7-.3.2-2.8.6-5.7.5-8.5-.4-8.6-1.7-16.8-9.4-22.5-5-3.7-6.1-9.5-6.4-15.2-.4-10.3.3-20.4 4.1-30.4 4.1-10.9 7.7-21.8 14.4-31.6 10-14.5 23.1-25.4 39.2-32.1 8.2-3.4 17.2-4.8 26-6.2 2.4 1.6 4.1 4 6.7 6.3-13.8 4.1-22 11.2-30.2 20.7-8 9.3-15.3 19.2-16.8 31.9-10.6.1-15.4 3.2-18 11.3-1.8 5.6-.1 10.7 5.2 14.7-.9-5.2-2.1-10.2 2.9-14 4.6-3.4 11.2-4.6 15.9-1.2 6.8 5 11.8 13.3 6.4 23.1-3.3 5.9-9.9 8.3-18.2 6.3-3.3 10.6-10.3 14.8-21.3 10.7 1.4 5.9 6.7 9.3 14.1 9.2 5.6-.1 10.7-5.5 12.4-12.6 3.5 1.2 7 3.5 10.5 3.4 3.7 0 8-1.5 11.1-3.6 6.6-4.6 8.9-16.1 5.2-24.1-.8-1.8-3.2-3.6-5.1-3.9-4.4-.7-6.3-3.2-6.9-7.2-2-14.3 1.4-27.5 9.1-39.5 6.1-9.4 16.4-17.2 26.2-22.5 0 0 2.6 2.6 3.7 3.6 2.7 2.6 3.5 3.5 6.4 6.6zm-69.8 205.8c6.3 6.2 6.6 6.7.5 11.3-9 6.8-18.7 12.6-27.9 19.1-7.6 5.3-15.1 10.9-22.6 16.4-1.5 1.1-2.9 2.5-4.3 3.8.2.4.4.7.6 1.1 12.1-4.2 24.3-8.2 36.3-12.7 11.6-4.3 20.4-12.3 27.6-22.2.5-.6 1-1.2 2.3-2.8-.3 2.3 0 3.6-.6 4.6-8.4 13.9-19 30.9-35.4 38.9-10.4 5.1-21.6 8.7-32.1 13.8-12.3 5.9-18.5 13.5-28.5 22.8-11.7 10.8-17.7 25-23.1 39.6-.7 1.8-1 3.8-1.4 5.7-.5.1-1 .2-1.6.3-.4-1.7-1.4-3.6-1.1-5.2 6.1-30.9 17.3-59.2 42.1-80.1 13.2-11.1 27.1-21.4 40.7-32.1 9.5-7.4 18.9-14.7 28.5-22.3z" fill="#FFFFFF"></path><path d="M284.3 587.4c7.8 3.1 15.3 2.7 23.1 1.2 11.4-2.3 19.4-9 26-17.9 10.6-14.4 17.8-30.3 20.7-48.1.8-5.1 3.2-5.6 7.1-2.1-4.9 17.9-7.7 36.5-19.7 51.7 8.2-3.1 17.7-17.6 29-42.8 1.1-3.3 2.8 1.8 3.2 3 2.3 6.8 4.6 13.7 6.4 20.7.4 1.5-1.2 3.7-2.3 5.3-4.6 6.9-9.3 13.7-14 20.6.3.4.5.7.8 1.1 6.5-4.5 13-8.9 19.5-13.4.4.2.5 1.3.5 1.9-1.2 1.9-2.7 3.3-4.9 5.3-4.1 3.4-6.4 5.7-10.6 9-4.4 3.5-7.3 6.2-14.2 10.6-18.9 11.8-31.5 16.3-49.8 9.7-6.6-2.5-14.4-8.6-20.8-15.8zm62 61.5c-1.1-12.5 2-22.2 7.1-33.3 1.7-3.7 5.2-14.3 5.2-14.3 8.3-5.4 19.7-12.6 27.9-19.6 9.7-8.3 17.2-14.8 24.1-25.5.4-.5.7-1.1 1.7-2.4 1.7 6.9 3.8 13 4.4 19.2.3 2.8-1.7 6.5-3.8 8.7-5.1 5.2-10.9 9.7-16.5 14.4-5.1 4.3-6.6 10.1-3.8 16 1.5 3.2 3.5 5.2 7.4 2.9 1.4-.8 3.2-.8 6-1.5-2.1 6.7-7.1 9-11.4 11-6.2 2.9-13 5-19.8 6.1-12.2 2-23.6 4.6-28.5 18.3zM362.6 448c1 5-.7 6.7-5.3 5.7-5.7-1.2-15.3-7.7-18.2-11.7 2-3.3 3.7-6.2 5.5-9-3.5-1.9-6.9-3.9-10.7-5.9 3.3-2.9 7.5-6.6 11.7-10.2 4.3-3.9 8.6-7.9 13.1-11.5 1.3-1.1 3.8-2.3 5-1.7 1.4.6 2.3 3 2.7 4.8.3 1.5-.1 3.7-1 4.7-4.7 5-2.9 9.9-.6 15.1 1.5 3.3 2.7 6.8 4.1 10.2 2.6 6.5 1.3 8.8-6.3 9.5z" fill="#FFFFFF"></path></svg>