<svg xmlns:xlink="http://www.w3.org/1999/xlink" xmlns="http://www.w3.org/2000/svg" x="0" y="0" viewBox="0 0 104.3 104.9" focusable="false" aria-hidden="true" class="classes-experience-1i91nb7" width="104.3"  height="104.9" ><path d="M52.4,19.3c18,0,32.6,14.6,32.6,32.6c0,18-14.6,32.6-32.6,32.6S19.8,69.9,19.8,51.9
	C19.8,33.9,34.5,19.3,52.4,19.3 M52.4,15.3c-20.2,0-36.6,16.4-36.6,36.6c0,20.2,16.4,36.6,36.6,36.6S89,72.1,89,51.9
	C89,31.7,72.6,15.3,52.4,15.3L52.4,15.3z" fill="#FFFFFF"></path><path d="M37.6,9c-0.7-0.5-0.8-0.6-1.6-0.4l0,0c0,0-1.8,0.3-3.1,0.8c-1.2,0.5-9,3.4-13.9,8.5c-5.1,4.9-8.3,12.8-8.8,14
	c-0.5,1.3-0.6,2.9-0.6,2.9l0,0c0,1.1-0.1,1,0.4,1.6c0.3,0.5,2,2.2,2.9,3c1,0.9,1.3,1.3,1.7,0.9c0.1-0.2,0.3-0.7,0.5-1.5
	c0.5-1.9,2.4-6.9,6-12.6c0,0,0.5-0.5-0.1-1.1c-0.5-0.5-1.3-1.6-1.4-1.9c0.4-1,1.4-2,1.4-2s0.3-0.3,0.7-0.7c0.4-0.4,0.7-0.7,0.7-0.7
	s1-0.9,2.1-1.3c0.2-0.1,1.7,0.9,2.2,1.5c0.3,0.3,0.7-0.1,0.7-0.1c5.7-3.5,10.9-5.3,12.8-5.7c0.8-0.2,1.3-0.3,1.5-0.5
	c0.4-0.1-0.4-1-0.9-1.6C39.7,11,38,9.3,37.6,9z" fill="#FFFFFF"></path><path d="M67.3,9C68,8.5,68.2,8.4,69,8.5l0,0c0,0,1.8,0.3,3.1,0.8c1.2,0.5,9,3.4,13.9,8.5c5.1,4.9,8.3,12.8,8.8,14
	c0.5,1.3,0.6,2.9,0.6,2.9l0,0c0,1.1,0.1,1-0.4,1.6c-0.3,0.5-2,2.2-2.9,3c-1,0.9-1.3,1.3-1.7,0.9c-0.1-0.2-0.3-0.7-0.5-1.5
	c-0.5-1.9-2.4-6.9-6-12.6c0,0-0.5-0.5,0.1-1.1c0.5-0.5,1.3-1.6,1.4-1.9c-0.4-1-1.4-2-1.4-2s-0.3-0.3-0.7-0.7
	c-0.4-0.4-0.7-0.7-0.7-0.7s-1-0.9-2.1-1.3c-0.2-0.1-1.7,0.9-2.2,1.5c-0.3,0.3-0.7-0.1-0.7-0.1c-5.7-3.5-10.9-5.3-12.8-5.7
	c-0.8-0.2-1.3-0.3-1.5-0.5c-0.4-0.1,0.4-1,0.9-1.6C65.2,11,66.9,9.3,67.3,9z" fill="#FFFFFF"></path><path d="M67.3,94.5C68,95,68.2,95.1,69,95l0,0c0,0,1.8-0.3,3.1-0.8c1.2-0.5,9-3.4,13.9-8.5c5.1-4.9,8.3-12.8,8.8-14
	c0.5-1.3,0.6-2.9,0.6-2.9l0,0c0-1.1,0.1-1-0.4-1.6c-0.3-0.5-2-2.2-2.9-3c-1-0.9-1.3-1.3-1.7-0.9c-0.1,0.2-0.3,0.7-0.5,1.5
	c-0.5,1.9-2.4,6.9-6,12.6c0,0-0.5,0.5,0.1,1.1c0.5,0.5,1.3,1.6,1.4,1.9c-0.4,1-1.4,2-1.4,2s-0.3,0.3-0.7,0.7
	c-0.4,0.4-0.7,0.7-0.7,0.7s-1,0.9-2.1,1.3c-0.2,0.1-1.7-0.9-2.2-1.5c-0.3-0.3-0.7,0.1-0.7,0.1C72,87.3,66.8,89,64.9,89.5
	c-0.8,0.2-1.3,0.3-1.5,0.5c-0.4,0.1,0.4,1,0.9,1.6C65.2,92.5,66.9,94.2,67.3,94.5z" fill="#FFFFFF"></path><path d="M37.6,94.5c-0.7,0.5-0.8,0.6-1.6,0.4l0,0c0,0-1.8-0.3-3.1-0.8c-1.2-0.5-9-3.4-13.9-8.5
	c-5.1-4.9-8.3-12.8-8.8-14c-0.5-1.3-0.6-2.9-0.6-2.9l0,0c0-1.1-0.1-1,0.4-1.6c0.3-0.5,2-2.2,2.9-3c1-0.9,1.3-1.3,1.7-0.9
	c0.1,0.2,0.3,0.7,0.5,1.5c0.5,1.9,2.4,6.9,6,12.6c0,0,0.5,0.5-0.1,1.1c-0.5,0.5-1.3,1.6-1.4,1.9c0.4,1,1.4,2,1.4,2s0.3,0.3,0.7,0.7
	c0.4,0.4,0.7,0.7,0.7,0.7s1,0.9,2.1,1.3c0.2,0.1,1.7-0.9,2.2-1.5c0.3-0.3,0.7,0.1,0.7,0.1c5.7,3.5,10.9,5.3,12.8,5.7
	c0.8,0.2,1.3,0.3,1.5,0.5c0.4,0.1-0.4,1-0.9,1.6C39.7,92.5,38,94.2,37.6,94.5z" fill="#FFFFFF"></path><path d="M65,5.5C64.7,5.2,64.4,5,64.4,5c-4.2-2.1-8.3-2.8-11.8-2.8C49,2.2,45,2.8,40.8,4.8c0,0-0.4,0.2-0.5,0.6
	c-0.1,0.1-0.1,0.2-0.1,0.3c0,0.3,0.2,0.8,0.6,1.2c0.3,0.3,1.2,1,2.2,1.8c0.5,0.4,1.1,0.9,1.8,1.4c1,0.8,3.3,2.9,5.4,2.6
	c2.1-0.3,0.8-1.5,0.8-1.5S46.7,8.1,46,6.9c-0.1-0.1-0.1-0.2-0.1-0.3c0.7-0.4,4.3-1.2,6.2-1.2c0.1,0,0.2,0,0.4,0c0.1,0,0.2,0,0.4,0
	c1.9,0,5.9,0.9,6.6,1.3c0,0.1,0,0.2-0.1,0.3c-0.7,1.2-5.2,4.2-5.2,4.2s-1.4,1.3,0.7,1.6c2.1,0.3,4.4-1.8,5.4-2.5
	c0.7-0.5,1.3-1,1.8-1.4c1-0.7,1.9-1.4,2.2-1.8C64.7,6.7,65,6.2,65,5.9C65,5.8,65,5.6,65,5.5z" fill="#FFFFFF"></path><path d="M40.2,99.4c0.2,0.3,0.6,0.5,0.6,0.5c4.2,2,8.3,2.7,11.8,2.7c3.5,0,7.6-0.7,11.8-2.7c0,0,0.4-0.2,0.5-0.6
	C65,99.2,65,99.1,65,99c0-0.3-0.2-0.8-0.6-1.1c-0.3-0.3-1.2-1-2.2-1.8c-0.5-0.4-1.1-0.9-1.8-1.4c-1-0.8-3.3-2.8-5.4-2.6
	c-2.1,0.3-0.8,1.5-0.8,1.5s4.2,3.1,4.9,4.3c0.1,0.1,0.1,0.2,0.1,0.3c-0.7,0.4-4.3,1.2-6.2,1.2c-0.1,0-0.2,0-0.4,0
	c-0.1,0-0.2,0-0.4,0c-1.9,0-5.9-0.9-6.6-1.3c0-0.1,0-0.2,0.1-0.3c0.7-1.2,5.1-4.2,5.1-4.2s1.4-1.3-0.8-1.5c-2.1-0.3-4.4,1.8-5.4,2.6
	c-0.7,0.5-1.3,1-1.8,1.4c-1,0.8-1.9,1.4-2.2,1.8c-0.3,0.4-0.7,0.8-0.7,1.1C40.2,99.1,40.2,99.3,40.2,99.4z" fill="#FFFFFF"></path><path d="M46.7,48.3c0,0,1.3-1.1,0-1.8c-1.3-0.7-2.4-1-2.4,0C44.4,47.5,45.7,48.5,46.7,48.3z" fill="#FFFFFF"></path><path d="M41.7,46.6c0,0,0.2,1.7,1.5,1.8c0,0,0.3,0.7-0.9,0.8s-1.8-0.6-1.6-1.7C40.9,46.2,41.6,46.1,41.7,46.6z" fill="#FFFFFF"></path><path d="M43.2,59.8c0,0-0.6,2.8,0,4.1s2.6,3.3,2.6,3.3s0.5-5.2,0-5.9C45.3,60.6,43.2,59.8,43.2,59.8z" fill="#FFFFFF"></path><path d="M76.6,60.1c-0.1-1.2,0.8-4.4,1.3-5.7c0.5-1.2,3.8-3.3,3.8-3.3s-1.6-0.3-3.6-1.3c-2-1-3-3.2-4.1-5
	c-2.3-3.7,0.8-8.1,0.8-8.1s2.4-4.3,1.3-4.8c-1.1-0.5-1.1-0.5-8,1.2C64.4,34,62,33,62,33c-4-2.1-6.1-1.4-8.2-0.1
	c-0.4,0.2-0.8,0.4-1.2,0.5c-0.4-0.1-0.8-0.2-1.2-0.5c-2-1.3-4.2-2-8.2,0.1c0,0-2.5,0.9-6.1,0c-6.9-1.8-6.9-1.8-8-1.2
	c-1.1,0.5,1.3,4.8,1.3,4.8s3,4.4,0.8,8.1c-1.1,1.8-2.1,4-4.1,5c-2,1-3.6,1.3-3.6,1.3s3.2,2.1,3.8,3.3c0.5,1.2,1.4,4.5,1.3,5.7
	c-0.1,1.2-0.4,2.8-3,4.5c0,0,3.3,3.6,8.2,3.8c7.3,0.2,6.8,5.4,4.2,6.7c0,0,4.8,0.7,5.7-2c1.4-4.5-2-7.3-6.1-8.5
	c-2.8-0.8-6.2-7.7-6.2-10s0.4-7.7,6.1-13.2c0,0-2.5-1.9-4.4-4.8c-1.8-2.9,1-1.6,3.2-1c3.1,0.8,7.5,0,9.1-1.2c1.4-0.9,3-0.7,4.5-0.1
	c1,0.6,1.5,1.4,2.8,1.4c1.6,0,1.9-0.9,2.8-1.4c1.5-0.6,3.1-0.8,4.5,0.1c1.7,1.2,6.1,1.9,9.1,1.2c2.2-0.5,5-1.8,3.2,1
	c-1.8,2.9-4.4,4.8-4.4,4.8c5.7,5.5,6.1,10.8,6.1,13.2s-3.4,9.2-6.2,10c-4.1,1.2-7.6,4-6.1,8.5c0.9,2.7,5.7,2,5.7,2
	c-2.7-1.3-3.2-6.5,4.2-6.7c4.9-0.1,8.2-3.8,8.2-3.8C77.1,62.9,76.7,61.2,76.6,60.1z" fill="#FFFFFF"></path><path d="M58.5,48.3c0,0-1.3-1.1,0-1.8c1.3-0.7,2.4-1,2.4,0C60.8,47.5,59.5,48.5,58.5,48.3z" fill="#FFFFFF"></path><path d="M63.5,46.6c0,0-0.2,1.7-1.5,1.8c0,0-0.3,0.7,0.9,0.8s1.8-0.6,1.6-1.7S63.6,46.1,63.5,46.6z" fill="#FFFFFF"></path><path d="M62,59.8c0,0,0.6,2.8,0,4.1s-2.6,3.3-2.6,3.3s-0.5-5.2,0-5.9C59.9,60.6,62,59.8,62,59.8z" fill="#FFFFFF"></path><path d="M56.7,62.5c-0.9-0.5-4.1-0.5-4.1-0.5c0,0-0.1,0-0.1,0c0,0-0.1,0-0.1,0c0,0-3,0.1-3.9,0.5
	c-0.9,0.5,0.8,4.1,0.8,4.1s0.4-2.3,2.8-2.5c0.1,0,0.3,0,0.4,0c0.2,0,0.3,0,0.4,0c2.5,0.1,3,2.5,3,2.5S57.6,62.9,56.7,62.5z" fill="#FFFFFF"></path><path d="M55.7,69.6c0-0.5-0.1-0.9-0.3-1.1c-0.2-0.2-0.6-0.3-1-0.4c-0.5-0.2-0.9-0.3-1.3-0.3c0,0-0.2,0-0.5,0
	c-0.3,0-0.5,0-0.5,0c-0.4,0-0.8,0.1-1.3,0.3c-0.4,0.1-0.8,0.2-1,0.4c-0.2,0.2-0.3,0.6-0.3,1.1c-0.1,0.4,0,0.9,0.2,1.4
	c0.6,1.9,1.8,2.8,2.9,2.8c1.2,0.1,2.3-0.8,2.9-2.8C55.7,70.5,55.8,70,55.7,69.6z" fill="#FFFFFF"></path><path d="M59.1,77.1c-0.3-0.3-0.7-0.8-0.7-0.8s-0.6-2.7,0.7-5c0,0-1.9-0.7-3.3,2.6c-0.5,1.1-0.8,1.9-0.9,2.1l-2.4,0
	l-2.4,0c-0.1-0.2-0.4-1-0.9-2.1c-1.4-3.2-3.3-2.6-3.3-2.6c1.3,2.3,0.7,5,0.7,5s-0.5,0.4-0.7,0.8c-0.7,0.9,1.2,1.2,4.1,4
	c0.8,0.7,1.7,0.8,2.4,0.6c0.7,0.1,1.6,0.1,2.4-0.6C58,78.3,59.8,78,59.1,77.1z" fill="#FFFFFF"></path><path d="M70.6,49.1c-0.6-1.4-5.3-7.9-8-10.5c-2.7-2.5-7.4-2.1-7.4-2.1c-1.2,0-2,0-2.6,0.1c-0.6-0.1-1.4-0.1-2.6-0.1
	c0,0-4.7-0.4-7.4,2.1c-2.7,2.5-6.8,8.8-7.4,10.2c-0.6,1.4-1.7,6.7,0.6,5.6c2.2-1.1,2.7-0.2,2.7,0.9s-0.1,3.4,1.9,4.5
	c0,0-0.3-7.5,1.8-7.6c2.2,0,3.5,2.6,4,3.7c0,0-1,0.5-3.1-1.2c0,0-0.5,0.2-0.1,1.3c0.4,1.1-0.6,0.6,4.2,3.9c0,0,0.8,0.7,3.1,0.8
	c0.8,0.1,1.6,0.1,2.4,0.1c0.8,0,1.6,0,2.4-0.1c2.3-0.1,3.1-0.8,3.1-0.8c4.8-3.3,3.7-2.7,4.2-3.8c0.4-1.1-0.1-1.3-0.1-1.3
	c-2.1,1.7-3.1,1.2-3.1,1.2c0.5-1.1,1.8-3.7,4-3.7c2.2,0,1.8,7.6,1.8,7.6c2-1.1,1.9-3.4,1.9-4.5s0.5-2,2.7-0.9
	C71.7,55.5,71.2,50.5,70.6,49.1z M46.5,38.8c0.9-0.3,4.8-0.4,6.1-0.5c1.3,0,5.2,0.2,6.1,0.5c1,0.3-0.5,1-2.2,1s-1.5,0-2.5,0.9
	c-0.4,0.4-0.9,0.7-1.4,0.8c-0.5-0.2-1-0.5-1.4-0.8c-1-1-0.8-0.9-2.5-0.9C47,39.8,45.4,39.2,46.5,38.8z M64.3,50.6
	c-1.2-1-2.1-0.8-3.7-0.6c-1.6,0.2-2.5,2.6-3.7,4.2c-1,1.4-2.8,3.2-4.4,3.7c-1.5-0.5-3.3-2.3-4.4-3.7c-1.2-1.6-2.1-4-3.7-4.2
	c-1.6-0.2-2.5-0.4-3.7,0.6c-1.2,1-2.7,0.5-2.3-2c0.4-2.4,1.9-5,3.2-5.3C43,43,42,44.4,43,44.6c1,0.2,2.8-0.5,3.9,0.5
	c0.1,0.1,0.2,0.2,0.4,0.3c0.4,0.3,0.9,0.6,1.3,0.8c1.5,0.5,1.8-1.1,1.6-1.9c-0.3-1.7-1.7-1.6-0.7-2.2c0.4,0,0.8,0.1,1.1,0.6
	c0.9,1.3,1.2,1.5,0.5,3.5c-0.7,1.9-1.1,1.6-1.8,2.3c-0.6,0.6-1.2,2.6,1.2,4.9c0.1,0.1,0.2,0.2,0.4,0.3c0.5,0.6,1.1,0.9,1.7,0.9
	c0.6,0,1.2-0.3,1.7-0.9c0.1-0.1,0.2-0.2,0.4-0.3c2.4-2.3,1.8-4.3,1.2-4.9c-0.6-0.6-1.1-0.4-1.8-2.3c-0.7-1.9-0.4-2.2,0.5-3.5
	c0.3-0.4,0.7-0.6,1.1-0.6l0,0c0.9,0.6-0.4,0.5-0.7,2.2c-0.2,0.8,0.1,2.5,1.6,1.9c0.4-0.2,0.9-0.5,1.3-0.8c0.1-0.1,0.3-0.2,0.4-0.3
	c1.1-1,2.9-0.3,3.9-0.5c1-0.2,0-1.6,1.3-1.3c1.2,0.3,2.8,2.8,3.2,5.3C67,51,65.6,51.6,64.3,50.6z" fill="#FFFFFF"></path><path d="M5.8,38.6c-0.3,0.2-0.5,0.6-0.5,0.6c-2,4.6-2.7,8.9-2.7,12.7c0,3.8,0.7,8.2,2.7,12.7c0,0,0.2,0.4,0.6,0.6
	c0.1,0.1,0.2,0.1,0.3,0.1c0.3,0,0.8-0.3,1.1-0.6c0.3-0.3,1-1.3,1.8-2.3c0.4-0.5,0.9-1.2,1.4-1.9c0.8-1.1,2.8-3.6,2.6-5.9
	c-0.3-2.3-1.5-0.8-1.5-0.8s-3.1,4.6-4.3,5.3c-0.1,0.1-0.2,0.1-0.3,0.1c-0.4-0.7-1.2-4.7-1.2-6.7c0-0.1,0-0.3,0-0.4
	c0-0.1,0-0.3,0-0.4c0-2,0.9-6.4,1.3-7.1c0.1,0,0.2,0,0.3,0.1c1.2,0.8,4.2,5.5,4.2,5.5s1.3,1.5,1.5-0.8c0.3-2.3-1.8-4.7-2.6-5.9
	c-0.5-0.8-1-1.4-1.4-1.9c-0.8-1.1-1.4-2-1.8-2.3c-0.4-0.4-0.8-0.7-1.1-0.7C6.1,38.5,5.9,38.5,5.8,38.6z" fill="#FFFFFF"></path><path d="M99,65.2c0.3-0.2,0.5-0.6,0.5-0.6c2-4.6,2.7-8.9,2.7-12.7c0-3.8-0.7-8.2-2.7-12.7c0,0-0.2-0.4-0.6-0.6
	c-0.1-0.1-0.2-0.1-0.3-0.1c-0.3,0-0.8,0.3-1.1,0.6c-0.3,0.3-1,1.3-1.8,2.3c-0.4,0.5-0.9,1.2-1.4,1.9c-0.8,1.1-2.8,3.6-2.6,5.9
	c0.3,2.3,1.5,0.8,1.5,0.8s3.1-4.6,4.3-5.3c0.1-0.1,0.2-0.1,0.3-0.1c0.4,0.7,1.2,4.7,1.2,6.7c0,0.1,0,0.3,0,0.4c0,0.1,0,0.3,0,0.4
	c0,2-0.9,6.4-1.3,7.1c-0.1,0-0.2,0-0.3-0.1c-1.2-0.8-4.2-5.5-4.2-5.5s-1.3-1.5-1.5,0.8c-0.3,2.3,1.8,4.7,2.6,5.9
	c0.5,0.8,1,1.4,1.4,1.9c0.8,1.1,1.4,2,1.8,2.3c0.4,0.4,0.8,0.7,1.1,0.7C98.7,65.3,98.9,65.3,99,65.2z" fill="#FFFFFF"></path></svg>