<svg xmlns:xlink="http://www.w3.org/1999/xlink" xmlns="http://www.w3.org/2000/svg" x="0px" y="0px" viewBox="-15 -29 230 242" focusable="false" aria-hidden="true" class="classes-experience-874rm2" width="64"  height="64" ><g fill="#FFFFFF"><path d="M-14.9,89.9c0-17.1,0-34.1,0.1-51.2c0-1.1,0.6-2.6,1.4-3.4c22-20.7,44-41.4,66-62.1c1.4-1.3,2.7-1.8,4.6-1.8
			c28.4,0.1,56.9,0.1,85.3,0c1.8,0,3.3,0.5,4.6,1.7c22.2,21.2,44.4,42.3,66.6,63.5c0.6,0.6,0.9,1.9,0.9,2.9c0,30.8,0,61.5,0,92.3
			c0,3.5,0.8,7.4-0.4,10.4c-1.2,2.9-4.6,4.9-7.1,7.2c-18.4,17.4-36.7,34.9-55.1,52.3c-0.8,0.8-1.9,1.4-2.6,2.4
			c-2.7,4-6.6,4.3-11,4.3c-27.3-0.2-54.5-0.1-81.8-0.1c-1.2,0-2.7-0.6-3.7-1.5c-22.2-20.7-44.4-41.5-66.5-62.3
			c-0.8-0.7-1.3-2.1-1.3-3.2C-14.9,124.2-14.9,107-14.9,89.9z M21.8,89.4C21.8,89.4,21.8,89.4,21.8,89.4c0,10.7,0,21.3,0.1,32
			c0,1.6,0.4,3.6,1.4,4.6c14.5,14.8,29.2,29.4,43.9,44c0.9,0.9,2.4,1.6,3.6,1.6c19.2,0.1,38.5,0.1,57.7,0.1c1.6,0,2.7-0.5,3.9-1.7
			c14.4-14.4,28.9-28.8,43.4-43.2c1.3-1.3,1.9-2.7,1.9-4.5c0-21.6,0-43.1-0.1-64.7c0-1.2-0.6-2.6-1.4-3.4
			c-14.8-14.9-29.6-29.7-44.5-44.4c-0.9-0.9-2.4-1.5-3.6-1.5c-19-0.1-38-0.1-57-0.1c-1.6,0-2.7,0.5-3.9,1.6
			C52.5,24.4,37.9,38.9,23.3,53.5c-0.8,0.8-1.4,2.2-1.4,3.4C21.7,67.7,21.8,78.6,21.8,89.4z M5,126.6c3.2-1.5,5.8-2.7,8.3-4.1
			c0.7-0.4,1.4-1.6,1.5-2.5c0.2-2.3,0.1-4.7,0.1-7c0-17.8,0-35.5-0.1-53.3c0-0.9-0.3-2.4-1-2.7c-2.7-1.4-5.6-2.5-8.8-3.9
			c0,9.8,0,19.4,0,28.9c-2.6,0-5,0-7.5,0c0-9.8,0-19.5,0-29.1c0-3.9,0-3.9-4.2-5.1c0,28.2,0,56.4,0,84.6c3.9-1.5,3.9-1.5,3.9-5.2
			c0-9.3,0-18.5,0-27.8c0-0.8,0-1.7,0-2.6c2.7,0,5,0,7.7,0C5,106.7,5,116.4,5,126.6z M194.3,53.4c-2.7,1.2-5.1,2.1-7.4,3.3
			c-0.6,0.3-1.2,1.2-1.2,1.9c-0.1,21-0.1,41.9,0,62.9c0,0.6,0.3,1.5,0.8,1.7c2.5,1.2,5,2.2,7.9,3.5c0-10,0-19.6,0-29.3
			c2.7,0,5.1,0,7.7,0c0,10.3,0,20.4,0,30.5c0,3.4,0.5,3.9,4.1,4.7c0-28.4,0-56.8,0-85.2c-3.9,1.2-4.1,1.4-4.1,5.1
			c0,5.4,0,10.8,0,16.1c0,4.6,0,9.1,0,13.7c-2.8,0-5.2,0-7.8,0C194.3,72.6,194.3,63.2,194.3,53.4z M7.2,46.1c2.5,1.2,4.8,2.1,7,3.4
			c1.6,0.9,2.5,0.6,3.8-0.7C33.1,33.8,48.2,18.7,63.4,3.7c0.5-0.5,1.1-1.1,1.7-1.7c-1.4-2.4-2.7-4.7-4.2-7.2
			c-8.4,8-16.5,15.8-24.9,23.9c-1.8-2.4-3.5-4.5-5.3-6.8c0.8-0.8,1.4-1.4,2.1-2C39.9,3,47-3.9,54.1-10.8c2.7-2.7,2.7-2.7,0.1-5.8
			C34.8,2.1,15.4,20.9-4.2,39.8c1.6,0.9,2.8,1.5,3.8,2.1c7.6-7.4,15-14.6,22.6-22c1.5,1.5,3.1,3.1,4.5,4.8c0.3,0.4,0.1,1.6-0.2,2.1
			c-2.1,2.3-4.4,4.4-6.6,6.6C15.7,37.5,11.6,41.7,7.2,46.1z M6.6,134.1c1.2,0.9,2,1.3,2.6,1.9c5.7,5.6,11.4,11.3,17.1,17
			c0.5,0.5,0.8,1.9,0.6,2.2c-1.5,1.7-3.3,3.2-4.8,4.7c-7.4-7.3-14.9-14.5-22.4-21.8c-1,0.5-2.1,1.1-3.5,1.9
			c19.6,19.1,38.9,37.9,58.2,56.8c2.3-3.6,2.3-3.6-0.4-6.3c-7.1-6.9-14.2-13.8-21.3-20.7c-0.6-0.6-1.1-1.2-1.8-1.9
			c1.8-2.3,3.5-4.3,5.2-6.5c8.4,8.1,16.6,15.9,24.9,23.8c1.5-2.6,2.8-4.8,4.4-7.5c-0.7-0.5-1.4-1-2-1.6
			c-6.3-6.2-12.5-12.4-18.7-18.6c-9-9-18-17.9-27-26.8c-0.6-0.6-1.9-1.2-2.4-0.9C12.4,130.9,10,132.3,6.6,134.1z M135,1.3
			c4.8,5.3,9.1,10.5,13.9,15.2c11,10.9,22.1,21.5,33.3,32.2c0.6,0.5,1.7,1.2,2.3,0.9c2.6-1,5-2.4,7.7-3.7
			c-7.7-7.8-15.2-15.3-22.9-23.1c2-1.8,3.9-3.6,5.7-5.2c8.2,7.9,16.5,16,24.9,24.1c1-0.5,2.1-1.2,3.6-2
			c-19.7-19.1-39-37.9-58.4-56.7c-2.3,3.5-2.4,3.6,0.4,6.3c4.8,4.7,9.7,9.2,14.6,13.8c2.1,2,4.1,3.9,6.3,6c-1.9,2.3-3.6,4.5-5.4,6.8
			c-7.5-7.2-14.7-14.1-22.1-21.2C137.2-2.5,135.8,0,135,1.3z M191.9,134c-2.6-1.7-5.1-3.4-7.6-5c-16.9,16.3-33.6,32.5-50.4,48.7
			c1.6,2.6,3,5,4.6,7.6c7.5-7.2,14.8-14.2,22.3-21.3c1.9,2.4,3.6,4.5,5.3,6.8c-7.9,7.5-15.6,14.9-23.5,22.3c0.7,1.3,1.3,2.4,2,3.7
			c19.5-19,38.9-37.8,58.4-56.8c-1.4-0.7-2.5-1.4-3.4-1.9c-8.5,8.2-16.8,16.2-24.5,23.6c-1.9-1.5-4-3.1-6-4.7
			C176.9,149.3,184.3,141.7,191.9,134z M131.1,187.4c-1.2-2.6-2.1-4.8-3.2-6.9c-0.3-0.5-1.2-0.8-1.9-0.8c-17.4,0-34.9,0-52.3,0
			c-0.6,0-1.5,0.1-1.7,0.4c-1.3,2.3-2.4,4.7-3.8,7.4c9.1,0,17.6,0,26.4,0c-0.2,2.1-0.4,4-0.5,6c0,1.7-0.7,2.2-2.4,2.2
			c-8.3-0.1-16.7,0-25,0c-2.9,0-3.3,0.3-3.6,3.3c24.6,0,49.2,0,73.9,0c-1.3-3.8-1.3-3.8-4.9-3.8c-7.2,0.1-14.3,0.1-21.5,0.2
			c-1.7,0-3.4,0-5.4,0c0-1.9,0.1-3.5,0-5.1c-0.2-2.2,0.5-3,2.8-2.9C115.6,187.5,123.1,187.4,131.1,187.4z M94.6-7.4
			c-8.9,0-17.4,0-26.4,0c1.3,2.6,2.3,4.8,3.6,7C72,0,72.9,0.3,73.5,0.3c17.4,0,34.9,0,52.3,0c0.6,0,1.5-0.3,1.7-0.8
			c1.2-2.1,2.3-4.4,3.6-6.9c-1.2,0-1.9,0-2.7,0c-7,0-14,0-21-0.1c-0.7,0-2-0.7-2-1.1c-0.2-2.2-0.1-4.4-0.1-6.6c9.1,0,17.8,0,26.5,0
			c3.2,0,4.1-0.7,4.6-3.9c-24.6,0-49.3,0-74,0c1,3.7,1,3.7,4.5,3.7c8.1,0,16.2,0,24.3,0c0.8,0,1.6,0.1,2.6,0.1
			C94.1-12.6,94.3-10.2,94.6-7.4z" fill="#FFFFFF"></path><path d="M115.1,79.2c-6.6-6.6-12.5-12.6-18.8-18.8C93.2,67.4,90.2,74,87.1,81c-6.3-5.9-12.2-11.3-18.2-17
			c-0.6,4.3-1.2,8-1.8,11.7c-0.1,0.7-0.3,1.4-0.5,2c-0.6,1.7-1.3,2.2-3.2,1c-4.7-3-9.6-5.8-14.7-8.8c0.1,2.1,0.3,3.6,2,4.7
			c3.5,2.3,6.9,4.7,10.4,7c2,1.3,4.1,2.5,6.3,3.9c1.9-3.6,3.8-7.1,5.7-10.8c4.6,3.6,9.2,7.3,14.2,11.3c4.2-5.8,8.4-11.6,10.5-19.3
			C104.6,72,109,79,114.9,84.3c4.9-3.7,7.3-9.2,10.5-14.6c5.8,5.3,9.7,11.8,14.9,18c4.8-6.8,9.5-13.5,14.5-20.5
			c0.2,1.6,0.4,2.8,0.6,4.1c0.2,0.8,0.2,1.9,0.7,2.4c2,1.8,1.1,3.5,0.1,5.3c-2.9,5.4-3.6,11.4-4.6,17.3c-0.5,3.2,0.6,5.9,2.4,8.5
			c0.7,1,1.1,2.5,0.9,3.6c-0.7,3.2,1.4,5.1,3,7.2c0.3,0.4,1.5,0.3,2.1,0c1.8-0.8,3.4-1.7,5.6-2.9c0,3,0.2,5.9-1,8.6
			c-2.5,6.2-7.3,10.7-12.2,14.8c-3.9,3.3-8.2,6.1-12.4,9.1c-0.6,0.4-1.4,0.5-2.2,0.5c-8.2,0-16.4-0.2-24.1-3.4
			c-2.3-0.9-4.3-2.6-6.4-4.2c-0.4-0.3-0.4-1.4-0.4-2c0-0.9,0.3-1.8,0.5-2.7c-2.6,0-4.9,0-7.2,0c-2.7,0.1-5.2-0.3-7-2.8
			c-0.4-0.5-1.8-0.6-2.6-0.5c-3.4,0.5-6.7,1.2-10.1,1.6c-0.9,0.1-2-0.7-3-1.2c-0.6-0.3-1-1-1.5-1.5c-1.5-1.4-2.9-1.9-5.2-1.7
			c-4.9,0.5-9.9,0.4-14.9,0.1c-2.7-0.1-4.4-2.2-5.3-4.7c-0.6-1.9-1-3.9-1.2-5.9c-0.2-1.7-0.9-2.7-2.4-3.4c-6.6-3.4-9.2-9-8.8-16.1
			c0.4-5.5,1.5-11,1.9-16.5c0.3-3.7,0.2-7.5-0.2-11.1c-0.3-3.2,0.5-5.9,1.6-8.8c1.8-4.9,3.4-9.8,5.1-14.7c0.8-2.2,1.5-4.4,2.4-7
			c1.8,1.5,3.2,2.8,4.8,4c6.1,4.4,14.8,2.4,18.2-4.3c2.2-4.4,4.1-8.8,6.1-13c3.2,3,6.6,6.3,10,9.5c0.9,0.9,2.1,1.7,3.3,2.1
			c4.7,1.6,9.3,0,12.1-4.5c1.5-2.4,2.6-5.1,4-8c0.7,0.7,1.6,1.3,2.3,2.2c2.5,3.2,5.1,6.3,7.5,9.6c1.5,2.1,3.5,2.4,5.5,1.9
			c2.8-0.8,5.8-1.6,8.2-3.2c1.7-1.1,2.5-3.4,3.7-5.2c0.4-0.6,0.7-1.3,1.2-2.3c0.9,1.3,1.6,2.4,2.3,3.5c5.7,8.9,10.8,18,13.5,28.3
			c0.5,1.8,0.5,3.3-0.6,4.8c-3.8,5.2-7.5,10.5-11.5,16.1c-5.1-6.1-8.6-13.1-15.1-17.3C121.4,68.8,118.3,74,115.1,79.2z M124.9,80.9
			c-2.9,3.7-6.1,7.7-9.2,11.7c-3.6-3.5-6.9-6.8-10.5-10.3c-0.9,6.6,1.8,11.4,5.8,15.7c-0.2,0.1-0.3,0.3-0.5,0.4
			c-1.5-0.5-3.1-1-4.6-1.6c-0.1,0.2-0.3,0.3-0.4,0.5c2.1,2.2,4.1,4.5,6.6,7.1c-2.2-0.4-4-0.7-6.1-1.1c0.5,1.5,0.9,2.7,1.3,4
			c0.6,1.8,0.5,3.3-1.3,4.5c-0.5,0.3-0.8,1.6-0.6,2c0.7,1.1,1.6,2.4,2.7,3c2.6,1.5,5.4,2.7,8.2,3.8c0.7,0.3,1.8,0.3,2.3-0.1
			c5.7-4,8.2-9.8,9.2-16.6c-3.8,0.6-4.4,0-4.2-3.5C124.1,93.8,124.6,87.2,124.9,80.9z M80.2,103.5c2.3,4.1,0.8,7.3-1.8,10.3
			c-0.2,0.3-0.1,1.3,0.2,1.6c2.4,2.2,4.6,4.7,7.3,6.5c4,2.6,4.4,2.5,7.5-0.9c2.7-3,4.9-6.5,7.1-10c0.5-0.8,1.4-2.8-1.2-2.9
			c-0.2,0-0.6-0.7-0.7-1.1c-0.4-2.1-1.1-4.3-1-6.4c0.4-5.6,1.1-11.1,1.8-16.7c0.1-1.1,0.2-2.2,0.3-3.3c-0.2-0.1-0.4-0.1-0.6-0.2
			c-3.3,5.3-6.6,10.7-9.8,16c-4-3.2-7.9-6.3-12-9.7c0.6,5.7,3.8,9,7.7,12c-1.6-0.3-3.3-0.7-5.4-1.2c1.7,2.4,3.1,4.3,4.8,6.7
			C82.9,104,81.8,103.8,80.2,103.5z M132.9,107.2c-0.6,2.4-1.3,4.6-1.8,6.9c-0.1,0.4,0,1.2,0.3,1.4c2.6,1.8,5.2,3.6,7.9,5.1
			c0.6,0.3,2.1-0.1,2.6-0.7c2.5-2.9,4.9-5.8,7.1-9c1-1.4,1.3-3.3,2-5.1c-4.4-0.8-5.4-2.2-4.7-6.2c0.7-4.6,1.6-9.2,2.5-14.2
			c-3.1,3.5-5,7.4-9.1,9.3c-2.8-3-5.5-5.9-8.1-8.8c-0.2,0.1-0.4,0.2-0.5,0.4c0.2,2.9-0.2,6.1,0.7,8.7c0.9,2.5,3.3,4.5,5.2,6.8
			c-1.4-0.1-2.8-0.3-4.8-0.5c1.8,2.4,3.3,4.4,5.2,6.9C135.5,107.8,134.2,107.5,132.9,107.2z M57.7,102.1c-0.3,1.2-0.2,2.5-0.9,3.3
			c-1.2,1.4-0.7,2.5,0.1,3.6c0.8,1.1,1.7,2.3,2.9,3c2.8,1.7,5.7,3.2,8.6,4.7c0.4,0.2,1.5-0.1,1.9-0.5c2.4-2.7,4-5.9,4.8-9.4
			c0.3-1.4,0.6-2.5-0.6-3.8c-1-1.1-1.5-2.9-1.8-4.5c-0.6-3.2-0.8-6.4-1.2-9.6c-0.2-0.1-0.4-0.3-0.5-0.4c-0.1,0.3-0.1,0.7-0.3,0.9
			c-2.5,2.8-2.5,2.8-5.8,1.1c-3.6-1.8-7.1-3.7-10.8-5.7c0.5,6.7,6.4,8.1,11,11.8c-2.9-0.3-5.1-0.5-7.3-0.8c-0.2,0.2-0.4,0.5-0.5,0.7
			c1.9,1.6,3.8,3.2,5.7,4.8c-0.1,0.2-0.2,0.4-0.3,0.5C60.9,101.9,59.3,102,57.7,102.1z M108.7,32.2c2.2,12.9,4.3,25.6,6.5,38.6
			c2.9-4.8,5.5-9.5,7.1-14.7c0.2-0.5-0.1-1.2-0.2-1.8C119.4,45.9,114.5,38.9,108.7,32.2z M86.1,70.4c0,0,0.3-0.1,0.3-0.3
			c2.1-4.9,4.1-9.7,6.1-14.7c0.4-0.9,0.4-2.2,0.1-3.1c-2.3-7.3-7.2-12.9-11.7-18.9C82.6,45.9,84.4,58.2,86.1,70.4z M139.4,72.7
			c2.7-3.5,5.2-6.7,7.6-10c0.4-0.6,0.3-1.8,0.1-2.6c-1.6-4.7-3.1-9.4-5-14c-0.9-2.3-2.6-4.3-3.9-6.4c-0.3,0.1-0.5,0.2-0.8,0.3
			C138,50.7,138.7,61.4,139.4,72.7z M131.8,121.9c-3.8,0.6-7.9,0-11.3,2.6c-3.8,2.8-5.7,6.9-7.7,10.9c-0.7,1.4,0,2.1,1.2,2.4
			c5.1,1.4,10.1,2.8,15.2,4.1c0.6,0.2,1.3-0.2,2-0.3c0-0.1,0-0.2-0.1-0.4c-4-1.3-8-2.7-12.3-4.1C122.2,131,126.9,126.5,131.8,121.9z
			 M63.4,73.1c0.7-4.4,1.3-8.2,1.9-12c0-0.3-0.2-0.6-0.3-0.9c-3.3-5.8-8.3-9.8-13.8-13.3C55.1,55.5,59.1,64,63.4,73.1z M125.6,51.2
			c1.1-2.6,1.9-4.7,2.8-6.9c-2.2,0.2-3.9,0.4-5.8,0.6C123.6,46.8,124.5,48.8,125.6,51.2z M70.2,51.6c-2.1,0.7-3.7,1.3-5.6,2
			c1.2,1.4,2.1,2.5,3.3,4C68.8,55.3,69.4,53.6,70.2,51.6z M151,115.2c-1.4,1.6-2.6,3-3.7,4.4c0.2,0.2,0.3,0.4,0.5,0.6
			c1.6-0.5,3.2-1,5-1.6C152.1,117.4,151.6,116.5,151,115.2z M95.7,49.3c0.7-1.8,1.2-3.1,1.9-4.7c-1.5,0.2-2.7,0.4-4.1,0.5
			C94.3,46.5,94.9,47.7,95.7,49.3z" fill="#FFFFFF"></path></g></svg>