<svg xmlns:xlink="http://www.w3.org/1999/xlink" xmlns="http://www.w3.org/2000/svg" x="0" y="0" viewBox="0 0 660 610.7" focusable="false" aria-hidden="true" class="classes-experience-874rm2" width="660"  height="610.7" ><g fill="#FFFFFF"><g fill="#FFFFFF"><path d="M150.5 380.8c3.7-7.2 7.8-14.2 11.1-21.6 6.9-15.3 13.7-30.7 20-46.2 1.1-2.8.8-7.4-.9-9.7-10.1-13.8-22-26.1-37.1-34.2-11.6-6.2-24.9-4.9-37.8-3.1-3.7.6-7.5.6-11.2-.1 4.1-2.7 8.4-5 12.1-8.1 4.3-3.6 8.4-7.6 12.2-11.8 4.5-4.9 4.8-9.2.6-14.2-10.9-13-13.8-28.9-16.4-44.8.1-.5.2-1.1.3-1.6l9 6.9c16.8 12.8 34.7 23.6 54.5 31.1 4.6 1.7 7.8 4 8.4 9.6 1.1 9.7 9.1 15 15.9 20.3 13.6 10.5 28.6 19.1 44.6 25.4 1.4.6 3 .9 5.6 1.6-10.7-10.4-20.3-20.1-30.2-29.4-17.7-16.5-31.8-36.5-41.4-58.8-.3-.6-.5-1.2-.8-1.8-8-16.7-11.9-19-30.2-18.1-16.4.8-32.9 1.7-49.3 2.5-1.8.1-3.7 0-6.4 0 1.3-1.5 1.9-2.6 2.8-3.2 8.2-5.7 16.3-11.6 24.7-16.8 7.9-4.9 8.7-11.9.8-16.6-4.8-2.9-9.9-5-15.3-6.4-15.7-3.7-31.6-6.8-47.4-10.1-.9-.2-1.8-.6-3.4-1.2 13.2-2.7 25.6-5 37.9-7.9 8.8-2.1 16.5-6.3 19.2-15.9.8-3 .8-6.1-.2-9-5.4-13.8-14.5-25.8-26.3-34.8C58.5 39.8 40 28.3 22 16.2 14.5 11.4 7.3 6.4 0 1.5L.7 0c8 3.7 16.1 7.4 24.1 11 11.1 4.9 22.3 9.8 33.5 14.6 6.7 2.9 13.5 5.6 20.3 8.2 6.2 2.4 12.6 4.4 18.7 7 13.8 5.8 27.4 12.2 41.3 17.8 5.4 2 11 3.3 16.7 4 2.9.4 5.1-1.3 6.7-4.7 6.4-13.4-.3-24.5-5.4-36-.7-1.1-1.2-2.3-1.8-3.5 10.1 8.8 21.2 16.7 28.6 28.2C190.7 58 198 69.3 204.6 81c8.9 15.9 9 33.4 8.2 51-.1.8-.4 1.6-.8 2.3-.2.4-.7.6-1.6 1.2-3.8-9.4-9.8-16.4-19.7-18.9.8 15.2 6.6 28.9 14.8 41.8 1.8 2.7 1.8 4.9.8 8.2-1.7 5-2.2 10.4-1.6 15.6 3 19.5 7.1 38.6 18.1 55.6 7.2 11.2 13.4 23.1 21.2 33.8 12.3 17 28.8 30.5 48 39-5.7 22.7-11.4 45.4-17.2 68.7-2.3-5.2-4.7-10.7-7.3-16.1-5.3-10.9-10.1-22.1-16.1-32.5-7.6-13.1-27.7-16-40.5-7.1-17.2 12-31.4 26.6-44.9 42.4-4.6 5.4-9.6 10.6-14.3 15.8l-1.2-1zM660 1.7c-10.2 6.6-20.6 13.1-30.7 20-15 10.1-30.4 19.9-44.7 30.9-11.7 9.1-20.9 21-26.6 34.7-2.7 6.3-.2 15.3 5.8 18.7 5.5 3.2 11.4 5.8 17.5 7.6 10.7 2.8 21.6 4.5 33.1 6.8-1 .5-2 1-3.1 1.3-15.8 3.3-31.7 6.4-47.4 10.1-5.4 1.3-10.6 3.4-15.4 6.3-7.8 4.7-7.1 11.8.8 16.6 8.1 5 15.8 10.5 23.6 15.8 1.3.9 2.6 1.9 3.9 2.9l-.8 1.9c-9.3-.8-18.7-1.8-28-2.2-13.1-.5-26.3-.6-39.4-.6-5.5 0-9.3 3.6-11.9 8.1-5.4 9.5-10.9 19.1-15.7 28.9-7.9 16.2-20 29-32.5 41.4-9.6 9.6-19.5 19-28.9 29.3 4.1-1.5 8.5-2.7 12.3-4.7 15.6-8.2 31.4-16.1 44.2-28.8 4.5-4.5 8.3-9.3 8.8-15.7.3-4 2.7-5.4 5.7-6.6 15.1-5.9 29.6-13 42.9-22.3 7.6-5.3 15-10.8 23.6-17-.9 5.4-1.4 9.9-2.5 14.2-3.1 11.8-6.2 23.4-14.6 33-4 4.6-3.3 8.7.5 13.4 6.8 8.3 14.5 15.6 24.8 19.6l-.2 1.2c-1.9.2-3.9.3-5.8.2-6-.5-11.9-1.4-17.9-1.8-16.5-1-30.7 4-42.1 16.5-4.3 4.6-9.3 8.5-13.8 13-6.4 6.3-10.8 13-6.3 22.5 7.9 16.7 15.4 33.5 23.2 50.3 2.1 4.6 4.6 9.1 7 13.6l-1 .8c-1-.8-2.1-1.7-3-2.7-7.9-8.8-16-17.5-23.5-26.5-10.8-13-24.2-22.8-38.4-31.6-10.1-6.3-26.9-2.3-34.5 9.3-6.6 10.2-11.3 21.8-16.7 32.8-2.7 5.5-5 11.1-7.4 16.7-5.8-23.2-11.5-45.9-17.2-68.8 16-7.1 30.7-17.5 41.9-31.8 9.4-12 17.3-25.1 25.6-37.9 8.4-13 14.2-27.7 16.9-42.9 1.5-8.1 2-16.4 2.9-24.7.2-1.6.2-3.7-.7-4.9-3.5-4.8-1.1-8.5 1.4-12.6 7.5-12 12.4-25 13.3-39.1-9.1 4-9.1 4-21 19.3-.5-2.8-1.1-4.7-1.2-6.6-1.8-23.6 3.4-45.2 17.1-64.6 7.3-10.3 14.5-20.9 22.7-30.6 5.2-6.1 11.9-10.9 17.2-15.6-2.6 7.5-5.5 15.8-8.3 24.1-2.1 6.3.6 11.9 3.3 17.1.8 1.5 4.1 2.8 6.1 2.5 5.4-.6 10.7-1.9 15.8-3.8 9.2-3.9 17.9-9 27.2-12.8 11.8-4.8 24.2-8.4 36.1-13.1 13.6-5.4 27-11.2 40.4-17.1 11.6-5 23-10.4 34.4-15.7l1.2 1.7z" fill="#FFFFFF"></path><path d="M285.4 379.5c11.1-3.6 18.1-10.6 20.8-20.9 4.4-16.7 6-33.7 3.9-51-.5-3.9-2.3-5.1-5.9-6.5-9.6-3.9-19.3-8.1-28-13.8-14.5-9.5-23.6-23.9-31.9-39-11.4-20.7-10.6-42.2-6.4-64.1 1.1-5.9 3-11.6 5.5-17 7.5-15.7 19.6-28.8 34.6-37.7.4-.1.9-.2 1.3-.2-.3.9-.7 1.8-1.1 2.7-13.6 18.9-16.8 40.2-13.1 62.4 3.1 18.8 12.9 34.3 30.1 43.7 5.3 2.9 11.7 4 18.3 6.2-.2 4.1-3.2 7.8-8.5 10.6 8.8 6.5 12.6 15.2 14.6 25.1 3.5 18.1 7.3 36.1 10.8 53.6 1.4-9.2 2.5-19.3 4.5-29.2 2.3-11.2 4.6-22.6 8.3-33.4 2-6 6.8-11.1 10.1-16.2l-8-11.1c25.1-3.2 39.6-17.3 46.7-39.2 8.3-25.3 5-49.6-9.9-72-.7-1.2-1.3-2.4-1.8-3.7 10.4 4.4 16.6 12.1 23.4 19.2 15.3 16.1 19.5 35.9 21 57.2 2 27.4-9.9 49.4-26.5 69-11.4 13.5-26.1 23.7-44.3 27.2-3.3.6-3.6 2.9-4 5.4-2.3 16.1-.5 31.9 2.6 47.7 1.5 7.8 5 14.5 11.4 19.3 2.9 2.1 6.1 3.8 9.8 6-1 5.6-2 12-3.2 18.3-7.3 37.4-14.8 74.8-21.8 112.2-5.8 31.1-11 62.3-16.6 93.4-.4 2.3-1.6 4.5-2.5 6.7-.8-2.2-1.5-4.4-2-6.6-8.3-46-16.3-92.1-24.9-138.1-5.3-28.6-11.4-57.2-17.3-86.2z" fill="#FFFFFF"></path><path d="M329.8 67.6c5.3 17.5 15.2 32.3 24.9 47.2.9 1.3.6 3.8.2 5.6-1.7 6.7-4 13.3-5.5 20.1-6.5 27.8-10.7 55.9-8.7 84.6.2 1.5 0 3-.6 4.4-4.2 8.3.2 15 3.6 22.1.7 1.4.9 4 .1 5.1-6.7 9.7-7.7 21.1-9.9 32.1-1 4.9-2.1 9.8-3.1 14.7h-1.7c-1-4.2-2.2-8.5-3-12.8-2.1-12.1-3.3-24.4-10.7-34.9-.5-1.1-.5-2.4 0-3.6 1.5-3.5 3.5-6.8 5-10.3.8-1.8 1.5-4.1 1-5.8-4.2-13.4-1.7-27.1-2.3-40.6-1-24.3-7.1-47.7-12.9-71-1.5-6.3-1.1-10.1 2.2-15.2 8.7-13.1 17.4-26.1 21.4-41.7zM94.5 385.1c2.9-12.1 5.7-24.2 8.9-36.2 5.3-19.9 8.7-40 7.7-60.7-.2-3.4-1-6.7-1.6-11 9-.9 19-2.2 27.8 2.6 7.4 4 13.8 9.9 20.4 15.1 1.5 1.3 2.7 2.9 3.6 4.7 2.1 4.2.9 6.4-3.7 7.1-8.7 1.3-16.6 5.8-22.1 12.6-8.7 10.7-17.6 21.4-24.8 33.1-6.4 10.2-10.7 21.7-15.8 32.6l-.4.1zm470-1.8c-5.6-11-11.2-24-18.6-35.9-6.5-10.4-14.6-19.8-22.7-29.1-5.4-6.5-13.2-10.6-21.6-11.5-4.2-.4-4.4-2.7-3.7-5.9.1-.7.4-1.3.8-1.8 10-10.9 20.2-21.4 36.3-22.3 5.2-.3 10.5 0 15.7 0-3.5 12.6-3 24.7-1 36.3 3 18.2 7.7 36 11.7 54.1 1.3 6 2.3 12.1 3.1 16.1zm-338.4 54.5c-1.9-2.4-3.7-5-5.4-7.6-9.3-16.1-20.9-30.4-33.9-43.6-4.5-4.5-9.1-9.3-16.9-10.3 13.5-14.4 23.7-31.3 41.6-42.8-9 37.5-7 72.2 16.4 103.5l-1.8.8zm222.3-104.3c17.9 11.5 27.9 28.5 40.8 41.8-3.8 2.2-7.6 3.8-10.6 6.4-15.5 13.4-27.8 29.5-38.5 46.8-2 3.3-4.4 6.4-7.3 9 22.6-31.7 24.7-66.5 15.6-104zM272.9 70.8c17.7 12.2 36.1 85.6 31.9 107.4-1.9-4.6-3.9-9.1-5.6-13.7-6.1-16.8-13.8-32.8-24.8-47-1.1-1.4-2-3.7-1.6-5.2 3.7-13.5 7.1-26.9.1-41.5zm112.9.6c.1.7 0 1.3-.1 2-4.6 11.5-3.2 22.9.5 34.2 1.5 4.5 1.2 7.9-1.9 11.8-10.5 13.1-17.3 28.3-23.2 43.9-1.9 4.9-3.8 9.8-6 15.4-5.5-15.9 13.1-94.5 30.7-107.3z" fill="#FFFFFF"></path></g></g></svg>