<svg xmlns:xlink="http://www.w3.org/1999/xlink" xmlns="http://www.w3.org/2000/svg" x="0" y="0" viewBox="0 0 752.4 615.6" focusable="false" aria-hidden="true" class="classes-experience-1i91nb7" width="752.4"  height="615.6" ><g fill="#FFFFFF"><g fill="#FFFFFF"><path d="M282 384.9c4.4-1.6 9.2-2.2 12.4-4.8 5.9-4.7 3.8-11.6 1.4-17.1-5.2-12-11.1-23.8-17.3-35.3-7.9-14.8-18.5-27.6-30.3-39.4-7.5-7.5-15.2-14.7-22.7-21.9-12.1 8.5-18.3 24.9-12.7 38.8 10.4 26 24.6 49.8 44.9 69.4 5.5 5.2 10.9 10.5 16.8 16.1-9.3 1.3-18.2.9-26.4-2.2-11.8-4.5-22.8-10.3-32.6-18.9-9.9-8.8-22.1-13.5-35.9-12-3.4.4-6.7 1.7-10.9 2.8 1.1-3.7 2-7.1 3.2-10.4 4-11 .2-20.2-7.7-27.5-6.2-5.7-12.6-12-22.6-10.8-7.6.9-14.7 7.6-15.2 15.2-.2 3.7-.5 7.5-.9 11.9-1.3-.7-2.6-1.6-3.7-2.5-13.2-12.8-26.9-25.2-39.3-38.8-9.3-10.2-15.3-22.6-19.7-36.1-6.7-20.9-12.5-41.9-14.9-63.9-1.8-16.7-6.1-33.4-16.3-47.1-7-9.4-16.2-17.1-24.6-25.5-2.3-2.1-4.7-4-7.2-5.8l.4-1.3c2 0 4-.4 5.9 0 17.9 4 33.4 12.4 46.3 25.7 6.4 6.6 13.4 12.6 20.1 19 2.8 2.6 3.5 5.4 3.2 9.6-1.6 15.8 2.1 31.7 10.4 45.3 6.7 11 14.2 21.5 21.9 31.9 5.4 7.4 14 9 22.4 10.6 6.1 1.1 12.4 1.9 18.8-.6-11.6-21.7-12.4-44.9-12-68.3.1-3.3 1.2-6.6 1.9-9.8l1.7.1c.3.9.5 1.9.6 2.9.2 16.7 6.9 30.2 20 40.3 10.8 8.3 27.8 3.8 33.7-8.5.5-1 .4-3-.2-3.6-3.6-3.2-3.1-7.2-2.4-11.1.8-4.2.5-6.9-4.9-6.4-2.4.2-4.8-.3-7.8-.6.9-3.2 1.7-6.2 2.4-9.2 2.9-12.3-1.9-22.9-7.7-33.1-9.9-17.4-22.6-32.8-35.2-48.3-6.5-8.1-14.5-10.7-24.3-8.2-1.2.2-2.5.4-3.8.4 2.1-11.3 2.6-22.5-.9-33.1-2.7-7.9-6.2-15.5-10.4-22.7C94.1 30 91.3 18.7 88.3 7.5c-.6-2-.1-4.4-.1-6.6l1.5-.9c6.5 5 13.5 9.5 19.4 15.1 6.2 5.9 11.3 12.9 17.1 19.2C133 41.8 139.3 50 149 53.8c5 2 10.5 2.8 16.7 4.4-.2 1-.1 3.1-1 4.4-6.9 9.4-6.7 18.7-.6 28.3 9.2 14.4 17.9 29.2 27.9 43.1 5.5 7.7 12.7 14.4 20.1 20.4 3.2 2.7 8.6 2.8 13 3.9 1.9.4 3.9.7 5.8.9-1.1 3.6-2.1 6.5-3.1 9.5-.9 2.7-.6 4.2 2.7 4.8 4.3.7 8.1 3.4 10.2 7.3.5.9 2.2 2.1 2.9 1.9 4.7-1.9 9.9-3.4 13.9-6.4 9.2-7 9.3-16.2 1.2-25.9 6.5-3.6 10.7-2.6 15.2 2.7 11.6 13.4 10.2 28.4 6.7 44.2-1.4 6.4-.5 13.5.2 20.2 2.4 21.9 13.2 40.5 23.6 59.3 16.2 29 37 54.8 56.3 81.7 3.3 4.6 7 8.8 10.5 13.2s5.2 4.5 8.5.3c8.6-11.2 17.3-22.3 25.6-33.8 10.3-14.1 20.7-28.2 30.1-42.9 12.8-20 25.3-40.4 31.8-63.5 4.2-14.9 6-30.1 1.9-45.6-2.8-10.5-2-21.2 4.5-30.6 4.1-5.8 12.2-10 18.8-5.3-.8 1.1-1.8 2.1-2.5 3.3-6 9-3.4 19.6 6.1 24.6 3.3 1.6 6.7 3 10.2 4 1.1.4 3.4-.2 3.9-1.1 2.5-4.4 6.4-6.5 11-7.9 1.3-.7 2.2-2.1 2.2-3.6-.6-3.3-1.9-6.6-3.1-10.4 1.8-.4 3.6-.6 5.4-.8 7.7 0 14.8-2.5 19.7-8.2 9.2-10.9 17.9-22.3 26.1-33.9 5.8-8.2 10.7-17.2 15.9-25.9 5.7-9.3 5.8-18.5-.8-27.4-2.7-3.7-1.9-5.5 2.7-5.8 11.9-.7 20.8-6.9 28.7-15.2 11.5-12.1 20.5-26.6 35-35.8 1.5-1 2.9-2.2 4.5-3.2 1.4-.9 2.9-1.6 5.3-2.9 0 3.3.5 6-.1 8.5-3.2 14.1-8.6 27.6-16 40-7.3 12.5-10.4 26.4-6.7 47.5-3.5-.4-6.9-.7-10.3-1.1-5.2-.8-10.5 1.2-14 5.2-16.6 18.5-32 37.8-43.1 60.2-5 10.1-6 20.6-1.8 31.4.3.9.4 1.8.5 2.8-3.3.3-6.3.7-9.4.7-2.8.1-3.9 1.2-3.5 4 .6 4.9 2.1 9.9-2.5 14-.5.5-.2 2.7.5 3.6 10.5 15 24.9 16.2 37.6 4.2 10.7-9.7 16.5-23.8 15.8-38.2 0-.3.2-.6.9-2.1 1 2.1 2 3.3 2.3 4.8 4.3 20.7 3.8 41-4.6 60.7-1.9 4.4-3.5 8.9-5.6 14.2 3.3.4 6.7.5 10 .6 10.2-.5 20.5-1.9 28.2-9.2 5.5-5.2 9.8-11.6 14.2-17.8 3.7-5.3 7.1-10.9 10.1-16.6 7.9-14.8 12-30.4 10-47.4-.2-1.7.3-3.4 1.3-4.8 12.4-15.2 27.3-28.1 44.1-38.2 7.7-4.6 17-6.4 25.6-9.3 1.3-.4 3.1.3 5.8.7-2.8 2.5-4.6 4.4-6.7 5.8-20.6 14.4-34 33.7-39.3 58.2-2.8 12.8-3.4 26.1-6.6 38.8-4.5 17.9-9.3 35.7-16 52.9-6.1 15.6-17.3 28.3-29.6 39.8-7.8 7.2-15.5 14.5-23.3 21.7-1.6 1.3-3.2 2.4-4.9 3.5-.3-4.1-.8-7.7-.9-11.2-.3-12.2-14.1-19.8-24.8-14.3-8.6 4.5-16.8 10-20.4 20.2-2.2 5.6-2.2 11.8 0 17.4 1.1 2.9 1.9 5.9 3 9.5-4-1.1-7.4-2.4-10.9-2.8-14.3-1.5-26.4 3.9-37.1 12.8-15.9 13.2-33.4 22.2-54.9 20.7-.8-.1-1.6-.2-2.8-.4 6-5.7 11.7-11.1 17.4-16.6 20.1-19.7 34.4-43.1 44.3-69.2 5.6-14.9 0-27.5-11.9-38.4-6.6 5.7-13.8 10.8-19.8 17.2-8.6 9.2-16.7 18.9-24.3 29-11.6 15.6-20.9 32.9-27.5 51.2-1.8 5-3.9 11.2 1.1 15.4 3.4 2.9 8.3 3.9 12.8 5.9-3 3.6-6.7 8.5-10.8 12.8-8.7 9.3-17.7 18.4-26.5 27.7-1.1 1.3-1.5 3-1.2 4.7.9 3 2.2 5.9 4 8.4 15.5 21 31.8 41.3 50 60.1 19.5 20.3 40.2 39.1 63.3 54.7 32.5 22 65.7 43 103.4 55.5 2.8.9 5.5 2.3 8.2 3.5.4.2.7.6.9 2.2-10 .1-20.1.5-30.1.3-23.1-.5-46.4-.9-68.6-8.1-23.7-7.6-47.8-14.4-68.8-28.6-20.5-13.9-40.6-28.2-58.9-45.2-17.8-16.6-36.4-32.5-54.6-48.7-3-2.7-5.5-1.8-8.1.6-15.3 13.7-31 27.1-46.1 41.1-21.6 20-44.5 38.5-69.7 53.9-9.6 5.9-19.8 10.8-30.4 14.8-16.2 5.9-32.6 11.9-49.5 15.1-18 3.4-36.6 3.9-55 5.1-9.9.6-19.8.1-29.7.1l-.3-1.9c2.4-1.3 4.9-2.5 7.4-3.5 32.7-11.1 62.2-28.4 91.1-46.9 24.6-15.8 47.5-34.2 68.4-54.8 21.7-21.1 41.4-44.2 58.8-68.9.9-1.2 1.7-2.5 2.5-3.7 3.6-6.1 2.8-7.5-2.2-12.5-9.1-9.2-17.7-18.9-26.5-28.5-2.7-3.5-5.4-7-7.9-10z" fill="#FFFFFF"></path><path d="M348.2 124.9c-.6 12.4-1.5 24.8-1.7 37.2-.3 11.1 3.9 21.9 11.6 30 .8.8 1.6 1.5 3.4 3 .3-29.3 7.1-56.5 13.3-83.8l2-.2c1.9 9 3.9 18 5.7 27 1.9 9.2 3.8 18.5 5.2 27.8s1.9 18.7 2.9 28.7c8-7 12.9-15.4 13.7-25.3.8-10.7.1-21.6 0-32.3-.1-3.8-.5-7.6-.8-11.4l1.3-.9c3.9 5.4 8 10.6 11.5 16.2 2.2 3.4 4 8.4 8.4 6.9 3.7-1.3 8.1-5.2 9-8.8 2.2-8.6 2.9-17.7 3.4-26.6.3-6.8-.1-13.6-1-20.4-2.1-19.1-9.6-37.2-21.5-52.2-1-1.2-1.7-2.6-2.5-3.8l1-1.1c1.2.4 2.4 1 3.4 1.8 9.7 8.2 17.7 18.2 23.6 29.5 3.7 7.1 7.6 14 11.3 21 7.5 14.1 8.6 29.8 11 45.2 2.9 18.5 1.4 36.7-2.5 54.9-.2.8-.5 1.5-.9 2.3-10-1.2-21.1-5.1-28.1 4.9s-9.1 21.4-.4 33.1c-5.6-1.4-11.3-2.9-17-4-8.3-1.7-13.8 2.4-14.1 10.9-.2 5.8-.7 12 1 17.3 4.9 15.1 10.7 29.9 16.4 44.8.7 1.9 2.5 3.5 4 5.4-4.1 2.9-8.1 5.6-12.1 8.5-10 7.1-15.5 17.6-20.6 28.3-3.2 6.9-6 14.1-9.1 21.1-.5 1.3-1.8 2.2-2.7 3.3-1.1-1.1-2.6-1.9-3.3-3.2-5-10.3-9.9-20.7-14.6-31.1-5-10.9-13.7-18.1-23.8-24-1.3-.7-2.5-1.6-3.5-2.3 10-16.2 16.9-34.1 20.5-52.8.9-4.8.7-9.9.6-14.9-.3-8.8-5.7-13-14.2-11.3-5.6 1.2-11.2 2.7-18.3 4.4 10.4-12.5 8.1-24.5 0-34.7-6.2-7.8-16-5.4-25.5-3.9-14-44.1-5.5-85.4 16.8-124.8 6.7-11.8 14.8-23 27-29.9l1.6 1.5c-2.2 3.1-4.6 6.1-6.7 9.3-14 21.6-20.7 45.1-18.4 70.9.5 5.8.6 11.7 1.9 17.3 1 4.3 3 8.3 5.8 11.7 3.8 4.7 8.5 3.6 11.7-1.6 4.2-6.6 8.7-13.1 13.1-19.6l1.2.7zm27.9 187.2c1.6-2.6 3.1-6.5 5.8-8.8 5.3-4.5 6-9.1 4.1-15.5-3.7-12.5-6.6-25.3-9.9-38.3-.6.7-.9.9-1 1.2-3.7 14.6-7.5 29.3-11.2 43.9-.3 1.1.5 2.8 1.3 3.8 3.6 4.6 7.2 9.1 10.9 13.7z" fill="#FFFFFF"></path></g></g></svg>