<svg xmlns:xlink="http://www.w3.org/1999/xlink" xmlns="http://www.w3.org/2000/svg" x="0" y="0" viewBox="0 0 647.3 642.7" focusable="false" aria-hidden="true" class="classes-experience-1i91nb7" width="647.3"  height="642.7" ><path d="M323.1 642.7c-.9-5.4-1.6-10.8-2.6-16.2-4.2-23-8.5-45.9-12.6-68.8-5.7-31.7-11.1-63.4-16.8-95-2.3-12.8-4.1-25.8-8.2-38-2.6-7.8-2.8-12.7 3.2-18.7 6.9-7 8.7-16.7 9.1-26.3.3-7.8.6-15.7-.1-23.5-.5-5.2-2.7-10.3-4.5-16.8-2.1 2.3-2.8 3.1-3.5 3.9-10.3 12.2-20.8 24.2-30.7 36.6-5.3 6.6-10.6 13.5-14.2 21-11.1 23.4-11.9 48.3-7.4 73.4 2.9 16.1 6.9 31.9 15.4 46.2-26.1-25.5-46.7-55-60.3-88.7-15.9-39.2-22.4-78.6-15.3-107.1.7 1.2 1.4 2.4 1.9 3.7 5.7 16.5 16.8 27.3 33.6 32.1 10 2.9 28.5-.7 33.8-14.8-21.2-7-30.5-25-39.3-43.3-5.6-11.6-8.3-33.6-5.4-43.8 13.7 21.2 28.6 40.7 52.8 52-5.5-15.8-3.6-31.2-2.4-46.6 0-1.9-.6-3.8-1.8-5.4-8.8-10.3-17.5-20.6-26.6-30.6-6.9-7.5-17.6-7-23.1 1.7-3.7 5.7-6.5 12-8.1 18.7-4.2 18.1-4 36.5 1.8 54.3 2.4 7.5 6.5 14.5 9.9 21.8 1.1 2.2 2.3 4.4 3.8 7.3-7.2-.1-12.3-3.7-17-7.4-8.3-6.5-14-14.9-18.3-24.6-11-25.2-20-51.2-26.8-77.9-1-3.9-4.2-5-7.4-1.6-4.7 4.8-9.8 9.9-12.7 15.8-11.3 22.8-15.8 47.3-16.3 72.6-.3 16.1-.1 32.3-.1 48.6-3.6-4.5-7.7-9.2-11.3-14.2C80.5 321.9 73 298 70.9 272.3c-.2-2.5-.7-4.9-1.5-7.3-2.6-7.5-9.3-9.5-14.6-3.6-5 5.5-10 11.6-12.6 18.3-10.8 27.2-16.1 55.9-21.2 84.7-4 21.7-3.7 43.6-3.3 65.6.1 1.9-.1 3.8-.7 5.6-.5-1.1-.9-2.2-1.2-3.3-3.1-12.3-6.4-24.5-9.3-36.8-5.3-22.1-7.3-44.8-6.1-67.4 1.2-22.6 3.1-45.2 5.8-67.6 2.3-18.7 7-37.1 14-54.5 6-15.3 11.4-30.9 18.3-45.9 5.3-11.4 12.4-22 18.7-33 10.5-18.2 23-35.1 37.3-50.5 12.7-13.7 26.1-26.7 39.9-39.2 14.4-13.1 30.3-24.5 47.4-34 2.9-1.6 6.3-2.2 9.4-3.3l.9 1.6c-1.2 1.2-2.5 2.3-3.8 3.3-15.1 9.2-25.2 23-35 37.2-7.8 11.2-14 23.3-15.8 36.9-3 22.5 3.4 42.3 21.6 56.3 6.5 5 15.7 7.4 24 9.1 16.2 3.4 32.3 2.6 47.9-4.7 8.8-4.1 18.4-6.7 27.6-9.9 1-.4 2.2-.5 4.7-1.1-1.2 2.1-1.5 3.5-2.5 4.1-17 11.8-25.2 28.7-26.1 48.7-1 22 7.9 41.2 20.8 59.1 7.2-12.1 14.9-23.3 27.6-29.9-1.6 2.8-3.3 5.6-4.8 8.5-6.2 11.8-7.3 24.7-5.7 37.5.6 5.4 4.2 11 7.9 15.2 4.4 5 10.2 8.9 15.8 12.7 9.1 6.2 15.6 3 16-8.8.5-14.1-1-28.2-2.1-42.4-.3-3.9-2.1-7.6-3.3-11.4l-1.4.4c-1.6 6.5-3.3 13-5.2 20.3-4-9.6-7.3-18.3-11.3-26.6-3.6-7.6-7.5-15.2-15.3-19.9-3.9-2.3-7.3-3.7-11.6-1.2-1.1.5-2.3.8-3.6.9-.2-.7-.3-.9-.2-1 8-13.4 9.3-28.6 11.8-43.5 2.5-15.1 10.4-26.7 23.4-37.1-2.1 4.4-3.5 7.6-5 10.7-5.2 11-4.9 22.6-3.7 34.3.4 3.9 2.3 7.9 6.3 7.9 2.6 0 5.4-3 7.8-5 1.4-1.1 2.2-2.8 4.1-4.3-.2 9.5-.4 18.8 7.4 26.7 3.4-7 6.7-13.8 10.1-20.5.9-1.5 1.9-2.9 3-4.3 1.2 1.4 2.6 2.7 3.5 4.3 3.4 6.6 6.6 13.4 10 20.5 7.8-7.8 7.9-16.9 6.7-26.4l1.3-.2c1.4 1.7 2.5 3.8 4.1 5.1 2.2 1.8 5.2 4.6 7.2 4.1 2.4-.6 5.4-3.9 5.8-6.5 2.2-11.9 2-23.9-3-35.2-1.5-3.3-3.1-6.5-5.2-10.8 11.6 8.5 18.9 18.7 22.2 31.5 1.8 6.9 2.1 14.2 3.9 21.1 2.3 8.6 5.5 17 8.3 25.5.3.9.6 1.8 1 2.8-.5.2-1.1.4-1.7.4-3.5-.5-7.4-2.3-10.3-1.2-6.2 2.2-11.3 6.8-14.1 12.9-5 10.7-9.6 21.5-14.4 32.3-.3.7-.6 1.4-1.6 3.4-2-7.7-3.6-14.2-5.3-20.7l-1-.4c-1.2 3-3.1 5.9-3.4 8.9-1.2 14.3-1.9 28.6-2.8 42.9-.1 1.7.1 3.4.4 5 2.1 8.7 7 10.8 14.7 6.7 8.8-4.7 16.1-10.9 21.5-19.5 5.6-8.9 3.8-18.3 3.2-27.7s-4.1-17.8-9.4-25.5c-.5-.7-.7-1.6-.5-2.4 12.1 7 19.9 18 27 30.3 12.8-17.5 21.4-36.4 20.9-58.1-.5-21.9-10.9-39.2-28.6-52.3l1.2-1.2c2.3.6 4.6 1.1 6.8 1.9 10.9 4 21.7 8.2 32.7 11.9 18.4 6.1 36.4 3.9 54.2-2.9 20.6-7.8 27.5-25 31.1-44.6 3.1-16.8-4.9-30.5-12-44.4S481 25.5 470.6 14.2c-2.7-2.9-6.1-5.1-9.3-7.5-1.9-1.6-4-3.1-6.1-4.6l.5-1.6c2.7.6 5.6.8 8 2 17 9.1 32.9 20.3 47.2 33.3 15.1 13.5 29.5 27.9 43.4 42.8 14.2 15.3 26.5 32.2 36.7 50.4 7.9 13.9 16.2 27.6 22.9 42.1 5.7 12.2 9.5 25.2 14.1 37.9 14 37.7 17 77.1 18.9 116.8 1.8 37.4-6.5 73.1-16 108.7-.4.7-.8 1.3-1.3 1.9-.1-1.9-.3-3.1-.3-4.3 0-12.7 1.3-25.5-.2-38-2.7-23.3-6.3-46.5-10.9-69.5-3.1-15.3-7.9-30.3-13.3-45-2.5-6.8-7.6-12.9-12.6-18.3-5.3-5.9-12.7-4-14.5 3.7-2.2 9.3-2.8 19.1-4.7 28.5-4.6 22.4-16.1 46.2-33.9 64.2.2-2.9.5-5.2.6-7.6 1.9-31.8 1.4-63.4-8-94.1-3.6-11.6-7.4-23.3-16.7-32-1.1-1-2-2.2-3.2-3.2-4.6-3.9-7.2-3.1-8.7 2.6-6.9 27.1-16.1 53.6-27.6 79.1-5.4 12-13.9 22-26.5 27.5-1.2.5-2.5 1-3.8 1.3-1.2.2-2.4.4-3.6.5 3.5-7.2 6.5-13.9 9.9-20.4 7-13.3 8.3-27.7 8-42.2-.2-11.6-1.9-23.2-7.1-34-4.6-9.5-11.8-13.9-20.1-11.3-2.2.7-4.2 1.9-5.9 3.5-9.4 10.5-18.6 21.1-27.6 31.7-1.2 1.4-1.4 3.9-1.4 5.9.1 10.8.6 21.6.4 32.4-.1 4.2-1.6 8.4-2.5 13 23.7-11.1 38.7-30.5 52.4-51.9 6.9 29.3-16.3 79.6-45.1 87.3 3.4 7 9.6 12.1 17 14.2 20.3 6.3 41.5-9.2 48.9-26.4 1.2-2.7 2.1-5.5 3.2-8.2l1.4.1c.6 5.1 1.5 10.2 1.8 15.4 1.5 25.5-4 50-11.6 74.1-8.4 26.7-21.7 50.8-38.2 73.1-7.4 10-15.8 19.4-23.7 28.9-1.3 1.5-2.9 2.7-4.6 3.5 8.6-14.4 12.7-30.1 15.5-46.2 4.4-24.7 3.5-49.1-6.8-72.5-4.3-9.7-10.7-17.7-18.3-25.3-9.3-9.4-17.1-20.4-25.5-30.7-1.2-1.5-2.2-3.2-4.1-6-1.8 3.8-4 6.5-4.5 9.5-2.3 15.4-3.2 30.9 2 45.9 1.9 5.5 5.8 10.4 9.4 15 2.4 3.1 2.7 5.4 1.5 9.4-3.3 10.3-5.9 20.8-7.9 31.4-10.1 54.9-20.1 109.8-29.9 164.8-1.2 6.9-1.9 13.9-2.9 20.8-.3 2.1-.9 4.2-1.4 6.3l-.9-.2z" fill="#FFFFFF"></path></svg>