<svg xmlns:xlink="http://www.w3.org/1999/xlink" xmlns="http://www.w3.org/2000/svg" viewBox="0 0 939.8 917.4" focusable="false" aria-hidden="true" class="classes-experience-874rm2" width="939.8"  height="917.4" ><path d="M467 917.4c-9.2-14-17.4-28.9-31.4-38.9-2.3-1.6-5-2.5-7.7-2.7-16-1.1-31.8-4-47.1-8.6-6-1.8-12.4-2.2-18.6-3.6-12.5-2.8-25.2-5.1-37.2-9.1-16.3-5.6-33.8-6.6-50.6-2.7-14.1 3.2-23.1 13.7-32.2 23.5-10.4 11.2-19.7 23.4-29.6 35-1.7 2-4.3 3.3-6.4 4.9l-1-.8c2.3-6.8 3.8-14.1 7.2-20.3 5.5-10 6.6-21.2 9.6-31.8 2.8-9.7 4.8-19.7 7-29.6 2.2-9.2 1.2-18.8-2.7-27.4-2-3.7-4.8-6.8-8.2-9.1-10.7-7.6-21.3-15.5-32.8-21.8-6-3.3-13.7-3.7-20.8-4.8-19.1-3-35.3 4.8-50.2 15.2-6.7 4.7-12.3 11.1-18.5 16.6-.9.8-2.2 1-3.3 1.5-.4-1.2-1.2-2.4-1.2-3.5-.6-34.7-14.3-64-37.7-88.8C40 696.2 25.2 683.5 11.3 670c-4-3.9-7-8.6-11.3-13.9 1.4-.1 2.7-.1 4.1 0 23.3 4.9 46.4 10.2 69.8 14.6 11.3 2.1 23 2.6 34.6 3.5 1.9-.1 3.6-1.1 4.7-2.6 12.2-21 24.5-41.9 36-63.2 4.5-8.4 4.6-17.3-2.8-25.3-8.8-9.5-16-20.5-27.7-27.1-2.8-1.6-4.8-4.8-7.2-7.3l.5-1.5c2.1-.1 4.3-.6 6.3-.2 13.3 2.5 26.5 5.1 39.7 7.9 11.1 2.3 12.9 1.4 19.9-10.2 4.1-6.8 6.3-14.9 8.6-22.7 5.1-17.2 7.6-34.9 6.3-52.8-1.2-17.6-6.9-33.8-18.4-47.6-.6-.7-1.1-1.5-2.4-3.3 2.8.2 4.7.3 6.6.4 8.1.3 16.4 1.2 24.4.7 11.7-.8 19-8.7 25.3-17.6 10.6-15.2 19.8-31.2 27.7-47.9 1.7-3.5 3.1-7.2 5.4-10.1 8.2-10.2 3.4-19.2-1.4-28.8-5.6-11-10.2-22.4-15.1-33.7-7.1-16.2-13.9-32.4-21.1-48.5-8-18.1-16.1-36.2-24.3-54.2-1.7-3.8-3.7-7.4-4.9-12.1 6.2 3.1 12.9 5.7 18.6 9.6 30.4 20.4 60.8 40.9 90.9 61.9 7.5 5.2 12.3 3.4 15.9-3.2 2.1-3.8 3.9-8.5 3.6-12.7-1-16.6-2.9-33.1-4.5-49.7-.1-.8-.2-1.6-.5-3.9 2.7 2.3 4.5 3.7 6.2 5.2 7.7 7.2 15.4 14.2 25.6 17.9 7 2.5 9.8 2.2 14.1-3.9 7.7-10.9 15-22.1 22.6-33 22.5-31.8 40-66.4 57.2-101.2 3.1-6.3 6.7-12.3 9.7-18.6 5.6-11.4 10.9-23 16.4-34.7.8 2.6 1.7 5.1 2.7 7.6 5.9 12.7 11.8 25.4 18 37.8 9.1 18.1 18.5 36.2 27.9 54.2 12.4 23.2 26.3 45.6 41.7 66.9 4.7 6.6 9.2 13.5 13.9 20.2 5 7 7.3 7.3 15.2 4.5 9.9-3.5 17.3-10.5 24.8-17.3 1.8-1.8 3.9-3.3 6.3-4.3-.5 3.4-1.2 6.7-1.5 10-1.2 14.4-2.6 28.8-3.4 43.3-.4 6.1 2.6 11.3 6.7 15.7 3.1 3.2 7 3.2 11.2.2 22.6-15.9 45-32.2 68-47.6 13.1-8.8 27.3-15.9 41.1-23.7.7-.4 1.5-.6 3.2-1.3-3.1 6.6-5.8 12.4-8.4 18.2-11.7 25.9-23.5 51.9-35 77.9-7.2 16.3-14 32.7-21 49.1-2.5 5.8-5.4 11.4-7.7 17.3-.8 2.1-.7 4.4.2 6.5 6.9 13.9 13.6 27.9 21.2 41.3 5.8 10.1 12.3 19.8 19.2 29.1 7.1 9.7 16.7 15 29.2 13.9 7.6-.7 15.2-.8 24-1.1-2.3 2.7-4.3 4.5-5.7 6.7-9.4 16-15.6 32.7-15.3 51.9.3 20 4.2 39 10.3 57.7 2.1 6.4 6.8 12.1 10.8 17.8 2.6 3.8 6.9 3.6 11 2.8 12.4-2.5 24.8-5.2 37.2-7.6 3.8-.7 7.6-.8 11.4-1.1.3.7.7 1.4 1 2.1-3.2 3-5.9 6.5-9.5 8.7-12.7 7.9-21.1 19.9-29.6 31.5-3.8 5.2-2.4 13.1.9 19.2 9.1 16.8 18.6 33.4 28 50 2.6 4.6 5.3 9.2 8.4 13.6 1.2 1.5 2.8 2.4 4.7 2.7 16.5 1.6 32.3-3 48.2-6.2 18.9-3.8 37.7-8 56.6-12.1 1.2-.1 2.3-.1 3.5 0-4 5.1-6.9 9.8-10.8 13.7-12.6 12.5-25.4 24.9-38.5 37-16.3 15.2-28.5 34.2-35.3 55.4-4 12.1-7.2 24.2-6.5 37.1 0 1.2-.8 2.4-1.2 3.5-1.2-.4-2.3-.9-3.3-1.5-6.1-5.4-11.4-11.9-18.2-16.2-9.2-6-19-10.9-29.3-14.6-10.3-3.5-21.5-1.9-32 .8-19.9 5-35.5 17.4-49.3 31.6-6.7 6.9-6.7 17.8-4.8 27.2 3.7 17.9 7.7 35.8 12.5 53.4 2.4 8.9 6.7 17.3 10.2 26 .6 1.5 1.2 3 1.7 4.5l-1.2 1.2c-2.4-2.1-5-4-7.3-6.2-15.8-15.4-27-35.1-44.5-49.1-9.2-7.4-20-9.4-31.2-10.5-13-1.3-25.2 2-37.7 5.7-15.1 4.4-30.8 6.9-46.2 10.3-12.5 2.8-25 5.7-37.5 8.5-3.2.7-6.7 1.5-9.9 1.1-12-1.2-20 5.4-26.6 13.8-7.1 9.2-13.4 19-20 28.6l-5.9-.2zm-32-218.9-1.3 1.6c-6.4-3.3-13.2-5.9-19.1-10-9.3-6.6-20.5-9.8-31.9-9.2-3.7 0-7.1 1.5-9.7 4.1-9.4 9.2-15.4 20.4-20.2 32.3-8.3 20.5-15.1 41.2-14.8 63.7.1 9.6 2.4 18.3 10.9 23.8 20.9 13.6 43.6 23.3 68.4 26.3 30 3.6 60 3.7 90.2 1.7 29.7-2 56.6-11.3 81.7-26.8 6.7-4.1 11.9-9.7 12.2-18.3.1-3.3.7-6.7.6-10-1.4-31.1-11.6-61.2-29.3-86.8-4.5-6.5-10.3-11-19.5-10.3-9.6.5-19 3.6-27 9-6.3 4.2-12.8 8.2-21.6 9.7 3.5-6.1 6.5-11.2 9.5-16.4 7.8-13.5 13.8-27.6 15.1-43.3.8-9.6-2.4-19.1-8.9-26.1-13.4-15-27.5-29.5-41.3-44.1-7-7.4-10.6-7.4-17.7.1-13.7 14.6-27.4 29.1-41 43.7-5.9 6.3-9.2 14.5-9.2 23.2 0 16.3 6.5 31 14.2 45.1 3 5.8 6.4 11.4 9.7 17zm-21.5-214.2c.4 0-.2-.1.2-.2-1.2-7.7-.9-15.4-2.5-23-4.3-19.8-14.5-37-24.3-54.5-6.5-11.7-16.3-20.5-26-29.4-1-.8-2.2-1.4-3.5-1.8-12.3-4.3-21.8.7-29.6 9.7-17.4 20.2-32.4 42.4-44.5 66.1-4.2 8.1-6.7 17-3.3 26 4 10.7 8.4 21.3 13 31.8 6 13.8 16.9 23.7 27.4 33.8 9.6 9.2 18.4 19.6 30.9 24.9 13.1 5.5 21.5 7 31-2.3 5.6-5.5 10.7-12.1 14-19.2 9-19.5 17.4-39.6 17.2-61.9zm111.7-.2c2 9.9 2.8 20.2 6.1 29.7 5 14.4 10.1 29.2 18.1 42 11.3 18.1 22.3 21.9 43 9.7 11.1-6.5 20.2-16.6 29.9-25.4 5.8-5.2 12-10.5 16-17 6.6-10.5 11.9-21.8 17.2-33 5.7-12.1 8.6-24.9 1.6-37.4-7.6-13.6-15.6-27.1-24.3-40-8.4-12.5-16.7-25.3-29.1-34.5-6-4.5-18.4-6-24-1.2-7 5.9-14.5 11.8-19.3 19.3-9.7 15.1-18.3 30.8-25.8 47.1-5.8 12.5-9.9 26.1-9.4 40.7zM470 188.9c-5.7 10.1-11.5 19.9-17 30-17.3 31.5-34.6 63-51.9 94.6-2.6 4.7-2.4 9 .9 13.5 5.5 7.4 11 14.7 15.8 22.5 16.5 26.8 32.7 53.8 49 80.7.8 1.3 1.8 2.5 3.1 4.3 1.2-1.6 2.1-2.5 2.8-3.6 3.5-5.7 6.8-11.5 10.3-17.1 16.4-26.5 32.4-53.2 49.4-79.3 9.4-14.4 10.9-12.7 1.5-29.4-16-28.4-31.3-57.3-46.9-85.9-5.5-10.1-11.2-20.1-17-30.3zM282.4 643l-.8 1.2c-1.5-.2-3.1-.4-4.7-.7-10.8-2-21.5-4.4-32.4-6-4.9-.6-9.9-.4-14.8.7-9.7 2.1-14.3 10.3-17.3 18.5s-4.6 16.9-5.9 25.6c-2.6 17.8.1 35.9 7.7 52.1 3.6 8 10.1 14.3 18.9 15.7 12.3 1.9 24.5 2.3 36.4-3.9 12.3-6.4 22.5-16.1 29.5-28 6.7-11 11.1-22.7 14.8-34.8 2.1-7.2 4.6-14.4 5.2-21.8 1-12.3 1.1-24.6.4-36.9-.5-7.5-1.9-15.5-5.3-22-5.1-9.8-11.4-19.4-19-27.3-6.4-6.6-15.4-10.8-23.3-16-1-.6-2.2-.8-3.4-.8-17.4-.9-32.8 9.9-38.2 26.7-3.7 11.6-1.2 16.6 8.8 23.3 13.4 9 26.1 18.9 39 28.6 1.9 1.6 3 3.9 4.4 5.8zm376 1.4-1.2-1.8c3.3-3.5 6.3-7.5 10.1-10.3 11.4-8.4 23-16.5 34.7-24.3 5.6-3.8 9.8-7.9 9.1-15.3-1.5-16.5-11.8-28-28-32.5-5.6-1.6-12-3-18 .6-13.4 7.8-25.7 16.7-33.2 30.8-3.3 6.1-8.3 12-9.5 18.5-4.1 20.4-4 41.5.4 61.9 1.9 9 4.7 17.7 8.2 26.2 7.7 18.5 16.7 35.7 35.7 46.2 12.7 7 25.3 7.4 38.5 6.3 3.5-.3 7.1-2.7 10.2-4.7 7.4-4.7 11-12 13.4-20.3 7.8-27.4 8.8-54-7.4-79.1-4.2-6.5-10.3-9.4-17.2-9.1-10.2.4-20.4 2.3-30.6 3.9-5 .6-10.1 1.9-15.2 3z" fill="#FFFFFF"></path></svg>