<svg xmlns:xlink="http://www.w3.org/1999/xlink" xmlns="http://www.w3.org/2000/svg" viewBox="0 0 919.2 697.2" focusable="false" aria-hidden="true" class="classes-experience-1i91nb7" width="919.2"  height="697.2" ><g fill="#FFFFFF"><g fill="#FFFFFF"><path d="M734.5 270.8c-2.6 5.5-5.5 10-7.1 15-2.1 6.5 1.1 11.9 4.9 17 11.5 15.7 27.9 24.6 44.9 32.3s34.4 13.4 53.2 14.4c16.9.8 33.2-2.1 49.1-7.5 11.8-4 23.5-8.4 35.2-12.5 1-.4 2.2-.2 4.5-.5-2.6 4.4-4.3 8.3-7 11.5-7.6 8.8-15.3 17.6-23.6 25.8-3.9 3.6-8.6 6.3-13.6 8-26.2 9.7-53.6 13-81.2 15-14.3 1-28.6 1.3-42.7-1.8-9.9-2.1-19.9-3.9-29.6-6.9-8.8-2.7-17.3-6.7-25.8-10.4-1.4-.8-2.3-2.2-2.7-3.8-4.3-23.1-17.8-40.1-35.7-54.2-3.8-3-9-4.2-13.6-6-3.9-1.5-6.2-3.9-6.8-8.3-.5-4-2.1-7.9-3.5-13.1l-27.2 14.8c3.7 2.7 8.6-.3 9 5 .2 3.3 1.5 6.6 1.2 9.8-.5 5.6-2 11.1-2.9 16.6-.7 4.2-3.2 5.6-7.4 5.6-2.3 0-5.7.6-6.6 2.1-1.9 3.5-2.8 7.8-3.6 11.8-.2.7 1.6 2 2.6 2.8 2.1 1.7 4.4 3.1 6.3 4.9 2.7 2.5 3.5 5.5 1.3 8.9-2.6 4.1-5.2 8.2-7.5 12.4s-5.4 5.5-9.5 3.5c-8.6-4.2-17.1-8.6-25.3-12.8 7.3-19.8 15.1-38.5 16.7-59.1.3-3.5-.7-5.4-4-7-12.2-6.1-24.2-12.4-36.3-18.8-5.5-2.9-5.5-6.5-.3-9.9 6.5-4.2 13.1-8.4 19.5-12.9 3.9-2.7 6.8-1.4 9.8 1.3 7.5 6.6 15 13.2 22.4 19.9 2.7 2.5 5.1 2.8 8.4.9 8.3-4.9 16.8-9.5 25.7-14.4-.9-1.4-1.5-3-2.6-4.1-11.8-11.1-23.3-23.3-40.6-24.4-8.5-.5-17.4 1.7-25.9 3.7-8.8 2.1-15.4 8.3-22 14.2-3.8 3.4-7.8 6.6-12.7 10.6 0-2.8-.3-4.6 0-6.2 4.8-24.6 15.4-46.7 29.2-67.4 4.1-6 8.6-11.8 13.3-17.4 1.3-1.3 3.2-1.8 5-1.5 32.8 9 63.9 22.2 92.2 41 24.3 16 47.5 33.7 71.2 50.6.7.7 1.2 1.1 1.7 1.5zm-378.8 99.4c-7.9 4.1-15.7 8.5-23.8 12.4-5.8 2.8-8 1.8-11.4-3.8-2.2-3.7-4.3-7.5-6.8-11.1-2.6-3.8-1.8-6.8 1.3-9.7.5-.5 1-.9 1.5-1.3 8.2-6.3 8.7-7.6 4-16.9-.8-1.6-4-3-6-3-5.3.2-8.2-2-8.9-7-1-6.7-2.2-13.5-2.4-20.2-.1-6.2 2.2-7.9 9.9-8.8-8.3-6.9-17.1-10.8-26.9-15.4-1.3 4.5-2.4 8.5-3.8 12.5-.5 1.4-2 3.4-3.1 3.4-12.5.5-21.1 8.1-28.4 16.8-9.6 11.6-17 24.8-21.8 39-.4 1.1-1.1 2.3-.9 3.3 1 8.6-5.3 10.5-11.2 13.4-15 7.3-31.1 10.2-47.2 13.7-19.6 4.1-39.1 2.7-58.6.8-22.1-2.1-43.8-6-65-13-10.6-3.5-17.9-10.7-24.9-18.5C13.7 348.4 7 339.6 0 331l1.3-2c1.9.4 3.7.9 5.6 1.5 22 8.7 44.2 16.6 68.1 18.9 18 1.7 35.4-1.6 51.8-8.2 14.4-5.6 28.3-12.5 41.5-20.5 8.1-5 14.4-13.2 20.7-20.6 5.3-6.2 4.9-13.5.5-20.4-1.6-2.5-3-5.2-4.8-8.5 5.3-4.3 10.5-8.9 16.1-12.9 18.1-12.8 36.2-25.5 54.6-37.9 22.8-15.3 47.9-26.2 73.4-36 6.9-2.5 13.9-4.6 21.1-6.2 2.1-.2 4.3.5 5.8 2.1 12 14 22.3 29.2 29.2 46.3 5 12.3 8.6 25.1 12.7 37.7.5 1.5.1 3.4.1 6.2-7.2-6-13.4-11.4-20-16.3-4.2-3.3-8.7-6-13.6-8-19-7.2-37.1-6.6-53.2 7.5-5.8 5.1-11.6 10.2-18.2 16 10.8 6 20.1 11.3 29.6 16.2 1.1.6 3.6-.4 4.8-1.4 7.5-6.3 14.9-12.8 22.2-19.4 5.8-5.1 6.2-5.2 12.7-.8 5.8 3.8 11.7 7.5 17.6 11.2 5.3 3.4 5.4 7-.1 9.9-12.1 6.4-24.1 12.7-36.3 18.8-3.2 1.6-4.3 3.4-4.1 6.9.8 14.9 5.8 28.6 10.4 42.5 1.8 5.3 3.9 10.5 6.2 16.6z" fill="#FFFFFF"></path><path d="M557.9 358.5c.3 5.3-3.1 7.2-7.1 8.7-.8.3-1.6.4-2.4.6-11.6 3.6-9.7 1.4-10.9 13.6-.5 5.5 2.7 7.3 6.6 9.1 7.5 3.5 7.5 3.5 5.5 11.5-1 3.9-2 7.7-3.1 11.5-.9 3-2.8 4-5.8 2.7-.5-.2-.9-.4-1.4-.5-9-2.9-9-2.9-14.1 4.9-.5.9-1 1.7-1.7 2.4-3.1 2.9-2.7 5.5-.2 8.6 2.3 2.8 4 6.1 6.1 9.1 2.4 3.3 2 6.3-.9 8.9-4.2 3.7-8.6 7.4-13 10.9-3.1 2.5-6.2 1.9-8.9-.9-2.9-3-5.5-6.3-8.7-9-1.5-1.2-3.4-1.6-5.2-1.2-5.2 1.6-10.3 3.7-15.2 6.2-1.8 1-3 3.6-3.9 5.7-.6 1.6-.3 3.6-.4 5.4-.4 8.3-2.2 10.2-10.4 10.8-2.3.2-4.6.1-6.9-.1-8-.7-10.3-2.4-9.8-10 .4-8-2.8-12.4-10.2-14.5-3.2-.9-6.1-2.7-9.4-3.4-1.8-.4-3.7 0-5.3 1.1-3.1 2.7-5.8 5.9-8.7 8.9s-6 3.4-9.3.8c-4.2-3.3-8.3-6.7-12.3-10.2-3.1-2.6-3.9-5.6-1.4-9.2 2.6-3.5 4.9-7.1 7.1-10.9.8-1.4.9-4.4.1-5.1-4.1-3.1-3-11.2-10.5-10.7-1.7 0-3.3.4-4.9 1-7.3 3.3-8 1.4-10.2-5.8-1.3-4.1-2.4-8.3-3.1-12.6-.2-1.4 1.4-3 2.2-4.5.1-.2.6-.2.9-.4 12.5-5.2 10.8-3.7 9.8-18.4-.1-1.3-1.9-3-3.3-3.7-2.6-1-5.3-1.9-8.1-2.5-6.5-1.9-8.7-4.6-7.6-11.1.9-5.4 2.3-10.7 4.2-15.9 1.3-3.6 4.2-5.6 8.4-3.9.6.2 1.3.4 1.9.6 12 3.8 17.1 1.3 21.4-10.6.4-1.1-.3-2.9-1-4-2.3-3.7-4.7-7.3-7.2-10.8-2.2-3.1-1.9-6 .9-8.4 4.5-3.9 8.9-8.1 13.9-11.4 1.7-1.1 5.6-.5 7.4.8 3.5 2.5 6.2 6 9.1 9.2 2 2.2 3.9 2.5 6.6 1.2 2.9-1.4 5.8-2.5 8.8-3.4 7.8-2.5 7.8-2.4 8.2-10.8.1-2 .3-4 .5-6 .5-4.5 3-6.8 7.7-6.7 4.8.1 9.6 0 14.5 0 3.9.1 6.3 2.1 6.8 6 .5 3.6.8 7.3.9 10.9 0 3 1.1 4.5 4 5.3 4.6 1.4 9 3.5 13.6 4.8 2 .4 4-.1 5.6-1.3 3.3-2.8 6.1-6.2 9.1-9.3 2.7-2.8 5.6-2.8 8.5-.5 4.3 3.4 8.5 7 12.6 10.6 3.1 2.7 3.8 5.6 1.2 9.1-2.5 3.4-4.5 7-7 10.4-1.7 2.3-1.7 4.1.2 6.2 1.3 1.5 2.4 3.2 3.4 4.9 4 6.1 5.1 6.6 12.2 4.9 1.6-.4 3.2-.8 4.8-1.3 6.5-2.1 8.9-.8 10.8 6.1 1.4 5.3 2.7 10.5 4 15.6zm-98.7 68.4c27.3.6 50.2-22 50.6-50.3.3-27.4-21.7-49.9-49.1-50.2h-.7c-29.1-.3-50.2 22.7-50.7 49.3-.5 27.7 21.9 50.6 49.9 51.2zm63.6-240.7c-6.2 5.9-11.8 11.4-17.6 16.5-17.5 15.3-17.3 34.2-8.9 53.7 2 4.7 4.5 9.3 6.5 14 .5 1.2.4 2.7.7 4.5-29.1-6.1-59.2-6.1-88.3 0 .1-1.6-.1-3.3.5-4.5 2-4.7 4.5-9.3 6.5-14 8.4-19.4 8.7-38.3-8.9-53.7-5.9-5.1-11.4-10.6-17.5-16.4 3.9-2.9 7.7-5.8 11.6-8.6 10.3-7.4 17.1-17.4 22.1-29 8.8-20.4 12.6-41.9 15.2-63.8 2.8-23.8 6.5-47.5 10-71.2.5-3.7 2.1-7.3 3.3-10.9.2-.5.7-1 2.3-2.9 2.2 9.1 4.8 16.8 5.9 24.6 3 21.4 5.2 42.9 7.9 64.4 3.1 24.4 8.3 48.2 20 70.2 5 9.4 13.3 15.6 21.5 21.9 2.1 1.8 4.5 3.4 7.2 5.2zM400.6 526.5C410 516 419.1 506 428 495.7c2.3-2.6 4.1-5.7 5.2-9 1.2-4.2 3.7-4.6 7.4-4.6 13 .2 26 .1 39 0 2.7 0 4 .8 5.1 3.4 4.9 11.5 13.2 20.6 22.2 29.2 3.8 3.7 7.7 7.2 11.5 10.8-8.3 10.1-16.4 20.5-25.1 30.3-6 6.7-6 14.8-7.1 22.6-.9 5.7-.4 11.6-1.5 17.2-2.6 14.3-5.3 28.7-8.7 42.9-4.2 18-9.1 35.8-13.9 53.6-.5 1.8-2.1 3.3-3.1 5-1-1.6-2.4-3.1-2.8-4.8-1.8-6.9-3.1-14-5-20.9-3-11.4-6.6-22.7-9.2-34.2-2.8-11.8-5-23.8-7-35.7-1.6-10.2-2.7-20.5-3.7-30.7-.7-6.9-3.9-12.6-8.1-17.7-5.8-7-11.9-13.7-17.9-20.5-1.8-2.1-3.5-4.6-4.7-6.1zM22.3 100.3l324 60.3c-12.5 5-23.4 9.3-34.3 13.6-2.9 1.2-6.1 2-8.7 3.7-8.7 5.7-17.9 5.4-27.8 4-47.7-6.8-95.4-13.1-143.1-19.6-14-1.9-28.1-3.4-42.1-5.4-2.9-.5-5.7-1.7-8-3.5-14.4-11.6-28.6-23.4-42.8-35.2-5.3-4.4-10.7-8.9-16-13.4-.7-.8-1.4-1.6-2-2.5l.8-2zm552.2 60.3c107.6-20.2 215.2-40.6 322.9-60 .2.5.4 1.1.6 1.6-.4.8-.9 1.6-1.5 2.2-20 16.6-39.9 33.2-60 49.6-2.2 1.7-4.9 2.7-7.7 3-46.7 6.3-93.4 12.6-140.1 18.8-18 2.4-36 5.1-54 7.1-3.7.4-7.9-.6-11.5-1.9-15.7-5.9-31.3-12.2-46.9-18.4-.6-.2-1.2-.6-1.7-.8 0-.4-.1-.8-.1-1.2zm-470.3 10.5 168.7 19.2.3 1.2c-10.5 4.8-21 9.6-31.6 14.3-1.1.5-2.6.1-4 0-26.9-2.2-53.8-4.8-80.7-6.5-8.8-.6-15.2-5.4-22.3-9.2-9.7-5.2-19-11-28.5-16.5-.8-.5-1.5-1-2.2-1.6l.3-.9zm542.4 19.2 168.6-19.2c.2.3.3.6.5 1-3.5 2.2-7 4.4-10.6 6.5-10.1 5.9-20.1 11.8-30.3 17.3-3.1 1.6-6.4 2.6-9.9 2.9-27.7 2.5-55.4 4.8-83.2 7-1.6.3-3.3.1-4.9-.4-10.2-4.6-20.2-9.3-30.3-14l.1-1.1zm-472.2 21.3 49.9 3.5.6 1.2c-4.1 2.9-8.3 5.5-12.2 8.7-5.5 4.6-10.3 5.2-16.5.8-6.9-5-14.8-8.7-22.2-13l.4-1.2zm520.7 3.6 50.1-3.5.3 1.1c-7.2 4.2-14.8 7.9-21.6 12.8s-12 4.3-17.8-.9c-3.5-3-7.5-5.4-11.2-8.1l.2-1.4z" fill="#FFFFFF"></path></g></g></svg>