<svg xmlns:xlink="http://www.w3.org/1999/xlink" xmlns="http://www.w3.org/2000/svg" viewBox="0 0 967.2 1099.2" focusable="false" aria-hidden="true" class="classes-experience-1i91nb7" width="967.2"  height="1099.2" ><g fill="#FFFFFF"><g fill="#FFFFFF"><path d="M286.1 496.8c-7.1-5.7-13.2-11.8-20.4-16s-15.5-6.6-23.9-10.1c4-7 7.8-13.8 11.8-20.4 10-16.5 20.2-32.9 30-49.6 2.9-4.4 3.2-10 .8-14.6-7.9-16.9-15.2-34-22.5-51.1-2.4-5.6-4.2-11.6-6.5-17.3-15.2-37.7-30.4-75.3-45.7-113l-1-3c2 .9 3.9 1.9 5.8 3 24.7 17.3 49.3 34.7 74.2 51.8 6.8 4.6 14 8.8 21.4 12.5 4.5 2.5 10 1.5 13.4-2.2 8-8.2 16-16.5 23.3-25.3 19.8-24 36.2-50.3 52.2-76.8 10.1-16.6 19.2-33.9 28.5-51 15.4-28.6 30.9-57.1 45.8-85.9 4-7.8 6.4-16.4 9.5-24.7.3-.7.6-1.4 1.3-3.1.8 2.5 1.5 4.3 2 6 5.7 18.8 15.5 35.7 24.7 52.8 15.1 28.2 29.6 56.7 45.4 84.4 13.8 24.1 28.4 47.9 43.8 71 10.4 15.6 22.4 30.2 34.8 44.4 12.7 14.7 17.8 17.6 37.5 4.3 24.2-16.5 47.8-34 71.7-51 4.5-3.2 9.4-5.9 14.1-8.8l1 .9c-1.5 3.4-3.2 6.8-4.6 10.2-11.5 28.8-22.7 57.6-34.3 86.3-9.1 22.5-18.7 44.8-28.1 67.2-3.1 7.4-6.2 14.7-9.4 22-2.2 4.8.1 9 2.3 12.7 9.8 16.6 20 33 30 49.5 3.5 5.8 6.7 11.8 10.2 18-16.3 6.2-32.7 11.6-46.6 22.4-5-7.6-9.8-15.1-14.8-22.5-7.9-11.5-15.8-23-24.1-34.3-7-9.5-15.8-16.8-28.7-12.9-4.7 1.6-9 4.1-12.7 7.5-16.3 14-30 30.6-39.6 49.7s-15.3 39.5-14.7 61.1c.3 11 .5 22 2.3 32.8 2.8 16.7 8.5 32.5 20 45.6 5.6 6.4 11.4 12.6 17.2 18.8 1.2 1.3 2.9 2.7 4.5 2.9 13 1.8 25.7 1.3 36.2-8 5.1-4.5 10-9.3 15-13.9 1.4-1.3 2.9-2.6 4.9-4.3 4.1 14.3 12.3 27.1 23.5 36.8-6.7 7-13.3 13.9-20 20.8-22 22.3-44 44.5-66 66.8-10.2 10.4-19.9 21.5-30.5 31.5-7.4 6.9-16.4 11.7-26.2 14 1.1-1.9 2.2-3.8 3.2-5.8 6.2-12.5 13-24.8 18.2-37.8 2.4-6.2 1.8-13.6 2.2-20.5.3-5 .3-10-.1-14.9-.2-2.4-.6-5.5-2.2-7.1-9.9-10.4-20.1-20.4-30.1-30.6-8.3-8.4-16.4-17-24.5-25.6-6.6-6.9-9.1-6.8-15.8 0-15.7 16.1-31.5 32-47.3 48-1.8 1.8-3.4 3.7-5.2 5.4-3 2.8-4 5.9-3.4 10.3.6 5 .5 10-.3 14.9-1.7 12.5 3.6 23.1 8.9 33.7 4.8 9.6 9.7 19.2 14.1 30-4-1.9-8.2-3.5-12.1-5.7-6.4-3.6-12.9-7.1-18.6-11.6-4.8-3.7-8.6-8.8-13-13.1-14.1-13.6-28.8-26.8-42.5-40.9-18.1-18.6-35.5-38-53.1-57-1.2-1.3-2.3-2.8-3.4-4 11.9-10.8 19.3-23.8 23.6-39.6 3.9 3.8 7.6 7.1 11.1 10.6 6.3 6.5 13 13 21.8 15.3 7.2 1.9 15.1 1.9 22.7 1.3 3.2-.2 6.7-3.6 9.1-6.3 7.6-8.6 15.8-17 21.6-26.7 5.4-9 9.2-18.9 11.3-29.2 5.2-26.1 4.8-52.1-3.1-78-4.5-14.8-11.8-27.8-20.5-40.3-9.1-13.2-20.2-24.9-32.9-34.7-8.6-6.6-22.4-5.6-29.2 2.8-10.7 13.3-20.9 27.1-30.9 41-5.8 8.1-10.8 16.8-16.1 25.2-.8 1.2-1.6 2-2.3 3zm197.7-283.2c-2 3.3-3.5 5.7-4.9 8.1-23.7 44-47.3 88-70.9 132-2.3 4.4-2 8.8 1 13.2 9.4 14 19 27.8 27.7 42.2 14.9 24.7 29.2 49.7 43.7 74.6 3 5.2 4.8 5.3 7.5.6 11.7-20.1 23.2-40.5 35.3-60.4 11.2-18.5 23-36.7 35-54.7 3.7-5.6 4.2-10.5.9-16.2-4.9-8.3-9.8-16.7-14.3-25.2C527.3 295 510 262 492.5 229c-2.6-5-5.5-9.8-8.7-15.4z" fill="#FFFFFF"></path><path d="M182.4 689.3c1.6-.3 3.1-.6 4.7-.8 19.8-.8 38-14.1 45.1-32.6 5.6-14.6 9.6-29.5 8.6-45.3-.2-3.1.8-4.6 3.9-5.7 13.6-4.5 20.9-16.9 17.1-30.6-5-18-15.4-32.5-31.7-42-12.3-7.2-24.4-6.5-35.9 2.3-.5.4-1.1.7-2.4 1.5-1.9-3.5-4.1-6.6-5.2-10.1-1.1-3.2 0-6.8 2.6-8.9 11.2-9.9 24.5-12.5 39-12.2 12.9.2 24.9 3.1 35.2 10.9 13.6 10.3 26.4 21.8 34.2 37.2 8.7 17.3 10.4 35.5 3.8 54.2-5.1 15.1-16 27.7-30.2 35-2.8 1.5-3.4 6.5-.5 10.6 5.7 8.1 11.3 16.5 18.2 23.6 28 29.2 56.7 57.8 84.8 86.9 9.6 9.9 18.3 20.8 27.9 30.8 13 13.5 26.6 26.6 39.8 40 11.8 12 23.4 24.2 35 36.3 1.5 1.5 2.9 3.1 5.6 5.9 4.9-5.6 9.4-11 14.2-15.9 13.9-14.1 28.1-28 41.9-42.2 16-16.4 31.8-33.2 47.8-49.7 18-18.5 36.1-37 54.2-55.4 15.1-15.3 30.6-30.2 45.1-46.1 5.3-5.8 8.2-13.8 11.7-21 1.2-2.5-.8-4-3.2-5.7-5.4-3.8-10.8-7.9-14.9-12.9-5-6-9.2-12.7-12.5-19.7-11.3-24.3-5.6-53.9 13.4-73 5.4-5.4 10.8-10.9 16.6-15.8 10.5-9 22.2-15.4 36.6-15 6.8.2 13.6.2 20.3.8 9.2.8 16.7 5.2 23.7 10.9 4 3.3 4.5 7.1 2.4 11.5-1.3 2.6-2.8 5.1-4.4 7.9-.8-.3-1.5-.7-2.2-1.2-12.9-11.6-28.5-8.9-40.5-.6-13.4 9.3-22.5 22.2-27.5 37.7-4.7 14.6 2.7 28.7 17.4 33.2 4.4 1.3 5.3 3.6 5.2 7.5-.5 14.7 2.3 29.4 8.3 42.8 6.9 15.6 18 27.2 34.8 32.1 3.1.9 6.6.2 9.9.7 1.9.3 5.1 1.4 5.2 2.3 0 2.2-.8 4.4-2.3 6-5.3 5.7-11.1 11-16.5 16.5-30.3 30.8-60.6 61.7-90.9 92.6-17.5 17.8-35.1 35.4-52.8 53-25.9 25.5-51.9 50.8-77.8 76.3-1.1 1-2 2.2-3.4 3.7 6.1 6.3 12.2 12.4 18.1 18.6 22 23 44 46 65.9 69 5.5 5.8 10.8 11.9 15.7 18.1 1.1 1.9 1.3 4.3.4 6.3-2.6 4.8-5.4 9.8-9.2 13.5-8.5 8.4-17.7 16.1-26.7 24-3.5 3.1-7.3 5.8-10.9 8.8-5 4.2-8.8 4.1-13.5-.6-15.8-15.7-31.6-31.4-47.4-47.2-15.9-15.9-31.9-31.7-47.8-47.6-4.3-4.3-4.9-4.1-9.3.1-21.3 20.9-42.6 41.7-64 62.6-9.1 9-18.1 18.1-27.3 27-5.2 5-8.5 4.8-13.9.2-11.6-10-23.3-19.8-34.5-30.3-4.3-4-7.5-9.3-10.9-14.2-2.6-3.8-2.3-7.2 1.3-11 17.6-18.4 34.7-37.3 52.2-55.8 12.6-13.3 25.7-26.1 38.5-39.2 1-1 1.9-2.2 3-3.5-9.5-9.5-18.7-18.9-28-28.2-24.3-24.2-48.8-48.3-73-72.6-25.8-25.9-51.5-51.7-76.9-77.9-9.4-9.7-17.8-20.3-26.8-30.3-10.2-11.4-20.5-22.8-30.7-34.1-1-.9-2-2.1-3.7-4zm449 105.8c-5.9-9.3-7.5-9.6-14.1-3.3l-1.8 1.8-130 131.5c-1.3 1.3-2 3.1-3.2 4.9-2.3-2.1-3.4-3-4.5-4.1l-42.5-43.7c-29.3-30.2-58.7-60.5-88-90.8-3-3.1-5.7-3.8-8.7-.1-.9 1.2-1.9 2.2-3.3 3.8 46.2 47.2 92.2 94.3 139.1 142.3-1.8 1.2-3.6 2.6-5.3 4-25.8 25.8-51.4 51.8-77.2 77.6-2.9 2.9-2.7 4.7.1 7.3 2.6 2.3 4.2 4.1 7.6.6 24.9-25.5 50.1-50.8 75.1-76.2 2-2 3.5-4.5 5.9-7.7 3.6 4 5.9 6.8 8.4 9.4l76.2 78.6c3.3 3.5 5.9 2.6 8.9-.1 3.3-2.9 1-4.9-1-7-16.3-16.7-32.5-33.4-48.8-50.2-11.8-12.2-23.7-24.2-36.3-37.1l143.4-141.5z" fill="#FFFFFF"></path><path d="M853.9 630.1c4.6 2.3 9.1 3.9 12.9 6.6 9.5 6.6 13.8 16.1 13.7 27.7-.4 17.8-12.3 33.3-29.3 38.2-4.2 1.2-8.5 2.3-14.2 3.8 1.2-3 1.6-4.6 2.4-5.9 4.6-6.8 6.6-15 5.6-23.2-.8-8.1-6.4-14.6-14.5-14-5.8.4-11.4 1.9-16.6 4.5-9.7 5.2-19.3 5.2-29.4 2-1.3-.5-2.5-1-3.7-1.6-24.7-11.8-35.6-32.5-31.4-59.7.9-5.9 2.2-11.8 3.4-17.6.1-.7.4-1.3.7-1.8 7-9.5 14.1-19 21-28.5 5.4-7.6 11.6-14.8 15.6-23.1 11.4-23.4 21.5-47.4 26.5-73 4.6-23.2 4.7-46.4-5.5-68.5-6.1-13.3-16-22.3-30.3-26.2-8-2.2-16.2-3.6-24.2-6-3.7-1.1-7.6-3.1-10-5.9-10.7-12.1-16.5-27.9-16-44 .1-5.1 2-10.5 4.1-15.3 10.2-22.6 27.7-35.4 52.6-36.7 11.9-.8 23.9-.5 35.8.9 12.1 1.5 22.3 8 31.3 16.5 11.9 11.2 21.5 23.7 28.6 38.6 6.8 14.2 15.7 27.4 23.4 41.2 5.9 10.6 12.2 21.1 16.8 32.3 3.7 8.9 6 18.3 6.9 27.9 2.4 28.6-3.1 56.4-11.9 83.5-6.4 19.6-12.2 39.6-20.7 58.3-6.8 15-17.1 28.4-26.1 42.5-5.4 8.7-11.5 17.6-17.5 26.5zm-55.8-43c-18.7-.9-30.1 18.2-29.8 31.8.5 19.7 12.7 27.6 30.7 28.9 13.9 1 28.5-16.6 28-31.8-.5-18.1-10.1-27.4-28.9-28.9zM130.2 705c-8.3-2.3-17.1-3.2-24.2-9-13.3-10.7-19.8-24-16.5-41.6 1.9-9.9 11.7-20.8 21.7-22.8 1.3-.4 2.6-.8 3.9-1.4-8-12-15.5-23.7-23.5-35.2-12.5-17.8-23.4-36.4-29.7-57.4-6-19.9-12.4-39.8-17.8-59.8-5.2-19.2-6.7-39.1-5.4-59 .9-13.7 5.8-26.1 12.5-38.1 14.1-25.3 27.3-51.1 41.5-76.3 8.5-15.2 19.9-27.8 36.5-34.9 9.6-4.1 19.6-5.1 29.8-5.4 8-.2 16.1-.6 24 .4 15.6 2 28.9 9 38.8 21.3 3.3 4.1 5.8 8.9 8.4 13.6 7.1 12.6 6 25.5 0 37.9-5.5 11.6-11.4 23.2-23.5 29.6-2.1 1.3-4.4 2-6.9 2.3-28.1 1-44 19.2-49.5 44.4-5.9 27.2-1.1 53.4 8 78.9 5.3 14.9 11 29.7 18.1 43.8 5.4 10.8 13 20.4 19.9 30.4 5.3 7.7 11.4 14.8 16.2 22.8 2.3 3.8 3 8.8 3.9 13.3 3.6 18 2 35-8.9 50.6-9.1 13-32.7 21.8-47.7 16.7-4.8-1.7-9.2-4.5-14-6.4-5.8-2.3-11.7-2.2-16.5 2-2.6 2.2-4.4 5.2-5.2 8.5-1.8 8.4-.1 17.2 4.7 24.3.9 1.7 1.7 3.4 2.3 5.2l-.9 1.3zm69-85.4c0-15.1-10.5-28.9-24.1-31.6-10.2-2-20.1.5-26.6 7.9-11.1 12.6-9.5 30.4 2.6 42.5 3.6 3.7 8.3 7.8 13.1 8.6 16.7 2.8 35-6.3 35-27.4zm489.5 209.9c8 4.7 15.6 9.5 23.5 13.5 3.2 1.6 7.3 1.7 11 2 3.1.3 6.4-.3 9.5.1 14.8 1.8 23.1-6.7 28.7-18.5 4.8-10.1 8.1-20.7 7.3-32.3-.9-13.9-1.4-27.9-1.9-41.9-.1-1.7.3-3.8 1.3-4.9 12.9-13.5 26-26.8 39-40.1.5-.4 1.1-.7 1.7-1 .8 1.5 1.5 2.9 2.3 4.3 9.6 17.9 19.1 35.7 28.6 53.6 2 3.8 4.2 7.5 6.2 11.4 2.4 4.9 6.4 6.7 11.5 5.8 17-2.8 34-5.4 50.9-8.8 17.6-3.5 35-7.9 52.5-11.9 1.9-.3 3.8-.5 5.7-.6.2.4.5.8.7 1.2-3 3.4-6 6.9-9.1 10.2-13.8 15.1-27.2 30.6-41.7 45-17.8 17.7-29.2 39-38.5 61.8-1.4 3.5-1.5 7.4-2.4 12-1.4-1.1-2.5-1.9-3.5-2.8-6.2-5.3-12.3-10.6-18.5-15.9-6.4-5.6-14.3-6.8-22.4-7.1-5.5-.3-11-.1-16.5.3-11 .9-21.6 5-30.2 11.9-9.3 7.4-19 14.5-28.7 21.5-6.1 4.5-8.1 11.1-8.8 17.8-.8 6.5-1 13.4.3 19.8 3.8 18.9 8.2 37.8 12.9 56.5 2.3 9 6 17.7 8.9 26.5.4 1.7.7 3.3.8 5l-1.4.9c-2.9-2.7-6.1-5.2-8.7-8.2-6-6.8-11.6-14.1-17.7-20.9-8.1-9.1-16.3-18-24.7-26.7-1.9-2-4.8-3-7.3-4.3-12.9-6.7-26.1-10.7-41.1-10-12.2.5-24.3.4-36 4-8.6 2.6-17 5.3-25.5 8.2-3.1 1.1-4.8.2-6.8-2.2-6-7.1-12.3-13.9-18.6-20.7-2.6-2.9-1.9-5 .7-7.6 9.6-9.7 19.2-19.5 28.6-29.4 8.1-8.6 15.7-17.6 23.9-26.1s17.1-16.7 25.7-25c9.6-9.1 18.9-18 27.8-26.4zm-491 192.9c.9-3.6 1.5-7.4 2.9-10.9 10.4-25.3 14.4-52.2 20.5-78.6 2.2-9.9.9-20.2-3.5-29.3-1.8-3.9-5.4-7.2-9-9.8-11.8-8.7-23.8-17.1-36.1-25-3.8-2.4-8.7-3.6-13.3-4-8.9-1-17.9-1.3-26.9-1.2-10.5.3-18.9 6.1-26.2 13-4.3 4.1-7.9 9-12 13.6-1.6-1.7-2.2-2-2.2-2.4-4.7-24-16.2-44.7-31.9-62.9-18-20.8-37.2-40.7-55.9-61-1.1-1.1-2.1-2.4-4.1-4.8 3 .2 4.9.1 6.7.5 20.3 4.5 40.4 9.5 60.8 13.7 14.4 3 29.1 4.9 43.7 7.1 4.9.7 8.5-1.3 11-5.9 12.3-23.5 24.8-47 37.2-70.5.1-.3.5-.4.9-.8.4.1.9.2 1.2.4 12.2 12.8 24.3 25.6 36.6 38.3 2.9 3 3.5 6 3.3 10.2-.8 18.1-2.1 36.3-.8 54.3.9 12.3 5.9 24.5 16.6 32.5 3.6 2.5 7.7 4.2 12.1 4.7 5.9.8 12 .4 18 .3 8-.1 14.6-4.2 21-8.3 3.3-2.3 6.4-4.8 9.5-7.5 37.5 35.7 74.8 71.3 112 106.8-10.2 10.8-18.1 19.4-26.4 27.6-2 1.6-4.6 2.3-7.2 1.9-5.3-1.1-10.3-3.7-15.6-4.9-10.1-2.3-20.4-4.9-30.7-5.9-9.3-1-18.6-.7-27.9.8-12.9 2.4-25 7.6-35.2 16.5-11 9.5-19 21.4-27.8 32.6-5.1 6.5-11.3 12.1-17.1 18.1-.7.7-2 1-2.9 1.5l-1.3-.7z" fill="#FFFFFF"></path></g></g></svg>