<svg xmlns:xlink="http://www.w3.org/1999/xlink" xmlns="http://www.w3.org/2000/svg" viewBox="0 0 836.7 733.8" focusable="false" aria-hidden="true" class="classes-experience-1i91nb7" width="836.7"  height="733.8" ><g fill="#FFFFFF"><g fill="#FFFFFF"><path d="M377.8 733.8c-2.1-11.6-4.2-23.2-6.1-34.9-1.2-7.2-1.9-14.5-2.8-21.8-.3-3-1.8-4.3-4.8-4.5-4.3-.3-8.5-1-13.5-1.7v25c-6.9 0-13.2.2-19.5-.2-1.3-.1-2.9-1.8-3.6-3.2-15-28.1-29.5-56.4-44.9-84.2-6.6-11.9-14.8-23-22.2-34.4-.9-1.3-1.7-2.7-3-4.8h33.3c0-5.5.2-10.6-.2-15.7-.1-1.2-2.2-2.7-3.7-3.2-23-8-41.6-22.9-60.1-37.9-.4-.4-.7-.9-.9-1.4.4-.9.9-1.7 1.5-2.5 5.1-7.1 6-8.5.4-14.9-7.9-8.9-17.2-16.5-26.4-25.1L182.8 484c-9.7-8.7-17.8-19-24.1-30.5-.5-.9.5-3.4 1.5-4.2 3.8-3.2 8-6 12-9 3-2.3 4.3-4.6 1.2-8.3-2.7-3.2-4.5-7.3-6.9-11.4-6.1 3.4-11.9 6.2-17.4 9.6-3.3 2-5 1.5-6.6-1.8-3.3-6.9-6.9-13.6-10.1-20.6-.5-1.1.5-3.9 1.6-4.5 4.5-2.5 9.2-4.7 14-6.6 4.4-1.7 5.9-4.5 4.6-9-1-3.3-2-6.6-3.2-10.8-6 2.1-11.6 3.9-17.1 6.1-3.5 1.4-5.4 1.2-6.6-2.9-1.8-6.4-4-12.7-6.5-18.8-1.4-3.7.5-5.3 3.2-6.6 1.5-.6 3.1-1.2 4.7-1.6 14.3-4.6 28.5-9.2 42.8-13.6 5.7-1.8 7-.9 8.1 5.1 3.4 19.1 8.4 37.6 17 55.1 15.9 32.2 38 58.8 69 77.7 22.3 13.7 46.7 21.1 72.8 24.8-.6 24.4-1.2 49-1.8 74h166.3c-.6-24.5-1.2-49.2-1.8-73.2 11.8-2.9 23.4-5.4 34.8-8.6 19.8-5.7 37.8-15.3 54.1-28 26.2-20.4 44.9-46.4 57.2-76.8 5.8-14.2 8.5-29.6 12.4-44.5 1.7-6.5 2.4-7.4 8.8-5.4 15.3 4.7 30.5 9.6 45.7 14.6 4 1.3 6.1 3.5 4.2 8.2-2.5 6.3-4.5 12.8-6.7 19.3-.9 2.5-2.4 2.7-4.7 1.9-5.9-2.2-11.8-4.3-18.6-6.7-1.3 4.9-2.5 9.1-3.5 13.5-.7 3.2 1.5 4.8 4.1 5.9 4.8 2.2 9.6 4.5 14.4 6.7 2.5 1.2 3.4 2.5 1.8 5.4-3.5 6.4-6.7 13-9.7 19.6-1.8 4-3.8 4-7.3 1.8-4.3-2.8-9.1-4.9-13.5-7.6-2.7-1.6-4.1-1.1-5.5 1.6-1.3 2.9-2.9 5.6-4.9 8.1-3.2 3.6-1.7 6 1.3 8.3 4 3 8 6 12.1 8.9 2.2 1.5 2.6 3.1 1 5.4-7.4 10-14.7 20-22.4 30.4l-20.1-16.5c-.7.1-1.1 0-1.3.2-8.4 8.5-17.4 16.5-25.1 25.6-5.2 6.1-4.4 7.6.4 14 .7.9 1.2 1.9 2.5 4-12.3 8.7-24.2 17.8-36.8 25.9-7.8 5-16.6 8.4-25.1 12.2-2.7 1.2-4 2.3-3.8 5.4.3 4.4.1 8.9.1 13.5h32.8c-.3 1.1-.8 2.3-1.3 3.3-5.5 8.5-11.5 16.8-16.4 25.6-15.5 27.5-30.7 55.3-46 83-1.3 2.3-2.9 4.6-3.5 7.2-1.9 7.4-6.8 8.7-13.4 7.9-3.7-.4-7.6-.1-11.8-.1V671c-5.6.7-10.6 1.1-15.6 2.1-1.2.2-2.5 2.5-2.8 4-1.2 7.4-1.8 14.9-3 22.3-1.8 11.5-4 22.9-6 34.4h-28v-69.2h-25v69.2h-27.6z" fill="#FFFFFF"></path><path d="M349.6 64H487v5.7c0 46.7 0 93.3-.1 140 0 3.8 1 5.9 4.4 7.8 24.8 14 45.1 33 59.5 57.5 6.3 10.6 10.7 22.4 15.4 33.9 1.5 3.6 3 5.2 6.8 4.6 7.9-1.1 15.8-2.1 23.8-3.2 2.3-.3 4.1-.8 5.2 2.1 6.2 17.3 7.3 34.7 2.5 52.5-1.1 4.1-3.4 5-7.4 4.3-6.6-1.1-13.2-1.6-19.8-2.5-2.8-.4-3.9.6-4.4 3.3-1.8 9.5-3.8 18.9-5.4 28.4-.1 1.7.7 3.3 2 4.3 4.8 2.9 9.9 5.5 15 7.9 5.9 2.9 6.8 3.7 3.9 9.4-7 13.6-14.5 26.9-21.9 40.3-1.8 3.3-4.3 4.1-7.7 1.4-5.3-4.2-11-8.1-16.8-12.3-2.8 3.3-5.5 6.5-8.2 9.6-11.7 12.8-25.4 23.6-40.5 32.1-8.2 4.5-16.1 9.2-25.3 11.4-3.4.8-4 2.7-3.3 5.9 2.8 12.5 5.4 25.1 8.1 37.6.3 1.6.6 3.2 1 5.4H362.7c2-9.1 3.9-18 5.9-26.9 1.2-5.5 2.3-11.1 3.5-16.6.6-2.8-.1-4.3-3-5.2-29.6-9.5-53.3-27.4-72.7-51.3-.5-.7-.9-1.4-1.3-2.1-6 4.4-11.5 8.2-16.8 12.4-3.4 2.7-6.1 2.5-8.2-1.2-7.5-13.5-14.8-27.2-22.1-40.8-2.5-4.6-.2-6.9 3.9-8.8 5.3-2.4 10.4-5.2 15.4-8.2 1.2-.7 2-3.3 1.8-4.8-1.5-9-3.5-18-5-27-.5-3.3-1.6-4.6-5.1-4.1-6.4 1-12.9 1.4-19.3 2.5-4 .7-6.3-.4-7.4-4.5-4.6-17.4-3.7-35.7 2.6-52.5 1.1-3 3-2.3 5.2-2 7.9 1.1 15.8 2.1 23.7 3.2 3.5.5 5.3-.7 6.5-4.3 10.2-31.8 28.4-58.1 55.2-78.2 6.6-5 13.4-9.6 20.5-13.8 3.1-1.9 3.9-3.8 3.9-7.1-.1-46.7-.1-93.3-.1-140l-.2-6.1zm-70.4 292.9c2.6 82.4 65.4 140.6 150.2 136.4 72.2-3.6 129-65.6 127.6-139-1.6-83.4-67.6-141.2-145.3-137.5-76.4 3.6-131.5 63.5-132.5 140.1z" fill="#FFFFFF"></path><path d="M513.2 170.2c-1.7-6.4 2-8.7 7.4-10.4 29.6-8.9 59.2-18 88.8-27.1 22.4-6.9 45-13.2 67.2-20.8 25.3-8.7 50.1-18.9 75.4-27.8 24-8.5 48.3-16.2 72.4-24.2 2.7-.9 5.3-2.2 8-2.9 1.3-.3 2.8.1 4.2.2-.1 1.4.2 3-.5 4.2-6.9 12.9-13.7 25.9-21 38.5-8.4 14.6-17.2 28.9-26.2 43.1-2.2 3-5.3 5.3-8.9 6.4-35.7 10.7-71.5 21-107.3 31.5-24.1 7-48.2 14.1-72.3 21.1-6.1 1.8-12.2 3.4-18.3 5.2-7.5 2.2-14.9 4.6-22.4 6.6-1.4.4-3.8-.1-4.6-1-10.9-13.1-24.2-23.3-37.9-33.1-3.6-2.5-5.5-5.1-4-9.5zm-189.6 1.1c1.4 3.6-.8 6-4.1 8.4-13.8 9.9-27.4 20.1-38.2 33.5-.7.9-3 1.1-4.3.7-16.5-4.8-32.9-9.7-49.3-14.5-14.9-4.3-29.8-8.5-44.6-12.8-41.9-12.2-83.8-24.5-125.7-36.7-5.3-1.6-8.9-4.6-11.8-9.7-9.5-16.4-19.8-32.4-29.4-48.8C10.5 81.8 5.6 71.7.6 61.8c-.7-1.3-.4-3.1-.6-4.6 1.6 0 3.3-.4 4.7.1C24.9 64.2 45 71.1 65.2 78.2c28 9.8 55.9 19.8 83.9 29.2 20.9 7.1 42 13.7 63.2 20.2 26.7 8.2 53.6 16.1 80.3 24.2 7.6 2.3 15.2 5.1 22.7 7.8 9.5 3.6 7.7 2 8.3 11.7zm-102.1 373c11.5 19.6 22.7 38.7 33.7 57.9.7 1.6 1 3.4.9 5.2-.4 18.8-.9 37.6-1.3 56.4.1 1.9.4 3.9.8 5.8l-1.2 1c-1-1.2-2.4-2.2-3-3.6-6.9-15.3-17.2-28-29.9-38.7-8-6.8-17.9-6.7-27.1-3.8-22.4 7-44.5 14.8-66.7 22.3-2.5.8-4.7 2.7-7.2 3.4-2.6.8-5.4 1-8.1.6-13-2.5-26-5.2-39-8-1.1-.2-2.6-1-2.9-1.8-.3-.7.7-2.4 1.6-2.9 9.9-5.8 19.7-11.7 29.8-17 15.3-8 30.9-15.5 46.4-23.2 14-7 28-14 42.1-20.8 3.8-1.8 4.4-4 3-7.5-.8-1.8-1.3-3.8-2-5.7-2.5-7.1-2.6-7.2 4.6-10.1 8.3-3.4 17-6.4 25.5-9.5zm359.6 125.5c.3-1.7.6-3.4.6-5.1-.3-18.8-.7-37.6-1.1-56.4 0-1.9-.4-4.2.5-5.7 11.1-19.3 22.4-38.6 33.9-58.4 9.6 3.7 19.4 7.6 29.3 11.4 2.6 1 2.9 2.7 2 5.2-1.3 3.3-2.3 6.6-3.5 9.9-1 2.8-.5 4.6 2.5 6 23.1 11.2 46.2 22.2 69.1 33.8 14 7.2 27.5 15.5 41.3 23.2 2.8 1.5 5.7 2.7 8.5 4.2 1 .5 1.6 1.8 2.3 2.7-1.1.8-2 2-3.2 2.3-12.8 2.7-25.6 5.5-38.5 7.8-3.2.6-6.4.2-9.4-1-24.5-11.2-50-19.3-76-26-15.9-4-26.8 4.3-35.7 15.5-7.1 8.9-15.3 17.2-18.8 28.6-.3 1.1-1.7 1.8-2.7 2.7l-1.1-.7zm185.7-491.9c-4.5 7.1-8.9 14.4-13.5 21.4s-9.3 13.8-14.2 20.6c-1.3 1.8-3.2 3.2-5.4 3.9-23.1 6.2-46.3 12.3-69.5 18.3-21.4 5.5-42.9 10.8-64.4 16.1-2.1.6-4.2.9-6.4 1.1-1.2 0-2.4-.5-3.3-1.4-6.2-9.2-12.3-18.5-19.1-28.8 64.1-20.2 129.1-37.9 194.9-53.1l.9 1.9zm-697.1-2.1c66.7 15.4 131.6 33.1 196.6 53.5-5.1 6.9-9.6 12.9-14 18.9-1.2 1.6-2.4 3.2-3.4 4.9-4.2 6.8-4.2 7.1-12.1 5.1-36.3-9.2-72.6-18.5-108.8-27.8-8.4-2.1-16.8-4.2-25.1-6.6-1.9-.5-3.6-1.6-4.8-3.1-9.4-13.8-18.5-27.7-27.6-41.7-.3-.3-.3-.9-.8-3.2zM336.4 52.7c4.5-4.7 8.2-8.5 11.7-12.4C359 28 369.9 15.6 381 3.4c1.7-1.8 4-3 6.5-3.3 20.5-.2 41-.2 61.5 0 2.2.1 4.4.9 6 2.5 13.7 15 27.3 30.1 40.8 45.2 1.2 1.3 2.3 2.8 4.1 5.1-3 .8-5.1 1.7-7.2 1.8-9.1.5-18.3 1.1-27.4 1.1-32 .1-64 .1-95.9 0-8.6 0-17.3-.6-25.9-1.1-2.1-.2-4-1.1-7.1-2zM235.5 275.1c-3.5 8-6.5 15.5-10.2 22.7-.7 1.4-4.2 2.3-6.3 2-13.2-1.7-26.4-4-39.5-5.8-14.7-2.1-29.4-4-44.1-5.9-3.1-.4-5.1-1.2-6.6-4.3-4.6-9.6-9.5-19-14.2-28.6-.7-1.4-.6-3.1-.9-4.6 1.4-.2 2.8-.9 4.1-.6 31.3 6.3 62.7 12.7 93.9 19.2 8.1 1.6 15.9 3.9 23.8 5.9zm365.2-.1c11.6-2.8 22.7-5.7 33.9-8.1 27.4-5.7 54.8-11.1 82.3-16.6 1.9-.4 4 .2 6 .4-.3 1.9-.8 3.7-1.5 5.5-4.4 9.1-8.9 18.3-13.7 27.2-1.1 2-3.6 4.1-5.7 4.4-25 3.6-50.2 7-75.2 10.4-4.6.6-10.1 3-13.5 1.2s-4.5-7.6-6.5-11.8c-2.1-3.8-3.8-7.7-6.1-12.6zm-82.3 126.5c-5.1-.9-10.2-1.6-15.1-2.9-2.6-.6-3.9-.1-5.2 2.1-1.9 3.5-4.1 6.8-6.6 10-1.8 2.3-1.6 3.9 0 6.1 2.9 4 5.4 8.4 8.3 12.5 2.7 3.8 2.2 7.2-1.1 10.1-4.9 4.3-9.9 8.4-15 12.4-3.4 2.7-6.8 2.4-9.9-.8-3.3-3.3-6.5-6.7-9.6-10.1-2.4-2.6-4.7-3-8-1.6-4.7 2.1-9.6 3.8-14.6 5.1-3.6.9-4.9 2.6-4.9 6.2-.1 4.2-.4 8.3-1 12.4-.6 4.6-3.4 7.4-7.9 7.6-6.3.3-12.6.3-18.9 0-4.8-.2-7.7-3-8.2-7.9-.5-4.3-.9-8.6-1-12.9 0-3-1.3-4.4-4.1-5.3-5.2-1.6-10.5-3.3-15.5-5.4-3.1-1.3-5.3-.8-7.5 1.6-3.1 3.5-6.4 6.8-9.7 10.1s-6.7 3.5-10.2.6c-4.7-3.8-9.4-7.5-13.9-11.4s-4.7-6.4-1.6-11.3c2.7-4.2 5.7-8.2 8-12.6.8-1.4.5-3.9-.2-5.5-1.1-2.4-3.5-4.2-4.4-6.6-2.2-6-6.1-6.6-11.6-4.9-3.6 1.1-7.5 1.3-11.3 1.7-4.9.6-7.4-2-8.6-6.4-1.4-5.3-2.9-10.6-4.3-15.9s0-8.5 5.2-10.7c4.2-1.7 8.3-3.7 12.6-4.8 6.5-1.7 3.5-6.8 4.2-10.6.7-3.4-1.7-4.2-4.2-5.1-4.2-1.5-8.4-3.2-12.5-5-5.4-2.3-6.8-5.4-5.2-11.1 1.5-5.3 2.8-10.6 4.3-15.9 1.6-5.6 5.4-7.6 10.9-5.8 2.7.9 5.4 1.6 8.2 2.2 6.5 1.5 7.7-.1 12-4.8 7.2-7.8 5.6-13.9-.3-21.6-7.4-9.6-6.6-10.9 2.8-18.5 3.2-2.6 6.4-5.3 9.7-7.9 3.9-3.1 7-3 10.6.5s6.8 7.4 10.5 10.7c1.6 1.3 3.6 1.8 5.6 1.4 5.7-1.7 11.2-4.2 16.9-6 2.7-.9 3.7-2.2 3.8-5 .2-4.6.5-9.3 1.2-13.9.6-4.2 3.3-6.3 7.7-6.3h19.5c4.4 0 7 2.1 7.6 6.3.6 4.6.6 9.3 1.4 13.9.4 1.9 1.6 3.6 3.2 4.6 5.6 2.5 11.4 4.7 17.3 6.4 2 .4 4.1-.1 5.7-1.4 3.7-3.3 7-7.1 10.4-10.8 3.2-3.4 6.7-3.6 10.2-.8 5 3.9 9.8 8.1 14.6 12.2 3.6 3.1 4.2 6.4 1.2 10.5s-5.1 8.2-8 12c-2 2.7-1.9 4.5.3 6.9 2.1 2.2 3.8 4.7 5 7.5 2 4.8 5.8 5 9.9 4.4 3.4-.6 6.8-1.5 10.1-2.6 5-1.5 8.6 0 10.1 4.9 2 6.4 3.7 12.8 5.2 19.2 1.1 4.4-1.7 6.9-5.2 8.5-4.4 2-8.9 3.7-13.5 5.3-2.8.9-3.9 2.2-3.8 5.4.3 8.5.1 8.5 7.9 11.6 3.1 1.2 6.3 2.2 9.3 3.6 4.9 2.2 6.3 5.4 4.8 10.4s-3 10.2-4.2 15.4c-1.4 5.3-3.8 8.3-9.4 7.8zm-100.3 12.7c4.4-.8 8.8-1.4 13.1-2.4 33.1-7.6 53-39.1 43.7-71.4-10.3-35.8-40.5-47.3-72.2-40.6-29.1 6.2-47 34.1-42.6 64.8 4.1 27.4 27.4 48 58 49.6z" fill="#FFFFFF"></path></g></g></svg>