<svg xmlns:xlink="http://www.w3.org/1999/xlink" xmlns="http://www.w3.org/2000/svg" x="0px" y="0px" viewBox="0 0 551.7 575.6" focusable="false" aria-hidden="true" class="classes-experience-1i91nb7" width="551.7"  height="575.6" ><g fill="#FFFFFF"><g fill="#FFFFFF"><path d="M285.3,113.1c-1.3,8.4-2.5,16.5-3.6,24.7c-0.4,2.9-2,3.1-4.4,3.1c-33.3-0.1-67.4,1.5-97.7,17.1c-30.7,15.6-56.4,36.6-73.7,67.1c-17.9,29.4-26.1,54.8-23.6,89.5c2.3,46.3,17.1,92.9,54.8,122.7c18.9,15,39.3,28.6,62.9,34.4c4.1,1,8.9,0.8,12.9-0.3c15.9-4.1,31.7-8.7,47.4-13.5c3.5-1.1,5.5-0.3,7.9,2.3c34.9,38.7,69.8,76.4,104.6,115.3c-31.9-2.4-62.8-5-94.6-7.5c-32.6-2.3-65.6-3.8-97.2-13.3c-11.9-3.5-23.2-9.2-34.7-13.9c-18.9-7.6-35.6-18.8-51.3-31.4c-18.8-15.1-37-31.1-50.4-51.5c-31.2-45-46.2-100-44.4-154.6c0.4-9.9,0.7-19.8,1.2-29.7c0-1.2,0.6-2.3,0.9-3.6c11.7,2.4,23.1,4.8,34.5,7.1c0,5.1,0.3,10.4-0.1,15.6c-2.7,29.8,2.3,59.5,10.8,87.9c22.8,77.7,94.1,134.2,173.8,145c-4.5-7.5-8.5-14.6-12.9-21.4c-0.7-1.1-2.9-1.5-4.5-1.8c-58.9-10.2-106-53.5-130.6-106.8c-13.8-30.4-20.1-61.7-18-95.2C57.5,256.9,69.2,217,98.9,184c15.3-18.5,33.1-34.2,53.8-46.5C188.3,117.1,244.8,107.8,285.3,113.1L285.3,113.1z" fill="#FFFFFF"></path><path d="M393.1,388c-7.2,12.3-14.3,24.3-21,36.4c-1.5,2.6-2.3,5.9-2.4,9c-0.3,9.2,0.1,18.3-0.1,27.5c0,1.5-1.4,3.6-2.8,4.4c-5.6,3.1-11.4,5.8-17.2,8.5c-1.6,0.7-3.5,1.2-5.3,1.2c-16.5-0.4-33-0.8-49.4-1.4c-1.4,0-3.3-0.4-4.2-1.3c-5.1-5.8-10-11.8-15.5-18.3c28.4-8.2,56-16.2,84.3-24.5c-8.5-11.3-16.6-22.1-24.7-33c-2.1-2.8-4.1-5.7-5.8-8.7c-0.6-1.1-0.4-3.2,0.3-4.3c12.8-20.4,14.5-42.6,8.8-65.2c-4.3-17.1-15.6-29.6-30-39.6c-36-25.1-89.1-8.5-105.3,35.4c-26.7,72.5,59.3,129.4,116.3,78.7c7.1,9.8,13.9,19.2,21.3,29.4c-28.4,8.7-55.8,16.9-84.1,25.6c-6.6,2-12.6,1.9-19.1-0.8c-39.8-16.2-64.3-46-78-85.8c-1.3-3.9-0.1-6.4,3.4-7.6c5.2-1.7,5.9-5.5,6.3-10.2c3.1-51.4,28.8-97.9,82.8-107.6c42.1-8.2,74.2,9.9,99.6,42.6c6.4-4.7,13.2-9.2,19.5-14.5c17.3-14.4,36.8-24.6,57.7-32.7c28.8-11,57-23.6,85.7-34.8c0.3,0.4,0.6,0.7,0.9,1.1c-2.7,2.9-5,6.1-8,8.7c-40.9,36.1-81.7,72.3-122.8,108c-5,4.3-5.9,9.2-6.2,14.7c-0.8,13.7-1.5,27.4-2,41.2c-0.1,1.9,1.1,4.4,2.5,5.7C383.1,379.7,387.9,383.5,393.1,388L393.1,388z" fill="#FFFFFF"></path><path d="M106.8,371.9c4.2-9.3,8.8-18,12.3-27.2c9.9-26.1,16.8-53.7,28.1-79.2c33.3-75.2,87.3-108,169.2-106.5c6.6,0.2,13.1,0.4,19.7,0.3c1.5,0,3.4-0.8,4.3-1.9c4.9-5.7,9.4-11.6,14.2-17.3c1.5-1.8,3.4-3.7,5.5-4.4c43.9-15.4,87.4-31.4,131.6-46.2c-30.2,43.6-60.1,86-89.6,129.7c-1.5,7-6.9,10.4-12.2,14.1c-11.9,8.1-23.5,17.1-35.6,24.9c-8-6.9-15.3-14.1-23.5-20.2c-33.6-24.4-83.1-25.1-118-3.3c-42.9,27.5-49.3,64.1-58.8,110.5c-0.3,1.3-1.3,2.9-2.4,3.5c-14.3,7.8-28.8,15.4-43.2,23C108.1,371.9,107.7,371.8,106.8,371.9L106.8,371.9z" fill="#FFFFFF"></path><path d="M328.5,342.7c2.8,29.7-24.4,55.7-53.2,57.2c-44.2,4.1-75.9-41.7-57.3-81.9c9.5-23.2,27.9-33.8,52.1-36.2C300.7,278.8,331.4,309.2,328.5,342.7L328.5,342.7z M272.1,362c11.5,0,20.7-9.1,20.7-20.6c-0.5-27.5-40.6-28-41.6-0.4C251.2,352.8,260.3,362,272.1,362z M278.1,309.4c-0.2,4.1,0,3.8,4.9,6.5c4,2.2,7.1,2.5,10.4-1.1c3.3-3.9,15.8-8.3,6.6-13.1c-5.4-3.1-11-5.8-16.6-8.5c-2.7-1.3-4.3-0.6-4.4,2.8C278.8,299.9,278.5,303.9,278.1,309.4L278.1,309.4z" fill="#FFFFFF"></path><path d="M385,433.7c33.7,15.3,67.5,30.6,101.6,46c-18.1,26.2-36.1,52.2-54.2,78.3c-29.4-20.8-58.5-41.3-88.4-62.4c2.3-1.2,3.6-2.1,5.1-2.7c9.5-4,19-8.2,28.6-12c4-1.6,5.5-3.8,5.4-8.2c-0.3-12.6-0.1-25.3-0.1-37.9L385,433.7L385,433.7z" fill="#FFFFFF"></path><path d="M377.8,108.2c11.5-15.7,22.1-30.4,33-45c1.1-1.5,3.1-2.4,4.9-3.2c45-19.9,90.1-39.8,136-60.1c-12.4,20.3-26.6,39.3-39.5,59.3c-2.7,4.1-5.9,6.9-10.7,8.4C460.1,81,419.3,95.3,377.8,108.2L377.8,108.2z" fill="#FFFFFF"></path><path d="M294,57.7c-2,13.2-4,25.5-5.9,38h-74c-1.7-10.4-3.6-21.3-5.2-32.3c-0.1-1,1.4-3,2.4-3.2c4.9-1.1,9.9-2.1,14.9-2.3c15.5-0.9,31-1.6,46.5-1.9C279.4,55.8,286.2,57,294,57.7L294,57.7z" fill="#FFFFFF"></path><path d="M134.9,86.7c6.3,11.3,12.1,21.6,18.2,32.5c-10.4,6.4-20.9,12.9-32.2,19.8c-6.9-7.6-13.7-16.1-19.2-24.9c-0.8-1.3-1.1-4.2-0.3-4.9C111.4,100,123.3,93.9,134.9,86.7L134.9,86.7z" fill="#FFFFFF"></path><path d="M199.2,100.3c-11.5,4.3-22.6,8.5-34.2,12.9c-5.3-10.7-10.7-21.5-16.4-32.9c11.9-6.3,24.7-10,37.4-14.3c2.9-1,4.4-0.7,5.2,3.1C193.4,79.5,196.4,89.7,199.2,100.3L199.2,100.3z" fill="#FFFFFF"></path><path d="M51.5,226.3c-3.1,11.2-6.2,21.9-9.1,32.6c-0.8,2.9-2.1,4.2-5.2,3.4c-9.7-2.6-19.4-5.1-29-7.9c-0.9-0.3-2-2.5-1.7-3.5c3.8-11.9,7.7-23.7,11.8-35.4c0.3-0.9,2.9-1.9,3.8-1.6C31.9,217.8,41.5,222,51.5,226.3L51.5,226.3z" fill="#FFFFFF"></path><path d="M85.5,120.2c1.2,0.8,2.4,1.2,3.2,2c7.1,7.5,14.2,15.1,21.3,22.6c1.8,1.9,1.5,3.2-0.3,4.9c-7.1,6.9-13.9,14-21.1,20.8c-0.9,0.9-3.7,1.3-4.6,0.6c-8-6.3-15.8-12.9-23.4-19.6c-2.3-3,1-7.4,3-9.7c6-6.4,12.2-12.8,18.4-19.1C83.1,121.8,84.2,121.1,85.5,120.2L85.5,120.2z" fill="#FFFFFF"></path><path d="M56.8,215.2c-9-5.2-17.8-10.7-27-15.5c-3.8-2-4-4.1-2.1-7.1c3.9-6.2,8-12.2,12.1-18.3c2-3,4.1-6.1,6.6-8.7c1-1,3.8-1.6,4.9-0.9c7.4,4.8,14.6,10,21.9,15c3,2.1,3.7,4.1,1.4,7.6C68.5,196.5,62.7,206,56.8,215.2L56.8,215.2z" fill="#FFFFFF"></path></g></g></svg>