<svg xmlns:xlink="http://www.w3.org/1999/xlink" xmlns="http://www.w3.org/2000/svg" viewBox="0 0 101.62 101.81" focusable="false" aria-hidden="true" class="classes-experience-1i91nb7" width="101.62"  height="101.81" ><path d="M268.8 243.86s-4.5-5.81-6.94-8.81.75-4.32.56-6c-11.62-6.57-21.56-5.25-21.56-5.25s9.94 5.81 12.75 9.37 8.06 15.56 8.06 15.56z" transform="translate(-240.86 -191.17)" fill="#FFFFFF"></path><path d="m22.5 70.69 8.81-6-4.68-6.38-9.75 6 5.62 6.38z" fill="#FFFFFF"></path><path d="M263.73 279.86c-2.62-4.88-2.43-8.25-2.43-8.25l-4.88-5.44c-2.44 3.38-2.81 4.88-2.25 9.75s3.38 16.31 3.38 16.31l5.62.75 5.06-3.93.57-4.5s-2.44.18-5.07-4.69z" transform="translate(-240.86 -191.17)" fill="#FFFFFF"></path><path d="M53.44 28 51 21.38l-.19.44-.18-.44L48.19 28l-2.44 5.75.25.21-.06.17 4.87 3.93 4.88-3.93-.06-.17.25-.21L53.44 28z" fill="#FFFFFF"></path><path d="M271.8 214.8c1.68.75 8.43 6 8.43 6s-.37-.94 1.32-3.19 8.43-13.13 10.12-13.31c1.69.18 8.44 11.06 10.13 13.31s1.31 3.19 1.31 3.19 6.75-5.25 8.44-6 5.43-.57 5.43-.57l3.94-17.23s-10.5 16.13-14.44 15.75-14.38-21.56-14.81-21.56-10.87 21.19-14.81 21.56S262.42 197 262.42 197l3.94 17.25s3.75-.2 5.44.55zM263.73 265.8l-7.5-8.44s-1.87 1.69-.56 3.19a80 80 0 0 1 5.06 6.93c.94 1.5 1.69 2.25 3.38 1.32.86-.48 3.27-2.12 5.58-3.74l.13-.1c.64 1.26 1.47 3.12 1.23 3.84-.62 1.85-3.57 3.56-3.57 3.56s5.07.56 6.38-2.25c1.06-2.27-.69-5.76-1.4-7 1-.75 1.84-1.35 2.15-1.61 1.12-.93.37-2.81.37-2.81zM315.86 272.36s-2.94-1.71-3.56-3.56c-.24-.72.59-2.58 1.22-3.84l.14.1c2.31 1.62 4.72 3.26 5.57 3.74 1.69.93 2.44.18 3.38-1.32a82.16 82.16 0 0 1 5.06-6.93c1.31-1.5-.56-3.19-.56-3.19l-7.5 8.44-11.25-7.13s-.75 1.88.37 2.81c.31.26 1.12.86 2.16 1.61-.72 1.26-2.47 4.75-1.41 7 1.32 2.83 6.38 2.27 6.38 2.27zM295.05 254.55s-1.32.93.18 3.56 6.57 15.75-2.81 19.5c-.26.1-.51.22-.75.34a7.39 7.39 0 0 0-.75-.34c-9.37-3.75-4.31-16.88-2.81-19.5s.19-3.56.19-3.56c-3 5.25-9.57 4.12-9.94 4.68s-4.31 8.44.19 14.82c3.84 5.45 10.7 14.86 12.61 17.48.31.45.51.7.51.7s.2-.25.51-.7c1.91-2.62 8.77-12 12.62-17.48 4.5-6.38.56-14.25.18-14.82s-6.93.57-9.93-4.68zM322.05 271.61s.18 3.37-2.44 8.25-5.06 4.69-5.06 4.69l.56 4.5 5.06 3.93 5.63-.75s2.81-11.43 3.37-16.31.19-6.37-2.25-9.75zM320.92 229.05c-.19 1.68 3 3 .56 6s-6.93 8.81-6.93 8.81l7.12 4.87s5.25-12 8.06-15.56 12.75-9.37 12.75-9.37-9.93-1.32-21.56 5.25z" transform="translate(-240.86 -191.17)" fill="#FFFFFF"></path><path d="m84.75 64.31-9.75-6-4.69 6.38 8.82 6 5.62-6.38z" fill="#FFFFFF"></path><path d="m300 238.75 20.74-15.14-6.18-6.56-22.88 15.8-22.87-15.8-6.19 6.56 20.74 15.14-13.63 9.25 5.82 8.25 16.12-11.53 16.13 11.53 5.81-8.25zm-2.6 4.7-5.63-3.94-5.62 3.94-.75-1.06 5.24-3.67-20.52-14.39.75-1.07 20.9 14.66 20.91-14.66.75 1.07-20.53 14.39 5.24 3.67z" transform="translate(-240.86 -191.17)" fill="#FFFFFF"></path></svg>