<svg xmlns:xlink="http://www.w3.org/1999/xlink" xmlns="http://www.w3.org/2000/svg" x="0px" y="0px" viewBox="0 0 972.56 1005.45" focusable="false" aria-hidden="true" class="classes-experience-874rm2" width="972.56"  height="1005.45" ><path d="m374.2,84.17c9.72,2.72,19.45,5.37,29.14,8.2,3.99,1.17,7.76,3.18,11.8,4.06,14.71,3.2,20.87,14.81,26.46,26.76,5.94,12.71,9.58,26.13,12.45,39.93,4.22,20.26,3.01,39.88-1.98,59.79-6.11,24.4-17.92,45.78-34.92,63.7-32.31,34.07-72,46.96-118.52,37.55-17.34-3.51-32.4-11.45-46.85-21.35-25.13-17.21-38.03-42.42-45.58-70.47-3.77-14-3.57-29.1.15-43.56,2.31-8.98,4.76-18.01,8.23-26.58,4.36-10.79,11.77-19.82,20.66-27.19,13.06-10.82,26.77-20.69,43.13-26.34,18.5-6.39,36.79-6.09,54.48,1.83,23.31,10.43,40.88,27.05,51.03,50.93,5.11,12.01,7.04,24.5.39,36.04-8.01,13.9-15.96,28.4-31.82,35.8.99-4.78,2.23-9.17,2.77-13.63,2.36-19.35-9-31.79-21.64-44.07-18.19-17.67-48.44-13.86-62.16,2.98-8.79,10.78-13.17,24.1-10.49,38.77,3.61,19.79,13.33,35.48,29.64,47.44,20.54,15.06,42.26,14.15,65,6.51,20.34-6.83,35.62-19.9,46.88-37.68,3.76-5.93,5.96-12.95,8.26-19.68,5.33-15.62,7.31-31.85,5.53-48.18-1.68-15.45-6.86-29.88-14.26-43.8-7.4-13.93-17.55-25.27-28.62-36.11.28-.55.56-1.1.84-1.65Z" fill="#FFFFFF"></path><path d="m498.07,866.12c8.05-4.24,16.57-7.06,22.97-12.42,16.95-14.21,27.35-36.7,10.7-58.21-9.32-12.04-22.24-17.76-37.24-16.32-29.14,2.79-43.81,20.27-51.44,47.81-5.82,21.02,1.5,40.14,15.2,56.51,9.03,10.79,19.81,19.54,32.58,26,19.32,9.77,38.89,11.13,59.6,5.05,25.46-7.47,47.55-19.9,64.41-40.68,4.15-5.11,7.45-10.91,11.87-17.47-3.5,21.69-3.88,42.93-16.96,60.67-.99,1.34-1.9,2.79-3.11,3.9-15.22,14-31.96,25.31-52.03,31.57-20.2,6.3-40.75,7.13-61.17,3.6-10.57-1.83-20.82-6.81-30.58-11.65-14.26-7.08-26.86-16.87-37.47-28.75-27.05-30.33-37.18-65.46-28.38-105.49,3.93-17.86,11.36-34.23,24.07-47.5,17.52-18.3,37.72-31.98,64-34.52,12.34-1.19,24.63-2.62,36.66,1.11,17.68,5.47,33.99,13.48,47.16,27.01,9.43,9.69,15.05,21.39,19.13,34.05,5.87,18.22,6.45,36.46-.74,54.34-5.16,12.83-12.63,24.22-24.89,31.61-5.07,3.05-10.19,6.05-15.45,8.76-9.93,5.11-19.91,4.52-29.76-.37-2.38-1.18-4.72-2.47-7.06-3.74-6.38-3.46-11.55-7.88-12.06-14.83Z" fill="#FFFFFF"></path><path d="m657.74,465.22c-1.17-10.54-2.51-21.06-3.44-31.61-.7-7.96-1.27-15.96-1.13-23.93.07-3.77,1.18-7.96,3.11-11.2,10.24-17.23,24.84-30.24,41.46-41.11,5.3-3.46,10.48-7.18,16.06-10.11,19.14-10.05,39.61-14.34,61.16-12.41,11.05.99,22.41,1.53,32.95,4.61,18.36,5.35,35.01,14.81,48.72,28.29,7.03,6.91,13.02,15.11,18.34,23.45,10.24,16.05,15.43,34.19,19.65,52.6,2.22,9.68.67,19.26-1.18,28.69-4.34,22.02-15.43,41.05-30.13,57.3-8.26,9.12-19.88,15.43-30.56,22.08-15.1,9.39-32.38,11.69-49.52,10.1-33.16-3.06-59.34-18.29-74.03-49.23-6.38-13.43-9.07-27.92-2.39-42.5.35-.76.63-1.54.94-2.31,8.19-20.01,8.14-20.11,28.06-28.42,6.68-2.79,13.74-2.65,20.48-.15,1.55.57,2.77,3.18,3.31,5.09,2.2,7.79-3.91,13.33-5.9,20.01-3.39,11.35.11,25.22,9.05,33.27,9.59,8.63,20.45,12.27,33.66,12.25,23.31-.03,36.45-13.87,45.65-32.2,5.94-11.83,6.14-25.18,3.25-38.59-5.22-24.18-18.42-42.07-39.93-53.93-13.22-7.29-27.51-11.02-42.58-10.92-16.5.11-31.91,4.66-46.06,13.16-28.43,17.07-47.08,41.65-56.06,73.56-.32,1.12-.62,2.25-.96,3.36-.09.31-.3.58-.46.87-.5-.02-.99-.04-1.49-.06Z" fill="#FFFFFF"></path><path d="m297.74,443.51c-26.38,15.09-45.48,35.88-58.48,61.78-7.83-3.59-15.29-7.42-23.07-10.49-21.98-8.67-44.7-9.32-67.81-5.8-17.39,2.65-34.37,6.36-49.73,15.44-28.23,16.69-49.18,39.95-62.68,69.83-12.55,27.77-16.86,57.26-18.57,87.39-1.22,21.53,1.57,42.57,6.01,63.47,1.22,5.73,3.72,11.19,5.63,16.78-.42.16-.84.32-1.26.48-4.09-9.76-9.08-19.26-12.11-29.34C6.43,682.32.07,650.98,0,618.75c-.1-45.94,13.28-87.99,38.75-126.06,13.29-19.87,30.12-36.34,50.98-48.43,22.61-13.09,46.1-23.64,72.32-27.39,22.59-3.23,44.81-1.5,66.98,2.98,22.77,4.6,44.82,11.39,65.62,21.9.71.36,1.39.79,3.09,1.76Z" fill="#FFFFFF"></path><path d="m307.98,18.23c13.29-3.92,26.37-8.94,39.92-11.55,31.49-6.07,63.36-8.91,95.36-4.64,19.26,2.57,37.42,9.35,55.16,17.15,28.51,12.55,53.17,30.48,73.14,54.31,7.52,8.97,13.59,19.33,19.33,29.6,10.05,17.99,16.79,37.52,20.69,57.57,2.96,15.2,4.31,31.19,3.2,46.6-1.31,18.27-5.02,36.56-9.51,54.37-5.01,19.85-13,38.8-23.25,56.67-.21.37-.71.57-1.47,1.14-12.53-27.11-31.2-48.72-55.95-64.42,3.98-7.72,8.31-14.96,11.55-22.66,7.32-17.35,11.25-35.39,10.47-54.43-.85-20.86-1.9-41.64-10.17-61.18-13.68-32.32-35.65-57.5-65.95-75.28-22.72-13.33-47.58-20.28-73.34-24.85-23.53-4.18-47.01-4.48-70.59-1.06-2.29.33-4.53,1-6.78,1.59-3.76.99-7.51,2.04-11.26,3.07-.19-.66-.38-1.32-.57-1.98Z" fill="#FFFFFF"></path><path d="m299.02,629.32c6.72,30.51,20.96,57.05,41.18,79.07-6.95,9.59-14.06,18.33-19.99,27.81-12.56,20.06-15.71,42.89-17.88,65.87-3.38,35.7,6.17,68.12,24.35,98.61,15.35,25.75,36.04,45.87,60.98,62.18,20.62,13.49,42.39,24.46,65.84,31.83,14.59,4.59,29.55,8.08,45.08,7.73,1.28-.03,2.56.27,3.94,1.53-5.73.53-11.52,1.83-17.19,1.44-16.24-1.12-32.53-2.28-48.62-4.62-21.31-3.1-41.86-9.18-61.66-17.91-17.39-7.67-32.83-18.18-47.7-29.83-27.72-21.72-49.69-48.21-65.73-79.44-4.83-9.41-8.34-19.63-11.35-29.81-7.32-24.72-11.02-50.12-10.49-75.88.59-28.73,8.78-55.67,21.21-81.48,9.65-20.05,21.01-38.93,35.62-55.77.42-.49.59-1.21.87-1.82.51.17,1.03.34,1.54.51Z" fill="#FFFFFF"></path><path d="m649.43,682.14c27.9-11.49,50.19-29,68.33-52.36,12.46,10.41,26.84,15.88,41.97,19.41,21.93,5.11,43.98,3.51,65.91-.13,35.4-5.87,63.47-24.92,87.58-50.35,16.12-17.01,27.45-37.23,35.8-59.03,8.72-22.77,15.71-46.09,16.65-70.64.41-10.73-.82-21.52-1.34-32.29-.09-1.78-.32-3.55-.48-5.33.47-.09.94-.18,1.41-.27,2.16,9.97,5.54,19.85,6.2,29.92,1.2,18.38,1.3,36.88.93,55.31-.51,25.29-6.93,49.38-17.49,72.29-15.96,34.6-38.3,64.41-68.85,87.41-9.63,7.25-20.48,13.04-31.26,18.54-17.74,9.05-36.74,15.15-56.25,18.51-14.66,2.52-29.78,2.93-44.7,3.13-19.02.25-37.07-5.86-54.97-11.27-16.54-4.99-32.56-11.79-47.27-21.17-.52-.33-.97-.76-2.13-1.68Z" fill="#FFFFFF"></path><path d="m479.02,663.37c-9.96-2.34-19.96-4.54-29.88-7.03-33.83-8.48-60.39-28.46-82.15-54.64-13.43-16.17-23.27-34.82-26.51-56.22-2.79-18.4,6.67-38.51,23.15-47.88,10.3-5.85,20.94-10.81,33.1-11.88,23.03-2.03,49.16,9.88,59.22,33.9,6.76,16.13,3.03,38.67-10.25,52.52-3.98,4.15-9.12,7.17-13.42,11.06-1.62,1.46-3.16,3.82-3.36,5.91-1.96,20.21,6.55,36.44,20.84,49.6,8.75,8.06,18.88,14.61,28.39,21.85.49.38.93.83,1.39,1.24-.17.53-.34,1.06-.51,1.58Z" fill="#FFFFFF"></path><path d="m342.56,441.84c5.13-8.24,10.14-16.56,15.41-24.71,18.84-29.14,46.63-46.74,78.27-58.36,16.46-6.05,34.01-10.04,51.8-8.92,24.6,1.54,48.48,16.26,53.27,44.51,4.1,24.18-.81,44.58-20.55,59.74-30.04,23.05-73.95,8.36-84.72-28.11-1.43-4.84-3.9-6.85-8.47-8.32-19.16-6.16-37.22-3.26-54.39,6.25-10.12,5.61-19.79,12.04-29.66,18.09-.32-.06-.64-.12-.96-.18Z" fill="#FFFFFF"></path><path d="m604.18,424.56c2.3,3.17,4.83,6.15,6.81,9.46,8.12,13.61,15.67,27.65,18.8,43.27,8.09,40.26,1.37,77.76-23.01,111.38-13.91,19.18-39.69,27.41-62.29,19.8-7.81-2.63-15.83-5.58-22.64-10.08-28.52-18.83-30.16-57.38-3.47-78.68,15.47-12.34,33.15-16.68,52.56-11.37,4.25,1.16,6.76-.52,9.8-2.91,21.81-17.13,26.01-40.61,24.22-66.29-.32-4.62-1.05-9.21-1.57-13.82-.01-.09.21-.21.79-.77Z" fill="#FFFFFF"></path></svg>