<svg xmlns:xlink="http://www.w3.org/1999/xlink" xmlns="http://www.w3.org/2000/svg" x="0" y="0" viewBox="0 0 735.94 743.85" focusable="false" aria-hidden="true" class="classes-experience-1i91nb7" width="735.94"  height="743.85" ><path d="m371.02,0c11.93.95,23.86,1.98,35.8,2.82,19.46,1.36,38.78,3.46,57.6,8.94,12.67,3.69,25.72,6.3,38.08,10.81,22.61,8.24,45.09,16.83,65.88,29.39,26.37,15.93,51.84,33.07,74.81,53.62,21.93,19.62,40.91,41.92,56.28,67.07,8.02,13.12,15.85,26.47,22.35,40.38,4.97,10.65,7.77,22.33,11.4,33.59,1.3,4.02,2.22,8.16,2.73,12.48-15.03-29.68-32.42-57.57-56.34-81.04,1.35,2.76,2.46,5.65,4.07,8.24,12.96,20.81,18.12,44.65,26.45,67.27,8.75,23.78,14.05,48.3,16.22,73.44,2.48,28.75,3.32,57.63.57,86.38-2.78,29.06-9.94,57.2-19.95,84.7-8.24,22.65-19.47,43.74-31.22,64.62-17.83,31.68-41.28,58.68-69.2,81.84-6.61,5.48-13.56,10.54-20.8,16.14,3.29,1.35,7.01,3.39,11.01,4.43,18.13,4.72,36.23,7.76,55.27,4.41,19.23-3.38,38.57-.91,57.5,3.64,14.21,3.41,21.4,13.71,19.02,28.78-1.22,7.73-3.89,15.51-7.36,22.55-5.71,11.59-17.25,15.14-28.83,17.45-19.4,3.87-38.46,1.67-57.06-4.74-20.12-6.94-40.4-13.46-60.2-21.24-12.03-4.73-23.3-11.43-34.85-17.38-4.62-2.38-8.29-3.46-14.06-1-15.31,6.54-31.58,10.33-48.21,12.45-7.74.99-15.34,3.07-23.03,4.47-3.65.66-7.38.9-11.07,1.33-.28-.61-.55-1.22-.83-1.84,1.48-1.12,2.81-2.58,4.47-3.31,18.41-8.07,34.91-19.39,51.67-30.25,1.35-.87,2.53-2.01,4.25-3.39-10.17-7.4-20.69-13.7-29.54-21.83-11.95-10.99-23.3-22.82-33.59-35.36-6.86-8.37-11.51-18.57-16.97-28.05-1.14-1.97-1.85-4.34-2.18-6.61-3.26-23.08-14.24-43.14-24.83-64.27,27.24-4.96,54.35-10.75,79.56-26.66,0,8.49.64,15.94-.14,23.24-1.26,11.78-3.72,23.34-9.69,33.9-.94,1.66-.86,4.78.08,6.49,4.25,7.7,8.51,15.47,13.61,22.61,14.27,19.93,31.28,37.18,51.87,50.69,1.81,1.18,3.92,2,5.48,3.43,7.21,6.56,14.15,5.46,21.19-.25,14.61-11.85,30.75-22.24,43.48-35.83,13.08-13.97,24.3-30.21,33.79-46.91,22.64-39.87,37.03-82.9,44.34-128.24,4.02-24.94,1.98-49.78-.05-74.73-2.33-28.65-6.68-56.93-14.18-84.66-4.48-16.57-9.99-32.81-19-47.66-4.4-7.26-7.46-15.4-12.37-22.25-10.45-14.59-21.71-28.61-32.66-42.85-13.61-17.72-31.32-30.47-49.77-42.71-16.16-10.72-33.26-19.24-51.52-24.96-31.69-9.93-63.01-21.57-96.82-23.1-29.75-1.35-58.96,1.5-87.44,10.02-16.72,5-33.89,9.72-49.25,17.67-16.12,8.34-31.21,19.34-45.16,31.07-21.39,17.98-42.4,36.56-58.82,59.64-16.18,22.73-31.09,46.19-41.5,72.14-3.75,9.35-5.65,19.47-8.02,29.33-6.58,27.43-6.04,55.17-2.21,82.81,3.52,25.38,11.41,49.35,27.73,69.78,9.93,12.43,22.38,21.6,37.69,25.83,6.38,1.76,13.55.84,20.35.87,27.47.12,53.85,5.95,79.65,14.96,5.97,2.08,12.02,3.95,18.07,5.8,23.67,7.26,42.55,21.64,59.06,39.58,4.61,5.01,9.42,9.84,13.83,15.01,14.77,17.32,20.54,38.14,22.74,60.2.97,9.77,1.1,19.63,1.85,29.43,1.72,22.45-7.31,41.13-21.32,57.46-13.14,15.3-28.45,28.26-48.39,34.07-8.43,2.46-17.11,5.11-25.78,5.54-21.31,1.04-42.74.88-63.42-5.58-22.78-7.11-44.61-16.53-66.05-27.06-27.68-13.59-50.97-32.56-71.17-55.51-14.16-16.08-28.35-32.19-41.52-49.07-12.6-16.14-21-34.89-28.43-53.86-5.4-13.78-10.06-27.95-13.74-42.28-3.16-12.29-4.64-25.04-6.56-37.63-1.65-10.79-2.83-21.66-4.32-32.48-.19-1.42-.94-2.76-1.43-4.13,0-21.67,0-43.34,0-65.01.6-2.36,1.45-4.7,1.76-7.1.68-5.25.96-10.55,1.62-15.8,1.48-11.81,2.55-23.72,4.84-35.38,1.82-9.27,4.88-18.34,7.96-27.3,10.03-29.12,20.66-58.17,39.34-82.99,12.87-17.1,27.48-32.94,41.95-48.77,24.69-27.01,52.72-50.15,83.58-69.84,24.99-15.95,50.38-31.01,78.64-40.75,22.12-7.62,44.28-14.86,67.6-17.81C336.2,2.2,345.11,1.11,354.02,0c5.67,0,11.33,0,17,0Zm-72.42,581.38c.1-21.41-17.84-39.56-39.35-39.8-21.63-.25-40,17.9-40.06,39.58-.06,21.64,18.23,39.94,39.84,39.86,21.43-.08,39.47-18.16,39.58-39.63Z" fill="#FFFFFF"></path><path d="m446.7,123.2c-15.73-3.17-28.75,3.57-41.33,11.32-12.56,7.74-18.87,24.36-16.47,39.52,2.89,18.27,12.56,32.85,24.35,46.17,11.33,12.8,25.18,22.68,39.53,31.92,22.25,14.33,40.78,32.38,52.07,56.65,3.74,8.04,6.42,16.95,7.65,25.73,3.53,25.16,2.22,49.66-10.5,72.85-6.86,12.51-15.53,23.03-25.58,32.91-9.78,9.61-19.19,19.56-31.98,25.19-14.42,6.35-28.44,13.91-44.73,14.83-5.45.31-10.87,1.54-16.25,2.59-25.16,4.91-48.16-2.07-70.57-12.56-20.43-9.56-35.5-25.45-50.37-41.78-17.25-18.94-25.7-41.81-30.72-66.22-3.59-17.45-5.96-35.11-5.71-53.04.29-20.8,3.92-40.94,9.54-60.99,8.43-30.13,24.45-56.1,42.75-80.73,14.22-19.15,32.73-34.06,52.69-47.06,19.84-12.92,41.8-19.62,65.26-21.24,15.41-1.06,28.96,5.45,41.94,12.69,3.78,2.11,6.29,6.51,9.37,9.86-.31.46-.62.91-.93,1.37Zm-97.92,17.4c-2.96,2.12-5.52,3.55-7.6,5.49-12.02,11.25-24.74,21.91-35.71,34.11-23.1,25.7-39.96,54.19-42.31,90.37-1.71,26.4,2.44,51.61,9.52,76.37,5.29,18.48,18.04,33.34,31.33,46.94,6.62,6.77,14.79,12.41,23.11,17.06,17.48,9.76,36.9,12.64,56.64,14.54,22.27,2.14,42.01-3.57,60.65-15.44,13.64-8.69,21.36-21.83,28.15-35.53,10.56-21.31,11.11-42.48-3.1-62.87-10.13-14.54-20.12-29.1-35.99-38.19-8.82-5.05-17.64-10.09-26.47-15.13-8.79-5.02-18.23-7.04-28.33-6.26-9.56.73-19.32,8.87-19.29,17.83.04,14.25,2.06,28.1,11.37,40.04,12.26,15.73,28.77,24.88,47.31,29.95,11.84,3.24,23.45.87,28.67-11.51,2.36-5.59,2.87-11.96,4.06-17.29.95,1.55,2.71,4.31,4.37,7.12,3.82,6.47,2.58,17.28-2.19,23.01-12.46,14.96-29.27,19.74-47.2,16.63-21.4-3.71-41.49-11.87-58.34-26.63-18.15-15.9-29.4-35.7-33.49-59.23-1.14-6.55-.62-14.55,2.19-20.41,8.32-17.32,33.14-36.11,57.92-23.37,2.34,1.2,4.95,1.87,7.44,2.79.31-.33.63-.67.94-1-24.9-24.27-32.85-54.87-33.63-89.36Z" fill="#FFFFFF"></path><path d="m634.11,311.04c0,27.72-20.89,48.54-48.68,48.53-26.24-.01-47.92-22.05-47.9-48.7.01-26.56,21.93-47.98,49.08-47.96,26.57.01,47.51,21.23,47.51,48.14Z" fill="#FFFFFF"></path></svg>