<svg xmlns:xlink="http://www.w3.org/1999/xlink" xmlns="http://www.w3.org/2000/svg" x="0" y="0" viewBox="0 0 1096 1162" focusable="false" aria-hidden="true" class="classes-experience-1i91nb7" width="1096"  height="1162" ><path d="M901,241.7c-5.5-12.7-11-25.2-17-39.2c4.3,1.5,7.5,2.6,10.8,3.6c7.5,2.4,15.1,4.3,22.5,7.1
		c15.1,5.8,29.8,12.3,43.5,21.3c12.8,8.4,23.9,18.6,32.7,30.9c9,12.7,15,26.9,13.3,43c-0.6,5.8-1.7,11.6-3.2,17.2
		c-1.6,5.9-10,9.3-14.5,6.4c-4.2-2.7-4.4-6.5-0.3-9.3c1.7-1.2,3.8-1.9,6.9-3.4c-1.3-5.3-2.1-11.3-4.2-16.8
		c-7.4-18.4-20.5-32.3-37.3-42.4c-7.5-4.5-16.3-7.1-24.5-10.5c-7.8-3.2-15.7-5.6-25.1-4.1c34.5,55.1,73.7,105.8,124.4,147.1
		c-13.4,2.8-18.1,14.3-13,31.4c-62.6,19.7-125.2,39.4-188.1,59.1c-5.2-12.5-13-23.1-22.3-32.5c-6.9-7-15.5-11.1-24.7-14.4
		c-11.4-4.1-22.7-7.8-35.2-7c-14.7,0.9-27.7,5-37.7,16.4c-8.3,9.5-15.9,19.6-20,31.6c-3,8.9-2.8,18-0.8,27.5
		c1.8,8.4,6.5,14.4,12,20.8c-8.4,3-16.7,5.9-24.9,8.7c-14.4,5-28.9,10.1-43.3,15.1c-6.6,2.2-13.4,3.8-19.8,6.4
		c-4.4,1.7-7-0.1-9.3-3.1c-3.7-4.8-7.4-9.7-10.6-14.9c-0.8-1.3-0.7-4.2,0.2-5.5c6.8-9.4,14-18.5,20.9-27.7
		c4.9-6.5,9.6-13.2,14.5-19.8c7.3-9.7,14.8-19.2,21.9-29c13.1-17.9,25.8-36.1,39-53.9c9.9-13.4,20.6-26.4,30.5-39.8
		c6.5-8.8,12.2-18.1,18.7-26.9c20.4-27.7,40.9-55.3,61.4-82.9c5-6.7,9.9-13.5,15-20.1c0.7-0.9,2-1.8,3-1.7
		c8.9,0.5,17.7,1.1,26.5,1.9c10.1,0.9,20.2,1.5,30.2,3.1C882.2,236.7,891.2,239.4,901,241.7z" fill="#FFFFFF"></path><path d="M253.1,185.4C295,244.2,337,303,378.8,361.6c-16.7,20.7-23.7,44.2-20.8,69.9c2.5,22.8,19.4,46.1,45.2,52.3
		c11.1,2.7,22.1,1.3,33.1-1.3c8.1-1.9,14.8-6,20.5-13.2c5.2,6.5,10.2,12.6,14.9,18.8c11,14.7,21.9,29.4,32.7,44.2
		c0.8,1.2,1.2,3.8,0.5,4.8c-4.3,5.8-8.9,11.4-13.7,16.8c-0.8,0.9-3.1,1.1-4.4,0.7c-23.2-7.6-46.4-15.5-69.6-23.1
		c-16.2-5.3-32.5-10.1-48.7-15.4c-16.1-5.3-32-11.1-48.1-16.4c-21.1-7-42.3-13.7-63.4-20.5c-26.4-8.6-52.7-17.4-79.1-25.8
		c-5.9-1.9-7.6-6.7-9-11.1c-6.1-19.9-11.4-40-10.3-61.2c0.7-13.1,0-26.2,1.3-39.2c1.2-12.4,3.9-24.7,6.4-36.9
		c2.1-10.5,4.3-21,7.6-31.1c1.9-5.9,6.1-10.9,9.1-16.4c8.1-14.7,16.4-29.4,24.2-44.3c3.9-7.5,7-15.3,10.7-22.9c0.4-0.9,3.2-1.6,4-1
		c6,4.1,12.6,2.1,18.7,1.3C244.8,189.9,248.7,187.3,253.1,185.4z" fill="#FFFFFF"></path><path d="M937.7,868.1c-7,10.9-14.4,21.6-21,32.7c-9,15.1-17.7,30.5-25.9,46c-5.3,10.1-9.6,20.8-14.6,31.9
		c-10.4-8.4-20.8-6.9-31.1,0.5c-9.5-13.4-18.9-26.9-28.4-40.2c-20.8-29.3-41.7-58.6-62.5-88c-4.2-5.9-7.9-12-12.5-17.5
		c-2.8-3.3-3.6-6-3-10.4c1.7-13.3-0.6-26.5-7.2-37.9c-6.1-10.6-15.1-19.2-26.9-23.9c-6.4-2.5-13.3-3.7-19.6-6.4
		c-2.7-1.2-4.8-4.3-6.7-6.9c-12.5-17.1-25-34.3-37.4-51.5c-6.5-9-13-18-19.5-27c18.8-13.4,39.2-22.4,60.6-28.6
		c13.3-3.9,26.8-2.7,40.6,2.3c41.7,15,84,28.4,125.8,43.1c6.6,2.3,12.7,7.2,18.1,12c15.9,13.9,27.7,30.9,37.7,49.4
		c4.7,8.7,10.3,17,14.2,26c4.3,9.9,6.9,20.4,10.6,30.6c5.1,14.2,5.6,29,7,43.8c0.6,6.1,1.7,12.2,2.5,18.4
		C938.1,867,937.9,867.5,937.7,868.1z" fill="#FFFFFF"></path><path d="M538.6,378.2c-8-7.3-15.7-15-24.2-21.7c-12.7-10.2-27.8-16.2-43.6-19.1c-12.1-2.2-24.7-2.7-37-2
		c-14.3,0.8-27.7,5.8-39.4,14.4c-1,0.8-2.2,1.4-3.3,2.1c-42.3-58.1-84.6-116.1-126.9-174.1c11-11.4,14.5-16.1,8.8-31.3
		C359.9,138,440,109.8,515,66c0.8,15.8,11.9,20.8,25.5,21.3c0.1,0.9,0.2,1.9,0.2,2.8c0,95.1,0,190.3-0.1,285.4
		c0,0.8-0.1,1.7-0.1,2.5C539.9,378.1,539.2,378.2,538.6,378.2z" fill="#FFFFFF"></path><path d="M1043.8,456.7c-1.4,6.3-2.9,12.5-4.1,18.9c-2.1,11.1-4.7,22.2-5.7,33.4c-1.7,17.7-2.8,35.5-3.1,53.3
		c-0.2,15.9,1,31.8,1.8,47.7c0.5,10.5,1,21,2.2,31.4c1.7,14,4,28,6.4,41.9c1.7,9.6,3.9,19,6.1,29.1c-4,0-8-0.6-11.8,0.1
		c-7.6,1.4-12.7,6.3-14.7,13.7c-1,3.5-2.5,3.7-5.3,2.7c-14.8-5.2-29.5-10.4-44.3-15.4c-10.4-3.5-20.8-6.7-31.3-10.1
		c-7.8-2.5-15.6-4.8-23.2-7.8c-3-1.2-5.9-3.5-8-5.9c-12.7-14.5-26.8-27.4-42.2-38.9c-17.1-12.7-36.4-21.6-55.6-30.3
		c-7-3.1-14.5-4.9-22.8-7.6c34.1-31.5,50.1-69.5,43.3-116.9c2.1-0.6,4.8-1.4,7.4-2.2c19-6.2,38-12.3,56.9-18.5
		c11.6-3.9,23.1-8.1,34.7-12c15.1-5.1,30.3-9.9,45.4-14.9c12.8-4.3,25.6-8.5,38.2-13.1c4.2-1.5,5.7,0,6.4,3.5
		c1.6,8.6,7.4,13.6,15,16.7C1037.9,456.2,1040.8,456.2,1043.8,456.7z" fill="#FFFFFF"></path><path d="M135.5,839.3c-8-8.9-15.8-18-24.1-26.6c-8.3-8.6-17-16.6-25.6-24.9c-5.3-5.1-10.6-10.2-16.5-15.9
		c15.5-6.7,13.2-19.1,8.8-32.5c64.1-20.4,127.9-40.8,192.2-61.3c-1.8,10-4,18.6-4.7,27.3c-1.5,18.9-0.9,37.8,5.4,55.9
		c2.1,6,6,11.7,10.1,16.7c10.7,13,24.6,22.1,39.8,28.5c8.8,3.7,18.7,5.8,29,3.8c7.6-1.5,15.5-1.4,23.2-1.9
		c-7.1,10.2-14.3,20.5-21.4,30.8c-0.7,1-1.4,1.9-2.1,2.9c-5.6,7.4-11.3,14.7-16.7,22.3c-11,15.4-21.7,31-32.6,46.4
		c-6.2,8.8-12.7,17.4-18.9,26.2c-8.2,11.7-16.2,23.5-24.3,35.2c-1.8,2.6-3.7,5-5.7,7.9c-6.5-5.5-14.1-7.3-22.4-6.8
		c-1,0-2.3-0.2-2.9,0.3c-5.2,3.9-6.4,0.2-8.4-3.8c-7.9-15.9-15.8-31.8-24.3-47.4c-5.4-10.1-11.6-19.7-17.7-29.4
		c-3.5-5.4-7.6-10.4-11.4-15.7c-4.5-6.3-9-12.7-13.5-19.1c-1-1.3-2.1-2.6-3.1-3.9c-2-2.6-4-5.2-6.1-7.9c-0.7-0.7-1.3-1.4-2-2.1
		c-0.3-0.3-0.6-0.7-1-1C137.5,842,136.5,840.7,135.5,839.3z" fill="#FFFFFF"></path><path d="M274.4,1010.3c2.3-11.3-5.2-16.8-13-22.5C335.8,885.7,410,783.7,484.3,681.6c8.2,3.6,13.1,9.5,17.3,15.6
		c9.3,13.4,16.3,28.1,21.1,43.7c6.3,20.3,10.5,40.9,6.1,62.4c-2.7,13.3-4.3,27-8.3,39.9c-4.7,15.1-10.3,30.2-17.6,44.2
		c-7.1,13.5-16.7,25.8-25.7,38.2c-16.5,22.6-38.9,38.5-62.5,52.8c-4.2,2.5-7.9,5.9-12.3,7.8c-7.6,3.4-15.4,6.4-23.4,9
		c-11.8,3.9-23.7,7.5-35.7,10.8c-5.3,1.4-10.9,2-16.4,2.3c-16.5,1-33,1.6-49.5,2.4C276.7,1010.6,276,1010.5,274.4,1010.3z" fill="#FFFFFF"></path><path d="M558,863.1c8.4,7,16.2,14.9,25.3,20.8c12.6,8.2,26.7,14.2,41.6,17c24.6,4.6,49,4.8,71.8-7.6
		c11.7-6.4,21.4-15.1,28.1-26.8c2.6-4.5,5.6-8.8,9-14.1c33.6,44.6,66.8,88.7,100.4,133.3c-10.3,7.9-19.7,16.4-13.4,31.8
		c-86.2,6.8-165.4,34.3-239.5,78.7c-1-6.2-2-11.8-9-12.8c-5.3-0.8-10.5-1.8-16.3-2.9c0-0.4-0.2-1.7-0.2-3c0-70.7,0.1-141.4,0.1-212
		c0-0.7,0.1-1.3,0.1-2C556.6,863.2,557.3,863.2,558,863.1z" fill="#FFFFFF"></path><path d="M50.4,454.2c7.2,0.3,14.1-1.6,19.1-7.5c2.2-2.7,3.9-6.1,5-9.5c1-3,1.6-3.4,4.8-2.3
		c12.3,4.3,24.7,8.2,37.1,12.2c5.2,1.7,10.8,2.7,15.4,5.4c2.4,1.4,3.5,5.5,4.8,8.5c4.9,11.2,9.5,22.5,14.3,33.7
		c7,16.2,17.4,30.3,28.6,43.8c15,18.1,31.5,34.7,50.5,48.6c14.8,10.9,30.7,20.1,47.6,27.4c8.8,3.9,17.8,7.3,26.8,11
		c1,0.4,1.8,1.3,3.1,2.3c-4.5,5.2-9.1,10.4-13.6,15.6c-3.7,4.2-7.1,8.7-10.9,12.7c-2,2.1-4.6,4.1-7.3,5
		c-38.8,13.5-77.7,26.9-116.6,40.2c-17.8,6.1-35.7,11.9-53.5,17.9c-8.6,2.9-17,6-25.6,9c-1.5,0.5-3.1,0.9-4.9,1.3
		c-1.7-14.7-12-18.3-24-19C70.3,624.8,67.5,539.7,50.4,454.2z" fill="#FFFFFF"></path><path d="M554.8,86.5c5.3-0.7,10.7-1.1,15.9-2.3c5.9-1.4,9.2-5.9,11.1-11.5c0.3-0.9,1-1.6,1.6-2.4
		c74.3,44.1,155.4,66.3,240.8,74.8c-6.6,9.4-7.2,23.1,5.5,30.1c3,1.6,4.3,3.4,1.3,6.5c-2.4,2.4-4.2,5.3-6.2,8
		c-1.9,2.5-4.2,3.5-7.6,3.5c-19-0.2-38-0.4-57,0.3c-7.4,0.3-14.8,2.4-22,4.3c-13.8,3.6-27.7,7.1-41.1,11.8
		c-8.1,2.8-15.6,7.5-23,11.9c-14.7,8.8-29.4,17.6-43.7,27.1c-5.3,3.5-9.2,9-13.9,13.5c-6.9,6.7-14.5,12.8-20.8,20
		c-8.4,9.6-16.5,19.6-23.7,30.2c-5.6,8.1-9.6,17.2-14.3,25.9c-0.5,0-1-0.1-1.5-0.1c-0.1-30.8-0.2-61.5-0.2-92.3
		c-0.1-27.3,0.1-54.5-0.2-81.8c-0.2-19-1-38.1-1.5-57.1C554.3,100,554.6,93.2,554.8,86.5z" fill="#FFFFFF"></path><path d="M794.8,229.5c-2.3,2.8-4.1,4.7-5.6,6.8c-9.6,13.3-19.2,26.6-28.9,39.9c-15.5,21.3-31.1,42.4-46.6,63.7
		c-9.9,13.7-19.5,27.6-29.4,41.2c-13.2,18.1-26.7,35.8-39.8,54c-11.8,16.3-23.2,33-34.9,49.4c-8.1,11.4-16.3,22.6-24.6,33.9
		c-3.2,4.3-4.5,4.2-6.4-0.7c-4.9-12.1-9.1-24.6-9.8-37.7c-0.8-13.9-2-28-0.7-41.7c1.2-14.1,4.4-28.2,8.2-41.9
		c7.5-27.4,20.4-52.6,38.1-74.7c10.6-13.2,23.2-24.9,35.9-36.2c10.1-9,21.1-17.2,32.5-24.5c12.1-7.9,25.3-14,39.5-17.9
		c10.6-2.9,21-6.8,31.6-9.7C766.6,229.7,779.9,228.3,794.8,229.5z" fill="#FFFFFF"></path><path d="M181.5,469.7C282,502.3,381,534.3,481.7,566.9c-8.8,4.8-16.3,9.5-24.3,13.2c-11.4,5.2-23,9.9-34.7,14.5
		c-8.2,3.3-17,4.1-25.7,4.6c-3.8,0.2-7.5,0.7-11.3,0.9c-20.3,1.1-39.8-3.4-59.3-8.4c-17.6-4.6-33.7-12.4-49.8-20.6
		c-11.2-5.7-22.2-11.8-31.6-19.9c-10.4-8.9-20.3-18.5-29.3-28.8c-8.3-9.5-15.6-20.1-22.6-30.6C188.8,485.2,185.7,477.8,181.5,469.7z
		" fill="#FFFFFF"></path><path d="M541.5,1079.9c-10.7,1.8-23.5-1.3-28.1,13.7c-42.4-25.5-88.4-42-135.9-56.4c9.8-4,18.8-7.9,28-11.3
		c16.6-6.3,32.2-14.7,46.9-24.6c6.7-4.6,13-10,19.1-15.4c11.4-10.3,22.8-20.6,33.7-31.3c9.4-9.3,16.2-20.7,22.6-32.2
		c3.6-6.5,7.1-13.2,11.2-20.9c1,2.1,2.4,3.7,2.4,5.3C541.5,964.3,541.5,1021.9,541.5,1079.9z" fill="#FFFFFF"></path><path d="M699.5,804.3c7.4,11.1,4.4,33.2-4.9,43.8c-12,13.6-26.6,21.4-44.8,20.1c-13.9-1-28-2.8-40.1-10.5
		c-10.7-6.8-20.1-15.1-27-26.1c-8.1-12.8-13.1-26.3-14-41.4c-0.3-5.9-2.4-11.9-1.6-17.5c1.7-12.5,4.5-24.8,7.3-37.1
		c1.4-5.9,3.6-11.8,6-17.4c6.3-14.9,18.1-25.6,29.1-36.9c1.9-2,2.5-1.1,3.8,0.9c9.6,13.9,19.4,27.6,29.3,41.3
		c7.6,10.6,15.4,21.1,23.1,31.7c-4.7,2.2-10.1,3.7-14,6.8c-6,4.9-11.7,10.5-16.4,16.7c-4.9,6.5-7.8,14-7.7,22.6
		c0.3,14.7,11.1,30,25.7,34.6c12.4,3.9,23.6,2.9,33.8-4.6c3.6-2.7,6.4-6.9,8.4-11c1.7-3.5,1.5-7.9,2.3-11.8
		C698,807.1,698.7,806.1,699.5,804.3z" fill="#FFFFFF"></path><path d="M475.7,670.2c-20.5,27.7-40.7,54.9-60.9,82.1c-0.4-0.2-0.8-0.3-1.2-0.5c0.9-9.4-1.5-18-5.8-26.2
		c-9.8-18.5-29.3-26.9-49.6-23.9c-8.7,1.3-15.1,5.3-19.9,11.6c-4.9,6.5-7.5,14.2-7.7,22.5c-0.2,6.8,0.3,13.4,3.8,19.4
		c5.1,8.6,12.8,12.9,22.6,13.8c2.3,0.2,4.7,0,7.5,1.2c-2.7,1.3-5.4,3.6-8.1,3.6c-7.7,0-15.9,0.6-22.8-2c-15.6-6-27.4-17.2-31.3-33.8
		c-2.7-11.2-2.1-23,0.5-34.6c2.9-13.3,8.1-25.5,17.4-35.3c4.6-4.8,10.3-8.9,16.3-11.8c11-5.4,22.2-10.6,33.8-14.2
		c13.3-4.2,27.2-4.6,41.4-3.3c19.3,1.7,35,11.3,51,20.6C467.5,662.2,471.4,666.6,475.7,670.2z" fill="#FFFFFF"></path><path d="M796.8,507.6c-0.5,12.8,0.5,24.6-3.3,36.7c-5.9,18.7-17.2,32.3-33.5,42.2c-8,4.9-15.5,10.7-25.2,12.1
		c-3.2,0.4-6.4,1.3-9.6,1.5c-15.1,1.3-30.2,0.5-45-2.2c-9.4-1.7-18.5-5.3-27.3-9.2c-8.9-3.9-17.5-8.8-25.7-14
		c-4-2.5-7-6.6-10.7-10.4c25.8-8,50.3-15.7,74.8-23.3c5.5-1.7,10.9-4.3,16.5-5.1c4.3-0.6,8.9,0.5,13.3,1.4
		c15.5,3.1,37.2-1.8,43.8-18c0.4-1,1.6-2.1,2.7-2.4C777,513.7,786.6,510.8,796.8,507.6z" fill="#FFFFFF"></path><path d="M514,522.5c-10-14-19.2-26.7-28.3-39.5c-6.2-8.8-12.3-17.7-18.2-26.7c-0.9-1.4-1.1-3.8-0.8-5.5
		c3.8-20.3-0.9-37.3-21-48.3c-4.3-2.3-10.2-1.6-15.3-2.4c-1.5-0.2-3.6-0.4-4.3-1.4c-3.8-4.9-7.3-10.1-10.8-15.1
		c9.7-10.5,21.1-11.4,33.9-9.8c8.2,1.1,16.8,0.1,24.4,4c7.9,4,16,8,23.1,13.1c14.8,10.8,25.6,25,30.1,42.9
		c4.2,16.7,6.3,33.7,1.1,50.7c-1.9,6.3-4,12.6-6.2,18.7C519.5,509.3,516.9,515.3,514,522.5z" fill="#FFFFFF"></path><path d="M937.7,868.1c0.2-0.6,0.4-1.1,0.6-1.7c1.5-1.1,3.4-1.8,4.4-3.2c9.4-12.9,18.7-25.9,28.4-39.4
		c0.6,2,1.5,3.5,1.6,5.1c0.9,12.5,2.2,25,2.4,37.5c0.4,19.7-2.9,38.9-8.7,57.7c-5.5,17.8-11.9,35.2-23,50.3
		c-6.8,9.2-14.5,17.8-26.4,21.1c-15.9,4.4-18.3,1.6-28.3-10.4c-1.3-1.6-2.4-3.6-2.9-5.6c-0.7-3.1-0.1-6.2,3.4-7.1
		c3.1-0.8,5.8-0.2,6.5,4c0.8,4.3,5.5,5.8,10.2,4.2c7.8-2.7,12.9-8.8,17.3-15c9-12.8,14.3-27.3,15.4-43.1c0.9-12.5,2-25,2.1-37.5
		C940.9,879.3,938.8,873.7,937.7,868.1z" fill="#FFFFFF"></path><path d="M1023.3,772.5c-19.3,14.8-36.1,32.1-51.7,51.9c-6.6-41.6-22.6-77.9-45.1-111.7c0.3-0.4,0.6-0.8,0.9-1.2
		c6.5,2,13.1,3.9,19.6,5.9c11.9,3.6,23.8,7.2,35.6,10.9c10.4,3.3,20.9,6.6,31.2,10.1c0.8,0.3,1.4,2.3,1.3,3.5
		c-0.3,2.4-1.1,4.7-1.7,7c-2.5,9.8,0.9,17.2,9,22.8C1023,771.9,1023.2,772.4,1023.3,772.5z" fill="#FFFFFF"></path><path d="M123.8,340.5c-5.6,16.6-3.4,33.5-2.8,50.1c0.5,14,4.6,27.8,7.1,41.7c0.3,1.4,0.8,2.9,0.6,4.3
		c-0.1,0.8-1.5,2.3-1.9,2.2c-15.3-4.5-30.5-9.2-45.8-13.9c-0.9-0.3-1.6-1-2-1.3c0.9-4.5,2.2-8.7,2.5-13c0.5-7.1-2.6-12.6-9.1-15.9
		c-2.7-1.4-2.3-2.8-0.5-4.5c11.8-11.4,23.6-22.8,35.5-34.1C112.7,351,118,346,123.8,340.5z" fill="#FFFFFF"></path><path d="M58.3,727.8c3,8.6,5.8,16.6,8.8,25.3c-8.7,1.4-17,2.7-25.2,4c-9.8,1.5-18.6,5.4-27.2,10.3
		c-2.3,1.3-6.1,1.7-8.4,0.7c-3.6-1.5-5.4-5.3-4.7-9.5c0.7-4,4-5.8,7.2-6.2c12.1-1.8,22.7-7.3,32.8-13.7
		C47.1,735.3,52.3,731.7,58.3,727.8z" fill="#FFFFFF"></path><path d="M1038,436.4c-2.6-6.9-5.2-13.6-7.8-20.3c-1.4-3.6,0.5-4.5,3.6-5c8.4-1.3,17-2,25.3-4.2
		c6.5-1.7,12.6-5.1,18.9-7.9c0.9-0.4,1.5-1.5,2.4-1.7c3.5-0.6,7.7-2.2,10.5-1c2.2,0.9,3.8,5.7,3.6,8.6c-0.2,4.6-4.3,7.3-8.5,8
		c-16.5,2.6-29.8,11.3-43,20.5c-0.7,0.5-1.2,1.1-1.9,1.6C1040.2,435.6,1039.3,435.9,1038,436.4z" fill="#FFFFFF"></path><path d="M1037.5,727.7c13.5,11.1,28,19.3,43.9,24.7c1.1,0.4,2.1,0.7,3.2,0.8c6.9,0.6,8.6,2.2,8.1,8.8
		c-0.2,2.4-1.4,5.8-3.1,6.6c-2.3,1-6.2,0.9-8.3-0.5c-11.8-7.5-24.7-11.1-38.5-11.9c-4-0.2-8-1-11.9-2.2c-1-0.3-2.1-3-1.7-4.2
		C1031.6,742.5,1034.5,735.4,1037.5,727.7z" fill="#FFFFFF"></path><path d="M67.9,412.7c-2.7,7.4-5.1,14.6-7.9,21.6c-0.3,0.7-3.1,1.3-3.7,0.8c-11.8-9.7-25.6-15.9-39.7-21.4
		c-3.5-1.4-7.8,0.1-10.9-3.5c-2.1-2.5-3.1-8.9-1-11.6c2.5-3.3,5.4-4.8,10.1-1.8c13.2,8.3,27.3,14.1,43.2,14.5
		C61.2,411.3,64.2,412.1,67.9,412.7z" fill="#FFFFFF"></path><path d="M562.1,72.8c-9.2,0-17.7,0-26.8,0c1.7-6.8,3.3-13.3,5-19.6c3.1-11.9,4.9-23.8,1.5-36c-0.9-3.3-0.6-7-0.1-10.4
		c0.4-3.5,3.1-4.7,6.5-4.6c4,0,6.7,1.4,7.4,5.5c0.3,2.1,0.4,4.4-0.1,6.5c-3.9,18.4-1.2,36.2,4.3,53.8
		C560.3,69.4,561.2,70.9,562.1,72.8z" fill="#FFFFFF"></path><path d="M259.2,161.7c-7,5.3-13.6,10.3-20.4,15.5c-4.5-16.2-12.7-29.8-22.2-42.7c-2-2.8-5.5-4.6-7.2-7.5
		c-1.5-2.5-2.7-6.2-2-8.9c0.5-2.1,3.8-4.2,6.2-4.9c3.9-1,6.1,1.9,7.9,5.2c3.9,7,7.1,14.6,12.1,20.6c5.4,6.5,12.6,11.4,19,17
		C254.6,157.9,256.6,159.6,259.2,161.7z" fill="#FFFFFF"></path><path d="M847.6,167.3c-2-1.7-3.9-3.6-6.1-4.9c-2.9-1.6-1.9-2.9-0.1-4.3c3.9-3,7.9-5.9,11.7-9
		c9.9-7.8,17.5-17.4,22.7-28.9c1.8-4,3.8-8.2,9.2-7c2.3,0.5,5.2,2.1,6,4c0.9,2.1,0.7,5.8-0.6,7.6c-4.1,5.4-9.9,9.7-13.4,15.5
		c-6.7,11-12.2,22.8-18.5,34.8c-2.2-1.7-5.3-3.9-8.4-6.2C849.2,168.4,848.4,167.9,847.6,167.3z" fill="#FFFFFF"></path><path d="M768.2,502.2c-0.7-22.8-17.5-28.5-36.8-33.6c4.3-1.8,7.3-3.9,10.5-4.3c16-1.9,30.2,1.8,41.4,14
		c3.1,3.4,6.5,6.7,9.4,10.3c2.3,2.9,1.8,5.8-1.9,7C783.3,498,775.7,500,768.2,502.2z" fill="#FFFFFF"></path><path d="M882.2,1052.8c-2.3-2.1-4.4-3.3-5.5-5.1c-4.2-6.6-7.6-13.7-12.1-20.1c-2.8-3.9-6.8-7.1-10.4-10.3
		c-4-3.5-8.2-6.9-12.5-10.1c-2.3-1.7-2.8-2.6,0-4.6c4.5-3.2,8.6-7.1,12.8-10.7c3-2.6,4.8-2.3,5.9,1.7c3.9,14,11.8,25.8,20.4,37.2
		c1.9,2.5,4.3,4.7,6.7,6.7c3.1,2.5,4.4,6,2.8,9.1C889,1049.1,885.5,1050.4,882.2,1052.8z" fill="#FFFFFF"></path><path d="M257.8,1003.3c-7.4,6.6-15.1,12.6-21.7,19.5c-4.8,5-8.5,11.2-12.5,17c-1.5,2.2-2.5,4.9-4,7.1
		c-2.2,3.1-5.2,4.6-8.9,2.8c-3.8-1.8-5.3-5.8-3.2-9.6c1.9-3.4,4.8-6.3,7.3-9.4c9.1-11.3,16.6-23.4,21.3-37.2c1.7-5.1,3.2-5.5,7.4-2
		C248.1,995.4,252.9,999.2,257.8,1003.3z" fill="#FFFFFF"></path><path d="M535.2,1094.3c8.3,0,16.3,0,23.1,0c-1.5,10.5-3.1,21-4.5,31.6c-0.6,4.7-1.1,9.5-0.9,14.2
		c0.2,4.6,1.3,9.2,1.9,13.9c0.6,4.7-2.8,6.5-6.4,7.1c-4.2,0.7-6.5-2.5-7.4-5.9c-0.7-2.8,0.2-5.9,0.2-8.9c0.2-8.4,1.2-16.9,0.3-25.2
		C540.3,1112.2,537.4,1103.5,535.2,1094.3z" fill="#FFFFFF"></path><path d="M876.6,189c1.2,3.7,2.4,7.1,3.6,10.8c-13,1.3-25.1-0.6-37.2-3c-1.3-0.3-2.6-0.3-3.8-0.8
		c-0.9-0.3-2.3-1.4-2.3-1.5c1.7-2.9,3.5-5.9,5.6-8.5c0.3-0.4,2.7,0.5,3.9,1.2c5.6,3.7,11.9,5.2,18.5,4.6
		C868.6,191.6,872.3,190.1,876.6,189z" fill="#FFFFFF"></path><path d="M752.9,640.1c24.5,1.1,46.9,8.8,68.1,20.6c-0.2,0.6-0.4,1.1-0.5,1.7c-22.7-6.9-45.3-13.8-68-20.8
		C752.6,641.1,752.8,640.6,752.9,640.1z" fill="#FFFFFF"></path><path d="M397.3,430.4c-5-12.6-3.2-23.9,5.4-35.1c2.6,3.4,5,6.4,7.2,9.4c0.4,0.6,0.7,2.1,0.3,2.5
		c-5.6,6.5-9.1,14-11.6,22C398.5,429.6,397.9,429.9,397.3,430.4z" fill="#FFFFFF"></path><path d="M554.8,86.5c-0.2,6.8-0.5,13.5-0.7,20.3c-0.5-1.6-1.3-3.2-1.3-4.8c-0.2-4.3-0.2-8.6,0-12.8
		C552.8,88.2,554.1,87.3,554.8,86.5z" fill="#FFFFFF"></path><path d="M135.5,839.3c1,1.4,2,2.7,3,4.1C137.5,842,136.5,840.7,135.5,839.3z" fill="#FFFFFF"></path><path d="M147.6,854.3c1,1.3,2.1,2.6,3.1,3.9C149.7,856.9,148.6,855.6,147.6,854.3z" fill="#FFFFFF"></path><path d="M556,338c0.5,0,1,0.1,1.5,0.1c-0.3,1.1-0.6,2.2-0.9,3.3c-0.3-0.1-0.5-0.1-0.8-0.2
		C555.9,340.2,556,339.1,556,338z" fill="#FFFFFF"></path><path d="M349.6,842.2c0.7-1,1.4-1.9,2.1-2.9C351.1,840.3,350.3,841.2,349.6,842.2z" fill="#FFFFFF"></path><path d="M558,863.1c-0.7,0.1-1.3,0.2-2,0.2c0.2-0.6,0.3-1.3,0.5-1.9C556.9,861.9,557.4,862.5,558,863.1z" fill="#FFFFFF"></path><path d="M139.5,844.4c0.7,0.7,1.3,1.4,2,2.1C140.8,845.7,140.2,845,139.5,844.4z" fill="#FFFFFF"></path><path d="M847.6,167.3c0.8,0.5,1.6,1,2.4,1.5C849.2,168.4,848.4,167.9,847.6,167.3z" fill="#FFFFFF"></path><path d="M538.6,378.2c0.6,0,1.3-0.1,1.9-0.1c0,0.4-0.1,0.8-0.1,1.3C539.8,379,539.2,378.6,538.6,378.2z" fill="#FFFFFF"></path></svg>